<svg width="24" height="24" viewBox="0 0 24 24" fill="none" xmlns="http://www.w3.org/2000/svg">
<g id="Bold / School / Square Academic Cap">
<g id="Vector">
<path d="M5 12.9147V16.6254C5 17.6334 5.5035 18.5772 6.38533 19.0656C7.8537 19.8787 10.204 21 12 21C13.796 21 16.1463 19.8787 17.6147 19.0656C18.4965 18.5772 19 17.6334 19 16.6254V12.9148L14.854 14.8585C13.0296 15.7138 10.9705 15.7138 9.14607 14.8585L5 12.9147Z" fill="#3B82F6"/>
<path d="M9.78272 3.49965C11.2037 2.83345 12.7962 2.83345 14.2172 3.49965L20.9084 6.63664C22.3639 7.31899 22.3639 9.68105 20.9084 10.3634L14.2173 13.5003C12.7963 14.1665 11.2038 14.1665 9.78281 13.5003L3.75 10.672V14.5C3.75 14.9142 3.41421 15.25 3 15.25C2.58579 15.25 2.25 14.9142 2.25 14.5L2.25 9.54666C1.73507 8.56352 2.0156 7.14105 3.0916 6.63659L9.78272 3.49965Z" fill="#3B82F6"/>
</g>
</g>
</svg>
