<svg width="24" height="24" viewBox="0 0 24 24" fill="none" xmlns="http://www.w3.org/2000/svg">
<path fill-rule="evenodd" clip-rule="evenodd" d="M12.0002 2.27832C12.4144 2.27832 12.7502 2.61411 12.7502 3.02832V3.70352H15.6961C17.3068 3.70352 18.6637 4.9728 18.6637 6.59131V7.05H20.142V11.35H18.6637V14.4673H5.33676V11.35H3.8584V7.05H5.33676V6.59131C5.33676 4.9728 6.69362 3.70352 8.30431 3.70352H11.2502V3.02832C11.2502 2.61411 11.586 2.27832 12.0002 2.27832ZM5.3584 8.55V9.85H6.83676V12.9673H17.1637V9.85H18.642V8.55H17.1637V6.59131C17.1637 5.85254 16.5306 5.20352 15.6961 5.20352H8.30431C7.46978 5.20352 6.83676 5.85254 6.83676 6.59131V8.55H5.3584Z" fill="white"/>
<path fill-rule="evenodd" clip-rule="evenodd" d="M8.31166 17.6064C6.96055 17.6064 6.11743 18.4885 6.11743 19.285V20.3564H17.8665V19.285C17.8665 18.4885 17.0233 17.6064 15.6722 17.6064H8.31166ZM4.61743 19.285C4.61743 17.4028 6.41528 16.1064 8.31166 16.1064H15.6722C17.5686 16.1064 19.3665 17.4028 19.3665 19.285V21.8564H4.61743V19.285Z" fill="white"/>
<path d="M11.1001 9.1C11.1001 9.70751 10.6077 10.2 10.0001 10.2C9.39263 10.2 8.90015 9.70751 8.90015 9.1C8.90015 8.49249 9.39263 8 10.0001 8C10.6077 8 11.1001 8.49249 11.1001 9.1Z" fill="white"/>
<path d="M15.1001 9.1C15.1001 9.70751 14.6077 10.2 14.0001 10.2C13.3926 10.2 12.9001 9.70751 12.9001 9.1C12.9001 8.49249 13.3926 8 14.0001 8C14.6077 8 15.1001 8.49249 15.1001 9.1Z" fill="white"/>
</svg>
