<svg width="96" height="96" viewBox="0 0 96 96" fill="none" xmlns="http://www.w3.org/2000/svg">
<rect width="96" height="96" rx="16" fill="#FAFBFF"/>
<path d="M69.0866 24.3478V77.2174C69.0866 77.9554 68.7934 78.6632 68.2716 79.185C67.7497 79.7068 67.042 80 66.304 80H24.5648C23.8268 80 23.1191 79.7068 22.5972 79.185C22.0754 78.6632 21.7822 77.9554 21.7822 77.2174V18.7826C21.7822 18.0446 22.0754 17.3368 22.5972 16.815C23.1191 16.2932 23.8268 16 24.5648 16H60.7388L69.0866 24.3478Z" fill="url(#paint0_linear_3448_44230)"/>
<path d="M77.4349 52.1738H49.6088C48.072 52.1738 46.8262 53.4196 46.8262 54.9564V68.8695C46.8262 70.4063 48.072 71.6521 49.6088 71.6521H77.4349C78.9717 71.6521 80.2175 70.4063 80.2175 68.8695V54.9564C80.2175 53.4196 78.9717 52.1738 77.4349 52.1738Z" fill="url(#paint1_linear_3448_44230)"/>
<path d="M66.3038 56.3477H63.5212C63.1522 56.3477 62.7983 56.4942 62.5374 56.7552C62.2765 57.0161 62.1299 57.37 62.1299 57.739V66.0868C62.1299 66.4558 62.2765 66.8097 62.5374 67.0706C62.7983 67.3315 63.1522 67.4781 63.5212 67.4781C63.8902 67.4781 64.2441 67.3315 64.505 67.0706C64.7659 66.8097 64.9125 66.4558 64.9125 66.0868V64.6955H66.3038C67.4108 64.6955 68.4724 64.2557 69.2552 63.473C70.038 62.6902 70.4777 61.6286 70.4777 60.5216C70.4777 59.4146 70.038 58.3529 69.2552 57.5702C68.4724 56.7874 67.4108 56.3477 66.3038 56.3477ZM66.3038 61.9129H64.9125V59.1303H66.3038C66.6728 59.1303 67.0267 59.2768 67.2876 59.5378C67.5485 59.7987 67.6951 60.1526 67.6951 60.5216C67.6951 60.8906 67.5485 61.2445 67.2876 61.5054C67.0267 61.7663 66.6728 61.9129 66.3038 61.9129Z" fill="#F0F7FC"/>
<path d="M55.1739 56.3477C54.0669 56.3477 53.0053 56.7874 52.2225 57.5702C51.4397 58.3529 51 59.4146 51 60.5216V66.0868C51 66.4558 51.1466 66.8097 51.4075 67.0706C51.6684 67.3315 52.0223 67.4781 52.3913 67.4781C52.7603 67.4781 53.1142 67.3315 53.3751 67.0706C53.636 66.8097 53.7826 66.4558 53.7826 66.0868V64.6955H56.5652V66.0868C56.5652 66.4558 56.7118 66.8097 56.9727 67.0706C57.2336 67.3315 57.5875 67.4781 57.9565 67.4781C58.3255 67.4781 58.6794 67.3315 58.9403 67.0706C59.2012 66.8097 59.3478 66.4558 59.3478 66.0868V60.5216C59.3478 59.4146 58.9081 58.3529 58.1253 57.5702C57.3426 56.7874 56.2809 56.3477 55.1739 56.3477ZM53.7826 61.9129V60.5216C53.7826 60.1526 53.9292 59.7987 54.1901 59.5378C54.451 59.2768 54.8049 59.1303 55.1739 59.1303C55.5429 59.1303 55.8968 59.2768 56.1577 59.5378C56.4186 59.7987 56.5652 60.1526 56.5652 60.5216V61.9129H53.7826Z" fill="#F0F7FC"/>
<path d="M74.652 67.4781C74.283 67.4781 73.9292 67.3315 73.6682 67.0706C73.4073 66.8097 73.2607 66.4558 73.2607 66.0868V57.739C73.2607 57.37 73.4073 57.0161 73.6682 56.7552C73.9292 56.4942 74.283 56.3477 74.652 56.3477C75.021 56.3477 75.3749 56.4942 75.6358 56.7552C75.8968 57.0161 76.0434 57.37 76.0434 57.739V66.0868C76.0434 66.4558 75.8968 66.8097 75.6358 67.0706C75.3749 67.3315 75.021 67.4781 74.652 67.4781Z" fill="#F0F7FC"/>
<path d="M69.0861 24.3478H60.7383V16L69.0861 24.3478Z" fill="#D7E9F7"/>
<path d="M30.1302 31.3047C29.3789 31.3047 29.3372 31.096 26.3598 28.1186C26.2294 27.9893 26.1259 27.8354 26.0552 27.6658C25.9846 27.4963 25.9482 27.3144 25.9482 27.1308C25.9482 26.9471 25.9846 26.7653 26.0552 26.5957C26.1259 26.4262 26.2294 26.2723 26.3598 26.143L29.1424 23.3603C29.2721 23.2306 29.4261 23.1277 29.5956 23.0575C29.7651 22.9873 29.9468 22.9512 30.1302 22.9512C30.3137 22.9512 30.4953 22.9873 30.6648 23.0575C30.8343 23.1277 30.9883 23.2306 31.118 23.3603C31.2478 23.4901 31.3507 23.6441 31.4209 23.8136C31.4911 23.9831 31.5272 24.1647 31.5272 24.3482C31.5272 24.5316 31.4911 24.7133 31.4209 24.8828C31.3507 25.0523 31.2478 25.2063 31.118 25.336L29.3094 27.1308L31.118 28.9256C31.3143 29.1202 31.4481 29.3688 31.5024 29.6397C31.5568 29.9107 31.5292 30.1917 31.4233 30.4469C31.3173 30.7022 31.1377 30.92 30.9074 31.0728C30.6771 31.2256 30.4066 31.3063 30.1302 31.3047Z" fill="#FFB369"/>
<path d="M41.2607 31.3047C40.9844 31.3063 40.7138 31.2256 40.4835 31.0728C40.2532 30.92 40.0737 30.7022 39.9677 30.4469C39.8617 30.1917 39.8342 29.9107 39.8885 29.6397C39.9429 29.3688 40.0767 29.1202 40.2729 28.9256L42.0816 27.1308L40.2729 25.336C40.0109 25.074 39.8637 24.7187 39.8637 24.3482C39.8637 23.9777 40.0109 23.6223 40.2729 23.3603C40.5349 23.0984 40.8902 22.9512 41.2607 22.9512C41.6312 22.9512 41.9866 23.0984 42.2485 23.3603L45.0312 26.143C45.1616 26.2723 45.2651 26.4262 45.3357 26.5957C45.4063 26.7653 45.4427 26.9471 45.4427 27.1308C45.4427 27.3144 45.4063 27.4963 45.3357 27.6658C45.2651 27.8354 45.1616 27.9893 45.0312 28.1186C41.9981 31.1516 42.012 31.3047 41.2607 31.3047Z" fill="#FFB369"/>
<path d="M34.3042 34.0854C34.0897 34.0917 33.8766 34.0482 33.6816 33.9585C33.4867 33.8688 33.3151 33.7351 33.1804 33.5681C33.0456 33.401 32.9514 33.205 32.905 32.9955C32.8586 32.7859 32.8613 32.5685 32.9129 32.3602L35.6955 21.2297C35.784 20.8607 36.0156 20.542 36.3391 20.3437C36.6626 20.1454 37.0517 20.0838 37.4207 20.1723C37.7897 20.2609 38.1084 20.4924 38.3067 20.8159C38.505 21.1395 38.5667 21.5285 38.4781 21.8975L35.6955 33.028C35.6193 33.3367 35.4397 33.61 35.1866 33.8024C34.9334 33.9948 34.622 34.0946 34.3042 34.0854Z" fill="#FFB369"/>
<path d="M32.9136 39.6517H27.3483C26.9793 39.6517 26.6255 39.5052 26.3645 39.2442C26.1036 38.9833 25.957 38.6294 25.957 38.2604C25.957 37.8914 26.1036 37.5376 26.3645 37.2766C26.6255 37.0157 26.9793 36.8691 27.3483 36.8691H32.9136C33.2825 36.8691 33.6364 37.0157 33.8974 37.2766C34.1583 37.5376 34.3049 37.8914 34.3049 38.2604C34.3049 38.6294 34.1583 38.9833 33.8974 39.2442C33.6364 39.5052 33.2825 39.6517 32.9136 39.6517Z" fill="#B4CDE1"/>
<path d="M42.6527 50.7826H27.3483C26.9793 50.7826 26.6255 50.636 26.3645 50.3751C26.1036 50.1142 25.957 49.7603 25.957 49.3913C25.957 49.0223 26.1036 48.6684 26.3645 48.4075C26.6255 48.1466 26.9793 48 27.3483 48H42.6527C43.0217 48 43.3756 48.1466 43.6365 48.4075C43.8974 48.6684 44.044 49.0223 44.044 49.3913C44.044 49.7603 43.8974 50.1142 43.6365 50.3751C43.3756 50.636 43.0217 50.7826 42.6527 50.7826Z" fill="#B4CDE1"/>
<path d="M55.1743 45.2162H49.6091C49.2401 45.2162 48.8862 45.0696 48.6253 44.8087C48.3644 44.5478 48.2178 44.1939 48.2178 43.8249C48.2178 43.4559 48.3644 43.102 48.6253 42.8411C48.8862 42.5802 49.2401 42.4336 49.6091 42.4336H55.1743C55.5433 42.4336 55.8972 42.5802 56.1581 42.8411C56.419 43.102 56.5656 43.4559 56.5656 43.8249C56.5656 44.1939 56.419 44.5478 56.1581 44.8087C55.8972 45.0696 55.5433 45.2162 55.1743 45.2162Z" fill="#B4CDE1"/>
<path d="M34.3049 56.3471H27.3483C26.9793 56.3471 26.6255 56.2005 26.3645 55.9396C26.1036 55.6786 25.957 55.3248 25.957 54.9558C25.957 54.5868 26.1036 54.2329 26.3645 53.972C26.6255 53.711 26.9793 53.5645 27.3483 53.5645H34.3049C34.6739 53.5645 35.0277 53.711 35.2887 53.972C35.5496 54.2329 35.6962 54.5868 35.6962 54.9558C35.6962 55.3248 35.5496 55.6786 35.2887 55.9396C35.0277 56.2005 34.6739 56.3471 34.3049 56.3471Z" fill="#B4CDE1"/>
<path d="M42.6527 61.9135H27.3483C26.9793 61.9135 26.6255 61.7669 26.3645 61.506C26.1036 61.245 25.957 60.8912 25.957 60.5222C25.957 60.1532 26.1036 59.7993 26.3645 59.5384C26.6255 59.2774 26.9793 59.1309 27.3483 59.1309H42.6527C43.0217 59.1309 43.3756 59.2774 43.6365 59.5384C43.8974 59.7993 44.044 60.1532 44.044 60.5222C44.044 60.8912 43.8974 61.245 43.6365 61.506C43.3756 61.7669 43.0217 61.9135 42.6527 61.9135Z" fill="#B4CDE1"/>
<path d="M34.3049 67.4779H27.3483C26.9793 67.4779 26.6255 67.3313 26.3645 67.0704C26.1036 66.8095 25.957 66.4556 25.957 66.0866C25.957 65.7176 26.1036 65.3637 26.3645 65.1028C26.6255 64.8419 26.9793 64.6953 27.3483 64.6953H34.3049C34.6739 64.6953 35.0277 64.8419 35.2887 65.1028C35.5496 65.3637 35.6962 65.7176 35.6962 66.0866C35.6962 66.4556 35.5496 66.8095 35.2887 67.0704C35.0277 67.3313 34.6739 67.4779 34.3049 67.4779Z" fill="#B4CDE1"/>
<path d="M44.044 45.2162H27.3483C26.9793 45.2162 26.6255 45.0696 26.3645 44.8087C26.1036 44.5478 25.957 44.1939 25.957 43.8249C25.957 43.4559 26.1036 43.102 26.3645 42.8411C26.6255 42.5802 26.9793 42.4336 27.3483 42.4336H44.044C44.413 42.4336 44.7669 42.5802 45.0278 42.8411C45.2887 43.102 45.4353 43.4559 45.4353 43.8249C45.4353 44.1939 45.2887 44.5478 45.0278 44.8087C44.7669 45.0696 44.413 45.2162 44.044 45.2162Z" fill="#B4CDE1"/>
<path d="M63.5227 39.6517H38.4792C38.1102 39.6517 37.7563 39.5052 37.4954 39.2442C37.2345 38.9833 37.0879 38.6294 37.0879 38.2604C37.0879 37.8914 37.2345 37.5376 37.4954 37.2766C37.7563 37.0157 38.1102 36.8691 38.4792 36.8691H63.5227C63.8917 36.8691 64.2456 37.0157 64.5065 37.2766C64.7674 37.5376 64.914 37.8914 64.914 38.2604C64.914 38.6294 64.7674 38.9833 64.5065 39.2442C64.2456 39.5052 63.8917 39.6517 63.5227 39.6517Z" fill="#B4CDE1"/>
<path d="M42.6524 56.3471H39.8698C39.5008 56.3471 39.1469 56.2005 38.886 55.9396C38.6251 55.6786 38.4785 55.3248 38.4785 54.9558C38.4785 54.5868 38.6251 54.2329 38.886 53.972C39.1469 53.711 39.5008 53.5645 39.8698 53.5645H42.6524C43.0214 53.5645 43.3753 53.711 43.6362 53.972C43.8972 54.2329 44.0437 54.5868 44.0437 54.9558C44.0437 55.3248 43.8972 55.6786 43.6362 55.9396C43.3753 56.2005 43.0214 56.3471 42.6524 56.3471Z" fill="#B4CDE1"/>
<defs>
<linearGradient id="paint0_linear_3448_44230" x1="45.4344" y1="80" x2="45.4344" y2="16" gradientUnits="userSpaceOnUse">
<stop stop-color="#D3E6F5"/>
<stop offset="1" stop-color="#F0F7FC"/>
</linearGradient>
<linearGradient id="paint1_linear_3448_44230" x1="63.5218" y1="71.6521" x2="63.5218" y2="52.1738" gradientUnits="userSpaceOnUse">
<stop stop-color="#54A5FF"/>
<stop offset="1" stop-color="#8AD3FE"/>
</linearGradient>
</defs>
</svg>
