<svg width="206" height="36" viewBox="0 0 206 36" fill="none" xmlns="http://www.w3.org/2000/svg">
<g clip-path="url(#clip0_377_6068)">
<path d="M43.1356 11.4961C43.0141 11.4437 40.0538 10.1686 22.5266 2.61703C22.178 2.46677 21.783 2.46677 21.4343 2.61703L0.825392 11.4961C-0.280448 11.9716 -0.2698 13.5322 0.825392 14.0027C4.82904 15.7274 11.3742 18.5476 21.4343 22.8818C21.7809 23.0312 22.1759 23.033 22.5266 22.8818C23.4819 22.4702 36.4987 16.862 37.0938 16.6058V31.1522C37.0938 31.8878 37.6625 32.5208 38.402 32.5549C39.1909 32.5916 39.8415 31.967 39.8415 31.1905V16.1104C39.8415 15.8957 39.6817 15.7145 39.4675 15.6871C36.8888 15.3567 24.7269 13.796 21.8044 13.4213C20.9591 13.3163 20.4324 12.4653 20.6546 11.7078C20.8289 11.0681 21.4398 10.6606 22.0586 10.7029C22.1203 10.7065 41.6999 13.2186 41.6858 13.2168C42.0516 13.2636 42.3522 13.4965 42.4966 13.8123C42.5977 14.0331 42.8549 14.1343 43.0757 14.0313C43.4453 13.859 43.7659 13.6323 43.9119 13.1191C44.0994 12.4541 43.7602 11.7647 43.1356 11.4961Z" fill="#3B82F6"/>
<path d="M20.3707 25.3146L9.0685 20.3833C8.78983 20.2617 8.47876 20.4674 8.47876 20.7732V25.6511C8.47876 30.2253 14.41 33.8087 21.9818 33.8087C29.5537 33.8087 35.4849 30.2253 35.4849 25.6511V20.7732C35.4849 20.4674 35.1737 20.2618 34.8951 20.3833L23.5921 25.3146C22.5658 25.7638 21.398 25.7635 20.3707 25.3146Z" fill="#22C55E"/>
<path d="M70.9082 26.9218V6.7868H78.7161C80.2435 6.7868 81.6303 7.03724 82.8763 7.53811C84.1424 8.01894 85.2277 8.71014 86.1321 9.61171C87.0365 10.4932 87.7399 11.5551 88.2424 12.7972C88.7448 14.0194 88.996 15.3717 88.996 16.8543C88.996 18.3369 88.7448 19.6992 88.2424 20.9414C87.7399 22.1835 87.0365 23.2454 86.1321 24.1269C85.2277 25.0084 84.1424 25.6996 82.8763 26.2005C81.6303 26.6813 80.2435 26.9218 78.7161 26.9218H70.9082ZM74.8574 23.1051H78.7161C79.6406 23.1051 80.4746 22.9649 81.2183 22.6844C81.9619 22.3839 82.605 21.9632 83.1476 21.4222C83.6903 20.8612 84.1023 20.2001 84.3836 19.4388C84.6851 18.6574 84.8358 17.7959 84.8358 16.8543C84.8358 15.9126 84.6851 15.0612 84.3836 14.2998C84.1023 13.5185 83.6903 12.8573 83.1476 12.3164C82.605 11.7554 81.9619 11.3347 81.2183 11.0542C80.4746 10.7537 79.6406 10.6034 78.7161 10.6034H74.8574V23.1051ZM92.1231 11.2345H95.9215V26.9218H92.1231V11.2345ZM91.701 6.87696C91.701 6.5564 91.7613 6.2659 91.8819 6.00545C92.0025 5.72496 92.1633 5.48454 92.3642 5.28419C92.5853 5.08385 92.8365 4.92357 93.1179 4.80336C93.3993 4.68315 93.7007 4.62305 94.0223 4.62305C94.3439 4.62305 94.6453 4.68315 94.9267 4.80336C95.208 4.92357 95.4492 5.08385 95.6502 5.28419C95.8713 5.48454 96.0421 5.72496 96.1627 6.00545C96.2833 6.2659 96.3436 6.5564 96.3436 6.87696C96.3436 7.49804 96.1225 8.02896 95.6803 8.46973C95.2382 8.91049 94.6855 9.13087 94.0223 9.13087C93.3591 9.13087 92.8064 8.91049 92.3642 8.46973C91.9221 8.02896 91.701 7.49804 91.701 6.87696ZM99.7774 32.9622V11.2345H103.576V13.2781C104.078 12.5368 104.721 11.9658 105.505 11.5651C106.309 11.1444 107.314 10.934 108.52 10.934C109.625 10.934 110.64 11.1444 111.565 11.5651C112.509 11.9658 113.313 12.5368 113.976 13.2781C114.66 13.9993 115.192 14.8608 115.574 15.8626C115.956 16.8443 116.147 17.9161 116.147 19.0781C116.147 20.2402 115.956 21.312 115.574 22.2937C115.192 23.2754 114.67 24.1369 114.006 24.8782C113.343 25.5995 112.539 26.1705 111.595 26.5912C110.65 26.9919 109.625 27.1922 108.52 27.1922C107.314 27.1922 106.309 26.9919 105.505 26.5912C104.721 26.1705 104.078 25.5894 103.576 24.8482V32.9622H99.7774ZM103.576 18.3569V19.7994C103.636 20.3203 103.777 20.8011 103.998 21.2419C104.239 21.6827 104.551 22.0733 104.932 22.4139C105.314 22.7345 105.746 22.9949 106.229 23.1953C106.731 23.3756 107.274 23.4658 107.857 23.4658C108.54 23.4658 109.143 23.3456 109.665 23.1051C110.208 22.8647 110.66 22.5542 111.022 22.1735C111.404 21.7728 111.695 21.312 111.896 20.7911C112.097 20.2502 112.198 19.6892 112.198 19.1082C112.198 18.5072 112.097 17.9362 111.896 17.3952C111.695 16.8543 111.404 16.3835 111.022 15.9828C110.66 15.5821 110.208 15.2615 109.665 15.0211C109.143 14.7807 108.54 14.6605 107.857 14.6605C107.274 14.6605 106.731 14.7606 106.229 14.961C105.726 15.1413 105.284 15.4018 104.902 15.7423C104.541 16.0829 104.249 16.4736 104.028 16.9144C103.807 17.3552 103.656 17.836 103.576 18.3569ZM119.031 5.28419H122.829V26.9218H119.031V5.28419ZM125.721 19.0781C125.721 17.8961 125.932 16.8142 126.354 15.8325C126.776 14.8308 127.348 13.9693 128.072 13.248C128.816 12.5268 129.69 11.9658 130.695 11.5651C131.7 11.1444 132.785 10.934 133.95 10.934C135.116 10.934 136.201 11.1444 137.206 11.5651C138.211 11.9658 139.085 12.5268 139.829 13.248C140.573 13.9693 141.155 14.8308 141.578 15.8325C142 16.8142 142.211 17.8961 142.211 19.0781C142.211 20.2201 142 21.292 141.578 22.2937C141.155 23.2754 140.573 24.1269 139.829 24.8482C139.085 25.5694 138.211 26.1404 137.206 26.5611C136.201 26.9819 135.116 27.1922 133.95 27.1922C132.785 27.1922 131.7 26.9919 130.695 26.5912C129.69 26.1705 128.816 25.5995 128.072 24.8782C127.348 24.1369 126.776 23.2754 126.354 22.2937C125.932 21.312 125.721 20.2402 125.721 19.0781ZM129.7 19.0781C129.7 19.6592 129.8 20.2201 130.001 20.7611C130.202 21.282 130.484 21.7428 130.845 22.1435C131.227 22.5442 131.679 22.8647 132.202 23.1051C132.745 23.3456 133.338 23.4658 133.981 23.4658C134.624 23.4658 135.207 23.3456 135.729 23.1051C136.252 22.8647 136.694 22.5442 137.056 22.1435C137.417 21.7428 137.699 21.282 137.9 20.7611C138.121 20.2201 138.231 19.6592 138.231 19.0781C138.231 18.4971 138.131 17.9362 137.93 17.3952C137.729 16.8543 137.437 16.3835 137.056 15.9828C136.694 15.5821 136.252 15.2615 135.729 15.0211C135.207 14.7807 134.624 14.6605 133.981 14.6605C133.338 14.6605 132.745 14.7807 132.202 15.0211C131.679 15.2615 131.227 15.5821 130.845 15.9828C130.484 16.3835 130.202 16.8543 130.001 17.3952C129.8 17.9362 129.7 18.4971 129.7 19.0781ZM145.115 11.2345H148.913V13.5786C149.456 12.7572 150.129 12.1161 150.933 11.6553C151.757 11.1744 152.691 10.934 153.737 10.934C154.299 10.934 154.822 11.0141 155.304 11.1744C155.787 11.3147 156.219 11.525 156.6 11.8055C156.982 12.086 157.324 12.4166 157.625 12.7972C157.927 13.1779 158.168 13.6086 158.349 14.0895C158.912 13.1078 159.635 12.3364 160.519 11.7755C161.424 11.2145 162.459 10.934 163.625 10.934C164.408 10.934 165.112 11.0742 165.735 11.3547C166.378 11.6352 166.921 12.0359 167.363 12.5568C167.805 13.0577 168.136 13.6688 168.358 14.39C168.599 15.0912 168.719 15.8525 168.719 16.674V26.9218H164.921V17.9061C164.921 17.3852 164.85 16.9244 164.71 16.5237C164.589 16.123 164.408 15.7824 164.167 15.5019C163.926 15.2214 163.635 15.0111 163.293 14.8708C162.971 14.7306 162.62 14.6605 162.238 14.6605C161.735 14.6605 161.283 14.7907 160.881 15.0512C160.479 15.2916 160.128 15.6121 159.826 16.0128C159.525 16.4135 159.283 16.8743 159.103 17.3952C158.922 17.9161 158.831 18.4571 158.831 19.018V26.9218H155.033V17.9061C155.033 17.3852 154.963 16.9244 154.822 16.5237C154.681 16.123 154.49 15.7824 154.249 15.5019C154.008 15.2214 153.716 15.0111 153.375 14.8708C153.053 14.7306 152.702 14.6605 152.32 14.6605C151.837 14.6605 151.385 14.7907 150.963 15.0512C150.561 15.2916 150.209 15.6121 149.908 16.0128C149.606 16.4135 149.365 16.8743 149.184 17.3952C149.024 17.9161 148.933 18.4571 148.913 19.018V26.9218H145.115V11.2345ZM187.987 26.9218H184.188V24.8482C183.686 25.5894 183.033 26.1705 182.229 26.5912C181.445 26.9919 180.45 27.1922 179.244 27.1922C178.139 27.1922 177.114 26.9919 176.17 26.5912C175.245 26.1705 174.441 25.5995 173.758 24.8782C173.095 24.1369 172.572 23.2754 172.19 22.2937C171.808 21.312 171.617 20.2402 171.617 19.0781C171.617 17.9161 171.808 16.8443 172.19 15.8626C172.572 14.8608 173.095 13.9993 173.758 13.2781C174.441 12.5368 175.245 11.9658 176.17 11.5651C177.114 11.1444 178.149 10.934 179.275 10.934C180.46 10.934 181.445 11.1444 182.229 11.5651C183.033 11.9658 183.686 12.5368 184.188 13.2781V11.2345H187.987V26.9218ZM184.188 18.3569C184.128 17.836 183.977 17.3552 183.736 16.9144C183.515 16.4736 183.214 16.0829 182.832 15.7423C182.47 15.4018 182.038 15.1413 181.536 14.961C181.033 14.7606 180.49 14.6605 179.908 14.6605C179.244 14.6605 178.642 14.7807 178.099 15.0211C177.556 15.2615 177.094 15.5821 176.712 15.9828C176.35 16.3835 176.069 16.8543 175.868 17.3952C175.667 17.9362 175.567 18.5072 175.567 19.1082C175.567 19.6892 175.667 20.2502 175.868 20.7911C176.069 21.312 176.35 21.7728 176.712 22.1735C177.094 22.5542 177.556 22.8647 178.099 23.1051C178.642 23.3456 179.244 23.4658 179.908 23.4658C180.49 23.4658 181.033 23.3756 181.536 23.1953C182.038 22.9949 182.47 22.7345 182.832 22.4139C183.214 22.0733 183.515 21.6827 183.736 21.2419C183.977 20.8011 184.128 20.3203 184.188 19.7994V18.3569ZM191.444 15.7423C191.444 14.2197 192.006 13.0377 193.132 12.1962C194.257 11.3547 195.825 10.934 197.835 10.934C199.865 10.934 201.432 11.3748 202.538 12.2563C203.663 13.1178 204.236 14.3199 204.256 15.8626H200.397C200.377 15.2615 200.136 14.7907 199.674 14.4501C199.231 14.1095 198.629 13.9392 197.865 13.9392C197.041 13.9392 196.398 14.0895 195.935 14.39C195.493 14.6705 195.272 15.0812 195.272 15.6221C195.272 16.1831 195.503 16.6038 195.966 16.8843C196.448 17.1448 197.031 17.3552 197.714 17.5154C198.397 17.6757 199.141 17.836 199.945 17.9963C200.769 18.1365 201.523 18.3669 202.206 18.6875C202.889 18.988 203.462 19.4288 203.924 20.0098C204.386 20.5707 204.618 21.3521 204.618 22.3538C204.618 23.8164 204.055 24.9884 202.929 25.8699C201.824 26.7314 200.176 27.1622 197.985 27.1622C196.88 27.1622 195.895 27.042 195.031 26.8016C194.167 26.5611 193.443 26.2306 192.861 25.8098C192.298 25.3691 191.866 24.8482 191.564 24.2471C191.263 23.626 191.112 22.9348 191.112 22.1735H194.971C195.071 22.8347 195.373 23.3355 195.875 23.6761C196.378 23.9967 197.101 24.157 198.046 24.157C198.95 24.157 199.623 24.0167 200.066 23.7362C200.508 23.4557 200.729 23.055 200.729 22.5341C200.729 21.9732 200.498 21.5725 200.035 21.3321C199.593 21.0716 199.02 20.8713 198.317 20.731C197.634 20.5707 196.89 20.4205 196.086 20.2802C195.282 20.14 194.539 19.9096 193.855 19.589C193.172 19.2685 192.599 18.8177 192.137 18.2367C191.675 17.6356 191.444 16.8042 191.444 15.7423Z" fill="#3B82F6"/>
<path fill-rule="evenodd" clip-rule="evenodd" d="M67.4875 19.9497H55.1577C55.2381 20.4907 55.3888 21.0016 55.6099 21.4824C55.851 21.9432 56.1525 22.3439 56.5143 22.6845C56.876 23.005 57.3081 23.2655 57.8105 23.4658C58.313 23.6462 58.8657 23.7363 59.4686 23.7363C60.2524 23.7363 60.9458 23.566 61.5487 23.2254C62.1717 22.8648 62.6239 22.424 62.9053 21.9031H67.1559C66.9147 22.7045 66.563 23.4358 66.1008 24.0969C65.6586 24.738 65.106 25.289 64.4427 25.7498C63.7795 26.2106 63.0259 26.5712 62.1818 26.8317C61.3377 27.0721 60.4232 27.1923 59.4384 27.1923C58.2728 27.1923 57.1875 26.992 56.1826 26.5913C55.1778 26.1705 54.3035 25.5995 53.5599 24.8783C52.8364 24.137 52.2636 23.2755 51.8416 22.2938C51.4195 21.3121 51.2085 20.2402 51.2085 19.0782C51.2085 17.8962 51.4095 16.8143 51.8114 15.8326C52.2134 14.8308 52.7761 13.9694 53.4996 13.2481C54.2231 12.5268 55.0773 11.9659 56.0621 11.5652C57.0669 11.1444 58.1522 10.9341 59.3179 10.9341C60.4232 10.9341 61.4482 11.0944 62.3928 11.4149C63.3575 11.7355 64.1915 12.1963 64.8949 12.7973C65.6185 13.3984 66.2013 14.1196 66.6434 14.9611C67.0856 15.7825 67.3569 16.7141 67.4574 17.7559C67.5177 18.1767 67.5378 18.5573 67.5177 18.8979C67.5177 19.2185 67.5076 19.5691 67.4875 19.9497ZM63.3575 17.6357H55.2481C55.3687 17.1549 55.5395 16.7241 55.7606 16.3435C56.0018 15.9428 56.2932 15.6022 56.6348 15.3217C56.9966 15.0212 57.3985 14.7908 57.8407 14.6305C58.3029 14.4702 58.8054 14.3901 59.348 14.3901C59.8906 14.3901 60.3931 14.4702 60.8553 14.6305C61.3176 14.7707 61.7195 14.9911 62.0612 15.2916C62.4229 15.5721 62.7144 15.9127 62.9354 16.3134C63.1565 16.7141 63.2972 17.1549 63.3575 17.6357Z" fill="#22C55E"/>
</g>
<defs>
<clipPath id="clip0_377_6068">
<rect width="206" height="36" fill="white"/>
</clipPath>
</defs>
</svg>
