<svg width="36" height="8" viewBox="0 0 36 8" fill="none" xmlns="http://www.w3.org/2000/svg">
    <path
        d="M35.3536 4.35355C35.5488 4.15829 35.5488 3.84171 35.3536 3.64645L32.1716 0.464466C31.9763 0.269204 31.6597 0.269204 31.4645 0.464466C31.2692 0.659728 31.2692 0.976311 31.4645 1.17157L34.2929 4L31.4645 6.82843C31.2692 7.02369 31.2692 7.34027 31.4645 7.53553C31.6597 7.7308 31.9763 7.7308 32.1716 7.53553L35.3536 4.35355ZM0.5 4.5H1.45833V3.5H0.5V4.5ZM3.375 4.5H5.29167V3.5H3.375V4.5ZM7.20833 4.5H9.125V3.5H7.20833V4.5ZM11.0417 4.5H12.9583V3.5H11.0417V4.5ZM14.875 4.5H16.7917V3.5H14.875V4.5ZM18.7083 4.5H20.625V3.5H18.7083V4.5ZM22.5417 4.5H24.4583V3.5H22.5417V4.5ZM26.375 4.5H28.2917V3.5H26.375V4.5ZM30.2083 4.5H32.125V3.5H30.2083V4.5ZM34.0417 4.5H35V3.5H34.0417V4.5Z"
        fill="#025F3E" />
</svg>
    