<svg width="142" height="24" viewBox="0 0 142 24" fill="none" xmlns="http://www.w3.org/2000/svg">
<g clip-path="url(#clip0_616_15411)">
<path d="M29.7343 7.66441C29.6505 7.62948 27.6099 6.77942 15.528 1.74505C15.2877 1.64488 15.0154 1.64488 14.7751 1.74505L0.568959 7.66441C-0.193319 7.9814 -0.185979 9.02183 0.568959 9.3355C3.32875 10.4853 7.84043 12.3654 14.7751 15.2549C15.014 15.3545 15.2863 15.3557 15.528 15.2549C16.1865 14.9805 25.1593 11.2417 25.5695 11.0709V20.7685C25.5695 21.2589 25.9615 21.6809 26.4713 21.7037C27.0151 21.7281 27.4636 21.3117 27.4636 20.794V10.7406C27.4636 10.5975 27.3534 10.4767 27.2058 10.4584C25.4282 10.2382 17.0448 9.1977 15.0302 8.94789C14.4475 8.87789 14.0845 8.31053 14.2376 7.80557C14.3578 7.3791 14.7789 7.10742 15.2055 7.13566C15.2479 7.13806 28.7446 8.81278 28.7349 8.81159C28.987 8.84277 29.1942 8.99804 29.2938 9.20857C29.3635 9.35577 29.5408 9.42322 29.6929 9.35458C29.9477 9.23971 30.1687 9.08855 30.2694 8.74642C30.3986 8.30308 30.1648 7.84347 29.7343 7.66441Z" fill="white"/>
<path d="M14.0411 16.8766L6.25027 13.5891C6.05818 13.508 5.84375 13.6452 5.84375 13.849V17.1009C5.84375 20.1504 9.93227 22.5393 15.1517 22.5393C20.3711 22.5393 24.4596 20.1504 24.4596 17.1009V13.849C24.4596 13.6452 24.2451 13.5081 24.0531 13.5891L16.2617 16.8766C15.5543 17.176 14.7492 17.1758 14.0411 16.8766Z" fill="white"/>
<path d="M48.8789 17.9478V4.52454H54.2611C55.3139 4.52454 56.2698 4.69149 57.1288 5.02541C58.0015 5.34596 58.7496 5.80676 59.3731 6.40781C59.9965 6.99549 60.4813 7.70339 60.8277 8.53149C61.174 9.34624 61.3472 10.2478 61.3472 11.2362C61.3472 12.2246 61.174 13.1328 60.8277 13.9609C60.4813 14.789 59.9965 15.4969 59.3731 16.0846C58.7496 16.6723 58.0015 17.1331 57.1288 17.467C56.2698 17.7876 55.3139 17.9478 54.2611 17.9478H48.8789ZM51.6012 15.4034H54.2611C54.8983 15.4034 55.4732 15.3099 55.9858 15.1229C56.4984 14.9226 56.9417 14.6421 57.3158 14.2815C57.6898 13.9075 57.9738 13.4667 58.1678 12.9592C58.3756 12.4383 58.4795 11.8639 58.4795 11.2362C58.4795 10.6084 58.3756 10.0408 58.1678 9.53323C57.9738 9.01233 57.6898 8.57156 57.3158 8.21094C56.9417 7.83695 56.4984 7.55647 55.9858 7.36947C55.4732 7.16913 54.8983 7.06895 54.2611 7.06895H51.6012V15.4034ZM63.5027 7.48968H66.1211V17.9478H63.5027V7.48968ZM63.2118 4.58464C63.2118 4.37094 63.2534 4.17727 63.3365 4.00363C63.4196 3.81664 63.5305 3.65636 63.669 3.5228C63.8214 3.38923 63.9946 3.28238 64.1885 3.20224C64.3825 3.1221 64.5903 3.08203 64.8119 3.08203C65.0336 3.08203 65.2414 3.1221 65.4353 3.20224C65.6293 3.28238 65.7955 3.38923 65.9341 3.5228C66.0865 3.65636 66.2042 3.81664 66.2873 4.00363C66.3705 4.17727 66.412 4.37094 66.412 4.58464C66.412 4.99869 66.2596 5.35264 65.9548 5.64648C65.6501 5.94033 65.2691 6.08725 64.8119 6.08725C64.3547 6.08725 63.9738 5.94033 63.669 5.64648C63.3642 5.35264 63.2118 4.99869 63.2118 4.58464ZM68.779 21.9748V7.48968H71.3974V8.85205C71.7437 8.35786 72.187 7.9772 72.7273 7.71007C73.2815 7.42958 73.9742 7.28934 74.8054 7.28934C75.5673 7.28934 76.2669 7.42958 76.9042 7.71007C77.5553 7.9772 78.1095 8.35786 78.5667 8.85205C79.0377 9.33288 79.4048 9.90721 79.668 10.575C79.9312 11.2295 80.0628 11.9441 80.0628 12.7188C80.0628 13.4934 79.9312 14.208 79.668 14.8625C79.4048 15.517 79.0446 16.0913 78.5874 16.5855C78.1303 17.0663 77.5761 17.447 76.925 17.7275C76.2739 17.9946 75.5673 18.1282 74.8054 18.1282C73.9742 18.1282 73.2815 17.9946 72.7273 17.7275C72.187 17.447 71.7437 17.0596 71.3974 16.5654V21.9748H68.779ZM71.3974 12.2379V13.1996C71.4389 13.5469 71.5359 13.8674 71.6883 14.1613C71.8546 14.4551 72.0693 14.7156 72.3325 14.9426C72.5957 15.1563 72.8936 15.33 73.2261 15.4635C73.5724 15.5837 73.9465 15.6438 74.3482 15.6438C74.8192 15.6438 75.2348 15.5637 75.595 15.4034C75.9691 15.2431 76.2808 15.0361 76.5302 14.7823C76.7934 14.5152 76.9943 14.208 77.1328 13.8607C77.2713 13.5001 77.3406 13.1261 77.3406 12.7388C77.3406 12.3381 77.2713 11.9574 77.1328 11.5968C76.9943 11.2362 76.7934 10.9223 76.5302 10.6552C76.2808 10.388 75.9691 10.1743 75.595 10.0141C75.2348 9.85379 74.8192 9.77365 74.3482 9.77365C73.9465 9.77365 73.5724 9.84043 73.2261 9.974C72.8797 10.0942 72.5749 10.2678 72.3117 10.4949C72.0624 10.722 71.8615 10.9824 71.7091 11.2763C71.5567 11.5701 71.4528 11.8907 71.3974 12.2379ZM82.0508 3.5228H84.6692V17.9478H82.0508V3.5228ZM86.6622 12.7188C86.6622 11.9307 86.8076 11.2095 87.0986 10.555C87.3895 9.88718 87.7843 9.31285 88.283 8.83201C88.7956 8.35118 89.3983 7.9772 90.091 7.71007C90.7836 7.42958 91.5317 7.28934 92.3352 7.28934C93.1388 7.28934 93.8869 7.42958 94.5795 7.71007C95.2722 7.9772 95.8749 8.35118 96.3874 8.83201C96.9 9.31285 97.3018 9.88718 97.5927 10.555C97.8836 11.2095 98.0291 11.9307 98.0291 12.7188C98.0291 13.4801 97.8836 14.1947 97.5927 14.8625C97.3018 15.517 96.9 16.0846 96.3874 16.5654C95.8749 17.0463 95.2722 17.4269 94.5795 17.7074C93.8869 17.9879 93.1388 18.1282 92.3352 18.1282C91.5317 18.1282 90.7836 17.9946 90.091 17.7275C89.3983 17.447 88.7956 17.0663 88.283 16.5855C87.7843 16.0913 87.3895 15.517 87.0986 14.8625C86.8076 14.208 86.6622 13.4934 86.6622 12.7188ZM89.4052 12.7188C89.4052 13.1061 89.4745 13.4801 89.613 13.8407C89.7515 14.188 89.9455 14.4952 90.1949 14.7623C90.4581 15.0294 90.7698 15.2431 91.13 15.4034C91.504 15.5637 91.9127 15.6438 92.356 15.6438C92.7993 15.6438 93.2011 15.5637 93.5613 15.4034C93.9215 15.2431 94.2263 15.0294 94.4756 14.7623C94.725 14.4952 94.919 14.188 95.0575 13.8407C95.2099 13.4801 95.2861 13.1061 95.2861 12.7188C95.2861 12.3314 95.2168 11.9574 95.0783 11.5968C94.9397 11.2362 94.7389 10.9223 94.4756 10.6552C94.2263 10.388 93.9215 10.1743 93.5613 10.0141C93.2011 9.85379 92.7993 9.77365 92.356 9.77365C91.9127 9.77365 91.504 9.85379 91.13 10.0141C90.7698 10.1743 90.4581 10.388 90.1949 10.6552C89.9455 10.9223 89.7515 11.2362 89.613 11.5968C89.4745 11.9574 89.4052 12.3314 89.4052 12.7188ZM100.031 7.48968H102.649V9.0524C103.023 8.50478 103.487 8.07737 104.042 7.77017C104.61 7.44961 105.254 7.28934 105.974 7.28934C106.362 7.28934 106.722 7.34276 107.055 7.44961C107.387 7.54311 107.685 7.68335 107.948 7.87034C108.212 8.05734 108.447 8.27772 108.655 8.53149C108.863 8.78527 109.029 9.07243 109.154 9.39299C109.541 8.73852 110.04 8.22429 110.65 7.85031C111.273 7.47633 111.987 7.28934 112.79 7.28934C113.33 7.28934 113.815 7.38283 114.245 7.56982C114.688 7.75681 115.062 8.02394 115.367 8.37121C115.672 8.70513 115.9 9.1125 116.053 9.59334C116.219 10.0608 116.302 10.5684 116.302 11.116V17.9478H113.684V11.9374C113.684 11.5901 113.635 11.2829 113.538 11.0158C113.455 10.7487 113.33 10.5216 113.164 10.3346C112.998 10.1476 112.797 10.0074 112.562 9.91389C112.34 9.8204 112.097 9.77365 111.834 9.77365C111.488 9.77365 111.176 9.86047 110.899 10.0341C110.622 10.1944 110.38 10.4081 110.172 10.6752C109.964 10.9423 109.798 11.2495 109.673 11.5968C109.548 11.9441 109.486 12.3047 109.486 12.6787V17.9478H106.868V11.9374C106.868 11.5901 106.819 11.2829 106.722 11.0158C106.625 10.7487 106.494 10.5216 106.327 10.3346C106.161 10.1476 105.96 10.0074 105.725 9.91389C105.503 9.8204 105.261 9.77365 104.997 9.77365C104.665 9.77365 104.353 9.86047 104.062 10.0341C103.785 10.1944 103.543 10.4081 103.335 10.6752C103.127 10.9423 102.961 11.2495 102.836 11.5968C102.725 11.9441 102.663 12.3047 102.649 12.6787V17.9478H100.031V7.48968ZM129.584 17.9478H126.965V16.5654C126.619 17.0596 126.169 17.447 125.615 17.7275C125.074 17.9946 124.388 18.1282 123.557 18.1282C122.795 18.1282 122.089 17.9946 121.438 17.7275C120.8 17.447 120.246 17.0663 119.775 16.5855C119.318 16.0913 118.958 15.517 118.695 14.8625C118.431 14.208 118.3 13.4934 118.3 12.7188C118.3 11.9441 118.431 11.2295 118.695 10.575C118.958 9.90721 119.318 9.33288 119.775 8.85205C120.246 8.35786 120.8 7.9772 121.438 7.71007C122.089 7.42958 122.802 7.28934 123.578 7.28934C124.395 7.28934 125.074 7.42958 125.615 7.71007C126.169 7.9772 126.619 8.35786 126.965 8.85205V7.48968H129.584V17.9478ZM126.965 12.2379C126.924 11.8907 126.82 11.5701 126.654 11.2763C126.501 10.9824 126.293 10.722 126.03 10.4949C125.781 10.2678 125.483 10.0942 125.137 9.974C124.79 9.84043 124.416 9.77365 124.014 9.77365C123.557 9.77365 123.142 9.85379 122.768 10.0141C122.394 10.1743 122.075 10.388 121.812 10.6552C121.562 10.9223 121.368 11.2362 121.23 11.5968C121.091 11.9574 121.022 12.3381 121.022 12.7388C121.022 13.1261 121.091 13.5001 121.23 13.8607C121.368 14.208 121.562 14.5152 121.812 14.7823C122.075 15.0361 122.394 15.2431 122.768 15.4034C123.142 15.5637 123.557 15.6438 124.014 15.6438C124.416 15.6438 124.79 15.5837 125.137 15.4635C125.483 15.33 125.781 15.1563 126.03 14.9426C126.293 14.7156 126.501 14.4551 126.654 14.1613C126.82 13.8674 126.924 13.5469 126.965 13.1996V12.2379ZM131.966 10.4949C131.966 9.4798 132.354 8.69177 133.13 8.1308C133.906 7.56982 134.987 7.28934 136.372 7.28934C137.771 7.28934 138.852 7.58318 139.614 8.17087C140.389 8.7452 140.784 9.54659 140.798 10.575H138.138C138.124 10.1743 137.958 9.86047 137.64 9.63341C137.335 9.40634 136.919 9.29281 136.393 9.29281C135.825 9.29281 135.381 9.39299 135.063 9.59334C134.758 9.78033 134.606 10.0541 134.606 10.4148C134.606 10.7887 134.765 11.0692 135.084 11.2562C135.416 11.4299 135.818 11.5701 136.289 11.677C136.76 11.7838 137.272 11.8907 137.827 11.9975C138.395 12.091 138.914 12.2446 139.385 12.4583C139.856 12.6587 140.251 12.9525 140.57 13.3398C140.888 13.7138 141.048 14.2347 141.048 14.9026C141.048 15.8776 140.66 16.6589 139.884 17.2466C139.122 17.821 137.986 18.1081 136.476 18.1081C135.714 18.1081 135.035 18.028 134.439 17.8677C133.844 17.7074 133.345 17.487 132.943 17.2066C132.555 16.9127 132.257 16.5654 132.05 16.1647C131.842 15.7507 131.738 15.2899 131.738 14.7823H134.398C134.467 15.2231 134.675 15.557 135.021 15.7841C135.368 15.9978 135.866 16.1046 136.517 16.1046C137.141 16.1046 137.605 16.0111 137.91 15.8242C138.214 15.6372 138.367 15.37 138.367 15.0228C138.367 14.6488 138.208 14.3816 137.889 14.2214C137.584 14.0477 137.189 13.9142 136.704 13.8207C136.233 13.7138 135.721 13.6136 135.167 13.5202C134.613 13.4267 134.1 13.2731 133.629 13.0594C133.158 12.8456 132.763 12.5451 132.444 12.1578C132.126 11.7571 131.966 11.2028 131.966 10.4949Z" fill="white"/>
<path fill-rule="evenodd" clip-rule="evenodd" d="M46.5222 13.2995H38.023C38.0784 13.6601 38.1823 14.0007 38.3347 14.3213C38.501 14.6285 38.7088 14.8956 38.9581 15.1227C39.2075 15.3364 39.5054 15.51 39.8517 15.6436C40.198 15.7638 40.579 15.8239 40.9946 15.8239C41.5349 15.8239 42.0129 15.7103 42.4285 15.4833C42.858 15.2429 43.1697 14.949 43.3636 14.6018H46.2937C46.1274 15.136 45.885 15.6235 45.5663 16.0643C45.2616 16.4917 44.8806 16.859 44.4234 17.1662C43.9662 17.4734 43.4467 17.7138 42.8649 17.8875C42.283 18.0477 41.6527 18.1279 40.9739 18.1279C40.1703 18.1279 39.4222 17.9943 38.7296 17.7272C38.0369 17.4467 37.4342 17.066 36.9217 16.5852C36.4229 16.091 36.0281 15.5167 35.7372 14.8622C35.4462 14.2077 35.3008 13.4932 35.3008 12.7185C35.3008 11.9305 35.4393 11.2092 35.7164 10.5547C35.9935 9.88691 36.3814 9.31258 36.8801 8.83174C37.3788 8.35091 37.9676 7.97692 38.6464 7.70979C39.3391 7.42931 40.0872 7.28906 40.8907 7.28906C41.6527 7.28906 42.3592 7.39591 43.0103 7.60962C43.6753 7.82332 44.2502 8.13052 44.7351 8.53122C45.2339 8.93191 45.6356 9.41275 45.9404 9.97372C46.2452 10.5213 46.4322 11.1424 46.5015 11.837C46.543 12.1174 46.5569 12.3712 46.543 12.5983C46.543 12.812 46.5361 13.0457 46.5222 13.2995ZM43.6753 11.7568H38.0854C38.1685 11.4363 38.2862 11.1491 38.4386 10.8953C38.6049 10.6282 38.8058 10.4011 39.0413 10.2141C39.2906 10.0138 39.5677 9.86019 39.8725 9.75334C40.1911 9.64649 40.5375 9.59306 40.9115 9.59306C41.2856 9.59306 41.6319 9.64649 41.9505 9.75334C42.2692 9.84684 42.5462 9.99376 42.7818 10.1941C43.0311 10.3811 43.232 10.6082 43.3844 10.8753C43.5368 11.1424 43.6338 11.4363 43.6753 11.7568Z" fill="white"/>
</g>
<defs>
<clipPath id="clip0_616_15411">
<rect width="142" height="24" fill="white"/>
</clipPath>
</defs>
</svg>
