<svg width="123" height="24" viewBox="0 0 123 24" fill="none" xmlns="http://www.w3.org/2000/svg">
<path d="M6.87571 19.2557C5.52912 19.2557 4.37003 18.983 3.39844 18.4375C2.43253 17.8864 1.68821 17.108 1.16548 16.1023C0.642756 15.0909 0.381392 13.8949 0.381392 12.5142C0.381392 11.1676 0.642756 9.9858 1.16548 8.96875C1.68821 7.9517 2.42401 7.15909 3.37287 6.59091C4.32741 6.02273 5.44673 5.73864 6.73082 5.73864C7.59446 5.73864 8.39844 5.87784 9.14276 6.15625C9.89276 6.42898 10.5462 6.84091 11.103 7.39205C11.6655 7.94318 12.103 8.63636 12.4155 9.47159C12.728 10.3011 12.8842 11.2727 12.8842 12.3864V13.3835H1.83026V11.1335H9.46662C9.46662 10.6108 9.35298 10.1477 9.12571 9.74432C8.89844 9.34091 8.5831 9.02557 8.17969 8.7983C7.78196 8.56534 7.31889 8.44886 6.79048 8.44886C6.23935 8.44886 5.75071 8.5767 5.32457 8.83239C4.90412 9.08239 4.57457 9.42045 4.33594 9.84659C4.0973 10.267 3.97514 10.7358 3.96946 11.2528V13.392C3.96946 14.0398 4.08878 14.5994 4.32741 15.071C4.57173 15.5426 4.91548 15.9062 5.35866 16.1619C5.80185 16.4176 6.32741 16.5455 6.93537 16.5455C7.33878 16.5455 7.7081 16.4886 8.04332 16.375C8.37855 16.2614 8.66548 16.0909 8.90412 15.8636C9.14276 15.6364 9.32457 15.358 9.44957 15.0284L12.8075 15.25C12.6371 16.0568 12.2876 16.7614 11.7592 17.3636C11.2365 17.9602 10.5604 18.4261 9.73082 18.7614C8.90696 19.0909 7.95526 19.2557 6.87571 19.2557Z" fill="#34A853"/>
<path d="M21.5092 19H15.3217V1.54545H21.5604C23.3161 1.54545 24.8274 1.89489 26.0945 2.59375C27.3615 3.28693 28.3359 4.28409 29.0178 5.58523C29.7053 6.88636 30.049 8.44318 30.049 10.2557C30.049 12.0739 29.7053 13.6364 29.0178 14.9432C28.3359 16.25 27.3558 17.2528 26.0774 17.9517C24.8047 18.6506 23.282 19 21.5092 19ZM19.0121 15.8381H21.3558C22.4467 15.8381 23.3643 15.6449 24.1087 15.2585C24.8587 14.8665 25.4212 14.2614 25.7962 13.4432C26.1768 12.6193 26.3672 11.5568 26.3672 10.2557C26.3672 8.96591 26.1768 7.91193 25.7962 7.09375C25.4212 6.27557 24.8615 5.6733 24.1172 5.28693C23.3729 4.90057 22.4553 4.70739 21.3643 4.70739H19.0121V15.8381ZM32.7145 19V5.90909H36.3452V19H32.7145ZM34.5384 4.22159C33.9986 4.22159 33.5355 4.04261 33.1491 3.68466C32.7685 3.32102 32.5781 2.88636 32.5781 2.38068C32.5781 1.88068 32.7685 1.4517 33.1491 1.09375C33.5355 0.730113 33.9986 0.548295 34.5384 0.548295C35.0781 0.548295 35.5384 0.730113 35.919 1.09375C36.3054 1.4517 36.4986 1.88068 36.4986 2.38068C36.4986 2.88636 36.3054 3.32102 35.919 3.68466C35.5384 4.04261 35.0781 4.22159 34.5384 4.22159ZM39.2536 23.9091V5.90909H42.8331V8.10795H42.995C43.1541 7.75568 43.3842 7.39773 43.6854 7.03409C43.9922 6.66477 44.3899 6.35795 44.8786 6.11364C45.3729 5.86364 45.9865 5.73864 46.7195 5.73864C47.674 5.73864 48.5547 5.98864 49.3615 6.48864C50.1683 6.98295 50.8132 7.73011 51.2962 8.73011C51.7791 9.72443 52.0206 10.9716 52.0206 12.4716C52.0206 13.9318 51.7848 15.1648 51.3132 16.1705C50.8473 17.1705 50.2109 17.929 49.4041 18.446C48.603 18.9574 47.7053 19.2131 46.7109 19.2131C46.0064 19.2131 45.407 19.0966 44.9126 18.8636C44.424 18.6307 44.0234 18.3381 43.7109 17.9858C43.3984 17.6278 43.1598 17.267 42.995 16.9034H42.8842V23.9091H39.2536ZM42.8075 12.4545C42.8075 13.233 42.9155 13.9119 43.1314 14.4915C43.3473 15.071 43.6598 15.5227 44.0689 15.8466C44.478 16.1648 44.9751 16.3239 45.5604 16.3239C46.1513 16.3239 46.6513 16.1619 47.0604 15.8381C47.4695 15.5085 47.7791 15.054 47.9893 14.4744C48.2053 13.8892 48.3132 13.2159 48.3132 12.4545C48.3132 11.6989 48.2081 11.0341 47.9979 10.4602C47.7876 9.88636 47.478 9.4375 47.0689 9.11364C46.6598 8.78977 46.157 8.62784 45.5604 8.62784C44.9695 8.62784 44.4695 8.78409 44.0604 9.09659C43.657 9.40909 43.3473 9.85227 43.1314 10.4261C42.9155 11 42.8075 11.6761 42.8075 12.4545ZM58.0717 1.54545V19H54.4411V1.54545H58.0717ZM66.8949 19.2557C65.571 19.2557 64.4261 18.9744 63.4602 18.4119C62.5 17.8437 61.7585 17.054 61.2358 16.0426C60.7131 15.0256 60.4517 13.8466 60.4517 12.5057C60.4517 11.1534 60.7131 9.97159 61.2358 8.96023C61.7585 7.94318 62.5 7.15341 63.4602 6.59091C64.4261 6.02273 65.571 5.73864 66.8949 5.73864C68.2188 5.73864 69.3608 6.02273 70.321 6.59091C71.2869 7.15341 72.0312 7.94318 72.554 8.96023C73.0767 9.97159 73.3381 11.1534 73.3381 12.5057C73.3381 13.8466 73.0767 15.0256 72.554 16.0426C72.0312 17.054 71.2869 17.8437 70.321 18.4119C69.3608 18.9744 68.2188 19.2557 66.8949 19.2557ZM66.9119 16.4432C67.5142 16.4432 68.017 16.2727 68.4205 15.9318C68.8239 15.5852 69.1278 15.1136 69.3324 14.517C69.5426 13.9205 69.6477 13.2415 69.6477 12.4801C69.6477 11.7188 69.5426 11.0398 69.3324 10.4432C69.1278 9.84659 68.8239 9.375 68.4205 9.02841C68.017 8.68182 67.5142 8.50852 66.9119 8.50852C66.304 8.50852 65.7926 8.68182 65.3778 9.02841C64.9688 9.375 64.6591 9.84659 64.4489 10.4432C64.2443 11.0398 64.142 11.7188 64.142 12.4801C64.142 13.2415 64.2443 13.9205 64.4489 14.517C64.6591 15.1136 64.9688 15.5852 65.3778 15.9318C65.7926 16.2727 66.304 16.4432 66.9119 16.4432ZM75.6989 19V5.90909H79.1591V8.21875H79.3125C79.5852 7.4517 80.0398 6.84659 80.6761 6.40341C81.3125 5.96023 82.0739 5.73864 82.9602 5.73864C83.858 5.73864 84.6222 5.96307 85.2528 6.41193C85.8835 6.85511 86.304 7.45739 86.5142 8.21875H86.6506C86.9176 7.46875 87.4006 6.86932 88.0994 6.42045C88.804 5.96591 89.6364 5.73864 90.5966 5.73864C91.8182 5.73864 92.8097 6.12784 93.571 6.90625C94.3381 7.67898 94.7216 8.77557 94.7216 10.196V19H91.0994V10.9119C91.0994 10.1847 90.9063 9.6392 90.5199 9.27557C90.1335 8.91193 89.6506 8.73011 89.071 8.73011C88.4119 8.73011 87.8977 8.94034 87.5284 9.3608C87.1591 9.77557 86.9744 10.3239 86.9744 11.0057V19H83.4545V10.8352C83.4545 10.1932 83.2699 9.68182 82.9006 9.30114C82.5369 8.92045 82.0568 8.73011 81.4602 8.73011C81.0568 8.73011 80.6932 8.83239 80.3693 9.03693C80.0511 9.2358 79.7983 9.51705 79.6108 9.88068C79.4233 10.2386 79.3295 10.6591 79.3295 11.142V19H75.6989ZM101.322 19.2472C100.487 19.2472 99.7429 19.1023 99.0895 18.8125C98.4361 18.517 97.919 18.0824 97.5384 17.5085C97.1634 16.929 96.9759 16.2074 96.9759 15.3438C96.9759 14.6165 97.1094 14.0057 97.3764 13.5114C97.6435 13.017 98.0071 12.6193 98.4673 12.3182C98.9276 12.017 99.4503 11.7898 100.036 11.6364C100.626 11.483 101.246 11.375 101.893 11.3125C102.655 11.233 103.268 11.1591 103.734 11.0909C104.2 11.017 104.538 10.9091 104.749 10.767C104.959 10.625 105.064 10.4148 105.064 10.1364V10.0852C105.064 9.54545 104.893 9.12784 104.553 8.83239C104.217 8.53693 103.74 8.3892 103.121 8.3892C102.467 8.3892 101.947 8.53409 101.561 8.82386C101.175 9.10795 100.919 9.46591 100.794 9.89773L97.4361 9.625C97.6065 8.82955 97.9418 8.14205 98.4418 7.5625C98.9418 6.97727 99.5866 6.52841 100.376 6.21591C101.172 5.89773 102.092 5.73864 103.138 5.73864C103.865 5.73864 104.561 5.82386 105.226 5.99432C105.896 6.16477 106.49 6.42898 107.007 6.78693C107.53 7.14489 107.942 7.60511 108.243 8.16761C108.544 8.72443 108.695 9.39205 108.695 10.1705V19H105.251V17.1847H105.149C104.939 17.5938 104.658 17.9545 104.305 18.267C103.953 18.5739 103.53 18.8153 103.036 18.9915C102.541 19.1619 101.97 19.2472 101.322 19.2472ZM102.362 16.7415C102.896 16.7415 103.368 16.6364 103.777 16.4261C104.186 16.2102 104.507 15.9205 104.74 15.5568C104.973 15.1932 105.089 14.7812 105.089 14.321V12.9318C104.976 13.0057 104.82 13.0739 104.621 13.1364C104.428 13.1932 104.209 13.2472 103.964 13.2983C103.72 13.3437 103.476 13.3864 103.232 13.4261C102.987 13.4602 102.766 13.4915 102.567 13.5199C102.141 13.5824 101.768 13.6818 101.45 13.8182C101.132 13.9545 100.885 14.1392 100.709 14.3722C100.533 14.5994 100.445 14.8835 100.445 15.2244C100.445 15.7188 100.624 16.0966 100.982 16.358C101.345 16.6136 101.805 16.7415 102.362 16.7415ZM122.403 9.64205L119.08 9.84659C119.023 9.5625 118.901 9.30682 118.713 9.07955C118.526 8.84659 118.278 8.66193 117.972 8.52557C117.67 8.38352 117.31 8.3125 116.889 8.3125C116.327 8.3125 115.852 8.43182 115.466 8.67045C115.08 8.90341 114.886 9.21591 114.886 9.60795C114.886 9.92045 115.011 10.1847 115.261 10.4006C115.511 10.6165 115.94 10.7898 116.548 10.9205L118.918 11.3977C120.19 11.6591 121.139 12.0795 121.764 12.6591C122.389 13.2386 122.702 14 122.702 14.9432C122.702 15.8011 122.449 16.554 121.943 17.2017C121.443 17.8494 120.756 18.3551 119.881 18.7188C119.011 19.0767 118.009 19.2557 116.872 19.2557C115.139 19.2557 113.759 18.8949 112.73 18.1733C111.707 17.446 111.108 16.4574 110.932 15.2074L114.503 15.0199C114.611 15.5483 114.872 15.9517 115.287 16.2301C115.702 16.5028 116.233 16.6392 116.881 16.6392C117.517 16.6392 118.028 16.517 118.415 16.2727C118.807 16.0227 119.006 15.7017 119.011 15.3097C119.006 14.9801 118.866 14.7102 118.594 14.5C118.321 14.2841 117.901 14.1193 117.332 14.0057L115.065 13.554C113.787 13.2983 112.835 12.8551 112.21 12.2244C111.591 11.5937 111.281 10.7898 111.281 9.8125C111.281 8.97159 111.509 8.24716 111.963 7.6392C112.423 7.03125 113.068 6.5625 113.898 6.23295C114.733 5.90341 115.71 5.73864 116.83 5.73864C118.483 5.73864 119.784 6.08807 120.733 6.78693C121.688 7.4858 122.244 8.4375 122.403 9.64205Z" fill="#0A66C2"/>
</svg>
