<svg width="66" height="66" viewBox="0 0 66 66" fill="none" xmlns="http://www.w3.org/2000/svg">
<path d="M22.0038 38.15C21.0538 38.15 20.2388 37.95 19.5588 37.55C18.8788 37.14 18.3588 36.55 17.9988 35.78C17.6388 35.01 17.4588 34.06 17.4588 32.93C17.4588 31.73 17.6738 30.715 18.1038 29.885C18.5438 29.055 19.1488 28.425 19.9188 27.995C20.6988 27.565 21.5938 27.35 22.6038 27.35C23.1338 27.35 23.6388 27.405 24.1188 27.515C24.6088 27.625 25.0238 27.795 25.3638 28.025L24.6438 29.495C24.3538 29.305 24.0388 29.175 23.6988 29.105C23.3688 29.025 23.0188 28.985 22.6488 28.985C21.6588 28.985 20.8738 29.29 20.2938 29.9C19.7138 30.51 19.4238 31.41 19.4238 32.6C19.4238 32.79 19.4288 33.015 19.4388 33.275C19.4488 33.525 19.4838 33.78 19.5438 34.04L18.9438 33.38C19.1238 32.97 19.3688 32.63 19.6788 32.36C19.9988 32.08 20.3738 31.87 20.8038 31.73C21.2438 31.59 21.7188 31.52 22.2288 31.52C22.9188 31.52 23.5338 31.655 24.0738 31.925C24.6138 32.185 25.0438 32.56 25.3638 33.05C25.6838 33.53 25.8438 34.095 25.8438 34.745C25.8438 35.435 25.6738 36.035 25.3338 36.545C24.9938 37.055 24.5338 37.45 23.9538 37.73C23.3738 38.01 22.7238 38.15 22.0038 38.15ZM21.8988 36.62C22.2988 36.62 22.6538 36.55 22.9638 36.41C23.2738 36.26 23.5138 36.05 23.6838 35.78C23.8638 35.51 23.9538 35.195 23.9538 34.835C23.9538 34.285 23.7638 33.85 23.3838 33.53C23.0038 33.21 22.4938 33.05 21.8538 33.05C21.4338 33.05 21.0638 33.13 20.7438 33.29C20.4338 33.44 20.1838 33.65 19.9938 33.92C19.8138 34.19 19.7238 34.5 19.7238 34.85C19.7238 35.17 19.8088 35.465 19.9788 35.735C20.1488 36.005 20.3938 36.22 20.7138 36.38C21.0438 36.54 21.4388 36.62 21.8988 36.62ZM31.2431 38.15C30.4131 38.15 29.6631 37.94 28.9931 37.52C28.3331 37.1 27.8131 36.49 27.4331 35.69C27.0531 34.88 26.8631 33.9 26.8631 32.75C26.8631 31.6 27.0531 30.625 27.4331 29.825C27.8131 29.015 28.3331 28.4 28.9931 27.98C29.6631 27.56 30.4131 27.35 31.2431 27.35C32.0831 27.35 32.8331 27.56 33.4931 27.98C34.1531 28.4 34.6731 29.015 35.0531 29.825C35.4431 30.625 35.6381 31.6 35.6381 32.75C35.6381 33.9 35.4431 34.88 35.0531 35.69C34.6731 36.49 34.1531 37.1 33.4931 37.52C32.8331 37.94 32.0831 38.15 31.2431 38.15ZM31.2431 36.455C31.7331 36.455 32.1581 36.325 32.5181 36.065C32.8781 35.795 33.1581 35.385 33.3581 34.835C33.5681 34.285 33.6731 33.59 33.6731 32.75C33.6731 31.9 33.5681 31.205 33.3581 30.665C33.1581 30.115 32.8781 29.71 32.5181 29.45C32.1581 29.18 31.7331 29.045 31.2431 29.045C30.7731 29.045 30.3531 29.18 29.9831 29.45C29.6231 29.71 29.3381 30.115 29.1281 30.665C28.9281 31.205 28.8281 31.9 28.8281 32.75C28.8281 33.59 28.9281 34.285 29.1281 34.835C29.3381 35.385 29.6231 35.795 29.9831 36.065C30.3531 36.325 30.7731 36.455 31.2431 36.455ZM38.4259 38L45.5959 27.5H47.0659L39.8959 38H38.4259ZM39.2959 33.155C38.8059 33.155 38.3709 33.035 37.9909 32.795C37.6109 32.555 37.3159 32.22 37.1059 31.79C36.8959 31.36 36.7909 30.855 36.7909 30.275C36.7909 29.695 36.8959 29.19 37.1059 28.76C37.3159 28.33 37.6109 27.995 37.9909 27.755C38.3709 27.515 38.8059 27.395 39.2959 27.395C39.8059 27.395 40.2459 27.515 40.6159 27.755C40.9959 27.995 41.2909 28.33 41.5009 28.76C41.7109 29.19 41.8159 29.695 41.8159 30.275C41.8159 30.855 41.7109 31.36 41.5009 31.79C41.2909 32.22 40.9959 32.555 40.6159 32.795C40.2459 33.035 39.8059 33.155 39.2959 33.155ZM39.3109 32.105C39.7109 32.105 40.0209 31.95 40.2409 31.64C40.4709 31.32 40.5859 30.865 40.5859 30.275C40.5859 29.685 40.4709 29.235 40.2409 28.925C40.0209 28.605 39.7109 28.445 39.3109 28.445C38.9109 28.445 38.5909 28.605 38.3509 28.925C38.1209 29.245 38.0059 29.695 38.0059 30.275C38.0059 30.855 38.1209 31.305 38.3509 31.625C38.5909 31.945 38.9109 32.105 39.3109 32.105ZM46.1809 38.105C45.6909 38.105 45.2559 37.985 44.8759 37.745C44.4959 37.505 44.2009 37.17 43.9909 36.74C43.7809 36.31 43.6759 35.805 43.6759 35.225C43.6759 34.645 43.7809 34.14 43.9909 33.71C44.2009 33.28 44.4959 32.945 44.8759 32.705C45.2559 32.465 45.6909 32.345 46.1809 32.345C46.6909 32.345 47.1309 32.465 47.5009 32.705C47.8809 32.945 48.1759 33.28 48.3859 33.71C48.5959 34.14 48.7009 34.645 48.7009 35.225C48.7009 35.805 48.5959 36.31 48.3859 36.74C48.1759 37.17 47.8809 37.505 47.5009 37.745C47.1309 37.985 46.6909 38.105 46.1809 38.105ZM46.1809 37.055C46.5809 37.055 46.8959 36.895 47.1259 36.575C47.3559 36.255 47.4709 35.805 47.4709 35.225C47.4709 34.645 47.3559 34.195 47.1259 33.875C46.8959 33.555 46.5809 33.395 46.1809 33.395C45.7909 33.395 45.4759 33.555 45.2359 33.875C45.0059 34.185 44.8909 34.635 44.8909 35.225C44.8909 35.815 45.0059 36.27 45.2359 36.59C45.4759 36.9 45.7909 37.055 46.1809 37.055Z" fill="#3B82F6"/>
<circle cx="33" cy="33" r="29.25" stroke="#B1CDFB" stroke-width="7.5" stroke-linecap="round"/>
<path d="M61.2533 41.0437C62.4145 36.6543 62.5633 32.0532 61.688 27.5962C60.8127 23.1393 58.9368 18.946 56.2056 15.3408C53.4743 11.7356 49.9608 8.81512 45.9369 6.80525C41.913 4.79537 37.4866 3.75 33 3.75" stroke="#3B82F6" stroke-width="7.5" stroke-linecap="round"/>
</svg>
