<svg width="109" height="109" viewBox="0 0 109 109" fill="none" xmlns="http://www.w3.org/2000/svg">
<path d="M27.1307 63.7852V48.1852L28.4987 49.6012H23.5787V46.9852H30.2507V63.7852H27.1307ZM40.5913 64.0252C39.2633 64.0252 38.0633 63.6892 36.9913 63.0172C35.9353 62.3452 35.1033 61.3692 34.4953 60.0892C33.8873 58.7932 33.5833 57.2252 33.5833 55.3852C33.5833 53.5452 33.8873 51.9852 34.4953 50.7052C35.1033 49.4092 35.9353 48.4252 36.9913 47.7532C38.0633 47.0812 39.2633 46.7452 40.5913 46.7452C41.9353 46.7452 43.1353 47.0812 44.1913 47.7532C45.2473 48.4252 46.0793 49.4092 46.6873 50.7052C47.3113 51.9852 47.6233 53.5452 47.6233 55.3852C47.6233 57.2252 47.3113 58.7932 46.6873 60.0892C46.0793 61.3692 45.2473 62.3452 44.1913 63.0172C43.1353 63.6892 41.9353 64.0252 40.5913 64.0252ZM40.5913 61.3132C41.3753 61.3132 42.0553 61.1052 42.6313 60.6892C43.2073 60.2572 43.6553 59.6012 43.9753 58.7212C44.3113 57.8412 44.4793 56.7292 44.4793 55.3852C44.4793 54.0252 44.3113 52.9132 43.9753 52.0492C43.6553 51.1692 43.2073 50.5212 42.6313 50.1052C42.0553 49.6732 41.3753 49.4572 40.5913 49.4572C39.8393 49.4572 39.1673 49.6732 38.5753 50.1052C37.9993 50.5212 37.5433 51.1692 37.2073 52.0492C36.8873 52.9132 36.7273 54.0252 36.7273 55.3852C36.7273 56.7292 36.8873 57.8412 37.2073 58.7212C37.5433 59.6012 37.9993 60.2572 38.5753 60.6892C39.1673 61.1052 39.8393 61.3132 40.5913 61.3132ZM56.7398 64.0252C55.4118 64.0252 54.2118 63.6892 53.1398 63.0172C52.0838 62.3452 51.2518 61.3692 50.6438 60.0892C50.0358 58.7932 49.7318 57.2252 49.7318 55.3852C49.7318 53.5452 50.0358 51.9852 50.6438 50.7052C51.2518 49.4092 52.0838 48.4252 53.1398 47.7532C54.2118 47.0812 55.4118 46.7452 56.7398 46.7452C58.0838 46.7452 59.2838 47.0812 60.3398 47.7532C61.3958 48.4252 62.2278 49.4092 62.8358 50.7052C63.4598 51.9852 63.7718 53.5452 63.7718 55.3852C63.7718 57.2252 63.4598 58.7932 62.8358 60.0892C62.2278 61.3692 61.3958 62.3452 60.3398 63.0172C59.2838 63.6892 58.0838 64.0252 56.7398 64.0252ZM56.7398 61.3132C57.5238 61.3132 58.2038 61.1052 58.7798 60.6892C59.3558 60.2572 59.8038 59.6012 60.1238 58.7212C60.4598 57.8412 60.6278 56.7292 60.6278 55.3852C60.6278 54.0252 60.4598 52.9132 60.1238 52.0492C59.8038 51.1692 59.3558 50.5212 58.7798 50.1052C58.2038 49.6732 57.5238 49.4572 56.7398 49.4572C55.9878 49.4572 55.3158 49.6732 54.7238 50.1052C54.1478 50.5212 53.6918 51.1692 53.3558 52.0492C53.0358 52.9132 52.8758 54.0252 52.8758 55.3852C52.8758 56.7292 53.0358 57.8412 53.3558 58.7212C53.6918 59.6012 54.1478 60.2572 54.7238 60.6892C55.3158 61.1052 55.9878 61.3132 56.7398 61.3132ZM68.2322 63.7852L79.7042 46.9852H82.0562L70.5842 63.7852H68.2322ZM69.6242 56.0332C68.8402 56.0332 68.1442 55.8412 67.5362 55.4572C66.9282 55.0732 66.4562 54.5372 66.1202 53.8492C65.7842 53.1612 65.6162 52.3532 65.6162 51.4252C65.6162 50.4972 65.7842 49.6892 66.1202 49.0012C66.4562 48.3132 66.9282 47.7772 67.5362 47.3932C68.1442 47.0092 68.8402 46.8172 69.6242 46.8172C70.4402 46.8172 71.1442 47.0092 71.7362 47.3932C72.3442 47.7772 72.8162 48.3132 73.1522 49.0012C73.4882 49.6892 73.6562 50.4972 73.6562 51.4252C73.6562 52.3532 73.4882 53.1612 73.1522 53.8492C72.8162 54.5372 72.3442 55.0732 71.7362 55.4572C71.1442 55.8412 70.4402 56.0332 69.6242 56.0332ZM69.6482 54.3532C70.2882 54.3532 70.7842 54.1052 71.1362 53.6092C71.5042 53.0972 71.6882 52.3692 71.6882 51.4252C71.6882 50.4812 71.5042 49.7612 71.1362 49.2652C70.7842 48.7532 70.2882 48.4972 69.6482 48.4972C69.0082 48.4972 68.4962 48.7532 68.1122 49.2652C67.7442 49.7772 67.5602 50.4972 67.5602 51.4252C67.5602 52.3532 67.7442 53.0732 68.1122 53.5852C68.4962 54.0972 69.0082 54.3532 69.6482 54.3532ZM80.6402 63.9532C79.8562 63.9532 79.1602 63.7612 78.5522 63.3772C77.9442 62.9932 77.4722 62.4572 77.1362 61.7692C76.8002 61.0812 76.6322 60.2732 76.6322 59.3452C76.6322 58.4172 76.8002 57.6092 77.1362 56.9212C77.4722 56.2332 77.9442 55.6972 78.5522 55.3132C79.1602 54.9292 79.8562 54.7372 80.6402 54.7372C81.4562 54.7372 82.1602 54.9292 82.7522 55.3132C83.3602 55.6972 83.8322 56.2332 84.1682 56.9212C84.5042 57.6092 84.6722 58.4172 84.6722 59.3452C84.6722 60.2732 84.5042 61.0812 84.1682 61.7692C83.8322 62.4572 83.3602 62.9932 82.7522 63.3772C82.1602 63.7612 81.4562 63.9532 80.6402 63.9532ZM80.6402 62.2732C81.2802 62.2732 81.7842 62.0172 82.1522 61.5052C82.5202 60.9932 82.7042 60.2732 82.7042 59.3452C82.7042 58.4172 82.5202 57.6972 82.1522 57.1852C81.7842 56.6732 81.2802 56.4172 80.6402 56.4172C80.0162 56.4172 79.5122 56.6732 79.1282 57.1852C78.7602 57.6812 78.5762 58.4012 78.5762 59.3452C78.5762 60.2892 78.7602 61.0172 79.1282 61.5292C79.5122 62.0252 80.0162 62.2732 80.6402 62.2732Z" fill="#3B82F6"/>
<circle cx="54.4297" cy="54.7852" r="48" stroke="#B1CDFB" stroke-width="12" stroke-linecap="round"/>
<path d="M100.794 67.7852C102.7 60.6056 102.944 53.0796 101.507 45.7896C100.071 38.4995 96.9927 31.6407 92.5106 25.7438C88.0286 19.8469 82.2629 15.07 75.6595 11.7825C69.0562 8.49503 61.7923 6.78516 54.4297 6.78516" stroke="#3B82F6" stroke-width="12" stroke-linecap="round"/>
</svg>
