<svg width="20" height="20" viewBox="0 0 20 20" fill="none" xmlns="http://www.w3.org/2000/svg">
<path fill-rule="evenodd" clip-rule="evenodd" d="M12.9097 5.77919C13.1698 6.00619 13.1965 6.40102 12.9695 6.66104L6.42191 14.161C6.30322 14.297 6.13156 14.375 5.95109 14.375C5.77062 14.375 5.59895 14.297 5.48026 14.161L2.86122 11.161C2.63421 10.901 2.66098 10.5062 2.921 10.2792C3.18103 10.0522 3.57585 10.0789 3.80286 10.339L5.95109 12.7997L12.0279 5.83897C12.2549 5.57894 12.6497 5.55218 12.9097 5.77919Z" fill="#383838"/>
<path fill-rule="evenodd" clip-rule="evenodd" d="M17.0966 5.84955C17.3465 6.08761 17.3562 6.48322 17.1181 6.73317L9.97505 14.2332C9.84881 14.3657 9.6708 14.4363 9.48804 14.4262C9.30527 14.4161 9.13611 14.3264 9.02522 14.1808L8.66828 13.712C8.45917 13.4374 8.51227 13.0452 8.78689 12.8361C9.02282 12.6565 9.34548 12.6704 9.56431 12.852L16.213 5.87109C16.451 5.62114 16.8466 5.61149 17.0966 5.84955Z" fill="#383838"/>
</svg>
