<svg width="18" height="18" viewBox="0 0 18 18" fill="none" xmlns="http://www.w3.org/2000/svg">
<path fill-rule="evenodd" clip-rule="evenodd" d="M7.82796 0.932441C8.56914 0.578184 9.43078 0.578184 10.172 0.932441C10.494 1.08634 10.789 1.33801 11.1975 1.68648C11.2187 1.70456 11.2403 1.72291 11.2621 1.74152C11.4605 1.9106 11.523 1.96258 11.5862 2.00496C11.747 2.11274 11.9276 2.18754 12.1175 2.22504C12.1922 2.23978 12.2731 2.2472 12.533 2.26794C12.5616 2.27022 12.5898 2.27246 12.6175 2.27466C13.1528 2.31714 13.5394 2.34781 13.8759 2.46667C14.6505 2.74026 15.2598 3.34954 15.5334 4.12413C15.6522 4.46064 15.6829 4.84722 15.7254 5.3825C15.7276 5.41029 15.7298 5.43847 15.7321 5.46707C15.7528 5.72692 15.7603 5.80786 15.775 5.88253C15.8125 6.07245 15.8873 6.25304 15.9951 6.41385C16.0375 6.47707 16.0894 6.53955 16.2585 6.73795C16.2771 6.7598 16.2955 6.78131 16.3136 6.80253C16.662 7.21105 16.9137 7.50609 17.0676 7.82808C17.4219 8.56926 17.4219 9.4309 17.0676 10.1721C16.9137 10.4941 16.662 10.7891 16.3136 11.1976C16.2955 11.2188 16.2771 11.2404 16.2585 11.2622C16.0894 11.4606 16.0375 11.5231 15.9951 11.5863C15.8873 11.7471 15.8125 11.9277 15.775 12.1176C15.7603 12.1923 15.7528 12.2733 15.7321 12.5331C15.7298 12.5617 15.7276 12.5899 15.7254 12.6177C15.6829 13.1529 15.6522 13.5395 15.5334 13.876C15.2598 14.6506 14.6505 15.2599 13.8759 15.5335C13.5394 15.6524 13.1528 15.683 12.6175 15.7255C12.5898 15.7277 12.5616 15.7299 12.533 15.7322C12.2731 15.753 12.1922 15.7604 12.1175 15.7751C11.9276 15.8126 11.747 15.8874 11.5862 15.9952C11.523 16.0376 11.4605 16.0896 11.2621 16.2586C11.2402 16.2773 11.2187 16.2956 11.1975 16.3137C10.789 16.6622 10.494 16.9138 10.172 17.0677C9.43078 17.422 8.56914 17.422 7.82796 17.0677C7.50597 16.9138 7.21092 16.6622 6.80238 16.3137C6.78118 16.2956 6.75967 16.2773 6.73783 16.2586C6.53943 16.0896 6.47695 16.0376 6.41372 15.9952C6.25292 15.8874 6.07233 15.8126 5.88241 15.7751C5.80774 15.7604 5.72679 15.753 5.46695 15.7322C5.43835 15.7299 5.41016 15.7277 5.38238 15.7255C4.8471 15.683 4.46051 15.6524 4.124 15.5335C3.34942 15.2599 2.74014 14.6506 2.46655 13.876C2.34769 13.5395 2.31701 13.1529 2.27454 12.6177C2.27233 12.5899 2.2701 12.5617 2.26781 12.5331C2.24708 12.2732 2.23966 12.1923 2.22492 12.1176C2.18742 11.9277 2.11262 11.7471 2.00484 11.5863C1.96246 11.5231 1.91048 11.4606 1.7414 11.2622C1.72279 11.2404 1.70444 11.2189 1.68636 11.1977C1.33789 10.7891 1.08622 10.4941 0.932319 10.1721C0.578062 9.4309 0.578062 8.56926 0.932319 7.82808C1.08622 7.50609 1.33788 7.21104 1.68635 6.80251C1.70444 6.7813 1.72279 6.75979 1.7414 6.73795C1.91047 6.53955 1.96246 6.47707 2.00484 6.41385C2.11262 6.25304 2.18742 6.07245 2.22492 5.88253C2.23966 5.80786 2.24708 5.72692 2.26781 5.46707C2.2701 5.43847 2.27233 5.41029 2.27454 5.3825C2.31701 4.84722 2.34769 4.46064 2.46655 4.12413C2.74014 3.34954 3.34942 2.74026 4.12401 2.46667C4.46051 2.34781 4.8471 2.31714 5.38238 2.27466C5.41016 2.27246 5.43835 2.27022 5.46695 2.26794C5.7268 2.2472 5.80774 2.23978 5.88241 2.22504C6.07233 2.18754 6.25292 2.11274 6.41372 2.00496C6.47695 1.96258 6.53943 1.9106 6.73783 1.74152C6.75967 1.72291 6.78118 1.70456 6.80239 1.68647C7.21092 1.33801 7.50597 1.08634 7.82796 0.932441ZM9.63104 2.06416C9.23194 1.87341 8.76798 1.87341 8.36888 2.06416C8.21459 2.13791 8.05195 2.26968 7.55142 2.69622C7.5432 2.70323 7.53509 2.71014 7.52709 2.71697C7.36283 2.857 7.24292 2.95922 7.11209 3.04691C6.81345 3.24708 6.47807 3.386 6.12536 3.45563C5.97084 3.48614 5.81377 3.49864 5.5986 3.51577C5.58812 3.5166 5.57749 3.51745 5.56673 3.51831C4.91119 3.57062 4.70301 3.59245 4.54176 3.64941C4.12467 3.79673 3.7966 4.1248 3.64928 4.54188C3.59233 4.70314 3.5705 4.91131 3.51819 5.56685C3.51733 5.57762 3.51648 5.58824 3.51565 5.59872C3.49852 5.81389 3.48602 5.97096 3.45551 6.12548C3.38588 6.47819 3.24695 6.81357 3.04679 7.11222C2.9591 7.24305 2.85688 7.36295 2.71684 7.52722C2.71002 7.53522 2.7031 7.54333 2.6961 7.55155C2.26956 8.05207 2.13779 8.21471 2.06404 8.36901C1.87328 8.7681 1.87328 9.23206 2.06404 9.63116C2.13779 9.78546 2.26956 9.9481 2.6961 10.4486C2.70311 10.4568 2.71002 10.465 2.71684 10.473C2.85688 10.6372 2.9591 10.7571 3.04679 10.8879C3.24695 11.1866 3.38588 11.522 3.45551 11.8747C3.48602 12.0292 3.49852 12.1863 3.51565 12.4014C3.51648 12.4119 3.51733 12.4225 3.51819 12.4333C3.5705 13.0889 3.59233 13.297 3.64928 13.4583C3.7966 13.8754 4.12467 14.2034 4.54176 14.3508C4.70301 14.4077 4.91119 14.4295 5.56673 14.4819L5.5986 14.4844C5.81377 14.5015 5.97084 14.514 6.12536 14.5445C6.47807 14.6142 6.81345 14.7531 7.11209 14.9533C7.24293 15.0409 7.36283 15.1432 7.5271 15.2832L7.55142 15.3039C8.05195 15.7305 8.21459 15.8623 8.36888 15.936C8.76798 16.1268 9.23194 16.1268 9.63104 15.936C9.78533 15.8623 9.94797 15.7305 10.4485 15.3039L10.4728 15.2832C10.6371 15.1432 10.757 15.0409 10.8878 14.9533C11.1865 14.7531 11.5219 14.6142 11.8746 14.5445C12.0291 14.514 12.1861 14.5015 12.4013 14.4844L12.4332 14.4819C13.0887 14.4295 13.2969 14.4077 13.4582 14.3508C13.8752 14.2034 14.2033 13.8754 14.3506 13.4583C14.4076 13.297 14.4294 13.0889 14.4817 12.4333L14.4843 12.4014C14.5014 12.1863 14.5139 12.0292 14.5444 11.8747C14.614 11.522 14.753 11.1866 14.9531 10.888C15.0408 10.7571 15.143 10.6372 15.2831 10.473L15.3038 10.4486C15.7304 9.94809 15.8621 9.78546 15.9359 9.63116C16.1266 9.23206 16.1266 8.7681 15.9359 8.36901C15.8621 8.21471 15.7304 8.05207 15.3038 7.55155L15.2831 7.52719C15.143 7.36294 15.0408 7.24304 14.9531 7.11221C14.753 6.81357 14.614 6.47819 14.5444 6.12548C14.5139 5.97096 14.5014 5.81389 14.4843 5.59872L14.4817 5.56685C14.4294 4.91131 14.4076 4.70314 14.3506 4.54188C14.2033 4.1248 13.8752 3.79673 13.4582 3.64941C13.2969 3.59245 13.0887 3.57062 12.4332 3.51831C12.4224 3.51745 12.4118 3.5166 12.4013 3.51577C12.1861 3.49864 12.0291 3.48614 11.8746 3.45563C11.5219 3.386 11.1865 3.24708 10.8878 3.04691C10.757 2.95922 10.6371 2.857 10.4728 2.71696C10.4648 2.71014 10.4567 2.70323 10.4485 2.69622C9.94797 2.26968 9.78533 2.13791 9.63104 2.06416ZM12.3702 6.46602C12.6152 6.71095 12.6152 7.10806 12.3702 7.35298L8.18909 11.5341C7.94417 11.7791 7.54706 11.7791 7.30213 11.5341L5.62967 9.86168C5.38475 9.61675 5.38475 9.21965 5.62967 8.97472C5.8746 8.72979 6.2717 8.72979 6.51663 8.97472L7.74561 10.2037L11.4833 6.46602C11.7282 6.2211 12.1253 6.2211 12.3702 6.46602Z" fill="#58607C"/>
</svg>
