<svg width="25" height="24" viewBox="0 0 25 24" fill="none" xmlns="http://www.w3.org/2000/svg">
<g id="Outline / School / Diploma">
<path id="Vector" fill-rule="evenodd" clip-rule="evenodd" d="M8.44513 1.25H16.5549C17.9225 1.24998 19.0248 1.24996 19.8918 1.36652C20.7919 1.48754 21.5497 1.74643 22.1517 2.34835C22.7536 2.95027 23.0125 3.70814 23.1335 4.60825C23.25 5.47522 23.25 6.57754 23.25 7.94513V12.0549C23.25 13.4225 23.25 14.5248 23.1335 15.3918C23.0125 16.2919 22.7536 17.0497 22.1517 17.6516C21.6537 18.1496 21.0469 18.4146 20.3361 18.5593C19.9739 18.6331 19.5724 18.6779 19.1302 18.7053C19.1324 18.7104 19.1347 18.7155 19.1369 18.7207C19.4098 19.361 19.1769 20.1059 18.557 20.4572C18.3707 20.5629 18.1702 20.6009 18.0301 20.6227C17.8836 20.6454 17.7006 20.6633 17.4974 20.6832L17.4776 20.6851C17.3468 20.6979 17.2726 20.7053 17.2175 20.7132C17.1924 20.7168 17.1791 20.7194 17.1739 20.7206C17.1583 20.7267 17.1477 20.7343 17.1409 20.7408C17.1358 20.7457 17.1321 20.7506 17.1294 20.7557C17.1282 20.7613 17.1265 20.7704 17.1244 20.7839C17.1166 20.8342 17.1091 20.903 17.0957 21.0292L17.0935 21.0498C17.0729 21.2432 17.054 21.421 17.0298 21.5641C17.0066 21.702 16.9648 21.9054 16.8486 22.0938C16.4743 22.7006 15.7273 22.8883 15.1126 22.6475C14.9208 22.5723 14.7668 22.4498 14.6557 22.3543C14.5419 22.2565 14.4078 22.1279 14.2577 21.984L12.5 20.2989L10.7424 21.984C10.5922 22.1279 10.4581 22.2565 10.3443 22.3543C10.2332 22.4498 10.0792 22.5723 9.88737 22.6475C9.27269 22.8883 8.52567 22.7006 8.1514 22.0938C8.03523 21.9054 7.99345 21.702 7.97018 21.5641C7.94605 21.421 7.92711 21.2431 7.90651 21.0497L7.90432 21.0292C7.89088 20.903 7.88336 20.8342 7.87555 20.7839C7.87346 20.7704 7.87178 20.7613 7.87065 20.7557C7.86789 20.7506 7.86415 20.7457 7.85908 20.7408C7.85227 20.7343 7.84174 20.7267 7.82614 20.7206C7.82086 20.7194 7.80762 20.7168 7.78255 20.7132C7.72741 20.7053 7.65319 20.6979 7.52244 20.6851L7.50262 20.6832C7.29938 20.6633 7.11637 20.6454 6.96992 20.6227C6.82977 20.6009 6.62935 20.5629 6.44298 20.4572C5.82307 20.1059 5.59019 19.361 5.86311 18.7207C5.86532 18.7155 5.86757 18.7104 5.86985 18.7052C5.47118 18.6805 5.10714 18.6418 4.77635 18.5811C4.01836 18.4418 3.37328 18.1766 2.84835 17.6517C2.24643 17.0497 1.98754 16.2919 1.86652 15.3918C1.74996 14.5248 1.74998 13.4225 1.75 12.0549V7.94513C1.74998 6.57754 1.74996 5.47522 1.86652 4.60825C1.98754 3.70814 2.24643 2.95027 2.84835 2.34835C3.45027 1.74643 4.20814 1.48754 5.10825 1.36652C5.97522 1.24996 7.07754 1.24998 8.44513 1.25ZM7.2329 17.2462L8.0487 16.4641L8.75788 15.7549C8.88413 13.7981 10.5113 12.25 12.5 12.25C14.4887 12.25 16.1159 13.7981 16.2421 15.7549L16.9513 16.4641L17.8122 17.2894L17.8117 17.2458C18.7984 17.2353 19.5017 17.1984 20.0368 17.0895C20.5513 16.9847 20.859 16.8229 21.091 16.591C21.3678 16.3142 21.5482 15.9257 21.6469 15.1919C21.7484 14.4365 21.75 13.4354 21.75 12V8C21.75 6.56458 21.7484 5.56347 21.6469 4.80812C21.5482 4.07435 21.3678 3.68577 21.091 3.40901C20.8142 3.13225 20.4257 2.9518 19.6919 2.85315C18.9365 2.75159 17.9354 2.75 16.5 2.75H8.5C7.06458 2.75 6.06347 2.75159 5.30812 2.85315C4.57435 2.9518 4.18577 3.13225 3.90901 3.40901C3.63225 3.68577 3.4518 4.07435 3.35315 4.80812C3.25159 5.56347 3.25 6.56459 3.25 8V12C3.25 13.4354 3.25159 14.4365 3.35315 15.1919C3.4518 15.9257 3.63225 16.3142 3.90901 16.591C4.15246 16.8344 4.48054 17.0016 5.04735 17.1057C5.58573 17.2046 6.28062 17.2368 7.2329 17.2462ZM15.9159 17.5495C15.5094 18.4444 14.7614 19.1513 13.8384 19.5041L15.2819 20.888C15.4099 21.0107 15.5009 21.0977 15.5719 21.1622C15.581 21.0864 15.5912 20.9919 15.6041 20.8702C15.6059 20.8537 15.6076 20.8368 15.6094 20.8197C15.6285 20.636 15.6511 20.4185 15.7269 20.2221C15.8949 19.7871 16.2449 19.4585 16.6765 19.3054C16.8708 19.2364 17.0859 19.2158 17.2795 19.1973C17.2969 19.1956 17.3143 19.1939 17.3314 19.1922C17.4388 19.1817 17.5267 19.1731 17.6 19.1652C17.543 19.1094 17.473 19.0423 17.3857 18.9586L15.9159 17.5495ZM12.5301 18.2498L12.5 18.2209L12.4699 18.2498C11.2411 18.2337 10.25 17.2326 10.25 16C10.25 14.7574 11.2574 13.75 12.5 13.75C13.7426 13.75 14.75 14.7574 14.75 16C14.75 17.2326 13.7589 18.2337 12.5301 18.2498ZM11.1616 19.5041L9.71809 20.888C9.59009 21.0107 9.49913 21.0977 9.42814 21.1622C9.41902 21.0864 9.40885 20.9919 9.39588 20.8702C9.39412 20.8537 9.39237 20.8368 9.39059 20.8197C9.37152 20.636 9.34895 20.4185 9.2731 20.2221C9.10513 19.7871 8.75507 19.4585 8.32352 19.3054C8.12918 19.2364 7.91411 19.2158 7.72052 19.1973C7.70304 19.1956 7.68573 19.1939 7.66863 19.1922C7.5612 19.1817 7.47333 19.1731 7.40005 19.1652C7.45701 19.1094 7.52695 19.0423 7.61427 18.9586L9.08407 17.5495C9.49065 18.4444 10.2386 19.1513 11.1616 19.5041ZM8.75 6C8.75 5.58579 9.08579 5.25 9.5 5.25H15.5C15.9142 5.25 16.25 5.58579 16.25 6C16.25 6.41421 15.9142 6.75 15.5 6.75H9.5C9.08579 6.75 8.75 6.41421 8.75 6ZM6.75 9.5C6.75 9.08579 7.08579 8.75 7.5 8.75H17.5C17.9142 8.75 18.25 9.08579 18.25 9.5C18.25 9.91422 17.9142 10.25 17.5 10.25H7.5C7.08579 10.25 6.75 9.91422 6.75 9.5Z" />
</g>
</svg>
