<svg width="20" height="20" viewBox="0 0 20 20" fill="none" xmlns="http://www.w3.org/2000/svg">
<g id="Outline / Messages, Conversation / Pen New Square">
<path id="Vector" fill-rule="evenodd" clip-rule="evenodd" d="M9.95251 1.04163L11.2503 1.04163C11.5955 1.04163 11.8753 1.32145 11.8753 1.66663C11.8753 2.0118 11.5955 2.29163 11.2503 2.29163H10.0003C8.01847 2.29163 6.59495 2.29295 5.51164 2.4386C4.4463 2.58183 3.80404 2.85424 3.32932 3.32896C2.85461 3.80367 2.5822 4.44594 2.43897 5.51127C2.29332 6.59459 2.29199 8.01811 2.29199 9.99996C2.29199 11.9818 2.29332 13.4053 2.43897 14.4886C2.5822 15.554 2.85461 16.1962 3.32932 16.671C3.80404 17.1457 4.4463 17.4181 5.51164 17.5613C6.59495 17.707 8.01847 17.7083 10.0003 17.7083C11.9822 17.7083 13.4057 17.707 14.489 17.5613C15.5543 17.4181 16.1966 17.1457 16.6713 16.671C17.146 16.1962 17.4185 15.554 17.5617 14.4886C17.7073 13.4053 17.7087 11.9818 17.7087 9.99996V8.74996C17.7087 8.40478 17.9885 8.12496 18.3337 8.12496C18.6788 8.12496 18.9587 8.40478 18.9587 8.74996V10.0478C18.9587 11.9714 18.9587 13.479 18.8005 14.6552C18.6387 15.8592 18.3009 16.8092 17.5552 17.5548C16.8095 18.3005 15.8595 18.6383 14.6556 18.8002C13.4793 18.9583 11.9718 18.9583 10.0481 18.9583H9.95252C8.02885 18.9583 6.52132 18.9583 5.34508 18.8002C4.14113 18.6383 3.19111 18.3005 2.44544 17.5548C1.69976 16.8092 1.36198 15.8592 1.20011 14.6552C1.04197 13.479 1.04198 11.9714 1.04199 10.0478V9.95214C1.04198 8.02848 1.04197 6.52095 1.20011 5.34471C1.36198 4.14077 1.69976 3.19075 2.44544 2.44507C3.19111 1.6994 4.14113 1.36161 5.34508 1.19975C6.52132 1.04161 8.02885 1.04162 9.95251 1.04163ZM13.9758 1.89656C15.1157 0.75665 16.9638 0.75665 18.1037 1.89656C19.2436 3.03646 19.2436 4.88461 18.1037 6.02452L12.5636 11.5646C12.2542 11.874 12.0604 12.0679 11.8441 12.2366C11.5894 12.4353 11.3138 12.6056 11.0221 12.7446C10.7745 12.8626 10.5144 12.9493 10.0993 13.0876L7.67888 13.8945C7.232 14.0434 6.73933 13.9271 6.40625 13.594C6.07318 13.261 5.95687 12.7683 6.10583 12.3214L6.91263 9.90098C7.05098 9.48584 7.13765 9.22579 7.25566 8.97817C7.39465 8.68652 7.565 8.41089 7.7637 8.15614C7.9324 7.93985 8.12624 7.74603 8.4357 7.43662L13.9758 1.89656ZM17.2198 2.78044C16.5681 2.12869 15.5114 2.12869 14.8597 2.78044L14.5458 3.09429C14.5647 3.17417 14.5912 3.26935 14.628 3.37551C14.7474 3.71973 14.9734 4.17305 15.4003 4.59995C15.8272 5.02685 16.2806 5.25285 16.6248 5.37227C16.7309 5.4091 16.8261 5.43556 16.906 5.45448L17.2198 5.14063C17.8716 4.48888 17.8716 3.43219 17.2198 2.78044ZM15.9213 6.4392C15.4913 6.25429 14.9905 5.95784 14.5164 5.48384C14.0424 5.00983 13.746 4.50898 13.5611 4.07901L9.34825 8.29184C9.00115 8.63894 8.86503 8.77659 8.74934 8.92492C8.60647 9.10808 8.48399 9.30625 8.38406 9.51594C8.30313 9.68576 8.24089 9.86907 8.08566 10.3347L7.72575 11.4145L8.5858 12.2745L9.66554 11.9146C10.1312 11.7594 10.3145 11.6972 10.4843 11.6162C10.694 11.5163 10.8922 11.3938 11.0754 11.2509C11.2237 11.1353 11.3613 10.9991 11.7084 10.652L15.9213 6.4392Z" fill="#58607C"/>
</g>
</svg>
