<svg width="37" height="20" viewBox="0 0 37 20" fill="none" xmlns="http://www.w3.org/2000/svg">
    <path d="M0 10H11" stroke="#AB353F" stroke-dasharray="2 2" />
    <path d="M26 10H37" stroke="#AB353F" stroke-dasharray="2 2" />
    <path
        d="M17.625 14.1667H19.375V9.16675H17.625V14.1667ZM18.5 1.66675C13.67 1.66675 9.75 5.40008 9.75 10.0001C9.75 14.6001 13.67 18.3334 18.5 18.3334C23.33 18.3334 27.25 14.6001 27.25 10.0001C27.25 5.40008 23.33 1.66675 18.5 1.66675ZM18.5 16.6667C14.6413 16.6667 11.5 13.6751 11.5 10.0001C11.5 6.32508 14.6413 3.33341 18.5 3.33341C22.3588 3.33341 25.5 6.32508 25.5 10.0001C25.5 13.6751 22.3588 16.6667 18.5 16.6667ZM17.625 7.50008H19.375V5.83342H17.625V7.50008Z"
        fill="#AB353F" />
    <path
        d="M17.625 5.83325H19.375V7.49992H17.625V5.83325ZM17.625 9.16659H19.375V14.1666H17.625V9.16659Z"
        fill="#AB353F" />
    <path
        d="M18.5 1.66675C13.67 1.66675 9.75 5.40008 9.75 10.0001C9.75 14.6001 13.67 18.3334 18.5 18.3334C23.33 18.3334 27.25 14.6001 27.25 10.0001C27.25 5.40008 23.33 1.66675 18.5 1.66675ZM18.5 16.6667C14.6413 16.6667 11.5 13.6751 11.5 10.0001C11.5 6.32508 14.6413 3.33341 18.5 3.33341C22.3588 3.33341 25.5 6.32508 25.5 10.0001C25.5 13.6751 22.3588 16.6667 18.5 16.6667Z"
        fill="#AB353F" />
</svg>
    