<svg width="20" height="16" viewBox="0 0 20 16" fill="none" xmlns="http://www.w3.org/2000/svg">
<rect y="0.858154" width="20" height="14.2857" rx="2" fill="white"/>
<mask id="mask0_1832_21469" style="mask-type:luminance" maskUnits="userSpaceOnUse" x="0" y="0" width="20" height="16">
<rect y="0.858154" width="20" height="14.2857" rx="2" fill="white"/>
</mask>
<g mask="url(#mask0_1832_21469)">
<path fill-rule="evenodd" clip-rule="evenodd" d="M20 0.858154H0V1.81054H20V0.858154ZM20 2.76327H0V3.71565H20V2.76327ZM0 4.66768H20V5.62006H0V4.66768ZM20 6.57267H0V7.52505H20V6.57267ZM0 8.47697H20V9.42935H0V8.47697ZM20 10.382H0V11.3343H20V10.382ZM0 12.2864H20V13.2388H0V12.2864ZM20 14.1915H0V15.1439H20V14.1915Z" fill="#D02F44"/>
<rect y="0.858154" width="8.57143" height="6.66667" fill="#46467F"/>
<g filter="url(#filter0_d_1832_21469)">
<path fill-rule="evenodd" clip-rule="evenodd" d="M1.90471 2.28649C1.90471 2.54949 1.69151 2.76268 1.42852 2.76268C1.16553 2.76268 0.952332 2.54949 0.952332 2.28649C0.952332 2.0235 1.16553 1.8103 1.42852 1.8103C1.69151 1.8103 1.90471 2.0235 1.90471 2.28649ZM3.80947 2.28649C3.80947 2.54949 3.59628 2.76268 3.33328 2.76268C3.07029 2.76268 2.85709 2.54949 2.85709 2.28649C2.85709 2.0235 3.07029 1.8103 3.33328 1.8103C3.59628 1.8103 3.80947 2.0235 3.80947 2.28649ZM5.23805 2.76268C5.50104 2.76268 5.71424 2.54949 5.71424 2.28649C5.71424 2.0235 5.50104 1.8103 5.23805 1.8103C4.97505 1.8103 4.76186 2.0235 4.76186 2.28649C4.76186 2.54949 4.97505 2.76268 5.23805 2.76268ZM7.619 2.28649C7.619 2.54949 7.4058 2.76268 7.14281 2.76268C6.87981 2.76268 6.66662 2.54949 6.66662 2.28649C6.66662 2.0235 6.87981 1.8103 7.14281 1.8103C7.4058 1.8103 7.619 2.0235 7.619 2.28649ZM2.38087 3.71483C2.64387 3.71483 2.85706 3.50163 2.85706 3.23864C2.85706 2.97565 2.64387 2.76245 2.38087 2.76245C2.11788 2.76245 1.90468 2.97565 1.90468 3.23864C1.90468 3.50163 2.11788 3.71483 2.38087 3.71483ZM4.76177 3.23864C4.76177 3.50163 4.54857 3.71483 4.28558 3.71483C4.02258 3.71483 3.80939 3.50163 3.80939 3.23864C3.80939 2.97565 4.02258 2.76245 4.28558 2.76245C4.54857 2.76245 4.76177 2.97565 4.76177 3.23864ZM6.19048 3.71483C6.45348 3.71483 6.66667 3.50163 6.66667 3.23864C6.66667 2.97565 6.45348 2.76245 6.19048 2.76245C5.92749 2.76245 5.71429 2.97565 5.71429 3.23864C5.71429 3.50163 5.92749 3.71483 6.19048 3.71483ZM7.61903 4.1916C7.61903 4.4546 7.40583 4.66779 7.14284 4.66779C6.87984 4.66779 6.66665 4.4546 6.66665 4.1916C6.66665 3.92861 6.87984 3.71541 7.14284 3.71541C7.40583 3.71541 7.61903 3.92861 7.61903 4.1916ZM5.23813 4.66779C5.50113 4.66779 5.71432 4.4546 5.71432 4.1916C5.71432 3.92861 5.50113 3.71541 5.23813 3.71541C4.97514 3.71541 4.76194 3.92861 4.76194 4.1916C4.76194 4.4546 4.97514 4.66779 5.23813 4.66779ZM3.80942 4.1916C3.80942 4.4546 3.59622 4.66779 3.33323 4.66779C3.07023 4.66779 2.85704 4.4546 2.85704 4.1916C2.85704 3.92861 3.07023 3.71541 3.33323 3.71541C3.59622 3.71541 3.80942 3.92861 3.80942 4.1916ZM1.42852 4.66779C1.69151 4.66779 1.90471 4.4546 1.90471 4.1916C1.90471 3.92861 1.69151 3.71541 1.42852 3.71541C1.16553 3.71541 0.952332 3.92861 0.952332 4.1916C0.952332 4.4546 1.16553 4.66779 1.42852 4.66779ZM2.85709 5.14364C2.85709 5.40663 2.6439 5.61983 2.3809 5.61983C2.11791 5.61983 1.90471 5.40663 1.90471 5.14364C1.90471 4.88064 2.11791 4.66745 2.3809 4.66745C2.6439 4.66745 2.85709 4.88064 2.85709 5.14364ZM4.28567 5.61983C4.54866 5.61983 4.76186 5.40663 4.76186 5.14364C4.76186 4.88064 4.54866 4.66745 4.28567 4.66745C4.02267 4.66745 3.80947 4.88064 3.80947 5.14364C3.80947 5.40663 4.02267 5.61983 4.28567 5.61983ZM6.66662 5.14364C6.66662 5.40663 6.45342 5.61983 6.19043 5.61983C5.92743 5.61983 5.71424 5.40663 5.71424 5.14364C5.71424 4.88064 5.92743 4.66745 6.19043 4.66745C6.45342 4.66745 6.66662 4.88064 6.66662 5.14364ZM7.14281 6.57221C7.4058 6.57221 7.619 6.35901 7.619 6.09602C7.619 5.83302 7.4058 5.61983 7.14281 5.61983C6.87981 5.61983 6.66662 5.83302 6.66662 6.09602C6.66662 6.35901 6.87981 6.57221 7.14281 6.57221ZM5.71424 6.09602C5.71424 6.35901 5.50104 6.57221 5.23805 6.57221C4.97505 6.57221 4.76186 6.35901 4.76186 6.09602C4.76186 5.83302 4.97505 5.61983 5.23805 5.61983C5.50104 5.61983 5.71424 5.83302 5.71424 6.09602ZM3.33328 6.57221C3.59628 6.57221 3.80947 6.35901 3.80947 6.09602C3.80947 5.83302 3.59628 5.61983 3.33328 5.61983C3.07029 5.61983 2.85709 5.83302 2.85709 6.09602C2.85709 6.35901 3.07029 6.57221 3.33328 6.57221ZM1.90471 6.09602C1.90471 6.35901 1.69151 6.57221 1.42852 6.57221C1.16553 6.57221 0.952332 6.35901 0.952332 6.09602C0.952332 5.83302 1.16553 5.61983 1.42852 5.61983C1.69151 5.61983 1.90471 5.83302 1.90471 6.09602Z" fill="url(#paint0_linear_1832_21469)"/>
</g>
</g>
<defs>
<filter id="filter0_d_1832_21469" x="0.952332" y="1.8103" width="6.66669" height="5.76196" filterUnits="userSpaceOnUse" color-interpolation-filters="sRGB">
<feFlood flood-opacity="0" result="BackgroundImageFix"/>
<feColorMatrix in="SourceAlpha" type="matrix" values="0 0 0 0 0 0 0 0 0 0 0 0 0 0 0 0 0 0 127 0" result="hardAlpha"/>
<feOffset dy="1"/>
<feColorMatrix type="matrix" values="0 0 0 0 0 0 0 0 0 0 0 0 0 0 0 0 0 0 0.06 0"/>
<feBlend mode="normal" in2="BackgroundImageFix" result="effect1_dropShadow_1832_21469"/>
<feBlend mode="normal" in="SourceGraphic" in2="effect1_dropShadow_1832_21469" result="shape"/>
</filter>
<linearGradient id="paint0_linear_1832_21469" x1="0.952332" y1="1.8103" x2="0.952332" y2="6.57221" gradientUnits="userSpaceOnUse">
<stop stop-color="white"/>
<stop offset="1" stop-color="#F0F0F0"/>
</linearGradient>
</defs>
</svg>
