<svg width="48" height="48" viewBox="0 0 48 48" fill="none" xmlns="http://www.w3.org/2000/svg">
<rect width="48" height="48" rx="12" fill="#E9F9EF"/>
<path d="M36 16.7643V37.9389C36 39.0791 35.0465 40 33.8659 40H14.1341C12.9535 40 12 39.0791 12 37.9389V10.0611C12 8.92091 12.9535 8 14.1341 8H26.9254L36 16.7643Z" fill="#23A566"/>
<path d="M29.3045 24H18.6889C18.3084 24 18 24.2903 18 24.6485V33.3515C18 33.7097 18.3084 34 18.6889 34H29.3111C29.6916 34 30 33.7097 30 33.3515V24.6547C29.9934 24.2965 29.6851 24 29.3045 24ZM19.3778 28.1754H23.3078V29.8246H19.3778V28.1754ZM24.6856 28.1754H28.6156V29.8246H24.6856V28.1754ZM28.6156 26.8783H24.6856V25.3033H28.6156V26.8783ZM23.3078 25.3033V26.8783H19.3778V25.3033H23.3078ZM19.3778 31.1279H23.3078V32.7029H19.3778V31.1279ZM24.6856 32.7029V31.1279H28.6156V32.7029H24.6856Z" fill="white"/>
<path opacity="0.19" d="M28 16.3114L36 23V16.7205L31.4616 14L28 16.3114Z" fill="black"/>
<path d="M36 17H29.1165C27.9457 17 27 16.0543 27 14.8835V8L36 17Z" fill="#8ED1B1"/>
</svg>
