<svg width="18" height="16" viewBox="0 0 18 16" fill="none" xmlns="http://www.w3.org/2000/svg">
<path fill-rule="evenodd" clip-rule="evenodd" d="M8.99996 4.87504C7.27407 4.87504 5.87496 6.27415 5.87496 8.00004C5.87496 9.72593 7.27407 11.125 8.99996 11.125C10.7259 11.125 12.125 9.72593 12.125 8.00004C12.125 6.27415 10.7259 4.87504 8.99996 4.87504ZM7.12496 8.00004C7.12496 6.96451 7.96443 6.12504 8.99996 6.12504C10.0355 6.12504 10.875 6.96451 10.875 8.00004C10.875 9.03557 10.0355 9.87504 8.99996 9.87504C7.96443 9.87504 7.12496 9.03557 7.12496 8.00004Z" fill="#58607C"/>
<path fill-rule="evenodd" clip-rule="evenodd" d="M8.99996 0.708374C5.23818 0.708374 2.70437 2.96187 1.23377 4.87243L1.20724 4.90687C0.874658 5.33882 0.568343 5.73664 0.360532 6.20704C0.137996 6.71077 0.041626 7.25978 0.041626 8.00004C0.041626 8.7403 0.137996 9.28932 0.360532 9.79304C0.568344 10.2634 0.87466 10.6613 1.20725 11.0932L1.23377 11.1277C2.70437 13.0382 5.23818 15.2917 8.99996 15.2917C12.7617 15.2917 15.2956 13.0382 16.7662 11.1277L16.7927 11.0932C17.1253 10.6613 17.4316 10.2634 17.6394 9.79304C17.8619 9.28932 17.9583 8.7403 17.9583 8.00004C17.9583 7.25978 17.8619 6.71077 17.6394 6.20704C17.4316 5.73663 17.1253 5.33881 16.7927 4.90685L16.7662 4.87243C15.2956 2.96187 12.7617 0.708374 8.99996 0.708374ZM2.22431 5.63487C3.58216 3.87081 5.79193 1.95837 8.99996 1.95837C12.208 1.95837 14.4178 3.87081 15.7756 5.63487C16.1411 6.1097 16.3552 6.39342 16.496 6.71216C16.6276 7.01005 16.7083 7.37415 16.7083 8.00004C16.7083 8.62593 16.6276 8.99003 16.496 9.28792C16.3552 9.60666 16.1411 9.89038 15.7756 10.3652C14.4178 12.1293 12.208 14.0417 8.99996 14.0417C5.79193 14.0417 3.58216 12.1293 2.22431 10.3652C1.85882 9.89038 1.64474 9.60666 1.50393 9.28792C1.37232 8.99003 1.29163 8.62593 1.29163 8.00004C1.29163 7.37415 1.37232 7.01005 1.50393 6.71216C1.64474 6.39342 1.85882 6.1097 2.22431 5.63487Z" fill="#58607C"/>
</svg>
