<svg width="32" height="32" viewBox="0 0 32 32" fill="none" xmlns="http://www.w3.org/2000/svg">
<rect width="32" height="32" rx="16" fill="#F8F8F8"/>
<path fill-rule="evenodd" clip-rule="evenodd" d="M12.2986 9.16602C11.6997 9.166 11.2002 9.16598 10.8036 9.21929C10.3851 9.27556 10.0072 9.39934 9.7036 9.70299C9.39995 10.0066 9.27617 10.3845 9.2199 10.803C9.16659 11.1995 9.16661 11.699 9.16663 12.298V12.3674C9.16661 12.9663 9.16659 13.4658 9.2199 13.8623C9.27617 14.2809 9.39995 14.6587 9.7036 14.9624C10.0072 15.266 10.3851 15.3898 10.8036 15.4461C11.2002 15.4994 11.6996 15.4994 12.2986 15.4994H12.368C12.9669 15.4994 13.4664 15.4994 13.8629 15.4461C14.2815 15.3898 14.6593 15.266 14.963 14.9624C15.2666 14.6587 15.3904 14.2809 15.4467 13.8623C15.5 13.4658 15.5 12.9663 15.5 12.3674V12.298C15.5 11.699 15.5 11.1995 15.4467 10.803C15.3904 10.3845 15.2666 10.0066 14.963 9.70299C14.6593 9.39934 14.2815 9.27556 13.8629 9.21929C13.4664 9.16598 12.967 9.166 12.368 9.16602H12.2986ZM10.4107 10.4101C10.4976 10.3232 10.6292 10.2517 10.9369 10.2104C11.2589 10.1671 11.6906 10.166 12.3333 10.166C12.976 10.166 13.4077 10.1671 13.7297 10.2104C14.0373 10.2517 14.169 10.3232 14.2559 10.4101C14.3428 10.497 14.4142 10.6286 14.4556 10.9363C14.4989 11.2583 14.5 11.69 14.5 12.3327C14.5 12.9754 14.4989 13.4071 14.4556 13.7291C14.4142 14.0367 14.3428 14.1684 14.2559 14.2553C14.169 14.3422 14.0373 14.4136 13.7297 14.455C13.4077 14.4983 12.976 14.4994 12.3333 14.4994C11.6906 14.4994 11.2589 14.4983 10.9369 14.455C10.6292 14.4136 10.4976 14.3422 10.4107 14.2553C10.3238 14.1684 10.2523 14.0367 10.211 13.7291C10.1677 13.4071 10.1666 12.9754 10.1666 12.3327C10.1666 11.69 10.1677 11.2583 10.211 10.9363C10.2523 10.6286 10.3238 10.497 10.4107 10.4101Z" fill="#A1A1A1"/>
<path fill-rule="evenodd" clip-rule="evenodd" d="M19.632 16.4993C19.033 16.4993 18.5335 16.4993 18.137 16.5526C17.7184 16.6089 17.3406 16.7327 17.0369 17.0363C16.7333 17.34 16.6095 17.7178 16.5532 18.1364C16.4999 18.5329 16.4999 19.0324 16.5 19.6314V19.7007C16.4999 20.2997 16.4999 20.7991 16.5532 21.1957C16.6095 21.6142 16.7333 21.9921 17.0369 22.2957C17.3406 22.5994 17.7184 22.7231 18.137 22.7794C18.5335 22.8327 19.0329 22.8327 19.6319 22.8327H19.7013C20.3003 22.8327 20.7998 22.8327 21.1963 22.7794C21.6148 22.7231 21.9927 22.5994 22.2963 22.2957C22.6 21.9921 22.7238 21.6142 22.78 21.1957C22.8333 20.7992 22.8333 20.2997 22.8333 19.7007V19.6314C22.8333 19.0324 22.8333 18.5329 22.78 18.1364C22.7238 17.7178 22.6 17.34 22.2963 17.0363C21.9927 16.7327 21.6148 16.6089 21.1963 16.5526C20.7998 16.4993 20.3003 16.4993 19.7013 16.4993H19.632ZM17.744 17.7434C17.8309 17.6566 17.9626 17.5851 18.2702 17.5437C18.5922 17.5004 19.024 17.4994 19.6666 17.4994C20.3093 17.4994 20.741 17.5004 21.063 17.5437C21.3707 17.5851 21.5023 17.6566 21.5892 17.7434C21.6761 17.8303 21.7476 17.962 21.7889 18.2696C21.8322 18.5916 21.8333 19.0233 21.8333 19.666C21.8333 20.3087 21.8322 20.7404 21.7889 21.0624C21.7476 21.3701 21.6761 21.5017 21.5892 21.5886C21.5023 21.6755 21.3707 21.747 21.063 21.7883C20.741 21.8316 20.3093 21.8327 19.6666 21.8327C19.024 21.8327 18.5922 21.8316 18.2702 21.7883C17.9626 21.747 17.8309 21.6755 17.744 21.5886C17.6572 21.5017 17.5857 21.3701 17.5443 21.0624C17.501 20.7404 17.5 20.3087 17.5 19.666C17.5 19.0233 17.501 18.5916 17.5443 18.2696C17.5857 17.962 17.6572 17.8303 17.744 17.7434Z" fill="#A1A1A1"/>
<path fill-rule="evenodd" clip-rule="evenodd" d="M12.2986 16.4993H12.368C12.9669 16.4993 13.4664 16.4993 13.8629 16.5526C14.2815 16.6089 14.6593 16.7327 14.963 17.0363C15.2666 17.34 15.3904 17.7178 15.4467 18.1364C15.5 18.5329 15.5 19.0324 15.5 19.6313V19.7007C15.5 20.2997 15.5 20.7992 15.4467 21.1957C15.3904 21.6142 15.2666 21.9921 14.963 22.2957C14.6593 22.5994 14.2815 22.7231 13.8629 22.7794C13.4664 22.8327 12.967 22.8327 12.368 22.8327H12.2986C11.6997 22.8327 11.2002 22.8327 10.8036 22.7794C10.3851 22.7231 10.0072 22.5994 9.7036 22.2957C9.39995 21.9921 9.27617 21.6142 9.2199 21.1957C9.16659 20.7992 9.16661 20.2997 9.16663 19.7007V19.6314C9.16661 19.0324 9.16659 18.5329 9.2199 18.1364C9.27617 17.7178 9.39995 17.34 9.7036 17.0363C10.0072 16.7327 10.3851 16.6089 10.8036 16.5526C11.2002 16.4993 11.6996 16.4993 12.2986 16.4993ZM10.9369 17.5437C10.6292 17.5851 10.4976 17.6566 10.4107 17.7434C10.3238 17.8303 10.2523 17.962 10.211 18.2696C10.1677 18.5916 10.1666 19.0233 10.1666 19.666C10.1666 20.3087 10.1677 20.7404 10.211 21.0624C10.2523 21.3701 10.3238 21.5017 10.4107 21.5886C10.4976 21.6755 10.6292 21.747 10.9369 21.7883C11.2589 21.8316 11.6906 21.8327 12.3333 21.8327C12.976 21.8327 13.4077 21.8316 13.7297 21.7883C14.0373 21.747 14.169 21.6755 14.2559 21.5886C14.3428 21.5017 14.4142 21.3701 14.4556 21.0624C14.4989 20.7404 14.5 20.3087 14.5 19.666C14.5 19.0233 14.4989 18.5916 14.4556 18.2696C14.4142 17.962 14.3428 17.8303 14.2559 17.7434C14.169 17.6566 14.0373 17.5851 13.7297 17.5437C13.4077 17.5004 12.976 17.4994 12.3333 17.4994C11.6906 17.4994 11.2589 17.5004 10.9369 17.5437Z" fill="#A1A1A1"/>
<path fill-rule="evenodd" clip-rule="evenodd" d="M19.632 9.16602C19.033 9.166 18.5335 9.16598 18.137 9.21929C17.7184 9.27556 17.3406 9.39934 17.0369 9.70299C16.7333 10.0066 16.6095 10.3845 16.5532 10.803C16.4999 11.1996 16.4999 11.699 16.5 12.298V12.3674C16.4999 12.9663 16.4999 13.4658 16.5532 13.8623C16.6095 14.2809 16.7333 14.6587 17.0369 14.9624C17.3406 15.266 17.7184 15.3898 18.137 15.4461C18.5335 15.4994 19.033 15.4994 19.6319 15.4994H19.7013C20.3003 15.4994 20.7998 15.4994 21.1963 15.4461C21.6148 15.3898 21.9927 15.266 22.2963 14.9624C22.6 14.6587 22.7238 14.2809 22.78 13.8623C22.8333 13.4658 22.8333 12.9663 22.8333 12.3674V12.298C22.8333 11.699 22.8333 11.1995 22.78 10.803C22.7238 10.3845 22.6 10.0066 22.2963 9.70299C21.9927 9.39934 21.6148 9.27556 21.1963 9.21929C20.7998 9.16598 20.3003 9.166 19.7013 9.16602H19.632ZM17.744 10.4101C17.8309 10.3232 17.9626 10.2517 18.2702 10.2104C18.5922 10.1671 19.024 10.166 19.6666 10.166C20.3093 10.166 20.741 10.1671 21.063 10.2104C21.3707 10.2517 21.5023 10.3232 21.5892 10.4101C21.6761 10.497 21.7476 10.6286 21.7889 10.9363C21.8322 11.2583 21.8333 11.69 21.8333 12.3327C21.8333 12.9754 21.8322 13.4071 21.7889 13.7291C21.7476 14.0367 21.6761 14.1684 21.5892 14.2553C21.5023 14.3422 21.3707 14.4136 21.063 14.455C20.741 14.4983 20.3093 14.4994 19.6666 14.4994C19.024 14.4994 18.5922 14.4983 18.2702 14.455C17.9626 14.4136 17.8309 14.3422 17.744 14.2553C17.6572 14.1684 17.5857 14.0367 17.5443 13.7291C17.501 13.4071 17.5 12.9754 17.5 12.3327C17.5 11.69 17.501 11.2583 17.5443 10.9363C17.5857 10.6286 17.6572 10.497 17.744 10.4101Z" fill="#A1A1A1"/>
</svg>
