<svg width="24" height="18" viewBox="0 0 24 18" fill="none" xmlns="http://www.w3.org/2000/svg">
<path d="M0 2.42969C0 1.32512 0.895431 0.429688 2 0.429688H22C23.1046 0.429688 24 1.32512 24 2.42969V15.5725C24 16.6771 23.1046 17.5725 22 17.5725H2C0.89543 17.5725 0 16.6771 0 15.5725V2.42969Z" fill="white"/>
<mask id="mask0_219_14049" style="mask-type:luminance" maskUnits="userSpaceOnUse" x="0" y="0" width="24" height="18">
<path d="M0 2.42969C0 1.32512 0.895431 0.429688 2 0.429688H22C23.1046 0.429688 24 1.32512 24 2.42969V15.5725C24 16.6771 23.1046 17.5725 22 17.5725H2C0.89543 17.5725 0 16.6771 0 15.5725V2.42969Z" fill="white"/>
</mask>
<g mask="url(#mask0_219_14049)">
<path d="M0 0.429688H24V17.5725H0V0.429688Z" fill="#30C6E0"/>
<path fill-rule="evenodd" clip-rule="evenodd" d="M12.0001 12.4294C13.8937 12.4294 15.4287 10.8944 15.4287 9.00084C15.4287 7.10729 13.8937 5.57227 12.0001 5.57227C10.1066 5.57227 8.57153 7.10729 8.57153 9.00084C8.57153 10.8944 10.1066 12.4294 12.0001 12.4294Z" fill="#FFCD4B"/>
<path fill-rule="evenodd" clip-rule="evenodd" d="M10.6014 15.1293L12.0001 13.0414L13.3988 15.1293L13.7531 12.6413L15.9191 13.9155L15.1589 11.5202L17.6633 11.7284L15.939 9.9002L18.2858 9.00117L15.939 8.10213L17.6633 6.2739L15.1589 6.48212L15.9191 4.0868L13.7531 5.36103L13.3988 2.87305L12.0001 4.96093L10.6014 2.87305L10.2471 5.36103L8.08099 4.0868L8.84128 6.48212L6.33684 6.2739L8.06113 8.10213L5.71436 9.00117L8.06113 9.9002L6.33684 11.7284L8.84128 11.5202L8.08099 13.9155L10.2471 12.6413L10.6014 15.1293ZM16.0001 9.00123C16.0001 11.2104 14.2092 13.0012 12.0001 13.0012C9.79094 13.0012 8.00007 11.2104 8.00007 9.00123C8.00007 6.7921 9.79094 5.00123 12.0001 5.00123C14.2092 5.00123 16.0001 6.7921 16.0001 9.00123Z" fill="#FFCD4B"/>
<path fill-rule="evenodd" clip-rule="evenodd" d="M1.14282 1.90584C1.14282 1.72175 1.29206 1.57251 1.47616 1.57251H1.95235C2.13644 1.57251 2.28568 1.72175 2.28568 1.90584V2.38203C2.28568 2.56613 2.13644 2.71537 1.95235 2.71537H1.47616C1.29206 2.71537 1.14282 2.56613 1.14282 2.38203V1.90584ZM1.14282 4.19159C1.14282 4.0075 1.29206 3.85826 1.47616 3.85826H1.95235C2.13644 3.85826 2.28568 4.0075 2.28568 4.19159V4.66778C2.28568 4.85188 2.13644 5.00112 1.95235 5.00112H1.47616C1.29206 5.00112 1.14282 4.85188 1.14282 4.66778V4.19159ZM1.47616 6.14383C1.29206 6.14383 1.14282 6.29307 1.14282 6.47717V6.95336C1.14282 7.13745 1.29206 7.28669 1.47616 7.28669H1.95235C2.13644 7.28669 2.28568 7.13745 2.28568 6.95336V6.47717C2.28568 6.29307 2.13644 6.14383 1.95235 6.14383H1.47616ZM1.14282 8.76295C1.14282 8.57886 1.29206 8.42962 1.47616 8.42962H1.95235C2.13644 8.42962 2.28568 8.57886 2.28568 8.76295V9.23914C2.28568 9.42324 2.13644 9.57247 1.95235 9.57247H1.47616C1.29206 9.57247 1.14282 9.42324 1.14282 9.23914V8.76295ZM1.47616 10.7154C1.29206 10.7154 1.14282 10.8646 1.14282 11.0487V11.5249C1.14282 11.709 1.29206 11.8583 1.47616 11.8583H1.95235C2.13644 11.8583 2.28568 11.709 2.28568 11.5249V11.0487C2.28568 10.8646 2.13644 10.7154 1.95235 10.7154H1.47616ZM1.14282 13.3343C1.14282 13.1502 1.29206 13.001 1.47616 13.001H1.95235C2.13644 13.001 2.28568 13.1502 2.28568 13.3343V13.8105C2.28568 13.9946 2.13644 14.1438 1.95235 14.1438H1.47616C1.29206 14.1438 1.14282 13.9946 1.14282 13.8105V13.3343ZM1.47616 15.2868C1.29206 15.2868 1.14282 15.436 1.14282 15.6201V16.0963C1.14282 16.2804 1.29206 16.4296 1.47616 16.4296H1.95235C2.13644 16.4296 2.28568 16.2804 2.28568 16.0963V15.6201C2.28568 15.436 2.13644 15.2868 1.95235 15.2868H1.47616ZM2.28568 14.4773C2.28568 14.2932 2.43491 14.144 2.61901 14.144H3.0952C3.27929 14.144 3.42853 14.2932 3.42853 14.4773V14.9535C3.42853 15.1376 3.27929 15.2868 3.0952 15.2868H2.61901C2.43491 15.2868 2.28568 15.1376 2.28568 14.9535V14.4773ZM2.61901 11.8582C2.43491 11.8582 2.28568 12.0074 2.28568 12.1915V12.6677C2.28568 12.8518 2.43491 13.001 2.61901 13.001H3.0952C3.27929 13.001 3.42853 12.8518 3.42853 12.6677V12.1915C3.42853 12.0074 3.27929 11.8582 3.0952 11.8582H2.61901ZM2.28568 9.90574C2.28568 9.72164 2.43491 9.57241 2.61901 9.57241H3.0952C3.27929 9.57241 3.42853 9.72164 3.42853 9.90574V10.3819C3.42853 10.566 3.27929 10.7153 3.0952 10.7153H2.61901C2.43491 10.7153 2.28568 10.566 2.28568 10.3819V9.90574ZM2.61901 7.28683C2.43491 7.28683 2.28568 7.43607 2.28568 7.62016V8.09635C2.28568 8.28045 2.43491 8.42969 2.61901 8.42969H3.0952C3.27929 8.42969 3.42853 8.28045 3.42853 8.09635V7.62016C3.42853 7.43607 3.27929 7.28683 3.0952 7.28683H2.61901ZM2.28568 5.33438C2.28568 5.15029 2.43491 5.00105 2.61901 5.00105H3.0952C3.27929 5.00105 3.42853 5.15028 3.42853 5.33438V5.81057C3.42853 5.99467 3.27929 6.1439 3.0952 6.1439H2.61901C2.43491 6.1439 2.28568 5.99467 2.28568 5.81057V5.33438ZM2.61901 2.71526C2.43491 2.71526 2.28568 2.8645 2.28568 3.0486V3.52479C2.28568 3.70888 2.43491 3.85812 2.61901 3.85812H3.0952C3.27929 3.85812 3.42853 3.70888 3.42853 3.52479V3.0486C3.42853 2.8645 3.27929 2.71526 3.0952 2.71526H2.61901Z" fill="#FFCD4B"/>
</g>
</svg>
