<svg width="20" height="18" viewBox="0 0 20 18" fill="none" xmlns="http://www.w3.org/2000/svg">
<g filter="url(#filter0_d_1832_21459)">
<path d="M0 2.5247C0 1.60422 0.746192 0.858032 1.66667 0.858032H18.3333C19.2538 0.858032 20 1.60422 20 2.5247V13.4771C20 14.3976 19.2538 15.1437 18.3333 15.1437H1.66667C0.746192 15.1437 0 14.3976 0 13.4771V2.5247Z" fill="white"/>
<mask id="mask0_1832_21459" style="mask-type:luminance" maskUnits="userSpaceOnUse" x="0" y="0" width="20" height="16">
<path d="M0 2.5247C0 1.60422 0.746192 0.858032 1.66667 0.858032H18.3333C19.2538 0.858032 20 1.60422 20 2.5247V13.4771C20 14.3976 19.2538 15.1437 18.3333 15.1437H1.66667C0.746192 15.1437 0 14.3976 0 13.4771V2.5247Z" fill="white"/>
</mask>
<g mask="url(#mask0_1832_21459)">
<path d="M0 0.858032H20V15.1437H0V0.858032Z" fill="#30C6E0"/>
<path fill-rule="evenodd" clip-rule="evenodd" d="M10.0001 10.8578C11.578 10.8578 12.8572 9.57865 12.8572 8.0007C12.8572 6.42274 11.578 5.14355 10.0001 5.14355C8.42213 5.14355 7.14294 6.42274 7.14294 8.0007C7.14294 9.57865 8.42213 10.8578 10.0001 10.8578Z" fill="#FFCD4B"/>
<path fill-rule="evenodd" clip-rule="evenodd" d="M8.83441 13.1077L10 11.3678L11.1656 13.1077L11.4608 11.0344L13.2659 12.0962L12.6323 10.1001L14.7194 10.2737L13.2824 8.75013L15.2381 8.00093L13.2824 7.25173L14.7194 5.72821L12.6323 5.90172L13.2659 3.90562L11.4608 4.96749L11.1656 2.89417L10 4.63406L8.83441 2.89417L8.53917 4.96749L6.7341 3.90562L7.36767 5.90172L5.28064 5.72821L6.71754 7.25173L4.7619 8.00093L6.71754 8.75013L5.28064 10.2737L7.36767 10.1001L6.7341 12.0962L8.53917 11.0344L8.83441 13.1077ZM13.3333 8.00099C13.3333 9.84194 11.8409 11.3343 10 11.3343C8.15905 11.3343 6.66667 9.84194 6.66667 8.00099C6.66667 6.16004 8.15905 4.66765 10 4.66765C11.8409 4.66765 13.3333 6.16004 13.3333 8.00099Z" fill="#FFCD4B"/>
<path fill-rule="evenodd" clip-rule="evenodd" d="M0.952393 2.08808C0.952393 1.93467 1.07676 1.8103 1.23017 1.8103H1.627C1.78041 1.8103 1.90477 1.93467 1.90477 2.08808V2.48491C1.90477 2.63832 1.78041 2.76268 1.627 2.76268H1.23017C1.07676 2.76268 0.952393 2.63832 0.952393 2.48491V2.08808ZM0.952393 3.99287C0.952393 3.83946 1.07676 3.71509 1.23017 3.71509H1.627C1.78041 3.71509 1.90477 3.83946 1.90477 3.99287V4.3897C1.90477 4.54311 1.78041 4.66747 1.627 4.66747H1.23017C1.07676 4.66747 0.952393 4.54311 0.952393 4.3897V3.99287ZM1.23017 5.61974C1.07676 5.61974 0.952393 5.7441 0.952393 5.89752V6.29434C0.952393 6.44775 1.07676 6.57212 1.23017 6.57212H1.627C1.78041 6.57212 1.90477 6.44775 1.90477 6.29434V5.89752C1.90477 5.7441 1.78041 5.61974 1.627 5.61974H1.23017ZM0.952393 7.80234C0.952393 7.64892 1.07676 7.52456 1.23017 7.52456H1.627C1.78041 7.52456 1.90477 7.64892 1.90477 7.80234V8.19916C1.90477 8.35257 1.78041 8.47694 1.627 8.47694H1.23017C1.07676 8.47694 0.952393 8.35257 0.952393 8.19916V7.80234ZM1.23017 9.42938C1.07676 9.42938 0.952393 9.55374 0.952393 9.70716V10.104C0.952393 10.2574 1.07676 10.3818 1.23017 10.3818H1.627C1.78041 10.3818 1.90477 10.2574 1.90477 10.104V9.70716C1.90477 9.55374 1.78041 9.42938 1.627 9.42938H1.23017ZM0.952393 11.6118C0.952393 11.4584 1.07676 11.334 1.23017 11.334H1.627C1.78041 11.334 1.90477 11.4584 1.90477 11.6118V12.0086C1.90477 12.162 1.78041 12.2864 1.627 12.2864H1.23017C1.07676 12.2864 0.952393 12.162 0.952393 12.0086V11.6118ZM1.23017 13.2388C1.07676 13.2388 0.952393 13.3632 0.952393 13.5166V13.9134C0.952393 14.0669 1.07676 14.1912 1.23017 14.1912H1.627C1.78041 14.1912 1.90477 14.0669 1.90477 13.9134V13.5166C1.90477 13.3632 1.78041 13.2388 1.627 13.2388H1.23017ZM1.90477 12.5643C1.90477 12.4109 2.02914 12.2865 2.18255 12.2865H2.57937C2.73279 12.2865 2.85715 12.4109 2.85715 12.5643V12.9611C2.85715 13.1145 2.73279 13.2389 2.57937 13.2389H2.18255C2.02914 13.2389 1.90477 13.1145 1.90477 12.9611V12.5643ZM2.18255 10.3817C2.02914 10.3817 1.90477 10.5061 1.90477 10.6595V11.0563C1.90477 11.2097 2.02914 11.3341 2.18255 11.3341H2.57937C2.73279 11.3341 2.85715 11.2097 2.85715 11.0563V10.6595C2.85715 10.5061 2.73279 10.3817 2.57937 10.3817H2.18255ZM1.90477 8.75466C1.90477 8.60125 2.02914 8.47688 2.18255 8.47688H2.57937C2.73279 8.47688 2.85715 8.60125 2.85715 8.75466V9.15148C2.85715 9.3049 2.73279 9.42926 2.57937 9.42926H2.18255C2.02914 9.42926 1.90477 9.3049 1.90477 9.15148V8.75466ZM2.18255 6.57224C2.02914 6.57224 1.90477 6.6966 1.90477 6.85001V7.24684C1.90477 7.40025 2.02914 7.52462 2.18255 7.52462H2.57937C2.73279 7.52462 2.85715 7.40025 2.85715 7.24684V6.85001C2.85715 6.6966 2.73279 6.57224 2.57937 6.57224H2.18255ZM1.90477 4.94519C1.90477 4.79178 2.02914 4.66742 2.18255 4.66742H2.57937C2.73279 4.66742 2.85715 4.79178 2.85715 4.94519V5.34202C2.85715 5.49543 2.73279 5.6198 2.57937 5.6198H2.18255C2.02914 5.6198 1.90477 5.49543 1.90477 5.34202V4.94519ZM2.18255 2.7626C2.02914 2.7626 1.90477 2.88696 1.90477 3.04037V3.4372C1.90477 3.59061 2.02914 3.71498 2.18255 3.71498H2.57937C2.73279 3.71498 2.85715 3.59061 2.85715 3.4372V3.04037C2.85715 2.88696 2.73279 2.7626 2.57937 2.7626H2.18255Z" fill="#FFCD4B"/>
</g>
</g>
<defs>
<filter id="filter0_d_1832_21459" x="-4" y="0.858032" width="28" height="22.2858" filterUnits="userSpaceOnUse" color-interpolation-filters="sRGB">
<feFlood flood-opacity="0" result="BackgroundImageFix"/>
<feColorMatrix in="SourceAlpha" type="matrix" values="0 0 0 0 0 0 0 0 0 0 0 0 0 0 0 0 0 0 127 0" result="hardAlpha"/>
<feOffset dy="4"/>
<feGaussianBlur stdDeviation="2"/>
<feComposite in2="hardAlpha" operator="out"/>
<feColorMatrix type="matrix" values="0 0 0 0 0 0 0 0 0 0 0 0 0 0 0 0 0 0 0.25 0"/>
<feBlend mode="normal" in2="BackgroundImageFix" result="effect1_dropShadow_1832_21459"/>
<feBlend mode="normal" in="SourceGraphic" in2="effect1_dropShadow_1832_21459" result="shape"/>
</filter>
</defs>
</svg>
