<svg width="20" height="20" viewBox="0 0 20 20" fill="none" xmlns="http://www.w3.org/2000/svg">
<g id="Outline / Folders / Folder">
<path id="Vector (Stroke)" fill-rule="evenodd" clip-rule="evenodd" d="M5.71347 1.042C5.73826 1.042 5.76339 1.04201 5.78887 1.04201L5.81969 1.042C6.11255 1.04198 6.301 1.04197 6.48524 1.0592C7.27798 1.13333 8.02994 1.4448 8.6429 1.95293C8.78537 2.07103 8.91862 2.2043 9.12569 2.4114L9.60602 2.89173C10.3108 3.59649 10.5817 3.85957 10.8947 4.0337C11.0764 4.13478 11.2691 4.2146 11.469 4.27159C11.8135 4.36977 12.1911 4.37534 13.1878 4.37534L13.5416 4.37534C14.6024 4.37532 15.4575 4.37531 16.1341 4.46037C16.8353 4.54853 17.431 4.73664 17.9205 5.17687C18.0025 5.25059 18.0805 5.32861 18.1542 5.41058C18.5944 5.90004 18.7826 6.49582 18.8707 7.197C18.9558 7.87358 18.9558 8.72872 18.9557 9.78949V11.714C18.9558 13.2455 18.9558 14.4585 18.8281 15.4079C18.6968 16.3849 18.42 17.1757 17.7964 17.7993C17.1727 18.4229 16.3819 18.6997 15.4049 18.8311C14.4556 18.9587 13.2426 18.9587 11.7111 18.9587H8.28373C6.75227 18.9587 5.53924 18.9587 4.58989 18.8311C3.61287 18.6997 2.82208 18.4229 2.19845 17.7993C1.57481 17.1757 1.29805 16.3849 1.16669 15.4079C1.03905 14.4585 1.03906 13.2455 1.03908 11.714L1.03908 5.7918C1.03908 5.76632 1.03907 5.74119 1.03907 5.7164C1.03898 5.05314 1.03892 4.63104 1.1077 4.26645C1.40981 2.66523 2.6623 1.41274 4.26352 1.11063C4.62811 1.04185 5.05021 1.04191 5.71347 1.042ZM5.78887 2.29201C5.025 2.29201 4.72967 2.29474 4.49528 2.33896C3.3997 2.54567 2.54274 3.40263 2.33603 4.4982C2.29181 4.7326 2.28908 5.02793 2.28908 5.7918V11.667C2.28908 13.256 2.2904 14.3849 2.40554 15.2413C2.51826 16.0797 2.72965 16.5627 3.08233 16.9154C3.435 17.2681 3.91804 17.4795 4.75645 17.5922C5.61284 17.7073 6.74173 17.7087 8.33074 17.7087H11.6641C13.2531 17.7087 14.382 17.7073 15.2384 17.5922C16.0768 17.4795 16.5598 17.2681 16.9125 16.9154C17.2652 16.5627 17.4766 16.0797 17.5893 15.2413C17.7044 14.3849 17.7057 13.256 17.7057 11.667V9.83193C17.7057 8.71872 17.7046 7.94241 17.6305 7.35293C17.5583 6.77906 17.4258 6.46996 17.2248 6.24648C17.1806 6.1973 17.1338 6.15049 17.0846 6.10626C16.8611 5.90526 16.552 5.77276 15.9782 5.70061C15.3887 5.6265 14.6124 5.62534 13.4992 5.62534H13.1878C13.1568 5.62534 13.1261 5.62535 13.0959 5.62535C12.2226 5.62553 11.6594 5.62564 11.1264 5.47371C10.8342 5.39042 10.5525 5.27375 10.287 5.12602C9.80264 4.85655 9.40449 4.45824 8.7871 3.8406C8.76571 3.8192 8.74406 3.79754 8.72214 3.77562L8.26359 3.31707C8.02753 3.08101 7.93721 2.99158 7.84515 2.91527C7.42576 2.5676 6.91126 2.35449 6.36886 2.30377C6.24981 2.29264 6.12271 2.29201 5.78887 2.29201ZM10.2057 8.33367C10.2057 7.98849 10.4856 7.70867 10.8307 7.70867H14.9974C15.3426 7.70867 15.6224 7.98849 15.6224 8.33367C15.6224 8.67885 15.3426 8.95867 14.9974 8.95867H10.8307C10.4856 8.95867 10.2057 8.67885 10.2057 8.33367Z" fill="#58607C"/>
</g>
</svg>
