<svg width="99" height="30" viewBox="0 0 99 30" fill="none" xmlns="http://www.w3.org/2000/svg">
<rect width="99" height="30" rx="5" fill="#FFC244"/>
<path d="M28 14.4787V14.4456C28 11.0907 30.5651 8.25136 34.1826 8.25136C35.9812 8.25136 37.1757 8.67936 38.2719 9.46824C38.4051 9.56764 38.5131 9.69682 38.5875 9.84546C38.6618 9.99409 38.7003 10.1581 38.6999 10.3242C38.6999 10.461 38.673 10.5964 38.6206 10.7228C38.5682 10.8491 38.4915 10.9639 38.3947 11.0605C38.298 11.1572 38.1831 11.2338 38.0567 11.2861C37.9303 11.3383 37.7949 11.3652 37.6581 11.365C37.3838 11.365 37.1757 11.2444 37.0113 11.1238C36.2438 10.5645 35.3995 10.1812 34.1058 10.1812C31.8918 10.1812 30.2149 12.1218 30.2149 14.4126V14.4456C30.2149 16.9125 31.8364 18.7324 34.2925 18.7324C35.4209 18.7324 36.452 18.3706 37.1864 17.8219V15.575H34.8188C34.3032 15.575 33.8752 15.18 33.8752 14.6645C33.8752 14.149 34.3032 13.7443 34.8188 13.7443H38.162C38.7651 13.7443 39.2252 14.2044 39.2252 14.8075V18.0077C39.2252 18.6108 38.9849 19.0388 38.4908 19.3462C37.2318 20.1977 35.7463 20.6521 34.2264 20.6506C30.4668 20.6409 28 17.9659 28 14.4787ZM41.1006 8.87585C41.0995 8.7402 41.1255 8.60571 41.177 8.48019C41.2284 8.35468 41.3044 8.24067 41.4003 8.1448C41.4963 8.04892 41.6104 7.9731 41.7359 7.92176C41.8615 7.87042 41.996 7.84458 42.1317 7.84574C42.7114 7.84574 43.1725 8.30681 43.1725 8.87682V19.4892C43.1725 20.0699 42.7114 20.5193 42.1317 20.5193C41.9959 20.5205 41.8613 20.4946 41.7357 20.4432C41.6101 20.3918 41.496 20.3159 41.4 20.2199C41.304 20.1239 41.2281 20.0098 41.1767 19.8842C41.1253 19.7585 41.0994 19.6239 41.1006 19.4882V8.87585ZM44.7833 15.9689V15.9368C44.7833 13.3494 46.8338 11.2113 49.608 11.2113C52.3802 11.2113 54.42 13.3163 54.42 15.9037V15.9368C54.42 18.5019 52.3705 20.6506 49.5749 20.6506C46.8221 20.6399 44.7833 18.535 44.7833 15.9699M52.3481 15.9699V15.9368C52.3481 14.3474 51.1974 13.0206 49.5749 13.0206C47.9077 13.0206 46.8562 14.325 46.8562 15.893V15.9261C46.8562 17.5048 48.0069 18.82 49.607 18.82C51.285 18.8307 52.3481 17.5262 52.3481 15.9699ZM59.5949 20.6068H59.4957C58.9257 20.6068 58.5521 20.245 58.3119 19.6973L55.2964 12.8008C55.242 12.6481 55.1768 12.472 55.1768 12.2852C55.1768 11.7707 55.6369 11.2882 56.2079 11.2882C56.7769 11.2882 57.0619 11.617 57.238 12.045L59.5618 18.0418L61.9294 12.0119C62.0831 11.65 62.3574 11.2882 62.905 11.2882C63.4751 11.2882 63.9138 11.7162 63.9138 12.2862C63.9138 12.472 63.8476 12.6811 63.7931 12.7794L60.7777 19.6973C60.5375 20.2343 60.1649 20.6068 59.5949 20.6068ZM64.6705 15.9699V15.9368C64.6705 13.3494 66.7201 11.2113 69.4943 11.2113C72.2675 11.2113 74.3073 13.3173 74.3073 15.9037V15.9368C74.3073 18.5019 72.2568 20.6506 69.4612 20.6506C66.6987 20.6399 64.6705 18.535 64.6705 15.9699ZM72.2344 15.9699V15.9368C72.2344 14.3474 71.0837 13.0206 69.4612 13.0206C67.7949 13.0206 66.7424 14.325 66.7424 15.893V15.9261C66.7424 17.5048 67.8932 18.82 69.5049 18.82C71.1712 18.8307 72.2344 17.5262 72.2344 15.9699Z" fill="#00A082"/>
</svg>
