<svg width="16" height="16" viewBox="0 0 16 16" fill="none" xmlns="http://www.w3.org/2000/svg">
<g clip-path="url(#clip0_2770_34108)">
<path fill-rule="evenodd" clip-rule="evenodd" d="M7.9987 1.33301C7.36746 1.33301 6.94524 2.09042 6.10081 3.60526L5.88234 3.99716C5.64238 4.42763 5.5224 4.64287 5.33533 4.78488C5.14825 4.92689 4.91527 4.97961 4.44929 5.08504L4.02506 5.18103C2.38527 5.55204 1.56538 5.73755 1.37031 6.36483C1.17525 6.9921 1.7342 7.64572 2.8521 8.95296L3.14131 9.29116C3.45898 9.66263 3.61782 9.84837 3.68927 10.0782C3.76073 10.3079 3.73672 10.5557 3.68869 11.0514L3.64496 11.5026C3.47595 13.2467 3.39145 14.1188 3.90213 14.5065C4.41282 14.8942 5.18048 14.5407 6.71581 13.8338L7.11302 13.6509C7.54932 13.45 7.76746 13.3496 7.9987 13.3496V1.33301Z" fill="#FACC15"/>
<path fill-rule="evenodd" clip-rule="evenodd" d="M7.527 2.20507C7.26452 2.54783 6.96823 3.07668 6.53787 3.84871L6.31941 4.24061C6.30624 4.26424 6.29324 4.28764 6.28036 4.31081C6.07987 4.67161 5.91065 4.97614 5.63798 5.18313C5.36238 5.39235 5.0264 5.46785 4.63592 5.55561C4.61083 5.56124 4.58551 5.56693 4.55997 5.57271L4.13573 5.6687C3.29885 5.85805 2.72953 5.98834 2.33957 6.14201C1.95904 6.29198 1.87871 6.41484 1.84809 6.5133C1.81578 6.61721 1.81482 6.77615 2.04232 7.13754C2.27321 7.50432 2.66275 7.96182 3.23243 8.628L3.52165 8.9662C3.53845 8.98585 3.55511 9.00528 3.5716 9.02451C3.84027 9.33791 4.0643 9.59923 4.16706 9.92968C4.2692 10.2581 4.23534 10.6033 4.1943 11.0218C4.19178 11.0474 4.18923 11.0734 4.18669 11.0996L4.14297 11.5508C4.0569 12.439 3.99888 13.0505 4.0185 13.491C4.03809 13.9306 4.13095 14.0522 4.20479 14.1082C4.27046 14.1581 4.39185 14.2133 4.78734 14.1C5.18925 13.9848 5.72342 13.7404 6.50703 13.3796L6.90424 13.1967C6.92871 13.1855 6.95294 13.1743 6.97696 13.1632C7.34015 12.9952 7.65525 12.8496 7.99903 12.8496C8.34282 12.8496 8.65791 12.9952 9.02111 13.1632C9.04513 13.1743 9.06936 13.1855 9.09382 13.1967L9.49103 13.3796C10.2746 13.7404 10.8088 13.9848 11.2107 14.1C11.6062 14.2133 11.7276 14.1581 11.7933 14.1082C11.8671 14.0522 11.96 13.9306 11.9796 13.491C11.9992 13.0505 11.9412 12.439 11.8551 11.5508L11.8114 11.0996C11.8088 11.0734 11.8063 11.0474 11.8038 11.0218C11.7627 10.6033 11.7289 10.2581 11.831 9.92968C11.9338 9.59923 12.1578 9.33791 12.4265 9.02451C12.443 9.00527 12.4596 8.98585 12.4764 8.96619L12.7656 8.628C13.3353 7.96182 13.7249 7.50432 13.9558 7.13754C14.1832 6.77615 14.1823 6.61721 14.15 6.5133C14.1194 6.41484 14.039 6.29198 13.6585 6.14201C13.2685 5.98834 12.6992 5.85805 11.8623 5.6687L11.4381 5.57271C11.4126 5.56693 11.3872 5.56124 11.3621 5.5556C10.9717 5.46785 10.6357 5.39235 10.3601 5.18313C10.0874 4.97614 9.9182 4.67161 9.71771 4.31081C9.70483 4.28764 9.69183 4.26424 9.67866 4.24061L9.4602 3.84871C9.02983 3.07668 8.73355 2.54783 8.47106 2.20507C8.20882 1.86263 8.07487 1.83301 7.99903 1.83301C7.92319 1.83301 7.78924 1.86263 7.527 2.20507ZM6.73306 1.59707C7.05085 1.1821 7.44363 0.833008 7.99903 0.833008C8.55443 0.833008 8.94721 1.18209 9.265 1.59707C9.57726 2.00483 9.90837 2.59885 10.3131 3.32485L10.5521 3.75371C10.8138 4.22316 10.8808 4.32289 10.9647 4.38663C11.0456 4.44799 11.1498 4.48221 11.6588 4.59737L12.1255 4.70296C12.9092 4.88026 13.5549 5.02633 14.0251 5.21165C14.5133 5.40401 14.9404 5.68754 15.1049 6.21636C15.2676 6.73972 15.0847 7.22122 14.802 7.67028C14.5274 8.10659 14.0887 8.61957 13.5528 9.2462L13.2364 9.61612C12.8918 10.0192 12.8198 10.1178 12.7859 10.2266C12.7514 10.3376 12.7546 10.4658 12.8067 11.0032L12.8544 11.4952C12.9356 12.3326 13.0017 13.0154 12.9786 13.5355C12.955 14.0648 12.8348 14.5731 12.3979 14.9047C11.9529 15.2426 11.4351 15.2045 10.9353 15.0613C10.4506 14.9224 9.84639 14.6442 9.11269 14.3063L8.6756 14.1051C8.19737 13.8849 8.09499 13.8496 7.99903 13.8496C7.90308 13.8496 7.8007 13.8849 7.32247 14.1051L6.88537 14.3063C6.15168 14.6442 5.54746 14.9224 5.06279 15.0613C4.56294 15.2045 4.04516 15.2426 3.60014 14.9047C3.16329 14.5731 3.04307 14.0648 3.01949 13.5355C2.99632 13.0154 3.06251 12.3326 3.14367 11.4952L3.19135 11.0032C3.24342 10.4658 3.24667 10.3376 3.21216 10.2266C3.17832 10.1178 3.10632 10.0192 2.76165 9.61612L2.44532 9.24622C1.90942 8.61959 1.47071 8.1066 1.19604 7.67028C0.913353 7.22123 0.730449 6.73972 0.8932 6.21636C1.05765 5.68754 1.4848 5.40401 1.97293 5.21165C2.44317 5.02633 3.08885 4.88026 3.87261 4.70296L3.91505 4.69335L4.33928 4.59737C4.84824 4.48221 4.95251 4.44799 5.03334 4.38663C5.11731 4.32289 5.18426 4.22316 5.44595 3.75371L5.68502 3.32484C6.0897 2.59885 6.42081 2.00483 6.73306 1.59707Z" fill="#FACC15"/>
</g>
<defs>
<clipPath id="clip0_2770_34108">
<rect width="16" height="16" rx="5" fill="white"/>
</clipPath>
</defs>
</svg>
