<svg width="40" height="40" viewBox="0 0 40 40" fill="none" xmlns="http://www.w3.org/2000/svg">
<rect width="40" height="40" rx="20" fill="#F8F8F8"/>
<path fill-rule="evenodd" clip-rule="evenodd" d="M24.1663 12.7085C24.3631 12.7085 24.5483 12.8011 24.6663 12.9585L27.1663 16.2918C27.3734 16.568 27.3175 16.9597 27.0413 17.1668C26.7652 17.3739 26.3734 17.318 26.1663 17.0418L24.7913 15.2085V24.7918L26.1663 22.9585C26.3734 22.6824 26.7652 22.6264 27.0413 22.8335C27.3175 23.0406 27.3734 23.4324 27.1663 23.7085L24.6663 27.0418C24.5483 27.1992 24.3631 27.2918 24.1663 27.2918C23.9696 27.2918 23.7844 27.1992 23.6663 27.0418L21.1663 23.7085C20.9592 23.4324 21.0152 23.0406 21.2913 22.8335C21.5675 22.6264 21.9592 22.6824 22.1663 22.9585L23.5413 24.7918V15.2085L22.1663 17.0418C21.9592 17.318 21.5675 17.3739 21.2913 17.1668C21.0152 16.9597 20.9592 16.568 21.1663 16.2918L23.6663 12.9585C23.7844 12.8011 23.9696 12.7085 24.1663 12.7085ZM12.708 15.8335C12.708 15.4883 12.9878 15.2085 13.333 15.2085H19.1663C19.5115 15.2085 19.7913 15.4883 19.7913 15.8335C19.7913 16.1787 19.5115 16.4585 19.1663 16.4585H13.333C12.9878 16.4585 12.708 16.1787 12.708 15.8335ZM12.708 20.0002C12.708 19.655 12.9878 19.3752 13.333 19.3752H19.1663C19.5115 19.3752 19.7913 19.655 19.7913 20.0002C19.7913 20.3453 19.5115 20.6252 19.1663 20.6252H13.333C12.9878 20.6252 12.708 20.3453 12.708 20.0002ZM12.708 24.1668C12.708 23.8217 12.9878 23.5418 13.333 23.5418H19.1663C19.5115 23.5418 19.7913 23.8217 19.7913 24.1668C19.7913 24.512 19.5115 24.7918 19.1663 24.7918H13.333C12.9878 24.7918 12.708 24.512 12.708 24.1668Z" fill="#A1A1A1"/>
</svg>
