<svg width="56" height="56" viewBox="0 0 56 56" fill="none" xmlns="http://www.w3.org/2000/svg">
<rect width="56" height="56" rx="28" fill="#E9F9EF"/>
<path opacity="0.3" fill-rule="evenodd" clip-rule="evenodd" d="M30 38H26C22.2288 38 20.3431 38 19.1716 36.8284C18 35.6569 18 33.7712 18 30V26C18 22.2288 18 20.3431 19.1716 19.1716C20.3431 18 22.2387 18 26.0298 18C26.6358 18 27.1214 18 27.53 18.0167C27.5166 18.0966 27.5095 18.1781 27.5092 18.2606L27.5 21.095C27.4999 22.1921 27.4998 23.1616 27.6049 23.9432C27.7188 24.7903 27.9803 25.6373 28.6716 26.3285C29.3628 27.0198 30.2098 27.2813 31.0569 27.3952C31.8385 27.5003 32.808 27.5002 33.9051 27.5001L34 27.5001H37.9574C38 28.0344 38 28.6901 38 29.5629V30C38 33.7712 38 35.6569 36.8284 36.8284C35.6569 38 33.7712 38 30 38Z" fill="#22C55E"/>
<path d="M26.5606 31.4983C26.8358 31.1887 26.8079 30.7146 26.4983 30.4395C26.1887 30.1643 25.7146 30.1921 25.4395 30.5017L23.3333 32.8711L22.5606 32.0017C22.2854 31.6921 21.8113 31.6643 21.5017 31.9395C21.1921 32.2146 21.1643 32.6887 21.4395 32.9983L22.7728 34.4983C22.9151 34.6584 23.1191 34.75 23.3333 34.75C23.5476 34.75 23.7516 34.6584 23.8939 34.4983L26.5606 31.4983Z" fill="#22C55E"/>
<path d="M27.5092 18.2601L27.5 21.0945C27.4999 22.1916 27.4998 23.1612 27.6049 23.9427C27.7188 24.7898 27.9803 25.6368 28.6716 26.3281C29.3629 27.0193 30.2098 27.2808 31.057 27.3947C31.8385 27.4998 32.808 27.4997 33.9051 27.4996L37.9574 27.4996C37.9698 27.6552 37.9786 27.821 37.9848 27.9995H38C38 27.732 38 27.5983 37.9901 27.4408C37.9335 26.5463 37.5617 25.5212 37.0315 24.7985C36.9382 24.6713 36.8743 24.5949 36.7467 24.4422C35.9542 23.4936 34.911 22.3119 34 21.4995C33.1892 20.7765 32.0787 19.9854 31.1101 19.3385C30.2781 18.7827 29.862 18.5049 29.2915 18.2983C29.1403 18.2436 28.9408 18.1831 28.7846 18.1447C28.4006 18.0501 28.0268 18.0173 27.5 18.0059L27.5092 18.2601Z" fill="#22C55E"/>
</svg>
