<svg width="16" height="16" viewBox="0 0 16 16" fill="none" xmlns="http://www.w3.org/2000/svg">
<g id="Outline / Messages, Conversation / Plain">
<path id="Vector" fill-rule="evenodd" clip-rule="evenodd" d="M12.0961 2.42053C11.3161 2.55929 10.2646 2.90839 8.78878 3.40032L5.44794 4.51394C4.26125 4.9095 3.40173 5.19644 2.79463 5.45465C2.15992 5.7246 1.93413 5.91277 1.8608 6.03891C1.63493 6.42743 1.63493 6.90728 1.8608 7.2958C1.93413 7.42194 2.15992 7.61012 2.79463 7.88007C3.40173 8.13828 4.26125 8.42522 5.44793 8.82078C5.46667 8.82703 5.48517 8.83318 5.50345 8.83926C5.75653 8.92344 5.96562 8.993 6.14831 9.08852L9.69723 5.57872C9.89836 5.37981 10.2227 5.3816 10.4216 5.58274C10.6205 5.78387 10.6187 6.10817 10.4176 6.30709L6.88428 9.80143C6.99443 9.99597 7.06899 10.2201 7.16105 10.4969C7.16713 10.5151 7.17328 10.5336 7.17953 10.5524C7.57509 11.7391 7.86202 12.5986 8.12023 13.2057C8.39019 13.8404 8.57836 14.0662 8.7045 14.1395C9.09302 14.3654 9.57287 14.3654 9.96139 14.1395C10.0875 14.0662 10.2757 13.8404 10.5457 13.2057C10.8039 12.5986 11.0908 11.7391 11.4864 10.5524L12.6 7.21153C13.0919 5.73573 13.441 4.68416 13.5798 3.90417C13.7192 3.12048 13.6126 2.78758 13.4127 2.58762C13.2127 2.38766 12.8798 2.28112 12.0961 2.42053ZM11.9167 1.41196C12.7848 1.25753 13.5667 1.29292 14.1371 1.86325C14.7074 2.43358 14.7428 3.21546 14.5883 4.08359C14.4348 4.94648 14.0605 6.06941 13.5866 7.49111L12.45 10.901C12.0643 12.0579 11.7647 12.9569 11.4883 13.6066C11.2218 14.2333 10.9258 14.7638 10.4763 15.0251C9.76943 15.436 8.89646 15.436 8.18964 15.0251C7.74008 14.7638 7.4441 14.2333 7.17755 13.6066C6.9012 12.9569 6.60155 12.0579 6.21591 10.901L6.20769 10.8763C6.07258 10.471 6.0314 10.361 5.97305 10.2739C5.90775 10.1764 5.82396 10.0926 5.72641 10.0273C5.63926 9.96891 5.52931 9.92773 5.12399 9.79262L5.09929 9.78439C3.94237 9.39875 3.04341 9.0991 2.39369 8.82276C1.76697 8.5562 1.23653 8.26023 0.975177 7.81066C0.564264 7.10384 0.564264 6.23087 0.975177 5.52405C1.23653 5.07449 1.76697 4.77852 2.39369 4.51196C3.04342 4.23562 3.94239 3.93596 5.09934 3.55032L8.50921 2.41369C9.9309 1.93978 11.0538 1.56546 11.9167 1.41196Z" fill="white"/>
</g>
</svg>
