<svg width="25" height="24" viewBox="0 0 25 24" fill="none" xmlns="http://www.w3.org/2000/svg">
<g id="Outline / School / Case Minimalistic">
<path id="Vector" fill-rule="evenodd" clip-rule="evenodd" d="M11.061 2.25H13.9395C14.053 2.24998 14.1414 2.24997 14.225 2.25503C15.2854 2.31926 16.214 2.98855 16.6102 3.97426C16.6415 4.05195 16.6694 4.13578 16.7053 4.24347L16.7374 4.33981C16.7563 4.39649 16.7617 4.41254 16.7663 4.42518C16.9435 4.91498 17.3799 5.25578 17.8353 5.30011C17.8687 5.30192 17.902 5.3038 17.935 5.30575C19.6115 5.40466 20.9013 5.68377 21.8588 6.64125C22.6071 7.38961 22.9392 8.33856 23.0969 9.51098C23.25 10.6502 23.25 12.1058 23.25 13.9436V14.0564C23.25 15.8942 23.25 17.3498 23.0969 18.489C22.9392 19.6614 22.6071 20.6104 21.8588 21.3588C21.1104 22.1071 20.1614 22.4392 18.989 22.5969C17.8498 22.75 16.3942 22.75 14.5564 22.75H10.4436C8.60583 22.75 7.15019 22.75 6.01098 22.5969C4.83856 22.4392 3.88961 22.1071 3.14124 21.3588C2.39288 20.6104 2.06076 19.6614 1.90314 18.489C1.74997 17.3498 1.74998 15.8942 1.75 14.0564V13.9436C1.74998 12.1058 1.74997 10.6502 1.90314 9.51098C2.06076 8.33856 2.39288 7.38961 3.14124 6.64125C4.09872 5.68377 5.38854 5.40466 7.06498 5.30575C7.09801 5.3038 7.13127 5.30192 7.16476 5.30011C7.62033 5.25576 8.05706 4.91482 8.23417 4.42521C8.23877 4.41248 8.24407 4.39678 8.26305 4.33981L8.29518 4.24343C8.33105 4.13577 8.35898 4.05194 8.39021 3.97426C8.78647 2.98855 9.71507 2.31926 10.7755 2.25503C10.8591 2.24997 10.9474 2.24998 11.061 2.25ZM7.14194 6.80382C7.18636 6.80246 7.2305 6.79997 7.27435 6.79639C8.14675 6.75027 9.19718 6.75 10.5 6.75H14.5C15.8028 6.75 16.8533 6.75027 17.7256 6.79639C17.7695 6.79997 17.8136 6.80246 17.8581 6.80382C19.4619 6.89946 20.2561 7.15995 20.7981 7.70191C20.9905 7.89431 21.1479 8.11905 21.275 8.40149C19.4479 9.58765 18.2474 10.3528 17.2365 10.8578C17.1701 10.5116 16.8656 10.25 16.5 10.25C16.0858 10.25 15.75 10.5858 15.75 11V11.458C13.6306 12.0975 11.3694 12.0975 9.25 11.4579V11C9.25 10.5858 8.91421 10.25 8.5 10.25C8.13442 10.25 7.82993 10.5116 7.76347 10.8578C6.75261 10.3528 5.5521 9.58756 3.72505 8.40141C3.85217 8.119 4.00952 7.89429 4.2019 7.70191C4.74386 7.15995 5.53808 6.89946 7.14194 6.80382ZM3.36034 9.95302C3.25136 10.9494 3.25 12.2393 3.25 14C3.25 15.9068 3.25159 17.2615 3.38976 18.2892C3.52502 19.2952 3.77869 19.8749 4.2019 20.2981C4.62511 20.7213 5.20476 20.975 6.21085 21.1102C7.23851 21.2484 8.59318 21.25 10.5 21.25H14.5C16.4068 21.25 17.7615 21.2484 18.7892 21.1102C19.7952 20.975 20.3749 20.7213 20.7981 20.2981C21.2213 19.8749 21.475 19.2952 21.6102 18.2892C21.7484 17.2615 21.75 15.9068 21.75 14C21.75 12.2394 21.7486 10.9495 21.6397 9.95312C19.7527 11.1759 18.4585 11.9851 17.25 12.5046V13C17.25 13.4142 16.9142 13.75 16.5 13.75C16.0913 13.75 15.7589 13.423 15.7502 13.0164C13.6199 13.578 11.3801 13.578 9.24982 13.0164C9.24112 13.423 8.90875 13.75 8.5 13.75C8.08579 13.75 7.75 13.4142 7.75 13V12.5045C6.5415 11.985 5.24736 11.1758 3.36034 9.95302ZM15.492 5.25089C15.1812 5.25 14.8575 5.25 14.5206 5.25H10.4794C10.1427 5.25 9.81915 5.25 9.50843 5.25089C9.56013 5.14863 9.60571 5.04327 9.64472 4.93544C9.65664 4.90248 9.66834 4.86739 9.68336 4.8223L9.68608 4.81415L9.71174 4.73718C9.75708 4.60117 9.7699 4.56374 9.78196 4.53375C9.96208 4.08571 10.3842 3.78148 10.8662 3.75229C10.8984 3.75034 10.938 3.75 11.0814 3.75H13.9191C14.0625 3.75 14.102 3.75034 14.1343 3.75229C14.6163 3.78148 15.0384 4.08571 15.2185 4.53375C15.2306 4.56374 15.2434 4.60115 15.2887 4.73717L15.317 4.82212M15.3557 4.93547C15.3947 5.04328 15.4403 5.14863 15.492 5.25089L15.3557 4.93547Z" />
</g>
</svg>
