<svg width="144" height="30" viewBox="0 0 144 30" fill="none" xmlns="http://www.w3.org/2000/svg">
<path d="M5.43837 29.6045H0V0H5.43837V18.6684L13.4871 8.46407H19.6968L12.6763 17.2841L19.6968 29.6045H13.4871L9.19578 21.9117L5.43837 26.8952V29.6045Z" fill="white"/>
<path d="M48.5695 21.9512C48.5695 23.0587 48.3586 24.1068 47.9367 25.0956C47.5148 26.0712 46.9347 26.9216 46.1964 27.6467C45.4713 28.3718 44.6144 28.9453 43.6256 29.3672C42.65 29.7891 41.6018 30 40.4812 30C39.4792 30 38.5168 29.8286 37.5939 29.4858C36.6711 29.1299 35.8339 28.6157 35.0824 27.9433C34.3441 28.6157 33.5135 29.1299 32.5906 29.4858C31.681 29.8286 30.7185 30 29.7034 30C28.5827 30 27.5346 29.7891 26.559 29.3672C25.5834 28.9453 24.7264 28.3718 23.9881 27.6467C23.263 26.9216 22.6895 26.0712 22.2676 25.0956C21.8457 24.1068 21.6348 23.0587 21.6348 21.9512V8.46407H27.0336V21.9512C27.0336 22.3204 27.0995 22.6697 27.2314 22.9993C27.3764 23.3158 27.5676 23.5992 27.8049 23.8497C28.0554 24.087 28.3388 24.2782 28.6552 24.4232C28.9848 24.555 29.3342 24.621 29.7034 24.621C30.0725 24.621 30.4219 24.555 30.7515 24.4232C31.0811 24.2782 31.3711 24.087 31.6216 23.8497C31.8721 23.5992 32.0633 23.3158 32.1951 22.9993C32.3401 22.6697 32.4127 22.3204 32.4127 21.9512V8.46407H37.7917V21.9512C37.7917 22.3204 37.8642 22.6697 38.0092 22.9993C38.1543 23.3158 38.3454 23.5992 38.5827 23.8497C38.8332 24.087 39.1167 24.2782 39.4331 24.4232C39.7627 24.555 40.1121 24.621 40.4812 24.621C40.8504 24.621 41.1997 24.555 41.5293 24.4232C41.8589 24.2782 42.1424 24.087 42.3797 23.8497C42.6302 23.5992 42.828 23.3158 42.973 22.9993C43.118 22.6697 43.1905 22.3204 43.1905 21.9512V8.46407H48.5695V21.9512Z" fill="white"/>
<path d="M72.9928 29.6045H71.6875L69.5913 26.6974C69.0771 27.1589 68.53 27.5939 67.9499 28.0026C67.383 28.3982 66.7831 28.7475 66.1503 29.0508C65.5175 29.3408 64.8649 29.5715 64.1925 29.7429C63.5333 29.9143 62.8609 30 62.1754 30C60.6856 30 59.2815 29.7495 57.9631 29.2485C56.6579 28.7475 55.5109 28.0224 54.5221 27.0732C53.5465 26.1107 52.7752 24.9374 52.2083 23.5531C51.6414 22.1688 51.3579 20.5933 51.3579 18.8266C51.3579 17.1786 51.6414 15.6691 52.2083 14.298C52.7752 12.9136 53.5465 11.7271 54.5221 10.7383C55.5109 9.74951 56.6579 8.98484 57.9631 8.4443C59.2815 7.89057 60.6856 7.61371 62.1754 7.61371C62.8609 7.61371 63.5399 7.69941 64.2123 7.8708C64.8846 8.04219 65.5372 8.2795 66.1701 8.58273C66.8029 8.88596 67.4028 9.24192 67.9697 9.65063C68.5498 10.0593 69.0903 10.501 69.5913 10.9756L71.6875 8.46407H72.9928V29.6045ZM67.5544 18.8266C67.5544 18.0883 67.4094 17.3764 67.1193 16.6908C66.8425 15.9921 66.4601 15.379 65.9723 14.8517C65.4845 14.3111 64.911 13.8827 64.2518 13.5662C63.6058 13.2367 62.9137 13.0719 62.1754 13.0719C61.437 13.0719 60.7383 13.1971 60.0791 13.4476C59.4331 13.6981 58.8662 14.0672 58.3784 14.555C57.9038 15.0428 57.528 15.6493 57.2512 16.3744C56.9743 17.0864 56.8359 17.9038 56.8359 18.8266C56.8359 19.7495 56.9743 20.5735 57.2512 21.2986C57.528 22.0105 57.9038 22.6104 58.3784 23.0982C58.8662 23.586 59.4331 23.9552 60.0791 24.2057C60.7383 24.4562 61.437 24.5814 62.1754 24.5814C62.9137 24.5814 63.6058 24.4232 64.2518 24.1068C64.911 23.7772 65.4845 23.3487 65.9723 22.8214C66.4601 22.2808 66.8425 21.6678 67.1193 20.9822C67.4094 20.2835 67.5544 19.5649 67.5544 18.8266Z" fill="white"/>
<path d="M97.6335 29.6045H96.3283L94.232 26.6974C93.7179 27.1589 93.1707 27.5939 92.5906 28.0026C92.0237 28.3982 91.4239 28.7475 90.791 29.0508C90.1582 29.3408 89.5056 29.5715 88.8332 29.7429C88.174 29.9143 87.5017 30 86.8161 30C85.3263 30 83.9222 29.7495 82.6038 29.2485C81.2986 28.7475 80.1516 28.0224 79.1628 27.0732C78.1872 26.1107 77.416 24.9374 76.8491 23.5531C76.2821 22.1688 75.9987 20.5933 75.9987 18.8266C75.9987 17.1786 76.2821 15.6691 76.8491 14.298C77.416 12.9136 78.1872 11.7271 79.1628 10.7383C80.1516 9.74951 81.2986 8.98484 82.6038 8.4443C83.9222 7.89057 85.3263 7.61371 86.8161 7.61371C87.5017 7.61371 88.1806 7.69941 88.853 7.8708C89.5254 8.04219 90.178 8.2795 90.8108 8.58273C91.4436 8.88596 92.0435 9.24192 92.6104 9.65063C93.1905 10.0593 93.7311 10.501 94.232 10.9756L96.3283 8.46407H97.6335V29.6045ZM92.1951 18.8266C92.1951 18.0883 92.0501 17.3764 91.7601 16.6908C91.4832 15.9921 91.1009 15.379 90.6131 14.8517C90.1253 14.3111 89.5518 13.8827 88.8926 13.5662C88.2465 13.2367 87.5544 13.0719 86.8161 13.0719C86.0778 13.0719 85.379 13.1971 84.7198 13.4476C84.0738 13.6981 83.5069 14.0672 83.0191 14.555C82.5445 15.0428 82.1688 15.6493 81.8919 16.3744C81.615 17.0864 81.4766 17.9038 81.4766 18.8266C81.4766 19.7495 81.615 20.5735 81.8919 21.2986C82.1688 22.0105 82.5445 22.6104 83.0191 23.0982C83.5069 23.586 84.0738 23.9552 84.7198 24.2057C85.379 24.4562 86.0778 24.5814 86.8161 24.5814C87.5544 24.5814 88.2465 24.4232 88.8926 24.1068C89.5518 23.7772 90.1253 23.3487 90.6131 22.8214C91.1009 22.2808 91.4832 21.6678 91.7601 20.9822C92.0501 20.2835 92.1951 19.5649 92.1951 18.8266Z" fill="white"/>
<path d="M107.205 29.6045H101.767V0H107.205V18.6684L115.254 8.46407H121.463L114.443 17.2841L121.463 29.6045H115.254L110.962 21.9117L107.205 26.8952V29.6045Z" fill="white"/>
<path d="M143.434 29.6045H142.129L140.033 26.6974C139.519 27.1589 138.972 27.5939 138.392 28.0026C137.825 28.3982 137.225 28.7475 136.592 29.0508C135.959 29.3408 135.307 29.5715 134.634 29.7429C133.975 29.9143 133.303 30 132.617 30C131.127 30 129.723 29.7495 128.405 29.2485C127.1 28.7475 125.953 28.0224 124.964 27.0732C123.988 26.1107 123.217 24.9374 122.65 23.5531C122.083 22.1688 121.8 20.5933 121.8 18.8266C121.8 17.1786 122.083 15.6691 122.65 14.298C123.217 12.9136 123.988 11.7271 124.964 10.7383C125.953 9.74951 127.1 8.98484 128.405 8.4443C129.723 7.89057 131.127 7.61371 132.617 7.61371C133.303 7.61371 133.982 7.69941 134.654 7.8708C135.326 8.04219 135.979 8.2795 136.612 8.58273C137.245 8.88596 137.844 9.24192 138.411 9.65063C138.991 10.0593 139.532 10.501 140.033 10.9756L142.129 8.46407H143.434V29.6045ZM137.996 18.8266C137.996 18.0883 137.851 17.3764 137.561 16.6908C137.284 15.9921 136.902 15.379 136.414 14.8517C135.926 14.3111 135.353 13.8827 134.693 13.5662C134.047 13.2367 133.355 13.0719 132.617 13.0719C131.879 13.0719 131.18 13.1971 130.521 13.4476C129.875 13.6981 129.308 14.0672 128.82 14.555C128.345 15.0428 127.97 15.6493 127.693 16.3744C127.416 17.0864 127.278 17.9038 127.278 18.8266C127.278 19.7495 127.416 20.5735 127.693 21.2986C127.97 22.0105 128.345 22.6104 128.82 23.0982C129.308 23.586 129.875 23.9552 130.521 24.2057C131.18 24.4562 131.879 24.5814 132.617 24.5814C133.355 24.5814 134.047 24.4232 134.693 24.1068C135.353 23.7772 135.926 23.3487 136.414 22.8214C136.902 22.2808 137.284 21.6678 137.561 20.9822C137.851 20.2835 137.996 19.5649 137.996 18.8266Z" fill="white"/>
</svg>
