<svg width="20" height="20" viewBox="0 0 20 20"  xmlns="http://www.w3.org/2000/svg">
<path fill-rule="evenodd" clip-rule="evenodd" d="M14.1668 2.70801C14.3636 2.70801 14.5488 2.80063 14.6668 2.95801L17.1668 6.29134C17.3739 6.56748 17.318 6.95923 17.0418 7.16634C16.7657 7.37345 16.3739 7.31748 16.1668 7.04134L14.7918 5.20801V14.7913L16.1668 12.958C16.3739 12.6819 16.7657 12.6259 17.0418 12.833C17.318 13.0401 17.3739 13.4319 17.1668 13.708L14.6668 17.0413C14.5488 17.1987 14.3636 17.2913 14.1668 17.2913C13.9701 17.2913 13.7849 17.1987 13.6668 17.0413L11.1668 13.708C10.9597 13.4319 11.0157 13.0401 11.2918 12.833C11.568 12.6259 11.9597 12.6819 12.1668 12.958L13.5418 14.7913V5.20801L12.1668 7.04134C11.9597 7.31748 11.568 7.37345 11.2918 7.16634C11.0157 6.95923 10.9597 6.56748 11.1668 6.29134L13.6668 2.95801C13.7849 2.80063 13.9701 2.70801 14.1668 2.70801ZM2.7085 5.83301C2.7085 5.48783 2.98832 5.20801 3.3335 5.20801H9.16683C9.51201 5.20801 9.79183 5.48783 9.79183 5.83301C9.79183 6.17819 9.51201 6.45801 9.16683 6.45801H3.3335C2.98832 6.45801 2.7085 6.17819 2.7085 5.83301ZM2.7085 9.99967C2.7085 9.6545 2.98832 9.37467 3.3335 9.37467H9.16683C9.51201 9.37467 9.79183 9.6545 9.79183 9.99967C9.79183 10.3449 9.51201 10.6247 9.16683 10.6247H3.3335C2.98832 10.6247 2.7085 10.3449 2.7085 9.99967ZM2.7085 14.1663C2.7085 13.8212 2.98832 13.5413 3.3335 13.5413H9.16683C9.51201 13.5413 9.79183 13.8212 9.79183 14.1663C9.79183 14.5115 9.51201 14.7913 9.16683 14.7913H3.3335C2.98832 14.7913 2.7085 14.5115 2.7085 14.1663Z" />
</svg>
