<svg width="20" height="20" viewBox="0 0 20 20" fill="none" xmlns="http://www.w3.org/2000/svg">
<g id="Outline / Arrows Action / Logout 2">
<g id="Vector">
<path d="M12.4518 1.04199C11.3122 1.04198 10.3936 1.04196 9.67112 1.1391C8.92103 1.23994 8.28946 1.45569 7.78787 1.95728C7.35042 2.39473 7.12939 2.93229 7.01336 3.56395C6.90062 4.17775 6.87905 4.92891 6.87403 5.83018C6.87211 6.17535 7.15037 6.45673 7.49554 6.45865C7.84072 6.46057 8.12209 6.18231 8.12401 5.83714C8.12909 4.92589 8.15275 4.27999 8.24279 3.78978C8.32956 3.31744 8.46887 3.04405 8.67175 2.84117C8.90239 2.61053 9.2262 2.46016 9.83768 2.37795C10.4671 2.29332 11.3014 2.29199 12.4976 2.29199H13.3309C14.5271 2.29199 15.3614 2.29332 15.9908 2.37795C16.6023 2.46016 16.9261 2.61053 17.1567 2.84117C17.3874 3.0718 17.5377 3.39561 17.62 4.00709C17.7046 4.63655 17.7059 5.47081 17.7059 6.66699V13.3337C17.7059 14.5298 17.7046 15.3641 17.62 15.9936C17.5377 16.605 17.3874 16.9289 17.1567 17.1595C16.9261 17.3901 16.6023 17.5405 15.9908 17.6227C15.3614 17.7073 14.5271 17.7087 13.3309 17.7087H12.4976C11.3014 17.7087 10.4671 17.7073 9.83768 17.6227C9.2262 17.5405 8.90239 17.3901 8.67175 17.1595C8.46887 16.9566 8.32956 16.6832 8.24279 16.2109C8.15275 15.7207 8.12909 15.0748 8.12401 14.1635C8.12209 13.8183 7.84072 13.5401 7.49554 13.542C7.15037 13.5439 6.87211 13.8253 6.87403 14.1705C6.87905 15.0717 6.90062 15.8229 7.01336 16.4367C7.12939 17.0684 7.35042 17.6059 7.78787 18.0434C8.28946 18.545 8.92103 18.7607 9.67112 18.8616C10.3936 18.9587 11.3122 18.9587 12.4519 18.9587H13.3766C14.5163 18.9587 15.4349 18.9587 16.1574 18.8616C16.9075 18.7607 17.539 18.545 18.0406 18.0434C18.5422 17.5418 18.758 16.9102 18.8588 16.1601C18.9559 15.4376 18.9559 14.519 18.9559 13.3794V6.62127C18.9559 5.48161 18.9559 4.56301 18.8588 3.84053C18.758 3.09044 18.5422 2.45888 18.0406 1.95728C17.539 1.45569 16.9075 1.23994 16.1574 1.1391C15.4349 1.04196 14.5163 1.04198 13.3766 1.04199H12.4518Z" fill="#EF4444"/>
<path d="M12.4974 9.37533C12.8426 9.37533 13.1224 9.65515 13.1224 10.0003C13.1224 10.3455 12.8426 10.6253 12.4974 10.6253H3.3536L4.98747 12.0258C5.24955 12.2504 5.2799 12.645 5.05526 12.9071C4.83063 13.1692 4.43606 13.1995 4.17398 12.9749L1.25732 10.4749C1.11879 10.3561 1.03906 10.1828 1.03906 10.0003C1.03906 9.81787 1.11879 9.64453 1.25732 9.52579L4.17398 7.02579C4.43606 6.80115 4.83063 6.8315 5.05526 7.09358C5.2799 7.35566 5.24955 7.75022 4.98747 7.97486L3.3536 9.37533H12.4974Z" fill="#EF4444"/>
</g>
</g>
</svg>
