<svg width="21" height="20" viewBox="0 0 21 20" fill="none" xmlns="http://www.w3.org/2000/svg">
<path fill-rule="evenodd" clip-rule="evenodd" d="M17.7915 5.8335C17.7915 6.17867 17.5117 6.4585 17.1665 6.4585L3.83317 6.4585C3.48799 6.4585 3.20817 6.17867 3.20817 5.8335C3.20817 5.48832 3.48799 5.2085 3.83317 5.2085L17.1665 5.2085C17.5117 5.2085 17.7915 5.48832 17.7915 5.8335Z" fill="#2D2D2D"/>
<path fill-rule="evenodd" clip-rule="evenodd" d="M17.7915 10C17.7915 10.3452 17.5117 10.625 17.1665 10.625L3.83317 10.625C3.48799 10.625 3.20817 10.3452 3.20817 10C3.20817 9.65482 3.48799 9.375 3.83317 9.375L17.1665 9.375C17.5117 9.375 17.7915 9.65482 17.7915 10Z" fill="#383838"/>
<path fill-rule="evenodd" clip-rule="evenodd" d="M17.7915 14.1665C17.7915 14.5117 17.5117 14.7915 17.1665 14.7915L3.83317 14.7915C3.48799 14.7915 3.20817 14.5117 3.20817 14.1665C3.20817 13.8213 3.48799 13.5415 3.83317 13.5415L17.1665 13.5415C17.5117 13.5415 17.7915 13.8213 17.7915 14.1665Z" fill="#383838"/>
</svg>
