<svg width="76" height="76" viewBox="0 0 76 76" fill="none" xmlns="http://www.w3.org/2000/svg">
<g filter="url(#filter0_d_229_6753)">
<rect x="14" y="10" width="48" height="48" rx="24" fill="url(#paint0_linear_229_6753)" shape-rendering="crispEdges"/>
<path d="M38 44C43.5228 44 48 39.5228 48 34C48 33.5373 47.3065 33.4608 47.0672 33.8568C45.9289 35.7406 43.8615 37 41.5 37C37.9101 37 35 34.0899 35 30.5C35 28.1385 36.2594 26.0711 38.1432 24.9328C38.5392 24.6935 38.4627 24 38 24C32.4772 24 28 28.4772 28 34C28 39.5228 32.4772 44 38 44Z" fill="white"/>
</g>
<defs>
<filter id="filter0_d_229_6753" x="0" y="0" width="76" height="76" filterUnits="userSpaceOnUse" color-interpolation-filters="sRGB">
<feFlood flood-opacity="0" result="BackgroundImageFix"/>
<feColorMatrix in="SourceAlpha" type="matrix" values="0 0 0 0 0 0 0 0 0 0 0 0 0 0 0 0 0 0 127 0" result="hardAlpha"/>
<feOffset dy="4"/>
<feGaussianBlur stdDeviation="7"/>
<feComposite in2="hardAlpha" operator="out"/>
<feColorMatrix type="matrix" values="0 0 0 0 0.101961 0 0 0 0 0.298039 0 0 0 0 0.890196 0 0 0 0.2 0"/>
<feBlend mode="normal" in2="BackgroundImageFix" result="effect1_dropShadow_229_6753"/>
<feBlend mode="normal" in="SourceGraphic" in2="effect1_dropShadow_229_6753" result="shape"/>
</filter>
<linearGradient id="paint0_linear_229_6753" x1="22" y1="8" x2="49" y2="58" gradientUnits="userSpaceOnUse">
<stop stop-color="#BA99FF"/>
<stop offset="1" stop-color="#3B82F6"/>
</linearGradient>
</defs>
</svg>
