<svg width="20" height="20" viewBox="0 0 20 20" fill="none" xmlns="http://www.w3.org/2000/svg">
<path fill-rule="evenodd" clip-rule="evenodd" d="M9.18124 2.33399C5.30901 2.74286 2.29175 6.01874 2.29175 9.99935C2.29175 14.2565 5.74289 17.7077 10.0001 17.7077C13.9807 17.7077 17.2566 14.6904 17.6654 10.8182C16.5598 12.2217 14.8439 13.1243 12.9167 13.1243C9.58003 13.1243 6.87508 10.4194 6.87508 7.08268C6.87508 5.1555 7.77771 3.4396 9.18124 2.33399ZM1.04175 9.99935C1.04175 5.0518 5.05253 1.04102 10.0001 1.04102C10.5973 1.04102 10.8962 1.51706 10.9475 1.89624C10.9967 2.261 10.8619 2.72489 10.4426 2.97824C9.05229 3.81835 8.12508 5.34254 8.12508 7.08268C8.12508 9.72905 10.2704 11.8743 12.9167 11.8743C14.6569 11.8743 16.1811 10.9471 17.0212 9.55682C17.2745 9.13755 17.7384 9.00272 18.1032 9.05198C18.4824 9.10319 18.9584 9.40216 18.9584 9.99935C18.9584 14.9469 14.9476 18.9577 10.0001 18.9577C5.05253 18.9577 1.04175 14.9469 1.04175 9.99935Z" fill="#58607C"/>
</svg>
