<svg width="150" height="26" viewBox="0 0 238 42" fill="none" xmlns="http://www.w3.org/2000/svg">
    <path
        d="M8.4267 39.3258H0.621094V0.317383H8.4267V19.8216L22.9509 0.317383H31.817L19.501 16.7744L31.817 39.3258H22.9509L14.3866 23.5464L8.4267 31.5202V39.3258Z"
        fill="white" />
    <path
        d="M74.1479 28.1708C74.1559 29.736 73.8454 31.2866 73.2352 32.728C72.0534 35.5388 69.8176 37.7749 67.0069 38.9566C65.5662 39.5694 64.0151 39.88 62.4496 39.8693C61.0228 39.874 59.6072 39.6145 58.2748 39.1041C57.9422 38.4304 57.4277 37.8634 56.7896 37.4668C56.1515 37.0702 55.4153 36.8599 54.664 36.8599C53.9127 36.8599 53.1762 37.0702 52.5381 37.4668C51.9 37.8634 51.3858 38.4304 51.0532 39.1041C49.7157 39.6133 48.296 39.8728 46.8649 39.8693C45.2993 39.881 43.748 39.5704 42.3077 38.9566C39.4969 37.7749 37.2611 35.5388 36.0794 32.728C35.4656 31.2877 35.1547 29.7364 35.1663 28.1708V0.317265H42.9723V28.1708C42.9687 28.6982 43.0712 29.2209 43.2741 29.7078C43.5705 30.42 44.0738 31.0271 44.7187 31.4506C45.3635 31.8741 46.1204 32.0946 46.8918 32.0837C47.6602 32.0924 48.4134 31.8699 49.0538 31.445C49.6941 31.0201 50.192 30.4126 50.4826 29.7012C50.6806 29.2131 50.7809 28.6909 50.7779 28.1642V0.310547H58.5835V28.1642C58.5799 28.6916 58.6828 29.2144 58.8857 29.7012C59.134 30.2897 59.5229 30.8083 60.0182 31.2117C60.5136 31.615 61.1003 31.8907 61.727 32.0146C62.3536 32.1385 63.0011 32.1067 63.6127 31.9222C64.2242 31.7377 64.7813 31.4058 65.2349 30.956C65.5945 30.5956 65.8814 30.1698 66.0804 29.7012C66.2908 29.2162 66.3984 28.6928 66.396 28.1642V0.310547H74.1747L74.1479 28.1708Z"
        fill="white" />
    <path
        d="M111.875 39.3259H104.069V31.5203H88.451V39.3259H80.6722V15.9356C80.6578 13.8456 81.076 11.7752 81.9005 9.85475C82.6926 8.00055 83.8316 6.31483 85.2564 4.88817C86.6728 3.45724 88.3554 2.31722 90.2095 1.53233C92.1332 0.721789 94.1996 0.304199 96.2871 0.304199C98.3745 0.304199 100.441 0.721789 102.364 1.53233C106.111 3.11355 109.092 6.09493 110.673 9.84148C111.498 11.762 111.916 13.8322 111.902 15.9221L111.875 39.3259ZM104.069 23.7412V15.9356C104.074 14.8926 103.864 13.8598 103.452 12.9019C102.664 11.0226 101.17 9.52809 99.2903 8.74067C98.3348 8.33604 97.3077 8.12751 96.27 8.12751C95.2324 8.12751 94.2053 8.33604 93.2498 8.74067C91.3705 9.52809 89.8761 11.0226 89.0887 12.9019C88.6761 13.8598 88.466 14.8926 88.4713 15.9356V23.7412H104.069Z"
        fill="white" />
    <path
        d="M149.413 39.3259H141.601V31.5203H125.989V39.3259H118.21V15.9356C118.197 13.8464 118.613 11.7767 119.432 9.85475C120.224 8.00078 121.363 6.31515 122.788 4.88817C124.204 3.45724 125.887 2.31722 127.741 1.53233C129.665 0.721789 131.731 0.304199 133.819 0.304199C135.906 0.304199 137.972 0.721789 139.896 1.53233C143.642 3.11355 146.624 6.09493 148.205 9.84148C149.03 11.762 149.447 13.8322 149.433 15.9221L149.413 39.3259ZM141.601 23.7412V15.9356C141.608 14.8931 141.4 13.8602 140.99 12.9019C140.597 11.9726 140.03 11.1274 139.319 10.4119C138.594 9.68678 137.733 9.11164 136.786 8.7192C135.839 8.32677 134.824 8.12472 133.798 8.12472C132.773 8.12472 131.758 8.32677 130.811 8.7192C129.864 9.11164 129.003 9.68678 128.278 10.4119C127.562 11.1253 126.992 11.9709 126.6 12.9019C126.193 13.8612 125.985 14.8934 125.989 15.9356V23.7412H141.601Z"
        fill="white" />
    <path
        d="M163.991 39.3258H156.186V0.317383H163.991V19.8216L178.515 0.317383H187.381L175.086 16.7744L187.408 39.3258H178.542L169.971 23.5464L164.018 31.5202L163.991 39.3258Z"
        fill="white" />
    <path
        d="M221.764 39.3259H213.959V31.5203H198.341V39.3259H190.562V15.9356C190.547 13.8456 190.966 11.7752 191.79 9.85475C192.582 8.00055 193.721 6.31483 195.146 4.88817C196.562 3.45724 198.245 2.31722 200.099 1.53233C202.023 0.721789 204.089 0.304199 206.177 0.304199C208.264 0.304199 210.33 0.721789 212.254 1.53233C216 3.11355 218.982 6.09493 220.563 9.84148C221.387 11.762 221.806 13.8322 221.791 15.9221L221.764 39.3259ZM213.959 23.7412V15.9356C213.963 14.8934 213.755 13.8612 213.348 12.9019C212.955 11.9709 212.385 11.1253 211.67 10.4119C210.958 9.69628 210.112 9.12835 209.18 8.74067C208.224 8.33604 207.197 8.12751 206.16 8.12751C205.122 8.12751 204.095 8.33604 203.139 8.74067C202.207 9.12835 201.361 9.69628 200.649 10.4119C199.936 11.1255 199.368 11.9712 198.978 12.9019C198.566 13.8598 198.356 14.8926 198.361 15.9356V23.7412H213.959Z"
        fill="white" />
    <path
        d="M235.611 29.6944H229.57L227.912 0.317383H237.308L235.611 29.6944ZM237.241 36.547C237.247 37.179 237.122 37.8055 236.872 38.3862C236.64 38.9402 236.303 39.4439 235.879 39.8695C235.455 40.2895 234.957 40.6264 234.409 40.8628C233.844 41.1077 233.234 41.2332 232.617 41.2318C231.99 41.2346 231.368 41.1091 230.791 40.8628C230.242 40.6217 229.74 40.2854 229.308 39.8695C228.869 39.4298 228.524 38.9056 228.293 38.3289C228.063 37.7521 227.951 37.1347 227.966 36.5136C227.963 35.8978 228.086 35.2879 228.328 34.7216C228.567 34.172 228.909 33.6731 229.335 33.2518C229.767 32.8359 230.269 32.4993 230.818 32.2582C231.396 32.014 232.017 31.891 232.644 31.8961C233.26 31.8923 233.87 32.0154 234.436 32.2582C234.984 32.4945 235.482 32.8318 235.906 33.2518C236.328 33.6736 236.665 34.1726 236.899 34.7216C237.142 35.2989 237.259 35.9211 237.241 36.547Z"
        fill="white" />
</svg>