<svg width="18" height="18" viewBox="0 0 18 18" fill="none" xmlns="http://www.w3.org/2000/svg">
<path fill-rule="evenodd" clip-rule="evenodd" d="M9.00011 0.0410156C5.43328 0.0410156 2.54178 2.93251 2.54178 6.49935V7.0861C2.54178 7.66687 2.36987 8.23464 2.04772 8.71787L1.09055 10.1536C-0.0203618 11.82 0.827728 14.085 2.75989 14.612C3.38956 14.7837 4.02456 14.929 4.66323 15.0478L4.66481 15.052C5.30564 16.7619 7.0184 17.9577 9.00006 17.9577C10.9817 17.9577 12.6945 16.7619 13.3353 15.052L13.3369 15.0478C13.9756 14.929 14.6106 14.7837 15.2403 14.612C17.1725 14.085 18.0206 11.82 16.9097 10.1536L15.9525 8.71787C15.6304 8.23464 15.4584 7.66687 15.4584 7.0861V6.49935C15.4584 2.93251 12.567 0.0410156 9.00011 0.0410156ZM11.8138 15.2802C9.94466 15.5035 8.05545 15.5035 6.18632 15.2801C6.77878 16.1314 7.80926 16.7077 9.00006 16.7077C10.1909 16.7077 11.2213 16.1314 11.8138 15.2802ZM3.79178 6.49935C3.79178 3.62287 6.12363 1.29102 9.00011 1.29102C11.8766 1.29102 14.2084 3.62287 14.2084 6.49935V7.0861C14.2084 7.91365 14.4534 8.72268 14.9124 9.41125L15.8696 10.847C16.5073 11.8035 16.0205 13.1035 14.9114 13.406C11.0412 14.4615 6.959 14.4615 3.08878 13.406C1.97976 13.1035 1.49297 11.8035 2.13061 10.847L3.08778 9.41125C3.54683 8.72268 3.79178 7.91365 3.79178 7.0861V6.49935Z" fill="#58607C"/>
</svg>
