<svg width="20" height="20" viewBox="0 0 20 20" fill="none" xmlns="http://www.w3.org/2000/svg">
<path fill-rule="evenodd" clip-rule="evenodd" d="M9.95202 1.04102L11.2498 1.04102C11.595 1.04102 11.8748 1.32084 11.8748 1.66602C11.8748 2.01119 11.595 2.29102 11.2498 2.29102H9.99984C8.01798 2.29102 6.59447 2.29234 5.51115 2.43799C4.44582 2.58122 3.80355 2.85363 3.32883 3.32835C2.85412 3.80306 2.58171 4.44533 2.43848 5.51066C2.29283 6.59398 2.2915 8.01749 2.2915 9.99935C2.2915 11.9812 2.29283 13.4047 2.43848 14.488C2.58171 15.5534 2.85412 16.1956 3.32883 16.6704C3.80355 17.1451 4.44582 17.4175 5.51115 17.5607C6.59447 17.7064 8.01798 17.7077 9.99984 17.7077C11.9817 17.7077 13.4052 17.7064 14.4885 17.5607C15.5539 17.4175 16.1961 17.1451 16.6708 16.6704C17.1456 16.1956 17.418 15.5534 17.5612 14.488C17.7068 13.4047 17.7082 11.9812 17.7082 9.99935V8.74935C17.7082 8.40417 17.988 8.12435 18.3332 8.12435C18.6783 8.12435 18.9582 8.40417 18.9582 8.74935V10.0472C18.9582 11.9708 18.9582 13.4784 18.8 14.6546C18.6382 15.8585 18.3004 16.8086 17.5547 17.5542C16.809 18.2999 15.859 18.6377 14.6551 18.7996C13.4788 18.9577 11.9713 18.9577 10.0476 18.9577H9.95203C8.02836 18.9577 6.52083 18.9577 5.34459 18.7996C4.14065 18.6377 3.19063 18.2999 2.44495 17.5542C1.69928 16.8086 1.36149 15.8585 1.19963 14.6546C1.04148 13.4784 1.04149 11.9708 1.0415 10.0472V9.95153C1.04149 8.02787 1.04148 6.52034 1.19963 5.3441C1.36149 4.14016 1.69928 3.19014 2.44495 2.44446C3.19063 1.69879 4.14065 1.361 5.34459 1.19914C6.52083 1.041 8.02836 1.04101 9.95202 1.04102ZM13.9753 1.89594C15.1152 0.75604 16.9633 0.75604 18.1032 1.89594C19.2431 3.03585 19.2431 4.884 18.1032 6.02391L12.5632 11.564C12.2538 11.8734 12.0599 12.0673 11.8437 12.236C11.5889 12.4347 11.3133 12.605 11.0216 12.744C10.774 12.862 10.514 12.9487 10.0988 13.087L7.67839 13.8938C7.23152 14.0428 6.73884 13.9265 6.40576 13.5934C6.07269 13.2603 5.95638 12.7677 6.10534 12.3208L6.91214 9.90037C7.05049 9.48523 7.13716 9.22518 7.25517 8.97756C7.39416 8.68591 7.56451 8.41028 7.76321 8.15553C7.93191 7.93924 8.12575 7.74542 8.43521 7.43601L13.9753 1.89594ZM17.2194 2.77983C16.5676 2.12808 15.5109 2.12808 14.8592 2.77983L14.5453 3.09368C14.5642 3.17356 14.5907 3.26874 14.6275 3.3749C14.747 3.71912 14.9729 4.17244 15.3998 4.59934C15.8267 5.02624 16.2801 5.25224 16.6243 5.37166C16.7304 5.40849 16.8256 5.43495 16.9055 5.45387L17.2194 5.14002C17.8711 4.48827 17.8711 3.43158 17.2194 2.77983ZM15.9208 6.43859C15.4908 6.25368 14.99 5.95723 14.516 5.48323C14.042 5.00922 13.7455 4.50837 13.5606 4.0784L9.34776 8.29123C9.00067 8.63833 8.86454 8.77598 8.74885 8.92431C8.60599 9.10747 8.48351 9.30564 8.38357 9.51533C8.30264 9.68515 8.2404 9.86846 8.08517 10.3341L7.72526 11.4139L8.58531 12.2739L9.66505 11.914C10.1307 11.7588 10.314 11.6965 10.4839 11.6156C10.6935 11.5157 10.8917 11.3932 11.0749 11.2503C11.2232 11.1346 11.3609 10.9985 11.708 10.6514L15.9208 6.43859Z" fill="#383838"/>
</svg>
