<svg xmlns="http://www.w3.org/2000/svg" xmlns:xlink="http://www.w3.org/1999/xlink" version="1.1" width="1000" height="1000" viewBox="0 0 1000 1000" xml:space="preserve">
<desc>Created with Fabric.js 3.5.0</desc>
<defs>
</defs>
<rect x="0" y="0" width="100%" height="100%" fill="#ffffff"/>
<g transform="matrix(17.6386 0 0 17.6521 501.2028 500.225)" id="685291">
<g style="" vector-effect="non-scaling-stroke">
		<g transform="matrix(1 0 0 1 0 0)">
<rect style="stroke: none; stroke-width: 1; stroke-dasharray: none; stroke-linecap: butt; stroke-dashoffset: 0; stroke-linejoin: miter; stroke-miterlimit: 4; is-custom-font: none; font-file-url: none; fill: rgb(216,230,253); fill-rule: nonzero; opacity: 1;" x="-28" y="-28" rx="28" ry="28" width="56" height="56"/>
</g>
		<g transform="matrix(1 0 0 1 0 -7.9997)">
<ellipse style="stroke: none; stroke-width: 1; stroke-dasharray: none; stroke-linecap: butt; stroke-dashoffset: 0; stroke-linejoin: miter; stroke-miterlimit: 4; is-custom-font: none; font-file-url: none; fill: rgb(59,130,246); fill-rule: nonzero; opacity: 1;" cx="0" cy="0" rx="5.33333" ry="5.33333"/>
</g>
		<g transform="matrix(1 0 0 1 0 7.333)">
<path style="stroke: none; stroke-width: 1; stroke-dasharray: none; stroke-linecap: butt; stroke-dashoffset: 0; stroke-linejoin: miter; stroke-miterlimit: 4; is-custom-font: none; font-file-url: none; fill: rgb(59,130,246); fill-rule: nonzero; opacity: 1;" transform=" translate(-28.5, -35.333)" d="M 39.1667 35.333 C 39.1667 38.6467 39.1667 41.333 28.5 41.333 C 17.8333 41.333 17.8333 38.6467 17.8333 35.333 C 17.8333 32.0193 22.609 29.333 28.5 29.333 C 34.391 29.333 39.1667 32.0193 39.1667 35.333 Z" stroke-linecap="round"/>
</g>
</g>
</g>
</svg>