<svg width="36" height="36" viewBox="0 0 36 36" fill="none" xmlns="http://www.w3.org/2000/svg">
<g filter="url(#filter0_b_1060_24197)">
<rect width="36" height="36" rx="18" fill="#EBF2FE"/>
<g clip-path="url(#clip0_1060_24197)">
<path d="M13.4181 13.5301C13.332 13.6514 13.332 13.8232 13.332 14.1668C13.332 14.5104 13.332 14.6822 13.4181 14.8035C13.4485 14.8463 13.4858 14.8837 13.5287 14.9141C13.65 15.0002 13.8218 15.0002 14.1654 15.0002C14.509 15.0002 14.6808 15.0002 14.8021 14.9141C14.8449 14.8837 14.8823 14.8463 14.9126 14.8035C14.9987 14.6822 14.9987 14.5104 14.9987 14.1668C14.9987 13.8232 14.9987 13.6514 14.9126 13.5301C14.8823 13.4873 14.8449 13.4499 14.8021 13.4196C14.6808 13.3335 14.509 13.3335 14.1654 13.3335C13.8218 13.3335 13.65 13.3335 13.5287 13.4196C13.4858 13.4499 13.4485 13.4873 13.4181 13.5301Z" fill="#2D2D2D"/>
<path fill-rule="evenodd" clip-rule="evenodd" d="M15.8015 10.8603C16.0964 10.8883 16.3712 10.9492 16.6233 11.1037C16.87 11.2548 17.0774 11.4622 17.2285 11.7089C17.383 11.961 17.4439 12.2358 17.4719 12.5307C17.4987 12.8128 17.4987 13.1601 17.4987 13.5763L17.4987 14.3682C17.4987 14.9671 17.4987 15.4666 17.4454 15.8632C17.3892 16.2817 17.2654 16.6595 16.9617 16.9632C16.6581 17.2668 16.2802 17.3906 15.8617 17.4469C15.4652 17.5002 14.9657 17.5002 14.3667 17.5002L13.5749 17.5002C13.1587 17.5002 12.8114 17.5002 12.5293 17.4734C12.2344 17.4453 11.9595 17.3845 11.7075 17.23C11.4608 17.0788 11.2534 16.8714 11.1022 16.6247C10.9477 16.3727 10.8869 16.0978 10.8588 15.8029C10.832 15.5208 10.832 15.1735 10.832 14.7573V14.7084C10.832 14.075 10.832 13.5642 10.8711 13.153C10.9114 12.7289 10.9968 12.3595 11.2004 12.0273C11.4066 11.6909 11.6894 11.408 12.0258 11.2019C12.358 10.9983 12.7275 10.9129 13.1515 10.8726C13.5627 10.8335 14.0735 10.8335 14.7069 10.8335H14.7558C15.172 10.8335 15.5194 10.8335 15.8015 10.8603ZM15.7068 11.8558C15.4777 11.834 15.1782 11.8335 14.732 11.8335C14.0677 11.8335 13.6045 11.834 13.2462 11.8681C12.8953 11.9015 12.697 11.9634 12.5483 12.0545C12.3465 12.1782 12.1768 12.3479 12.0531 12.5497C11.9619 12.6985 11.9 12.8968 11.8666 13.2477C11.8326 13.606 11.832 14.0691 11.832 14.7335C11.832 15.1796 11.8326 15.4791 11.8543 15.7083C11.8754 15.93 11.9128 16.0337 11.9548 16.1022C12.0235 16.2144 12.1178 16.3087 12.23 16.3774C12.2985 16.4194 12.4022 16.4568 12.6239 16.4778C12.8531 16.4996 13.1526 16.5002 13.5987 16.5002H14.332C14.9747 16.5002 15.4064 16.4991 15.7284 16.4558C16.0361 16.4144 16.1677 16.343 16.2546 16.2561C16.3415 16.1692 16.413 16.0375 16.4543 15.7299C16.4976 15.4079 16.4987 14.9762 16.4987 14.3335V13.6002C16.4987 13.154 16.4982 12.8545 16.4764 12.6254C16.4553 12.4037 16.4179 12.3 16.3759 12.2314C16.3072 12.1193 16.2129 12.025 16.1008 11.9563C16.0322 11.9143 15.9285 11.8769 15.7068 11.8558Z" fill="#2D2D2D"/>
<path d="M21.0848 13.5301C20.9987 13.6514 20.9987 13.8232 20.9987 14.1668C20.9987 14.5104 20.9987 14.6822 21.0848 14.8035C21.1151 14.8463 21.1525 14.8837 21.1953 14.9141C21.3166 15.0002 21.4884 15.0002 21.832 15.0002C22.1756 15.0002 22.3474 15.0002 22.4687 14.9141C22.5115 14.8837 22.5489 14.8463 22.5793 14.8035C22.6654 14.6822 22.6654 14.5104 22.6654 14.1668C22.6654 13.8232 22.6654 13.6514 22.5793 13.5301C22.5489 13.4873 22.5115 13.4499 22.4687 13.4196C22.3474 13.3335 22.1756 13.3335 21.832 13.3335C21.4884 13.3335 21.3166 13.3335 21.1953 13.4196C21.1525 13.4499 21.1151 13.4873 21.0848 13.5301Z" fill="#2D2D2D"/>
<path fill-rule="evenodd" clip-rule="evenodd" d="M21.2416 10.8335H21.2905C21.9238 10.8335 22.4347 10.8335 22.8459 10.8726C23.2699 10.9129 23.6394 10.9983 23.9716 11.2019C24.308 11.408 24.5908 11.6909 24.797 12.0273C25.0006 12.3595 25.086 12.7289 25.1263 13.153C25.1654 13.5642 25.1654 14.075 25.1654 14.7084V14.7573C25.1654 15.1735 25.1654 15.5208 25.1386 15.8029C25.1105 16.0978 25.0497 16.3727 24.8952 16.6247C24.744 16.8714 24.5366 17.0788 24.2899 17.23C24.0379 17.3845 23.763 17.4453 23.4681 17.4734C23.1861 17.5002 22.8388 17.5002 22.4226 17.5002L21.6307 17.5002C21.0317 17.5002 20.5322 17.5002 20.1357 17.4469C19.7172 17.3906 19.3393 17.2668 19.0357 16.9632C18.732 16.6595 18.6082 16.2817 18.552 15.8632C18.4987 15.4666 18.4987 14.9671 18.4987 14.3682V13.5764C18.4987 13.1602 18.4987 12.8128 18.5255 12.5307C18.5535 12.2358 18.6144 11.961 18.7689 11.7089C18.92 11.4622 19.1274 11.2548 19.3741 11.1037C19.6262 10.9492 19.901 10.8883 20.1959 10.8603C20.478 10.8335 20.8254 10.8335 21.2416 10.8335ZM20.2906 11.8558C20.0689 11.8769 19.9652 11.9143 19.8966 11.9563C19.7845 12.025 19.6902 12.1193 19.6215 12.2314C19.5795 12.3 19.5421 12.4037 19.521 12.6254C19.4992 12.8545 19.4987 13.154 19.4987 13.6002V14.3335C19.4987 14.9762 19.4998 15.4079 19.5431 15.7299C19.5844 16.0375 19.6559 16.1692 19.7428 16.2561C19.8297 16.343 19.9613 16.4144 20.269 16.4558C20.591 16.4991 21.0227 16.5002 21.6654 16.5002H22.3987C22.8448 16.5002 23.1443 16.4996 23.3735 16.4778C23.5952 16.4568 23.6989 16.4194 23.7674 16.3774C23.8796 16.3087 23.9739 16.2144 24.0426 16.1022C24.0846 16.0337 24.122 15.93 24.1431 15.7083C24.1648 15.4791 24.1654 15.1796 24.1654 14.7335C24.1654 14.0691 24.1648 13.606 24.1308 13.2477C24.0974 12.8968 24.0355 12.6985 23.9443 12.5497C23.8206 12.3479 23.6509 12.1782 23.4491 12.0545C23.3004 11.9634 23.1021 11.9015 22.7512 11.8681C22.3929 11.834 21.9297 11.8335 21.2654 11.8335C20.8192 11.8335 20.5197 11.834 20.2906 11.8558Z" fill="#2D2D2D"/>
<path d="M13.332 21.8335C13.332 21.4899 13.332 21.3181 13.4181 21.1968C13.4485 21.154 13.4858 21.1166 13.5287 21.0862C13.65 21.0002 13.8218 21.0002 14.1654 21.0002C14.509 21.0002 14.6808 21.0002 14.8021 21.0862C14.8449 21.1166 14.8823 21.154 14.9126 21.1968C14.9987 21.3181 14.9987 21.4899 14.9987 21.8335C14.9987 22.1771 14.9987 22.3489 14.9126 22.4702C14.8823 22.513 14.8449 22.5504 14.8021 22.5808C14.6808 22.6668 14.509 22.6668 14.1654 22.6668C13.8218 22.6668 13.65 22.6668 13.5287 22.5808C13.4858 22.5504 13.4485 22.513 13.4181 22.4702C13.332 22.3489 13.332 22.1771 13.332 21.8335Z" fill="#2D2D2D"/>
<path fill-rule="evenodd" clip-rule="evenodd" d="M15.8617 18.5534C16.2802 18.6097 16.6581 18.7335 16.9617 19.0371C17.2654 19.3408 17.3892 19.7186 17.4454 20.1372C17.4987 20.5337 17.4987 21.0332 17.4987 21.6321L17.4987 22.424C17.4987 22.8401 17.4987 23.1875 17.4719 23.4696C17.4439 23.7645 17.383 24.0393 17.2285 24.2914C17.0774 24.5381 16.87 24.7455 16.6233 24.8967C16.3712 25.0511 16.0964 25.112 15.8015 25.14C15.5194 25.1668 15.172 25.1668 14.7558 25.1668H14.7069C14.0735 25.1668 13.5627 25.1668 13.1515 25.1277C12.7275 25.0874 12.358 25.002 12.0258 24.7984C11.6894 24.5923 11.4066 24.3095 11.2004 23.9731C10.9968 23.6408 10.9114 23.2714 10.8711 22.8473C10.832 22.4361 10.832 21.9253 10.832 21.2919V21.243C10.832 20.8268 10.832 20.4795 10.8588 20.1974C10.8869 19.9025 10.9477 19.6277 11.1022 19.3756C11.2534 19.1289 11.4608 18.9215 11.7075 18.7703C11.9595 18.6159 12.2344 18.555 12.5293 18.527C12.8114 18.5001 13.1587 18.5002 13.5749 18.5002H14.3667C14.9657 18.5001 15.4652 18.5001 15.8617 18.5534ZM15.7284 19.5445C15.4064 19.5012 14.9747 19.5002 14.332 19.5002H13.5987C13.1526 19.5002 12.8531 19.5007 12.6239 19.5225C12.4022 19.5436 12.2985 19.581 12.23 19.623C12.1178 19.6917 12.0235 19.786 11.9548 19.8981C11.9128 19.9666 11.8754 20.0703 11.8543 20.2921C11.8326 20.5212 11.832 20.8207 11.832 21.2668C11.832 21.9312 11.8326 22.3944 11.8666 22.7527C11.9 23.1035 11.9619 23.3019 12.0531 23.4506C12.1768 23.6524 12.3465 23.8221 12.5483 23.9458C12.697 24.0369 12.8953 24.0989 13.2462 24.1322C13.6045 24.1663 14.0677 24.1668 14.732 24.1668C15.1782 24.1668 15.4777 24.1663 15.7068 24.1445C15.9285 24.1234 16.0322 24.086 16.1008 24.044C16.2129 23.9753 16.3072 23.881 16.3759 23.7689C16.4179 23.7004 16.4553 23.5967 16.4764 23.3749C16.4982 23.1458 16.4987 22.8463 16.4987 22.4002V21.6668C16.4987 21.0242 16.4976 20.5925 16.4543 20.2704C16.413 19.9628 16.3415 19.8311 16.2546 19.7442C16.1677 19.6574 16.0361 19.5859 15.7284 19.5445Z" fill="#2D2D2D"/>
<path d="M21.3065 18.5002L22.6654 18.5002V19.5002H21.332C20.8535 19.5002 20.5322 19.5008 20.2873 19.5257C20.0507 19.5498 19.9414 19.5923 19.8691 19.6406C19.7781 19.7014 19.6999 19.7795 19.6391 19.8705C19.5908 19.9428 19.5483 20.0521 19.5242 20.2887C19.4993 20.5337 19.4987 20.8549 19.4987 21.3335H18.4987L18.4987 21.3079C18.4987 20.8616 18.4987 20.4891 18.5294 20.1875C18.5615 19.8719 18.6313 19.5789 18.8077 19.315C18.9414 19.1148 19.1133 18.9429 19.3135 18.8091C19.5775 18.6327 19.8704 18.5629 20.186 18.5308C20.4876 18.5001 20.8601 18.5002 21.3065 18.5002Z" fill="#2D2D2D"/>
<path d="M18.4987 24.6668V22.6668H19.4987V24.6668C19.4987 24.943 19.2748 25.1668 18.9987 25.1668C18.7226 25.1668 18.4987 24.943 18.4987 24.6668Z" fill="#2D2D2D"/>
<path d="M25.1654 19.0002C25.1654 18.724 24.9415 18.5002 24.6654 18.5002C24.3892 18.5002 24.1654 18.724 24.1654 19.0002V21.3335H25.1654V19.0002Z" fill="#2D2D2D"/>
<path d="M24.1654 22.6668C24.1654 22.9843 24.1651 23.1974 24.1538 23.3623C24.1429 23.5228 24.1232 23.601 24.1019 23.6524C24.0174 23.8566 23.8551 24.0188 23.6509 24.1034C23.5995 24.1247 23.5214 24.1444 23.3609 24.1553C23.1959 24.1666 22.9828 24.1668 22.6654 24.1668H21.332V25.1668H22.6822C22.9785 25.1668 23.2259 25.1668 23.4289 25.153C23.6403 25.1386 23.84 25.1075 24.0336 25.0273C24.4828 24.8412 24.8397 24.4843 25.0258 24.0351C25.106 23.8415 25.1371 23.6418 25.1515 23.4304C25.1654 23.2273 25.1654 22.98 25.1654 22.6837V22.6668H24.1654Z" fill="#2D2D2D"/>
<path d="M20.7777 20.9631C20.6654 21.1313 20.6654 21.3653 20.6654 21.8335C20.6654 22.3017 20.6654 22.5357 20.7777 22.7039C20.8264 22.7767 20.8889 22.8392 20.9617 22.8878C21.1298 23.0002 21.3639 23.0002 21.832 23.0002C22.3002 23.0002 22.5343 23.0002 22.7024 22.8878C22.7752 22.8392 22.8377 22.7767 22.8863 22.7039C22.9987 22.5357 22.9987 22.3017 22.9987 21.8335C22.9987 21.3653 22.9987 21.1313 22.8863 20.9631C22.8377 20.8903 22.7752 20.8278 22.7024 20.7792C22.5343 20.6668 22.3002 20.6668 21.832 20.6668C21.3639 20.6668 21.1298 20.6668 20.9617 20.7792C20.8889 20.8278 20.8264 20.8903 20.7777 20.9631Z" fill="#2D2D2D"/>
</g>
</g>
<defs>
<filter id="filter0_b_1060_24197" x="-5" y="-5" width="46" height="46" filterUnits="userSpaceOnUse" color-interpolation-filters="sRGB">
<feFlood flood-opacity="0" result="BackgroundImageFix"/>
<feGaussianBlur in="BackgroundImageFix" stdDeviation="2.5"/>
<feComposite in2="SourceAlpha" operator="in" result="effect1_backgroundBlur_1060_24197"/>
<feBlend mode="normal" in="SourceGraphic" in2="effect1_backgroundBlur_1060_24197" result="shape"/>
</filter>
<clipPath id="clip0_1060_24197">
<rect x="10" y="10" width="16" height="16" rx="5" fill="white"/>
</clipPath>
</defs>
</svg>
