<svg width="21" height="20" viewBox="0 0 21 20" fill="none" xmlns="http://www.w3.org/2000/svg">
<g id="Bold / Security / QR Code">
<g id="Vector">
<path fill-rule="evenodd" clip-rule="evenodd" d="M14.1708 1.66669H14.2276C14.9641 1.66668 15.5581 1.66668 16.0362 1.71214C16.5293 1.75902 16.9589 1.85832 17.3452 2.09506C17.7364 2.33476 18.0652 2.66362 18.3049 3.05477C18.5417 3.44109 18.641 3.8707 18.6879 4.3638C18.7333 4.84193 18.7333 5.43589 18.7333 6.17238V6.22933C18.7333 6.71324 18.7333 7.11709 18.7022 7.4451C18.6695 7.78801 18.5988 8.10758 18.4192 8.4007C18.2434 8.68754 18.0022 8.92871 17.7154 9.10449C17.4223 9.28411 17.1027 9.35485 16.7598 9.38746C16.4318 9.41865 16.0279 9.41864 15.544 9.41863L14.6232 9.41863C13.9267 9.41865 13.346 9.41867 12.8849 9.35668C12.3982 9.29125 11.9588 9.14732 11.6058 8.79424C11.2527 8.44116 11.1088 8.00178 11.0433 7.51512C10.9813 7.05405 10.9814 6.47326 10.9814 5.77677L10.9814 4.85606C10.9814 4.37214 10.9814 3.96823 11.0125 3.64021C11.0452 3.2973 11.1159 2.97773 11.2955 2.68462C11.4713 2.39777 11.7125 2.15661 11.9993 1.98083C12.2924 1.80121 12.612 1.73046 12.9549 1.69786C13.2829 1.66667 13.6868 1.66668 14.1708 1.66669ZM14.8573 6.51165C14.4578 6.51165 14.258 6.51165 14.117 6.41157C14.0672 6.37625 14.0238 6.33279 13.9884 6.28302C13.8884 6.14197 13.8884 5.9422 13.8884 5.54267C13.8884 5.14313 13.8884 4.94335 13.9884 4.80229C14.0238 4.75252 14.0672 4.70906 14.117 4.67375C14.258 4.57366 14.4578 4.57366 14.8573 4.57366C15.2569 4.57366 15.4567 4.57366 15.5977 4.67375C15.6475 4.70906 15.6909 4.75252 15.7263 4.80229C15.8263 4.94335 15.8263 5.14312 15.8263 5.54266C15.8263 5.9422 15.8263 6.14197 15.7263 6.28302C15.6909 6.33279 15.6475 6.37625 15.5977 6.41157C15.4567 6.51165 15.2569 6.51165 14.8573 6.51165Z" fill="#3B82F6"/>
<path fill-rule="evenodd" clip-rule="evenodd" d="M8.80066 1.98083C8.50755 1.80121 8.18798 1.73046 7.84506 1.69786C7.51704 1.66667 7.11318 1.66668 6.62923 1.66669H6.57235C5.83588 1.66668 5.24189 1.66668 4.76376 1.71214C4.27067 1.75902 3.84106 1.85832 3.45474 2.09506C3.06359 2.33476 2.73472 2.66362 2.49502 3.05477C2.25829 3.44109 2.15898 3.8707 2.1121 4.3638C2.06664 4.84193 2.06664 5.43587 2.06665 6.17235V6.22924C2.06664 6.71318 2.06663 7.11708 2.09782 7.4451C2.13042 7.78801 2.20117 8.10758 2.38079 8.4007C2.55657 8.68754 2.79774 8.92871 3.08458 9.10449C3.3777 9.28411 3.69726 9.35485 4.04018 9.38746C4.36818 9.41865 4.77201 9.41864 5.25591 9.41863L6.17672 9.41863C6.87321 9.41865 7.45402 9.41867 7.91508 9.35668C8.40175 9.29125 8.84113 9.14732 9.19421 8.79424C9.54728 8.44116 9.69121 8.00178 9.75664 7.51512C9.81863 7.05406 9.81861 6.47327 9.81859 5.77679L9.81859 4.85607C9.8186 4.37217 9.81861 3.96822 9.78742 3.64021C9.75482 3.2973 9.68407 2.97773 9.50445 2.68462C9.32867 2.39777 9.0875 2.15661 8.80066 1.98083ZM5.20226 6.41157C5.34331 6.51165 5.54308 6.51165 5.94262 6.51165C6.34216 6.51165 6.54193 6.51165 6.68298 6.41157C6.73276 6.37625 6.77621 6.33279 6.81153 6.28302C6.91161 6.14197 6.91161 5.9422 6.91161 5.54266C6.91161 5.14312 6.91161 4.94335 6.81153 4.80229C6.77621 4.75252 6.73276 4.70906 6.68298 4.67375C6.54193 4.57366 6.34216 4.57366 5.94262 4.57366C5.54308 4.57366 5.34331 4.57366 5.20226 4.67375C5.15248 4.70906 5.10903 4.75252 5.07371 4.80229C4.97363 4.94335 4.97363 5.14312 4.97363 5.54266C4.97363 5.9422 4.97363 6.14197 5.07371 6.28302C5.10903 6.33279 5.15248 6.37625 5.20226 6.41157Z" fill="#3B82F6"/>
<path fill-rule="evenodd" clip-rule="evenodd" d="M7.91508 10.6434C8.40175 10.7088 8.84113 10.8527 9.19421 11.2058C9.54728 11.5589 9.69121 11.9983 9.75664 12.4849C9.81863 12.946 9.81861 13.5268 9.81859 14.2233L9.81859 15.144C9.8186 15.6279 9.81861 16.0318 9.78742 16.3598C9.75482 16.7027 9.68407 17.0223 9.50445 17.3154C9.32867 17.6023 9.0875 17.8434 8.80066 18.0192C8.50755 18.1988 8.18798 18.2696 7.84506 18.3022C7.51705 18.3334 7.11313 18.3334 6.62921 18.3334H6.57234C5.83585 18.3334 5.2419 18.3334 4.76376 18.2879C4.27067 18.241 3.84106 18.1417 3.45474 17.905C3.06359 17.6653 2.73472 17.3364 2.49502 16.9453C2.25829 16.5589 2.15898 16.1293 2.1121 15.6362C2.06664 15.1581 2.06664 14.5641 2.06665 13.8277V13.7708C2.06664 13.2868 2.06663 12.883 2.09782 12.5549C2.13042 12.212 2.20117 11.8925 2.38079 11.5993C2.55657 11.3125 2.79774 11.0713 3.08458 10.8956C3.3777 10.7159 3.69726 10.6452 4.04018 10.6126C4.36819 10.5814 4.77205 10.5814 5.25596 10.5814L6.17673 10.5814C6.87323 10.5814 7.45401 10.5814 7.91508 10.6434ZM5.94262 15.4264C5.54308 15.4264 5.34331 15.4264 5.20226 15.3263C5.15248 15.291 5.10903 15.2475 5.07371 15.1977C4.97363 15.0567 4.97363 14.8569 4.97363 14.4574C4.97363 14.0578 4.97363 13.8581 5.07371 13.717C5.10903 13.6672 5.15248 13.6238 5.20226 13.5885C5.34331 13.4884 5.54308 13.4884 5.94261 13.4884C6.34214 13.4884 6.54193 13.4884 6.68298 13.5885C6.73276 13.6238 6.77621 13.6672 6.81153 13.717C6.91161 13.8581 6.91161 14.0578 6.91161 14.4574C6.91161 14.8569 6.91161 15.0567 6.81153 15.1977C6.77621 15.2475 6.73276 15.291 6.68298 15.3263C6.54193 15.4264 6.34216 15.4264 5.94262 15.4264Z" fill="#3B82F6"/>
<path d="M10.9814 13.8463V13.876H12.1442C12.1442 13.3195 12.1449 12.9459 12.1738 12.6611C12.2018 12.386 12.2513 12.2589 12.3075 12.1749C12.3782 12.069 12.469 11.9782 12.5748 11.9075C12.6589 11.8513 12.786 11.8019 13.0611 11.7739C13.3459 11.7449 13.7195 11.7442 14.276 11.7442H15.8263V10.5814H14.2462C13.7272 10.5814 13.2941 10.5814 12.9434 10.6171C12.5764 10.6544 12.2358 10.7356 11.9288 10.9407C11.696 11.0962 11.4962 11.2961 11.3406 11.5288C11.1355 11.8358 11.0544 12.1764 11.017 12.5434C10.9814 12.8941 10.9814 13.3272 10.9814 13.8463Z" fill="#3B82F6"/>
<path d="M18.7333 15.4459V15.4264H17.5705C17.5705 15.7955 17.5702 16.0433 17.5571 16.2351C17.5444 16.4217 17.5215 16.5126 17.4968 16.5724C17.3984 16.8098 17.2098 16.9985 16.9724 17.0968C16.9125 17.1216 16.8217 17.1444 16.6351 17.1572C16.4432 17.1702 16.1955 17.1706 15.8263 17.1706H14.276V18.3334H15.8459C16.1905 18.3334 16.4781 18.3334 16.7142 18.3173C16.96 18.3005 17.1922 18.2643 17.4173 18.1711C17.9397 17.9547 18.3547 17.5397 18.571 17.0174C18.6643 16.7923 18.7004 16.5601 18.7172 16.3143C18.7333 16.0781 18.7333 15.7905 18.7333 15.4459Z" fill="#3B82F6"/>
<path d="M12.1442 17.752C12.1442 18.0731 11.8839 18.3334 11.5628 18.3334C11.2417 18.3334 10.9814 18.0731 10.9814 17.752V15.4264H12.1442V17.752Z" fill="#3B82F6"/>
<path d="M18.1519 10.5814C17.8308 10.5814 17.5705 10.8417 17.5705 11.1628V13.876H18.7333V11.1628C18.7333 10.8417 18.473 10.5814 18.1519 10.5814Z" fill="#3B82F6"/>
<path d="M13.7968 13.8478C13.7333 14.0009 13.7333 14.1951 13.7333 14.5834C13.7333 14.9716 13.7333 15.1658 13.7968 15.3189C13.8813 15.5231 14.0436 15.6853 14.2477 15.7699C14.4009 15.8334 14.595 15.8334 14.9833 15.8334C15.3716 15.8334 15.5657 15.8334 15.7189 15.7699C15.9231 15.6853 16.0853 15.5231 16.1699 15.3189C16.2333 15.1658 16.2333 14.9716 16.2333 14.5834C16.2333 14.1951 16.2333 14.0009 16.1699 13.8478C16.0853 13.6436 15.9231 13.4814 15.7189 13.3968C15.5657 13.3334 15.3716 13.3334 14.9833 13.3334C14.595 13.3334 14.4009 13.3334 14.2477 13.3968C14.0436 13.4814 13.8813 13.6436 13.7968 13.8478Z" fill="#3B82F6"/>
</g>
</g>
</svg>
