<svg width="80" height="80" viewBox="0 0 80 80" fill="none" xmlns="http://www.w3.org/2000/svg">
<rect width="80" height="80" rx="16" fill="#D8E6FD"/>
<path d="M46.0252 46.0014C46.2585 45.8194 46.4702 45.6078 46.8934 45.1845L52.1699 39.908C52.2975 39.7804 52.2391 39.5607 52.0687 39.5016C51.4459 39.2855 50.6356 38.8798 49.8778 38.1219C49.1199 37.364 48.7142 36.5538 48.4981 35.931C48.439 35.7605 48.2192 35.7022 48.0917 35.8297L42.8151 41.1063L42.8151 41.1063C42.3919 41.5295 42.1803 41.7411 41.9983 41.9745C41.7836 42.2497 41.5995 42.5476 41.4493 42.8627C41.322 43.1298 41.2274 43.4138 41.0381 43.9816L40.7935 44.7154L40.4046 45.8821L40.0399 46.9761C39.9468 47.2555 40.0195 47.5636 40.2278 47.7719C40.4361 47.9802 40.7442 48.0529 41.0236 47.9597L42.1176 47.5951L43.2843 47.2062L44.0181 46.9616L44.0181 46.9616C44.5859 46.7723 44.8698 46.6777 45.137 46.5504C45.4521 46.4002 45.7499 46.2161 46.0252 46.0014Z" fill="#3B82F6"/>
<path d="M53.822 38.2559C54.9482 37.1297 54.9482 35.3038 53.822 34.1776C52.6958 33.0515 50.8699 33.0515 49.7438 34.1776L49.5741 34.3473C49.4104 34.511 49.3363 34.7396 49.3772 34.9675C49.4029 35.1108 49.4506 35.3204 49.5373 35.5704C49.7108 36.0705 50.0385 36.727 50.6556 37.3441C51.2727 37.9612 51.9291 38.2889 52.4292 38.4624C52.6793 38.5491 52.8889 38.5968 53.0322 38.6225C53.26 38.6634 53.4887 38.5892 53.6524 38.4256L53.822 38.2559Z" fill="#3B82F6"/>
<path fill-rule="evenodd" clip-rule="evenodd" d="M29.5621 28.2291C28 29.7912 28 32.3053 28 37.3337V42.667C28 47.6953 28 50.2095 29.5621 51.7716C31.1242 53.3337 33.6384 53.3337 38.6667 53.3337H41.3333C46.3616 53.3337 48.8758 53.3337 50.4379 51.7716C51.9749 50.2345 51.9996 47.7757 52 42.9071L48.2423 46.6648C47.8826 47.0248 47.588 47.3196 47.2553 47.5791C46.8655 47.8831 46.4437 48.1438 45.9975 48.3565C45.6166 48.538 45.2212 48.6696 44.7384 48.8304L41.6561 49.8578C40.658 50.1905 39.5576 49.9307 38.8136 49.1867C38.0697 48.4428 37.8099 47.3424 38.1426 46.3443L38.5073 45.2503L39.1408 43.3498L39.17 43.2621C39.3307 42.7792 39.4624 42.3838 39.6439 42.0029C39.8566 41.5566 40.1173 41.1349 40.4213 40.7451C40.6808 40.4124 40.9756 40.1178 41.3356 39.7581L46.6775 34.4162L48.16 32.9337L48.3296 32.7641C49.2835 31.8102 50.5338 31.3334 51.784 31.3337C51.5822 29.9596 51.1922 28.9834 50.4379 28.2291C48.8758 26.667 46.3616 26.667 41.3333 26.667H38.6667C33.6384 26.667 31.1242 26.667 29.5621 28.2291ZM33.6667 36.0003C33.6667 35.448 34.1144 35.0003 34.6667 35.0003H43.3333C43.8856 35.0003 44.3333 35.448 44.3333 36.0003C44.3333 36.5526 43.8856 37.0003 43.3333 37.0003H34.6667C34.1144 37.0003 33.6667 36.5526 33.6667 36.0003ZM33.6667 41.3337C33.6667 40.7814 34.1144 40.3337 34.6667 40.3337H38C38.5523 40.3337 39 40.7814 39 41.3337C39 41.8859 38.5523 42.3337 38 42.3337H34.6667C34.1144 42.3337 33.6667 41.8859 33.6667 41.3337ZM33.6667 46.667C33.6667 46.1147 34.1144 45.667 34.6667 45.667H36.6667C37.219 45.667 37.6667 46.1147 37.6667 46.667C37.6667 47.2193 37.219 47.667 36.6667 47.667H34.6667C34.1144 47.667 33.6667 47.2193 33.6667 46.667Z" fill="#3B82F6"/>
</svg>
