<svg width="25" height="24" viewBox="0 0 25 24" fill="none" xmlns="http://www.w3.org/2000/svg">
<g id="Outline / Settings, Fine Tuning / Settings">
<g id="Vector">
<path fill-rule="evenodd" clip-rule="evenodd" d="M12.4995 8.25C10.4284 8.25 8.74951 9.92893 8.74951 12C8.74951 14.0711 10.4284 15.75 12.4995 15.75C14.5706 15.75 16.2495 14.0711 16.2495 12C16.2495 9.92893 14.5706 8.25 12.4995 8.25ZM10.2495 12C10.2495 10.7574 11.2569 9.75 12.4995 9.75C13.7422 9.75 14.7495 10.7574 14.7495 12C14.7495 13.2426 13.7422 14.25 12.4995 14.25C11.2569 14.25 10.2495 13.2426 10.2495 12Z"/>
<path fill-rule="evenodd" clip-rule="evenodd" d="M12.4743 1.25C12.0298 1.24999 11.6588 1.24999 11.3541 1.27077C11.037 1.29241 10.7375 1.33905 10.4471 1.45933C9.7733 1.73844 9.23794 2.27379 8.95883 2.94762C8.81353 3.29842 8.77418 3.66812 8.75915 4.06996C8.74707 4.39299 8.58405 4.66251 8.34346 4.80141C8.10288 4.94031 7.78796 4.94673 7.50218 4.79568C7.14665 4.60777 6.8068 4.45699 6.43034 4.40743C5.70724 4.31223 4.97593 4.50819 4.3973 4.95219C4.14794 5.14353 3.95778 5.3796 3.7805 5.6434C3.61019 5.89681 3.42468 6.21815 3.20245 6.60307L3.1772 6.64681C2.95496 7.03172 2.76944 7.35304 2.63513 7.62723C2.49532 7.91267 2.38595 8.19539 2.34492 8.50701C2.24973 9.23012 2.44568 9.96142 2.88968 10.5401C3.12079 10.8412 3.42124 11.0602 3.76168 11.2741C4.03546 11.4461 4.18739 11.7221 4.18737 12C4.18736 12.2778 4.03543 12.5538 3.76169 12.7258C3.4212 12.9397 3.12072 13.1587 2.88958 13.4599C2.44558 14.0385 2.24963 14.7698 2.34483 15.4929C2.38585 15.8045 2.49522 16.0873 2.63503 16.3727C2.76934 16.6469 2.95486 16.9682 3.17709 17.3531L3.20235 17.3969C3.42458 17.7818 3.61009 18.1031 3.7804 18.3565C3.95769 18.6203 4.14784 18.8564 4.39721 19.0477C4.97583 19.4917 5.70714 19.6877 6.43025 19.5925C6.80668 19.5429 7.14651 19.3922 7.50202 19.2043C7.78784 19.0532 8.1028 19.0596 8.34341 19.1986C8.58403 19.3375 8.74707 19.607 8.75915 19.9301C8.77418 20.3319 8.81354 20.7016 8.95883 21.0524C9.23794 21.7262 9.7733 22.2616 10.4471 22.5407C10.7375 22.661 11.037 22.7076 11.3541 22.7292C11.6587 22.75 12.0298 22.75 12.4742 22.75H12.5248C12.9692 22.75 13.3403 22.75 13.6449 22.7292C13.962 22.7076 14.2615 22.661 14.5519 22.5407C15.2257 22.2616 15.7611 21.7262 16.0402 21.0524C16.1855 20.7016 16.2248 20.3319 16.2399 19.93C16.2519 19.607 16.4149 19.3375 16.6555 19.1985C16.8961 19.0596 17.2111 19.0532 17.4969 19.2042C17.8524 19.3921 18.1922 19.5429 18.5687 19.5924C19.2918 19.6876 20.0231 19.4917 20.6017 19.0477C20.8511 18.8563 21.0412 18.6203 21.2185 18.3565C21.3888 18.1031 21.5743 17.7818 21.7965 17.3969L21.8218 17.3531C22.044 16.9682 22.2296 16.6468 22.3639 16.3726C22.5037 16.0872 22.6131 15.8045 22.6541 15.4929C22.7493 14.7697 22.5533 14.0384 22.1093 13.4598C21.8782 13.1586 21.5777 12.9397 21.2373 12.7258C20.9635 12.5538 20.8116 12.2778 20.8116 11.9999C20.8116 11.7221 20.9636 11.4462 21.2373 11.2742C21.5778 11.0603 21.8783 10.8414 22.1094 10.5401C22.5534 9.96149 22.7494 9.23019 22.6542 8.50708C22.6132 8.19546 22.5038 7.91274 22.364 7.6273C22.2297 7.35313 22.0442 7.03183 21.822 6.64695L21.7967 6.60318C21.5745 6.21825 21.3889 5.89688 21.2186 5.64347C21.0413 5.37967 20.8512 5.1436 20.6018 4.95225C20.0232 4.50826 19.2919 4.3123 18.5688 4.4075C18.1923 4.45706 17.8525 4.60782 17.497 4.79572C17.2112 4.94679 16.8962 4.94036 16.6556 4.80144C16.415 4.66253 16.2519 4.39297 16.2399 4.06991C16.2248 3.66808 16.1855 3.2984 16.0402 2.94762C15.7611 2.27379 15.2257 1.73844 14.5519 1.45933C14.2615 1.33905 13.962 1.29241 13.6449 1.27077C13.3403 1.24999 12.9692 1.24999 12.5248 1.25H12.4743ZM11.0211 2.84515C11.0983 2.81319 11.2155 2.78372 11.4562 2.76729C11.7037 2.75041 12.0233 2.75 12.4995 2.75C12.9757 2.75 13.2953 2.75041 13.5428 2.76729C13.7835 2.78372 13.9007 2.81319 13.9779 2.84515C14.2841 2.97202 14.5275 3.21536 14.6544 3.52165C14.6944 3.61826 14.7275 3.76887 14.7409 4.12597C14.7705 4.91835 15.1795 5.68129 15.9056 6.10048C16.6317 6.51968 17.4969 6.4924 18.1979 6.12188C18.5138 5.9549 18.6609 5.90832 18.7645 5.89467C19.0932 5.8514 19.4256 5.94047 19.6887 6.14228C19.7549 6.19312 19.839 6.27989 19.9736 6.48016C20.112 6.68603 20.2721 6.9626 20.5102 7.375C20.7483 7.78741 20.9078 8.06438 21.0169 8.28713C21.123 8.50382 21.1561 8.62007 21.167 8.70287C21.2103 9.03155 21.1212 9.36397 20.9194 9.62698C20.8557 9.70995 20.7419 9.81399 20.4392 10.0041C19.7679 10.426 19.3117 11.1616 19.3116 11.9999C19.3116 12.8383 19.7678 13.574 20.4392 13.9959C20.7418 14.186 20.8556 14.29 20.9193 14.373C21.1211 14.636 21.2102 14.9684 21.1669 15.2971C21.156 15.3799 21.1229 15.4961 21.0168 15.7128C20.9077 15.9355 20.7482 16.2125 20.5101 16.6249C20.272 17.0373 20.1119 17.3139 19.9735 17.5198C19.8389 17.72 19.7548 17.8068 19.6886 17.8576C19.4255 18.0595 19.0931 18.1485 18.7645 18.1053C18.6608 18.0916 18.5138 18.045 18.1978 17.8781C17.4968 17.5075 16.6315 17.4803 15.9054 17.8995C15.1795 18.3187 14.7705 19.0816 14.7409 19.874C14.7275 20.2311 14.6944 20.3817 14.6544 20.4784C14.5275 20.7846 14.2841 21.028 13.9779 21.1549C13.9007 21.1868 13.7835 21.2163 13.5428 21.2327C13.2953 21.2496 12.9757 21.25 12.4995 21.25C12.0233 21.25 11.7037 21.2496 11.4562 21.2327C11.2155 21.2163 11.0983 21.1868 11.0211 21.1549C10.7149 21.028 10.4715 20.7846 10.3447 20.4784C10.3046 20.3817 10.2715 20.2311 10.2581 19.874C10.2285 19.0817 9.81948 18.3187 9.09341 17.8995C8.36735 17.4803 7.50213 17.5076 6.80109 17.8781C6.48516 18.0451 6.33814 18.0917 6.23446 18.1053C5.90577 18.1486 5.57336 18.0595 5.31035 17.8577C5.2441 17.8069 5.15996 17.7201 5.02537 17.5198C4.88702 17.314 4.72687 17.0374 4.48877 16.625C4.25067 16.2126 4.09122 15.9356 3.98211 15.7129C3.87597 15.4962 3.84289 15.3799 3.83199 15.2971C3.78872 14.9684 3.87779 14.636 4.07961 14.373C4.14327 14.2901 4.25712 14.186 4.55971 13.9959C5.2311 13.5741 5.68733 12.8384 5.68737 12.0001C5.68742 11.1616 5.23117 10.4259 4.55972 10.004C4.2572 9.81389 4.14336 9.70987 4.07971 9.62691C3.87789 9.3639 3.78882 9.03149 3.83209 8.7028C3.84299 8.62001 3.87607 8.50375 3.98221 8.28707C4.09132 8.06431 4.25076 7.78734 4.48887 7.37493C4.72697 6.96253 4.88712 6.68596 5.02547 6.48009C5.16006 6.27983 5.24419 6.19305 5.31045 6.14222C5.57346 5.9404 5.90587 5.85133 6.23456 5.8946C6.33824 5.90825 6.48527 5.95483 6.80124 6.12184C7.50225 6.49235 8.36742 6.51962 9.09345 6.10045C9.81949 5.68128 10.2285 4.91837 10.2581 4.12602C10.2715 3.76889 10.3046 3.61827 10.3447 3.52165C10.4715 3.21536 10.7149 2.97202 11.0211 2.84515Z" />
</g>
</g>
</svg>
