<svg width="20" height="20" viewBox="0 0 20 20" fill="none" xmlns="http://www.w3.org/2000/svg">
<path fill-rule="evenodd" clip-rule="evenodd" d="M10.0014 6.87533C8.2755 6.87533 6.87639 8.27444 6.87639 10.0003C6.87639 11.7262 8.2755 13.1253 10.0014 13.1253C11.7273 13.1253 13.1264 11.7262 13.1264 10.0003C13.1264 8.27444 11.7273 6.87533 10.0014 6.87533ZM8.12639 10.0003C8.12639 8.96479 8.96585 8.12533 10.0014 8.12533C11.0369 8.12533 11.8764 8.96479 11.8764 10.0003C11.8764 11.0359 11.0369 11.8753 10.0014 11.8753C8.96585 11.8753 8.12639 11.0359 8.12639 10.0003Z" fill="#383838"/>
<path fill-rule="evenodd" clip-rule="evenodd" d="M9.98034 1.04199C9.60995 1.04199 9.30075 1.04198 9.04691 1.0593C8.78266 1.07733 8.53305 1.1162 8.29106 1.21644C7.72954 1.44903 7.28341 1.89515 7.05082 2.45668C6.92973 2.74901 6.89694 3.05709 6.88442 3.39196C6.87435 3.66115 6.7385 3.88575 6.53801 4.0015C6.33752 4.11725 6.07509 4.1226 5.83694 3.99673C5.54066 3.84013 5.25746 3.71449 4.94374 3.67319C4.34116 3.59385 3.73173 3.75715 3.24954 4.12715C3.04174 4.2866 2.88328 4.48333 2.73554 4.70316C2.59362 4.91434 2.43902 5.18211 2.25383 5.50288L2.23279 5.53933C2.04759 5.86009 1.89299 6.12786 1.78107 6.35635C1.66456 6.59421 1.57342 6.82981 1.53923 7.0895C1.4599 7.69209 1.62319 8.30151 1.99319 8.7837C2.18579 9.0347 2.43616 9.21713 2.71986 9.39538C2.94801 9.53874 3.07462 9.76875 3.0746 10.0003C3.07459 10.2318 2.94798 10.4618 2.71986 10.6052C2.43613 10.7834 2.18572 10.9659 1.99311 11.2169C1.62311 11.6991 1.45981 12.3085 1.53915 12.9111C1.57333 13.1708 1.66448 13.4064 1.78099 13.6442C1.89291 13.8727 2.04751 14.1405 2.2327 14.4612L2.25375 14.4977C2.43894 14.8185 2.59353 15.0863 2.73546 15.2974C2.8832 15.5173 3.04166 15.714 3.24946 15.8734C3.73165 16.2434 4.34107 16.4067 4.94366 16.3274C5.25736 16.2861 5.54055 16.1605 5.8368 16.0039C6.07499 15.878 6.33746 15.8834 6.53797 15.9991C6.73848 16.1149 6.87435 16.3395 6.88442 16.6087C6.89694 16.9436 6.92974 17.2517 7.05082 17.544C7.28341 18.1055 7.72954 18.5516 8.29106 18.7842C8.53305 18.8845 8.78266 18.9233 9.04691 18.9414C9.30075 18.9587 9.60995 18.9587 9.98033 18.9587H10.0224C10.3928 18.9587 10.702 18.9587 10.9558 18.9414C11.2201 18.9233 11.4697 18.8845 11.7117 18.7842C12.2732 18.5516 12.7193 18.1055 12.9519 17.544C13.073 17.2516 13.1058 16.9435 13.1183 16.6087C13.1284 16.3395 13.2642 16.1149 13.4647 15.9991C13.6652 15.8833 13.9277 15.878 14.1659 16.0039C14.4621 16.1604 14.7453 16.2861 15.059 16.3274C15.6616 16.4067 16.271 16.2434 16.7532 15.8734C16.961 15.7139 17.1195 15.5172 17.2672 15.2974C17.4091 15.0862 17.5637 14.8185 17.7489 14.4977L17.7699 14.4612C17.9551 14.1405 18.1098 13.8727 18.2217 13.6442C18.3382 13.4063 18.4293 13.1707 18.4635 12.911C18.5429 12.3084 18.3796 11.699 18.0096 11.2168C17.817 10.9658 17.5666 10.7834 17.2828 10.6051C17.0547 10.4618 16.9281 10.2318 16.9282 10.0003C16.9282 9.76878 17.0548 9.53884 17.2828 9.39553C17.5666 9.21724 17.817 9.03479 18.0096 8.78376C18.3796 8.30157 18.5429 7.69215 18.4636 7.08956C18.4294 6.82987 18.3383 6.59427 18.2218 6.35641C18.1099 6.12793 17.9553 5.86018 17.7701 5.53945L17.749 5.50297C17.5638 5.1822 17.4092 4.9144 17.2673 4.70322C17.1196 4.48339 16.9611 4.28666 16.7533 4.1272C16.2711 3.75721 15.6617 3.59391 15.0591 3.67324C14.7454 3.71454 14.4622 3.84017 14.166 3.99676C13.9278 4.12265 13.6653 4.11729 13.4648 4.00153C13.2643 3.88576 13.1284 3.66114 13.1183 3.39191C13.1058 3.05706 13.073 2.74899 12.9519 2.45668C12.7193 1.89515 12.2732 1.44903 11.7117 1.21644C11.4697 1.1162 11.2201 1.07733 10.9558 1.0593C10.702 1.04198 10.3928 1.04199 10.0224 1.04199H9.98034ZM8.76942 2.37128C8.83371 2.34465 8.93139 2.32009 9.132 2.3064C9.33822 2.29233 9.60454 2.29199 10.0014 2.29199C10.3982 2.29199 10.6645 2.29233 10.8708 2.3064C11.0714 2.32009 11.169 2.34465 11.2333 2.37128C11.4886 2.47701 11.6914 2.67979 11.7971 2.93503C11.8304 3.01554 11.8581 3.14105 11.8692 3.43863C11.8939 4.09895 12.2347 4.73473 12.8398 5.08406C13.4448 5.43339 14.1659 5.41066 14.7501 5.10189C15.0133 4.96274 15.1358 4.92392 15.2222 4.91255C15.4962 4.87649 15.7732 4.95071 15.9923 5.1189C16.0476 5.16126 16.1177 5.23357 16.2298 5.40046C16.3451 5.57201 16.4786 5.80249 16.677 6.14616C16.8754 6.48983 17.0083 6.72064 17.0992 6.90627C17.1877 7.08684 17.2152 7.18372 17.2243 7.25271C17.2604 7.52662 17.1861 7.80363 17.018 8.02281C16.9649 8.09195 16.87 8.17865 16.6178 8.33711C16.0584 8.68862 15.6782 9.30162 15.6782 10.0002C15.6781 10.6989 16.0583 11.312 16.6178 11.6635C16.87 11.822 16.9648 11.9087 17.0179 11.9778C17.1861 12.197 17.2603 12.474 17.2242 12.7479C17.2151 12.8169 17.1876 12.9138 17.0991 13.0943C17.0082 13.28 16.8753 13.5108 16.6769 13.8544C16.4785 14.1981 16.345 14.4286 16.2297 14.6001C16.1176 14.767 16.0475 14.8393 15.9923 14.8817C15.7731 15.0499 15.4961 15.1241 15.2222 15.088C15.1358 15.0767 15.0133 15.0379 14.75 14.8987C14.1658 14.5899 13.4447 14.5672 12.8397 14.9166C12.2347 15.2659 11.8939 15.9017 11.8692 16.562C11.8581 16.8596 11.8304 16.9851 11.7971 17.0656C11.6914 17.3209 11.4886 17.5236 11.2333 17.6294C11.169 17.656 11.0714 17.6806 10.8708 17.6943C10.6645 17.7083 10.3982 17.7087 10.0014 17.7087C9.60454 17.7087 9.33822 17.7083 9.132 17.6943C8.93139 17.6806 8.83371 17.656 8.76942 17.6294C8.51418 17.5236 8.31139 17.3209 8.20567 17.0656C8.17232 16.9851 8.14468 16.8596 8.13355 16.562C8.10885 15.9017 7.76802 15.2659 7.16297 14.9166C6.55791 14.5673 5.8369 14.59 5.2527 14.8988C4.98943 15.0379 4.86691 15.0767 4.78051 15.0881C4.5066 15.1242 4.22959 15.0499 4.01041 14.8818C3.9552 14.8394 3.88509 14.7671 3.77293 14.6002C3.65764 14.4286 3.52418 14.1982 3.32576 13.8545C3.12735 13.5108 2.99448 13.28 2.90355 13.0944C2.8151 12.9138 2.78754 12.8169 2.77845 12.7479C2.74239 12.474 2.81662 12.197 2.9848 11.9778C3.03785 11.9087 3.13272 11.822 3.38488 11.6636C3.94437 11.312 4.32456 10.699 4.3246 10.0004C4.32464 9.30166 3.94443 8.68855 3.38489 8.33698C3.13279 8.17857 3.03792 8.09188 2.98488 8.02275C2.8167 7.80357 2.74247 7.52656 2.77853 7.25266C2.78762 7.18366 2.81518 7.08679 2.90363 6.90621C2.99456 6.72059 3.12743 6.48977 3.32585 6.1461C3.52426 5.80243 3.65772 5.57196 3.77301 5.4004C3.88517 5.23351 3.95528 5.1612 4.0105 5.11884C4.22967 4.95066 4.50668 4.87643 4.78059 4.91249C4.86699 4.92387 4.98952 4.96269 5.25283 5.10186C5.837 5.41062 6.55798 5.43334 7.163 5.08404C7.76804 4.73473 8.10885 4.09897 8.13354 3.43867C8.14467 3.14106 8.17232 3.01555 8.20567 2.93503C8.31139 2.67979 8.51418 2.47701 8.76942 2.37128Z" fill="#383838"/>
</svg>
