<svg width="28" height="29" viewBox="0 0 28 29" fill="none" xmlns="http://www.w3.org/2000/svg">
<rect width="28" height="29" fill="#0A66C2"/>
<path fill-rule="evenodd" clip-rule="evenodd" d="M6.99967 12.0832C5.71101 12.0832 4.66634 13.1651 4.66634 14.4998C4.66634 15.8345 5.71101 16.9165 6.99967 16.9165C8.28834 16.9165 9.33301 15.8345 9.33301 14.4998C9.33301 13.1651 8.28834 12.0832 6.99967 12.0832ZM2.33301 14.4998C2.33301 11.8305 4.42235 9.6665 6.99967 9.6665C9.577 9.6665 11.6663 11.8305 11.6663 14.4998C11.6663 17.1692 9.577 19.3332 6.99967 19.3332C4.42235 19.3332 2.33301 17.1692 2.33301 14.4998Z" fill="white"/>
<path fill-rule="evenodd" clip-rule="evenodd" d="M20.9997 4.83317C19.711 4.83317 18.6663 5.91515 18.6663 7.24984C18.6663 8.58453 19.711 9.6665 20.9997 9.6665C22.2883 9.6665 23.333 8.58453 23.333 7.24984C23.333 5.91515 22.2883 4.83317 20.9997 4.83317ZM16.333 7.24984C16.333 4.58046 18.4223 2.4165 20.9997 2.4165C23.577 2.4165 25.6663 4.58046 25.6663 7.24984C25.6663 9.91921 23.577 12.0832 20.9997 12.0832C18.4223 12.0832 16.333 9.91921 16.333 7.24984Z" fill="white"/>
<path fill-rule="evenodd" clip-rule="evenodd" d="M20.9997 19.3332C19.711 19.3332 18.6663 20.4151 18.6663 21.7498C18.6663 23.0845 19.711 24.1665 20.9997 24.1665C22.2883 24.1665 23.333 23.0845 23.333 21.7498C23.333 20.4151 22.2883 19.3332 20.9997 19.3332ZM16.333 21.7498C16.333 19.0805 18.4223 16.9165 20.9997 16.9165C23.577 16.9165 25.6663 19.0805 25.6663 21.7498C25.6663 24.4192 23.577 26.5832 20.9997 26.5832C18.4223 26.5832 16.333 24.4192 16.333 21.7498Z" fill="white"/>
<path fill-rule="evenodd" clip-rule="evenodd" d="M18.0528 9.52185L10.4695 13.751L9.36328 11.6232L16.9466 7.39404L18.0528 9.52185Z" fill="white"/>
<path fill-rule="evenodd" clip-rule="evenodd" d="M16.9466 21.6055L9.36328 17.3763L10.4695 15.2485L18.0528 19.4777L16.9466 21.6055Z" fill="white"/>
</svg>
