<svg width="80" height="80" viewBox="0 0 80 80" fill="none" xmlns="http://www.w3.org/2000/svg">
<rect width="80" height="80" rx="16" fill="#D8E6FD"/>
<path fill-rule="evenodd" clip-rule="evenodd" d="M26.6667 40.0003V34.667C26.6667 30.8958 26.6667 29.0101 27.8383 27.8386C29.0099 26.667 30.8955 26.667 34.6667 26.667H45.3334C49.1047 26.667 50.9903 26.667 52.1618 27.8386C53.3334 29.0101 53.3334 30.8958 53.3334 34.667V40.0003C53.3334 43.7716 53.3334 45.6572 52.1618 46.8288C51.3 47.6906 50.0518 47.9184 47.9507 47.9787C47.9458 46.9976 47.605 46.0179 46.9282 45.2237C46.89 45.1788 46.8668 45.123 46.8621 45.0641C46.6949 42.9688 45.0311 41.305 42.9358 41.1378C42.877 41.1331 42.8211 41.11 42.7762 41.0717C41.1764 39.7083 38.8233 39.7083 37.2235 41.0717C37.1786 41.11 37.1227 41.1331 37.0639 41.1378C34.9686 41.305 33.3047 42.9688 33.1375 45.0641C33.1328 45.123 33.1097 45.1788 33.0714 45.2237C32.3947 46.0179 32.0539 46.9976 32.049 47.9787C29.9482 47.9184 28.7001 47.6905 27.8383 46.8288C26.6667 45.6572 26.6667 43.7716 26.6667 40.0003ZM35.0001 32.0003C35.0001 31.448 35.4478 31.0003 36.0001 31.0003H44.0001C44.5524 31.0003 45.0001 31.448 45.0001 32.0003C45.0001 32.5526 44.5524 33.0003 44.0001 33.0003H36.0001C35.4478 33.0003 35.0001 32.5526 35.0001 32.0003ZM33.3334 35.667C32.7811 35.667 32.3334 36.1147 32.3334 36.667C32.3334 37.2193 32.7811 37.667 33.3334 37.667H46.6667C47.219 37.667 47.6667 37.2193 47.6667 36.667C47.6667 36.1147 47.219 35.667 46.6667 35.667H33.3334Z" fill="#3B82F6"/>
<path fill-rule="evenodd" clip-rule="evenodd" d="M41.479 42.5939C40.6266 41.8676 39.373 41.8676 38.5207 42.5939C38.1555 42.9052 37.7014 43.0933 37.223 43.1314C36.1067 43.2205 35.2203 44.107 35.1312 45.2232C35.093 45.7016 34.9049 46.1557 34.5937 46.521C33.8673 47.3733 33.8673 48.6269 34.5937 49.4792C34.9049 49.8444 35.093 50.2986 35.1312 50.7769C35.2203 51.8932 36.1067 52.7796 37.223 52.8687C37.7014 52.9069 38.1555 53.095 38.5207 53.4062C39.373 54.1326 40.6266 54.1326 41.479 53.4062C41.8442 53.095 42.2983 52.9069 42.7767 52.8687C43.893 52.7796 44.7794 51.8932 44.8685 50.7769C44.9066 50.2986 45.0947 49.8444 45.406 49.4792C46.1324 48.6269 46.1324 47.3733 45.406 46.521C45.0947 46.1557 44.9066 45.7016 44.8685 45.2232C44.7794 44.107 43.893 43.2205 42.7767 43.1314C42.2983 43.0933 41.8442 42.9052 41.479 42.5939ZM42.6824 47.3981C43.0862 47.0212 43.108 46.3884 42.7311 45.9847C42.3543 45.5809 41.7215 45.5591 41.3178 45.9359L39.1429 47.9658L38.6824 47.5359C38.2787 47.1591 37.6459 47.1809 37.269 47.5847C36.8922 47.9884 36.914 48.6212 37.3178 48.9981L38.4606 50.0647C38.8448 50.4233 39.4411 50.4233 39.8253 50.0647L42.6824 47.3981Z" fill="#3B82F6"/>
</svg>
