<svg width="20" height="20" viewBox="0 0 15 14" fill="none" xmlns="http://www.w3.org/2000/svg">
<path fill-rule="evenodd" clip-rule="evenodd" d="M5.89485 1.13417C5.7325 1.27252 5.65132 1.3417 5.56463 1.39981C5.36589 1.53301 5.1427 1.62546 4.90799 1.6718C4.80559 1.69201 4.69927 1.7005 4.48664 1.71747C3.95238 1.7601 3.68525 1.78142 3.46239 1.86014C2.94692 2.0422 2.54147 2.44766 2.3594 2.96312C2.28069 3.18599 2.25937 3.45311 2.21674 3.98737C2.19977 4.20001 2.19128 4.30632 2.17107 4.40872C2.12473 4.64343 2.03228 4.86662 1.89908 5.06536C1.84097 5.15206 1.77179 5.23323 1.63343 5.39559C1.28581 5.8035 1.11199 6.00747 1.01006 6.22072C0.774315 6.71395 0.774315 7.28735 1.01006 7.78058C1.11199 7.99383 1.2858 8.19779 1.63343 8.60572C1.77177 8.76805 1.84097 8.84925 1.89908 8.93594C2.03228 9.13468 2.12473 9.35787 2.17107 9.59258C2.19128 9.69498 2.19977 9.8013 2.21674 10.0139C2.25937 10.5482 2.28069 10.8153 2.3594 11.0382C2.54147 11.5536 2.94692 11.9591 3.46239 12.1412C3.68525 12.2199 3.95238 12.2412 4.48664 12.2838C4.69927 12.3008 4.80559 12.3093 4.90799 12.3295C5.1427 12.3758 5.36589 12.4683 5.56463 12.6015C5.65132 12.6596 5.7325 12.7288 5.89485 12.8671C6.30278 13.2148 6.50674 13.3886 6.71999 13.4905C7.21322 13.7263 7.78662 13.7263 8.27985 13.4905C8.4931 13.3886 8.69706 13.2148 9.10498 12.8671C9.26734 12.7288 9.34851 12.6596 9.43521 12.6015C9.63395 12.4683 9.85714 12.3758 10.0919 12.3295C10.1942 12.3093 10.3006 12.3008 10.5132 12.2838C11.0475 12.2412 11.3146 12.2199 11.5374 12.1412C12.0529 11.9591 12.4584 11.5536 12.6404 11.0382C12.7192 10.8153 12.7405 10.5482 12.7831 10.0139C12.8001 9.8013 12.8086 9.69498 12.8288 9.59258C12.8751 9.35787 12.9676 9.13468 13.1008 8.93594C13.1589 8.84925 13.228 8.76807 13.3664 8.60572C13.714 8.19779 13.8878 7.99383 13.9898 7.78058C14.2255 7.28735 14.2255 6.71395 13.9898 6.22072C13.8878 6.00747 13.714 5.80351 13.3664 5.39559C13.228 5.23323 13.1589 5.15206 13.1008 5.06536C12.9676 4.86662 12.8751 4.64343 12.8288 4.40872C12.8086 4.30633 12.8001 4.20001 12.7831 3.98737C12.7405 3.45311 12.7192 3.18599 12.6404 2.96312C12.4584 2.44766 12.0529 2.0422 11.5374 1.86014C11.3146 1.78142 11.0475 1.7601 10.5132 1.71747C10.3006 1.7005 10.1942 1.69201 10.0919 1.6718C9.85714 1.62546 9.63395 1.53301 9.43521 1.39981C9.34851 1.3417 9.26734 1.27252 9.10498 1.13417C8.69706 0.786536 8.4931 0.612721 8.27985 0.510795C7.78662 0.275048 7.21322 0.275048 6.71999 0.510795C6.50674 0.612721 6.30277 0.78654 5.89485 1.13417ZM10.4156 5.57608C10.6275 5.36419 10.6275 5.02065 10.4156 4.80876C10.2037 4.59687 9.86015 4.59687 9.64826 4.80876L6.41476 8.04226L5.35156 6.97905C5.13967 6.76717 4.79613 6.76717 4.58424 6.97905C4.37236 7.19094 4.37236 7.53448 4.58424 7.74637L6.03111 9.19323C6.24299 9.40512 6.58653 9.40512 6.79842 9.19323L10.4156 5.57608Z" fill="#22C55E"/>
</svg>
