<svg width="20" height="20" viewBox="0 0 20 20" fill="none" xmlns="http://www.w3.org/2000/svg">
<g clip-path="url(#clip0_673_36720)">
<path fill-rule="evenodd" clip-rule="evenodd" d="M8.66838 18.7341L8.8976 18.3468C9.26495 17.7262 9.44864 17.4159 9.74123 17.2428C10.0338 17.0697 10.4155 17.0575 11.1788 17.0331C11.8945 17.0102 12.3756 16.9477 12.7869 16.7774C13.6529 16.4187 14.3409 15.7307 14.6996 14.8647C14.9686 14.2152 14.9686 13.3919 14.9686 11.7452V11.0383C14.9686 8.72457 14.9686 7.56769 14.4478 6.71784C14.1564 6.2423 13.7566 5.84248 13.281 5.55107C12.4312 5.03027 11.2743 5.03027 8.96055 5.03027H6.84006C4.52631 5.03027 3.36944 5.03027 2.51959 5.55107C2.04405 5.84248 1.64423 6.2423 1.35282 6.71784C0.832031 7.56769 0.832031 8.72457 0.832031 11.0383V11.7452C0.832031 13.3919 0.832031 14.2152 1.10105 14.8647C1.45974 15.7307 2.14775 16.4187 3.01371 16.7774C3.42502 16.9477 3.90605 17.0102 4.62178 17.0331C5.3851 17.0575 5.76676 17.0697 6.05935 17.2428C6.35194 17.4159 6.53563 17.7262 6.90298 18.3468L7.1322 18.7341C7.47372 19.3111 8.32687 19.3111 8.66838 18.7341ZM10.9927 12.0985C11.4806 12.0985 11.8762 11.703 11.8762 11.215C11.8762 10.7271 11.4806 10.3315 10.9927 10.3315C10.5047 10.3315 10.1091 10.7271 10.1091 11.215C10.1091 11.703 10.5047 12.0985 10.9927 12.0985ZM8.78384 11.215C8.78384 11.703 8.38827 12.0985 7.90031 12.0985C7.41234 12.0985 7.01677 11.703 7.01677 11.215C7.01677 10.7271 7.41234 10.3315 7.90031 10.3315C8.38827 10.3315 8.78384 10.7271 8.78384 11.215ZM4.80794 12.0985C5.2959 12.0985 5.69147 11.703 5.69147 11.215C5.69147 10.7271 5.2959 10.3315 4.80794 10.3315C4.31997 10.3315 3.9244 10.7271 3.9244 11.215C3.9244 11.703 4.31997 12.0985 4.80794 12.0985Z" fill="#818181"/>
<path opacity="0.5" d="M12.9053 0.833008C13.9611 0.833001 14.8006 0.832996 15.4739 0.897014C16.1643 0.962656 16.748 1.10025 17.268 1.4189C17.803 1.74674 18.2528 2.19653 18.5806 2.73152C18.8992 3.2515 19.0368 3.83522 19.1025 4.5256C19.1665 5.1989 19.1665 6.03849 19.1665 7.0942V7.81525C19.1665 8.56659 19.1665 9.16424 19.1334 9.64885C19.0996 10.1446 19.029 10.5704 18.8638 10.969C18.4603 11.9432 17.6863 12.7172 16.7121 13.1208C16.6877 13.1309 16.6632 13.1406 16.6386 13.15C16.5211 13.195 16.4203 13.2335 16.3318 13.2622H14.9567C14.9702 12.8463 14.9702 12.3511 14.9702 11.7439V11.037C14.9702 8.72327 14.9702 7.56639 14.4494 6.71653C14.158 6.24099 13.7582 5.84118 13.2827 5.54976C12.4328 5.02897 11.2759 5.02897 8.96217 5.02897H6.84169C6.02052 5.02897 5.34507 5.02897 4.77734 5.05225V3.67692C4.8046 3.58246 4.84195 3.47419 4.88578 3.34709C4.96034 3.13093 5.05457 2.9265 5.17406 2.73152C5.50189 2.19653 5.95169 1.74674 6.48667 1.4189C7.00665 1.10025 7.59037 0.962656 8.28075 0.897014C8.95405 0.832996 9.7936 0.833001 10.8493 0.833008H12.9053Z" fill="#383838"/>
</g>
<defs>
<clipPath id="clip0_673_36720">
<rect width="20" height="20" fill="white"/>
</clipPath>
</defs>
</svg>
