<svg width="20" height="20" viewBox="0 0 20 20" fill="none" xmlns="http://www.w3.org/2000/svg">
<path fill-rule="evenodd" clip-rule="evenodd" d="M9.40998 2.75609C9.08187 3.18455 8.71151 3.84561 8.17356 4.81064L7.90048 5.30052C7.88402 5.33005 7.86777 5.3593 7.85167 5.38826C7.60106 5.83927 7.38954 6.21992 7.0487 6.47866C6.70419 6.74019 6.28422 6.83457 5.79612 6.94426C5.76476 6.95131 5.73311 6.95842 5.70118 6.96565L5.17089 7.08563C4.12479 7.32232 3.41313 7.48518 2.92568 7.67727C2.45002 7.86473 2.34961 8.01831 2.31134 8.14138C2.27095 8.27127 2.26975 8.46995 2.55412 8.92168C2.84274 9.38016 3.32965 9.95204 4.04176 10.7848L4.40328 11.2075C4.42429 11.2321 4.44511 11.2564 4.46572 11.2804C4.80156 11.6721 5.08159 11.9988 5.21004 12.4119C5.33772 12.8224 5.2954 13.2538 5.24409 13.777C5.24094 13.809 5.23776 13.8415 5.23459 13.8743L5.17993 14.4383C5.07235 15.5485 4.99982 16.3128 5.02435 16.8635C5.04883 17.4131 5.16491 17.565 5.25721 17.6351C5.3393 17.6974 5.49104 17.7663 5.9854 17.6247C6.48779 17.4807 7.15549 17.1753 8.13501 16.7243L8.63153 16.4957C8.6621 16.4816 8.69239 16.4676 8.72242 16.4537C9.17641 16.2438 9.57028 16.0617 10 16.0617C10.4297 16.0617 10.8236 16.2438 11.2776 16.4537C11.3076 16.4676 11.3379 16.4816 11.3685 16.4957L11.865 16.7243C12.8445 17.1753 13.5122 17.4807 14.0146 17.6247C14.509 17.7663 14.6607 17.6974 14.7428 17.6351C14.8351 17.565 14.9512 17.4131 14.9757 16.8635C15.0002 16.3128 14.9277 15.5484 14.8201 14.4383L14.7654 13.8743C14.7623 13.8415 14.7591 13.809 14.7559 13.777C14.7046 13.2539 14.6623 12.8224 14.79 12.4119C14.9184 11.9988 15.1985 11.6721 15.5343 11.2804C15.5549 11.2563 15.5757 11.2321 15.5967 11.2075L15.9583 10.7848C16.6704 9.95203 17.1573 9.38016 17.4459 8.92168C17.7303 8.46995 17.7291 8.27127 17.6887 8.14138C17.6504 8.01831 17.55 7.86473 17.0743 7.67727C16.5869 7.48517 15.8752 7.32232 14.8291 7.08563L14.2988 6.96565C14.2669 6.95842 14.2353 6.95131 14.2039 6.94426C13.7158 6.83457 13.2958 6.74019 12.9513 6.47866C12.6105 6.21993 12.399 5.83927 12.1484 5.38826C12.1323 5.3593 12.116 5.33005 12.0995 5.30052L11.8265 4.81064C11.2885 3.84561 10.9182 3.18455 10.59 2.75609C10.2623 2.32804 10.0948 2.29102 10 2.29102C9.90521 2.29102 9.73778 2.32804 9.40998 2.75609ZM8.41755 1.9961C8.81479 1.47738 9.30576 1.04102 10 1.04102C10.6943 1.04102 11.1852 1.47737 11.5825 1.9961C11.9728 2.50579 12.3867 3.24832 12.8925 4.15582L13.1914 4.6919C13.5185 5.27871 13.6022 5.40337 13.7071 5.48305C13.8082 5.55974 13.9385 5.60252 14.5747 5.74646L15.158 5.87845C16.1377 6.10009 16.9448 6.28267 17.5326 6.51432C18.1428 6.75477 18.6767 7.10918 18.8823 7.7702C19.0857 8.42441 18.8571 9.02629 18.5038 9.58761C18.1604 10.133 17.612 10.7742 16.9422 11.5575L16.5467 12.0199C16.1159 12.5237 16.0259 12.647 15.9836 12.783C15.9405 12.9217 15.9445 13.082 16.0096 13.7537L16.0692 14.3688C16.1707 15.4155 16.2534 16.269 16.2244 16.9191C16.195 17.5807 16.0447 18.2161 15.4986 18.6307C14.9424 19.053 14.2951 19.0054 13.6703 18.8263C13.0645 18.6528 12.3092 18.305 11.3921 17.8827L10.8457 17.6311C10.2479 17.3559 10.12 17.3117 10 17.3117C9.88007 17.3117 9.7521 17.3559 9.15431 17.6311L8.60793 17.8827C7.69082 18.305 6.93554 18.6528 6.3297 18.8263C5.70489 19.0054 5.05767 19.053 4.5014 18.6307C3.95534 18.2161 3.80506 17.5807 3.77558 16.9191C3.74663 16.269 3.82936 15.4155 3.93081 14.3688L3.99041 13.7537C4.0555 13.082 4.05956 12.9217 4.01642 12.783C3.97412 12.647 3.88412 12.5237 3.45328 12.0199L3.05787 11.5575C2.388 10.7742 1.83961 10.133 1.49627 9.58761C1.14291 9.02629 0.914282 8.42441 1.11772 7.7702C1.32328 7.10918 1.85722 6.75477 2.46738 6.51432C3.05518 6.28267 3.86228 6.10009 4.84198 5.87845L4.89503 5.86645L5.42533 5.74647C6.06152 5.60252 6.19186 5.55974 6.2929 5.48305C6.39786 5.40337 6.48154 5.27871 6.80866 4.6919L7.10749 4.15581C7.61334 3.24832 8.02723 2.50579 8.41755 1.9961Z" fill="#383838"/>
</svg>
