<svg width="20" height="20" viewBox="0 0 20 20" fill="none" xmlns="http://www.w3.org/2000/svg">
<path fill-rule="evenodd" clip-rule="evenodd" d="M9.40998 2.7567C9.08187 3.18516 8.71151 3.84622 8.17356 4.81125L7.90048 5.30114C7.88402 5.33066 7.86777 5.35991 7.85167 5.38887C7.60106 5.83988 7.38954 6.22054 7.0487 6.47927C6.70419 6.7408 6.28422 6.83518 5.79612 6.94487C5.76476 6.95192 5.73311 6.95903 5.70118 6.96626L5.17089 7.08624C4.12479 7.32293 3.41313 7.48579 2.92568 7.67788C2.45002 7.86534 2.34961 8.01892 2.31134 8.14199C2.27095 8.27188 2.26975 8.47056 2.55412 8.92229C2.84274 9.38077 3.32965 9.95265 4.04176 10.7854L4.40328 11.2081C4.42429 11.2327 4.44511 11.257 4.46572 11.281C4.80156 11.6728 5.08159 11.9994 5.21004 12.4125C5.33772 12.823 5.2954 13.2545 5.24409 13.7776C5.24094 13.8096 5.23776 13.8421 5.23459 13.8749L5.17993 14.4389C5.07235 15.5491 4.99982 16.3134 5.02435 16.8641C5.04883 17.4137 5.16491 17.5656 5.25721 17.6357C5.3393 17.698 5.49104 17.767 5.9854 17.6253C6.48779 17.4814 7.15549 17.1759 8.13501 16.7249L8.63153 16.4963C8.6621 16.4822 8.69239 16.4682 8.72242 16.4543C9.17641 16.2444 9.57028 16.0623 10 16.0623C10.4297 16.0623 10.8236 16.2444 11.2776 16.4543C11.3076 16.4682 11.3379 16.4822 11.3685 16.4963L11.865 16.7249C12.8445 17.1759 13.5122 17.4814 14.0146 17.6253C14.509 17.767 14.6607 17.698 14.7428 17.6357C14.8351 17.5656 14.9512 17.4137 14.9757 16.8641C15.0002 16.3134 14.9277 15.5491 14.8201 14.4389L14.7654 13.8749C14.7623 13.8421 14.7591 13.8097 14.7559 13.7776C14.7046 13.2545 14.6623 12.823 14.79 12.4125C14.9184 11.9994 15.1985 11.6728 15.5343 11.281C15.5549 11.257 15.5757 11.2327 15.5967 11.2081L15.9583 10.7854C16.6704 9.95265 17.1573 9.38077 17.4459 8.92229C17.7303 8.47056 17.7291 8.27188 17.6887 8.14199C17.6504 8.01892 17.55 7.86534 17.0743 7.67788C16.5869 7.48579 15.8752 7.32293 14.8291 7.08624L14.2988 6.96626C14.2669 6.95903 14.2353 6.95192 14.2039 6.94487C13.7158 6.83518 13.2958 6.7408 12.9513 6.47927C12.6105 6.22054 12.399 5.83988 12.1484 5.38887C12.1323 5.35991 12.116 5.33066 12.0995 5.30113L11.8265 4.81125C11.2885 3.84622 10.9182 3.18516 10.59 2.7567C10.2623 2.32865 10.0948 2.29163 10 2.29163C9.90521 2.29163 9.73778 2.32865 9.40998 2.7567ZM8.41755 1.99671C8.81479 1.47799 9.30576 1.04163 10 1.04163C10.6943 1.04163 11.1852 1.47798 11.5825 1.99671C11.9728 2.5064 12.3867 3.24893 12.8925 4.15643L13.1914 4.69251C13.5185 5.27932 13.6022 5.40398 13.7071 5.48366C13.8082 5.56035 13.9385 5.60313 14.5747 5.74708L15.158 5.87906C16.1377 6.1007 16.9448 6.28328 17.5326 6.51493C18.1428 6.75538 18.6767 7.10979 18.8823 7.77081C19.0857 8.42502 18.8571 9.0269 18.5038 9.58822C18.1604 10.1336 17.612 10.7748 16.9422 11.5581L16.5467 12.0205C16.1159 12.5243 16.0259 12.6476 15.9836 12.7836C15.9405 12.9224 15.9445 13.0826 16.0096 13.7543L16.0692 14.3694C16.1707 15.4161 16.2534 16.2696 16.2244 16.9197C16.195 17.5813 16.0447 18.2167 15.4986 18.6313C14.9424 19.0536 14.2951 19.006 13.6703 18.827C13.0645 18.6534 12.3092 18.3056 11.3921 17.8833L10.8457 17.6317C10.2479 17.3565 10.12 17.3123 10 17.3123C9.88007 17.3123 9.7521 17.3565 9.15431 17.6317L8.60793 17.8833C7.69082 18.3056 6.93554 18.6534 6.3297 18.827C5.70489 19.006 5.05767 19.0536 4.5014 18.6313C3.95534 18.2167 3.80506 17.5813 3.77558 16.9197C3.74663 16.2696 3.82936 15.4161 3.93081 14.3694L3.99041 13.7543C4.0555 13.0826 4.05956 12.9224 4.01642 12.7836C3.97412 12.6476 3.88412 12.5243 3.45328 12.0205L3.05787 11.5581C2.388 10.7749 1.83961 10.1336 1.49627 9.58822C1.14291 9.0269 0.914282 8.42502 1.11772 7.77081C1.32328 7.10979 1.85722 6.75538 2.46738 6.51493C3.05518 6.28328 3.86228 6.1007 4.84198 5.87906L4.89503 5.86706L5.42533 5.74708C6.06152 5.60313 6.19186 5.56035 6.2929 5.48366C6.39786 5.40398 6.48154 5.27932 6.80866 4.69251L7.10749 4.15642C7.61334 3.24893 8.02723 2.5064 8.41755 1.99671Z" fill="#58607C"/>
</svg>
