<svg width="21" height="20" viewBox="0 0 21 20" fill="none" xmlns="http://www.w3.org/2000/svg">
<path d="M9.625 14.1667H11.375V9.16675H9.625V14.1667ZM10.5 1.66675C5.67 1.66675 1.75 5.40008 1.75 10.0001C1.75 14.6001 5.67 18.3334 10.5 18.3334C15.33 18.3334 19.25 14.6001 19.25 10.0001C19.25 5.40008 15.33 1.66675 10.5 1.66675ZM10.5 16.6667C6.64125 16.6667 3.5 13.6751 3.5 10.0001C3.5 6.32508 6.64125 3.33341 10.5 3.33341C14.3588 3.33341 17.5 6.32508 17.5 10.0001C17.5 13.6751 14.3588 16.6667 10.5 16.6667ZM9.625 7.50008H11.375V5.83342H9.625V7.50008Z" fill="#AB353F"/>
<path d="M9.625 5.83325H11.375V7.49992H9.625V5.83325ZM9.625 9.16659H11.375V14.1666H9.625V9.16659Z" fill="#AB353F"/>
<path d="M10.5 1.66675C5.67 1.66675 1.75 5.40008 1.75 10.0001C1.75 14.6001 5.67 18.3334 10.5 18.3334C15.33 18.3334 19.25 14.6001 19.25 10.0001C19.25 5.40008 15.33 1.66675 10.5 1.66675ZM10.5 16.6667C6.64125 16.6667 3.5 13.6751 3.5 10.0001C3.5 6.32508 6.64125 3.33341 10.5 3.33341C14.3588 3.33341 17.5 6.32508 17.5 10.0001C17.5 13.6751 14.3588 16.6667 10.5 16.6667Z" fill="#AB353F"/>
</svg>
