<svg width="25" height="24" viewBox="0 0 25 24" fill="none" xmlns="http://www.w3.org/2000/svg">
<g id="Outline / Building, Infrastructure / School">
<path id="Vector" d="M18.0425 7.25352H14.3374C14.0217 7.02867 13.667 6.86442 13.2913 6.76914V6.46205L16.0866 5.15454C16.2012 5.08355 16.2958 4.98451 16.3613 4.86678C16.4269 4.74905 16.4613 4.61653 16.4613 4.48179C16.4613 4.34704 16.4269 4.21452 16.3613 4.09679C16.2958 3.97906 16.2012 3.88002 16.0866 3.80903L13.5526 2.62183C13.3548 2.52943 13.1368 2.48848 12.9189 2.50279C12.701 2.5171 12.4902 2.5862 12.3062 2.70368C12.1221 2.82116 11.9707 2.98321 11.8661 3.17479C11.7615 3.36637 11.7069 3.58127 11.7076 3.79954V6.76914C11.3321 6.86429 10.9776 7.02855 10.6623 7.25352H6.9564C5.90671 7.25477 4.90036 7.67211 4.15812 8.41399C3.41587 9.15586 2.99833 10.1617 2.99707 11.2109L2.99707 19.1256C2.99707 19.7553 3.24736 20.3593 3.69287 20.8046C4.13838 21.2498 4.74262 21.5 5.37267 21.5H19.6262C20.2563 21.5 20.8605 21.2498 21.306 20.8046C21.7516 20.3593 22.0018 19.7553 22.0018 19.1256V11.2109C22.0006 10.1617 21.583 9.15586 20.8408 8.41399C20.0986 7.67211 19.0922 7.25477 18.0425 7.25352ZM20.2724 10.4194H18.5628C17.9331 10.4178 17.3295 10.1678 16.8832 9.7237L15.9948 8.83646H18.0425C18.5321 8.83849 19.0091 8.99165 19.4082 9.275C19.8074 9.55835 20.1092 9.95805 20.2724 10.4194ZM6.9564 8.83646H9.00416L8.11569 9.7237C7.66945 10.1678 7.06585 10.4178 6.43614 10.4194H4.7265C4.8897 9.95805 5.19151 9.55835 5.59067 9.275C5.98982 8.99165 6.46682 8.83849 6.9564 8.83646ZM13.2913 19.9171H11.7076V17.5426C11.7076 17.3327 11.791 17.1314 11.9395 16.983C12.088 16.8346 12.2894 16.7512 12.4995 16.7512C12.7095 16.7512 12.9109 16.8346 13.0594 16.983C13.2079 17.1314 13.2913 17.3327 13.2913 17.5426V19.9171ZM19.6262 19.9171H14.8751V17.5426C14.8751 16.9129 14.6248 16.309 14.1793 15.8637C13.7337 15.4184 13.1295 15.1682 12.4995 15.1682C11.8694 15.1682 11.2652 15.4184 10.8197 15.8637C10.3741 16.309 10.1239 16.9129 10.1239 17.5426V19.9171H5.37267C5.16265 19.9171 4.96124 19.8337 4.81273 19.6852C4.66423 19.5368 4.5808 19.3355 4.5808 19.1256V12.0023H6.43614C6.95625 12.0036 7.47145 11.9018 7.95194 11.7028C8.43242 11.5037 8.86865 11.2115 9.23539 10.8428L11.3798 8.70033C11.6768 8.40357 12.0795 8.23686 12.4995 8.23686C12.9194 8.23686 13.3222 8.40357 13.6192 8.70033L15.7635 10.8428C16.1303 11.2115 16.5665 11.5037 17.047 11.7028C17.5275 11.9018 18.0427 12.0036 18.5628 12.0023H20.4181V19.1256C20.4181 19.3355 20.3347 19.5368 20.1862 19.6852C20.0377 19.8337 19.8363 19.9171 19.6262 19.9171ZM8.54013 14.3768C8.54013 14.5867 8.4567 14.788 8.3082 14.9364C8.15969 15.0848 7.95828 15.1682 7.74826 15.1682H6.9564C6.74638 15.1682 6.54497 15.0848 6.39646 14.9364C6.24796 14.788 6.16453 14.5867 6.16453 14.3768C6.16453 14.1668 6.24796 13.9655 6.39646 13.8171C6.54497 13.6687 6.74638 13.5853 6.9564 13.5853H7.74826C7.95828 13.5853 8.15969 13.6687 8.3082 13.8171C8.4567 13.9655 8.54013 14.1668 8.54013 14.3768ZM8.54013 17.5426C8.54013 17.7526 8.4567 17.9539 8.3082 18.1023C8.15969 18.2507 7.95828 18.3341 7.74826 18.3341H6.9564C6.74638 18.3341 6.54497 18.2507 6.39646 18.1023C6.24796 17.9539 6.16453 17.7526 6.16453 17.5426C6.16453 17.3327 6.24796 17.1314 6.39646 16.983C6.54497 16.8346 6.74638 16.7512 6.9564 16.7512H7.74826C7.95828 16.7512 8.15969 16.8346 8.3082 16.983C8.4567 17.1314 8.54013 17.3327 8.54013 17.5426ZM18.8344 14.3768C18.8344 14.5867 18.751 14.788 18.6025 14.9364C18.4539 15.0848 18.2525 15.1682 18.0425 15.1682H17.2507C17.0406 15.1682 16.8392 15.0848 16.6907 14.9364C16.5422 14.788 16.4588 14.5867 16.4588 14.3768C16.4588 14.1668 16.5422 13.9655 16.6907 13.8171C16.8392 13.6687 17.0406 13.5853 17.2507 13.5853H18.0425C18.2525 13.5853 18.4539 13.6687 18.6025 13.8171C18.751 13.9655 18.8344 14.1668 18.8344 14.3768ZM18.8344 17.5426C18.8344 17.7526 18.751 17.9539 18.6025 18.1023C18.4539 18.2507 18.2525 18.3341 18.0425 18.3341H17.2507C17.0406 18.3341 16.8392 18.2507 16.6907 18.1023C16.5422 17.9539 16.4588 17.7526 16.4588 17.5426C16.4588 17.3327 16.5422 17.1314 16.6907 16.983C16.8392 16.8346 17.0406 16.7512 17.2507 16.7512H18.0425C18.2525 16.7512 18.4539 16.8346 18.6025 16.983C18.751 17.1314 18.8344 17.3327 18.8344 17.5426ZM14.0832 12.0023C14.0832 12.3154 13.9903 12.6215 13.8163 12.8818C13.6423 13.1421 13.3949 13.345 13.1055 13.4648C12.8161 13.5846 12.4977 13.616 12.1905 13.5549C11.8833 13.4938 11.6011 13.343 11.3796 13.1217C11.1581 12.9003 11.0073 12.6182 10.9462 12.3112C10.885 12.0041 10.9164 11.6858 11.0363 11.3966C11.1561 11.1073 11.3591 10.8601 11.6196 10.6862C11.88 10.5122 12.1862 10.4194 12.4995 10.4194C12.9195 10.4194 13.3223 10.5862 13.6193 10.883C13.9163 11.1799 14.0832 11.5825 14.0832 12.0023Z" />
</g>
</svg>
