<svg width="20" height="20" viewBox="0 0 20 20" fill="none" xmlns="http://www.w3.org/2000/svg">
<g id="Outline / Arrows Action / Upload">
<path id="Vector" fill-rule="evenodd" clip-rule="evenodd" d="M9.99935 1.04102C10.1818 1.04102 10.3551 1.12074 10.4739 1.25927L12.9739 4.17594C13.1985 4.43802 13.1682 4.83258 12.9061 5.05722C12.644 5.28186 12.2495 5.25151 12.0248 4.98943L10.6244 3.35555L10.6243 12.4993C10.6243 12.8445 10.3445 13.1243 9.99935 13.1243C9.65417 13.1243 9.37435 12.8445 9.37435 12.4993L9.37435 3.35555L7.97389 4.98943C7.74925 5.25151 7.35468 5.28186 7.09261 5.05722C6.83053 4.83258 6.80018 4.43802 7.02481 4.17594L9.52481 1.25927C9.64355 1.12074 9.8169 1.04102 9.99935 1.04102ZM5.8292 6.87599C6.17438 6.87406 6.45575 7.15232 6.45767 7.4975C6.4596 7.84267 6.18133 8.12404 5.83616 8.12597C4.92491 8.13104 4.27901 8.1547 3.78881 8.24475C3.31646 8.33151 3.04307 8.47082 2.84019 8.6737C2.60956 8.90434 2.45918 9.22815 2.37697 9.83963C2.29234 10.4691 2.29102 11.3033 2.29102 12.4995V13.3329C2.29102 14.529 2.29234 15.3633 2.37697 15.9928C2.45918 16.6042 2.60956 16.9281 2.84019 17.1587C3.07083 17.3893 3.39464 17.5397 4.00612 17.6219C4.63558 17.7065 5.46984 17.7079 6.66602 17.7079H13.3327C14.5289 17.7079 15.3631 17.7065 15.9926 17.6219C16.6041 17.5397 16.9279 17.3893 17.1585 17.1587C17.3891 16.9281 17.5395 16.6042 17.6217 15.9928C17.7064 15.3633 17.7077 14.529 17.7077 13.3329V12.4995C17.7077 11.3033 17.7064 10.4691 17.6217 9.83963C17.5395 9.22815 17.3891 8.90434 17.1585 8.6737C16.9556 8.47082 16.6822 8.33151 16.2099 8.24475C15.7197 8.1547 15.0738 8.13104 14.1625 8.12597C13.8174 8.12404 13.5391 7.84267 13.541 7.4975C13.5429 7.15232 13.8243 6.87406 14.1695 6.87599C15.0708 6.881 15.8219 6.90257 16.4357 7.01532C17.0674 7.13134 17.6049 7.35238 18.0424 7.78982C18.544 8.29142 18.7597 8.92298 18.8606 9.67307C18.9577 10.3955 18.9577 11.3141 18.9577 12.4538V13.3786C18.9577 14.5182 18.9577 15.4368 18.8606 16.1593C18.7597 16.9094 18.544 17.541 18.0424 18.0426C17.5408 18.5442 16.9092 18.7599 16.1591 18.8608C15.4367 18.9579 14.5181 18.9579 13.3784 18.9579H6.62029C5.48063 18.9579 4.56203 18.9579 3.83956 18.8608C3.08947 18.7599 2.4579 18.5442 1.95631 18.0426C1.45471 17.541 1.23897 16.9094 1.13812 16.1593C1.04099 15.4368 1.041 14.5182 1.04102 13.3786V12.4538C1.041 11.3141 1.04099 10.3955 1.13812 9.67307C1.23897 8.92298 1.45471 8.29142 1.95631 7.78982C2.39375 7.35238 2.93131 7.13134 3.56298 7.01532C4.17678 6.90257 4.92793 6.881 5.8292 6.87599Z" fill="#3B82F6"/>
</g>
</svg>
