<svg width="23" height="23" viewBox="0 0 23 23" fill="none" xmlns="http://www.w3.org/2000/svg">
<g id="Frame">
<path id="Vector" d="M10.1059 2.10067C10.7051 1.39353 11.7958 1.39353 12.3949 2.10067L13.1169 2.95284C13.4843 3.38647 14.0652 3.57522 14.6173 3.44036L15.7023 3.17532C16.6027 2.95538 17.485 3.59646 17.5541 4.52071L17.6373 5.63451C17.6797 6.20127 18.0387 6.69543 18.5646 6.91083L19.5982 7.33416C20.4559 7.68541 20.7929 8.72274 20.3055 9.51106L19.7182 10.461C19.4193 10.9445 19.4193 11.5553 19.7182 12.0387L20.3055 12.9887C20.7929 13.777 20.4559 14.8143 19.5982 15.1655L18.5646 15.5889C18.0387 15.8043 17.6797 16.2985 17.6373 16.8652L17.5541 17.979C17.485 18.9032 16.6027 19.5443 15.7023 19.3244L14.6173 19.0594C14.0652 18.9245 13.4843 19.1132 13.1169 19.5469L12.3949 20.399C11.7958 21.1062 10.7051 21.1062 10.1059 20.399L9.38398 19.5469C9.01656 19.1132 8.43568 18.9245 7.88353 19.0594L6.79857 19.3244C5.89821 19.5443 5.01583 18.9032 4.94678 17.979L4.86357 16.8652C4.82123 16.2985 4.4622 15.8043 3.93626 15.5889L2.9027 15.1655C2.04502 14.8143 1.70798 13.777 2.19538 12.9887L2.78273 12.0387C3.08161 11.5553 3.08161 10.9445 2.78273 10.461L2.19538 9.51106C1.70798 8.72274 2.04502 7.68541 2.9027 7.33416L3.93626 6.91083C4.4622 6.69543 4.82123 6.20127 4.86357 5.63451L4.94678 4.52071C5.01583 3.59646 5.89821 2.95538 6.79857 3.17532L7.88353 3.44036C8.43568 3.57522 9.01656 3.38647 9.38398 2.95284L10.1059 2.10067Z" fill="#2081E2"/>
<path id="Vector_2" d="M10.125 13.2188L8.15625 11.25L7.5 11.9062L10.125 14.5312L15.75 8.90625L15.0938 8.25L10.125 13.2188Z" fill="white" stroke="white" stroke-width="0.75"/>
</g>
</svg>
