<svg width="24" height="24" viewBox="0 0 24 24" fill="none" xmlns="http://www.w3.org/2000/svg">
<path fill-rule="evenodd" clip-rule="evenodd" d="M7.89184 18.765C9.17115 19.2403 10.5551 19.5 12 19.5C17 19.5 21.27 16.39 23 12C22.2527 10.1036 21.0314 8.44606 19.482 7.17489L18.0687 8.58814C19.2092 9.48522 20.1551 10.6419 20.82 12C19.17 15.37 15.8 17.5 12 17.5C11.1323 17.5 10.287 17.3889 9.47945 17.1774L7.89184 18.765ZM10.4371 16.2198C10.9242 16.4009 11.4508 16.5 12 16.5C14.48 16.5 16.5 14.48 16.5 12C16.5 11.4508 16.4009 10.9242 16.2198 10.4371L10.4371 16.2198ZM13.3064 7.69359C12.8927 7.56772 12.4541 7.5 12 7.5C9.52 7.5 7.5 9.52 7.5 12C7.5 12.4541 7.56772 12.8927 7.69359 13.3064L9.56396 11.436C9.77805 10.5086 10.5086 9.77805 11.436 9.56396L13.3064 7.69359ZM14.2445 6.75545C13.5206 6.58763 12.7687 6.5 12 6.5C8.21 6.5 4.83 8.63 3.18 12C3.80796 13.2826 4.68506 14.3855 5.74018 15.2598L4.33131 16.6687C2.87044 15.4192 1.71705 13.8196 1 12C2.73 7.61 7 4.5 12 4.5C13.3503 4.5 14.6474 4.72683 15.8556 5.14443L14.2445 6.75545Z" fill="#040F0F"/>
<line y1="-1" x2="25.4558" y2="-1" transform="matrix(-0.707107 0.707107 0.707107 0.707107 22 5)" stroke="#040F0F" stroke-width="2"/>
</svg>
