<svg width="20" height="20" viewBox="0 0 20 20"  xmlns="http://www.w3.org/2000/svg">
<path fill-rule="evenodd" clip-rule="evenodd" d="M5.3735 1.45801C4.62478 1.45799 4.00041 1.45797 3.50477 1.5246C2.9816 1.59494 2.50927 1.74967 2.12971 2.12922C1.75015 2.50878 1.59543 2.98112 1.52509 3.50428C1.45845 3.99992 1.45847 4.62427 1.4585 5.37299V5.45968C1.45847 6.2084 1.45845 6.83276 1.52509 7.32841C1.59543 7.85157 1.75015 8.32391 2.12971 8.70346C2.50927 9.08302 2.9816 9.23775 3.50477 9.30808C4.00041 9.37472 4.62475 9.3747 5.37348 9.37468H5.46016C6.20888 9.3747 6.83325 9.37472 7.3289 9.30808C7.85206 9.23775 8.32439 9.08302 8.70395 8.70346C9.08351 8.32391 9.23824 7.85157 9.30857 7.32841C9.37521 6.83276 9.37519 6.20842 9.37517 5.4597V5.37302C9.37519 4.62429 9.37521 3.99992 9.30857 3.50428C9.23824 2.98112 9.08351 2.50878 8.70395 2.12922C8.32439 1.74967 7.85206 1.59494 7.3289 1.5246C6.83325 1.45797 6.20891 1.45799 5.46019 1.45801H5.3735ZM3.0136 3.01311C3.12219 2.90451 3.28677 2.81516 3.67133 2.76346C4.07386 2.70934 4.61349 2.70801 5.41683 2.70801C6.22018 2.70801 6.75981 2.70934 7.16234 2.76346C7.54689 2.81516 7.71147 2.90451 7.82007 3.01311C7.92867 3.1217 8.01802 3.28629 8.06972 3.67084C8.12384 4.07337 8.12517 4.613 8.12517 5.41634C8.12517 6.21969 8.12384 6.75932 8.06972 7.16185C8.01802 7.5464 7.92867 7.71098 7.82007 7.81958C7.71147 7.92818 7.54689 8.01753 7.16234 8.06923C6.75981 8.12335 6.22018 8.12468 5.41683 8.12468C4.61349 8.12468 4.07386 8.12335 3.67133 8.06923C3.28677 8.01753 3.12219 7.92818 3.0136 7.81958C2.905 7.71098 2.81565 7.5464 2.76395 7.16185C2.70983 6.75932 2.7085 6.21969 2.7085 5.41634C2.7085 4.613 2.70983 4.07337 2.76395 3.67084C2.81565 3.28629 2.905 3.1217 3.0136 3.01311Z" />
<path fill-rule="evenodd" clip-rule="evenodd" d="M14.5402 10.6247C13.7914 10.6247 13.1671 10.6246 12.6714 10.6913C12.1483 10.7616 11.6759 10.9163 11.2964 11.2959C10.9168 11.6755 10.7621 12.1478 10.6918 12.6709C10.6251 13.1666 10.6251 13.7909 10.6252 14.5397V14.6263C10.6251 15.3751 10.6251 15.9994 10.6918 16.4951C10.7621 17.0182 10.9168 17.4906 11.2964 17.8701C11.6759 18.2497 12.1483 18.4044 12.6714 18.4748C13.1671 18.5414 13.7914 18.5414 14.5401 18.5413H14.6268C15.3755 18.5414 15.9999 18.5414 16.4956 18.4748C17.0187 18.4044 17.4911 18.2497 17.8706 17.8701C18.2502 17.4906 18.4049 17.0182 18.4752 16.4951C18.5419 15.9994 18.5419 15.3751 18.5418 14.6264V14.5397C18.5419 13.791 18.5419 13.1666 18.4752 12.6709C18.4049 12.1478 18.2502 11.6755 17.8706 11.2959C17.4911 10.9163 17.0187 10.7616 16.4956 10.6913C15.9999 10.6246 15.3756 10.6247 14.6268 10.6247H14.5402ZM12.1803 12.1798C12.2889 12.0712 12.4534 11.9818 12.838 11.9301C13.2405 11.876 13.7802 11.8747 14.5835 11.8747C15.3868 11.8747 15.9265 11.876 16.329 11.9301C16.7136 11.9818 16.8781 12.0712 16.9867 12.1798C17.0953 12.2884 17.1847 12.453 17.2364 12.8375C17.2905 13.24 17.2918 13.7797 17.2918 14.583C17.2918 15.3864 17.2905 15.926 17.2364 16.3285C17.1847 16.7131 17.0953 16.8777 16.9867 16.9862C16.8781 17.0948 16.7136 17.1842 16.329 17.2359C15.9265 17.29 15.3868 17.2913 14.5835 17.2913C13.7802 17.2913 13.2405 17.29 12.838 17.2359C12.4534 17.1842 12.2889 17.0948 12.1803 16.9862C12.0717 16.8777 11.9823 16.7131 11.9306 16.3285C11.8765 15.926 11.8752 15.3864 11.8752 14.583C11.8752 13.7797 11.8765 13.24 11.9306 12.8375C11.9823 12.453 12.0717 12.2884 12.1803 12.1798Z" />
<path fill-rule="evenodd" clip-rule="evenodd" d="M5.3735 10.6247H5.46017C6.2089 10.6247 6.83325 10.6246 7.3289 10.6913C7.85206 10.7616 8.32439 10.9163 8.70395 11.2959C9.08351 11.6755 9.23824 12.1478 9.30857 12.6709C9.37521 13.1666 9.37519 13.7909 9.37517 14.5397V14.6263C9.37519 15.3751 9.37521 15.9994 9.30857 16.4951C9.23824 17.0182 9.08351 17.4906 8.70395 17.8701C8.32439 18.2497 7.85206 18.4044 7.3289 18.4748C6.83326 18.5414 6.20892 18.5414 5.46021 18.5413H5.3735C4.62479 18.5414 4.00041 18.5414 3.50477 18.4748C2.9816 18.4044 2.50927 18.2497 2.12971 17.8701C1.75015 17.4906 1.59543 17.0182 1.52509 16.4951C1.45845 15.9994 1.45847 15.3751 1.4585 14.6264V14.5397C1.45847 13.791 1.45845 13.1666 1.52509 12.6709C1.59543 12.1478 1.75015 11.6755 2.12971 11.2959C2.50927 10.9163 2.9816 10.7616 3.50477 10.6913C4.00042 10.6246 4.62477 10.6247 5.3735 10.6247ZM3.67133 11.9301C3.28677 11.9818 3.12219 12.0712 3.0136 12.1798C2.905 12.2884 2.81565 12.453 2.76395 12.8375C2.70983 13.24 2.7085 13.7797 2.7085 14.583C2.7085 15.3864 2.70983 15.926 2.76395 16.3285C2.81565 16.7131 2.905 16.8777 3.0136 16.9862C3.12219 17.0948 3.28677 17.1842 3.67133 17.2359C4.07386 17.29 4.61349 17.2913 5.41683 17.2913C6.22018 17.2913 6.75981 17.29 7.16234 17.2359C7.54689 17.1842 7.71147 17.0948 7.82007 16.9862C7.92867 16.8777 8.01802 16.7131 8.06972 16.3285C8.12384 15.926 8.12517 15.3864 8.12517 14.583C8.12517 13.7797 8.12384 13.24 8.06972 12.8375C8.01802 12.453 7.92867 12.2884 7.82007 12.1798C7.71147 12.0712 7.54689 11.9818 7.16234 11.9301C6.75981 11.876 6.22018 11.8747 5.41683 11.8747C4.61349 11.8747 4.07386 11.876 3.67133 11.9301Z" />
<path fill-rule="evenodd" clip-rule="evenodd" d="M14.5402 1.45801C13.7914 1.45799 13.1671 1.45797 12.6714 1.5246C12.1483 1.59494 11.6759 1.74967 11.2964 2.12922C10.9168 2.50878 10.7621 2.98112 10.6918 3.50428C10.6251 3.99993 10.6251 4.62428 10.6252 5.37301V5.45968C10.6251 6.20841 10.6251 6.83276 10.6918 7.32841C10.7621 7.85157 10.9168 8.32391 11.2964 8.70346C11.6759 9.08302 12.1483 9.23775 12.6714 9.30808C13.1671 9.37472 13.7914 9.3747 14.5401 9.37468H14.6268C15.3756 9.3747 15.9999 9.37472 16.4956 9.30808C17.0187 9.23775 17.4911 9.08302 17.8706 8.70346C18.2502 8.32391 18.4049 7.85157 18.4752 7.32841C18.5419 6.83276 18.5419 6.20842 18.5418 5.4597V5.37302C18.5419 4.62429 18.5419 3.99992 18.4752 3.50428C18.4049 2.98112 18.2502 2.50878 17.8706 2.12922C17.4911 1.74967 17.0187 1.59494 16.4956 1.5246C15.9999 1.45797 15.3756 1.45799 14.6269 1.45801H14.5402ZM12.1803 3.01311C12.2889 2.90451 12.4534 2.81516 12.838 2.76346C13.2405 2.70934 13.7802 2.70801 14.5835 2.70801C15.3868 2.70801 15.9265 2.70934 16.329 2.76346C16.7136 2.81516 16.8781 2.90451 16.9867 3.01311C17.0953 3.1217 17.1847 3.28629 17.2364 3.67084C17.2905 4.07337 17.2918 4.613 17.2918 5.41634C17.2918 6.21969 17.2905 6.75932 17.2364 7.16185C17.1847 7.5464 17.0953 7.71098 16.9867 7.81958C16.8781 7.92818 16.7136 8.01753 16.329 8.06923C15.9265 8.12335 15.3868 8.12468 14.5835 8.12468C13.7802 8.12468 13.2405 8.12335 12.838 8.06923C12.4534 8.01753 12.2889 7.92818 12.1803 7.81958C12.0717 7.71098 11.9823 7.5464 11.9306 7.16185C11.8765 6.75932 11.8752 6.21969 11.8752 5.41634C11.8752 4.613 11.8765 4.07337 11.9306 3.67084C11.9823 3.28629 12.0717 3.1217 12.1803 3.01311Z" />
</svg>
