<svg width="99" height="30" viewBox="0 0 99 30" fill="none" xmlns="http://www.w3.org/2000/svg">
<rect width="99" height="30" rx="5" fill="#4BB1DF"/>
<path d="M70.0795 13.3038C70.7514 13.2933 71.2206 13.083 71.3379 12.4625C71.4019 12.0944 71.1886 11.8526 70.7514 11.8315C70.7514 11.8315 69.5037 11.7684 68.0747 11.7053C68.0747 11.7053 65.9419 11.6212 65.3447 11.6107C64.8115 11.6002 64.2996 11.5897 63.937 11.6002C63.6065 11.6107 63.4465 11.779 63.3718 12.0419C63.3079 12.3153 63.2439 12.7044 63.2225 13.104C63.2012 13.409 63.5425 13.5562 63.8837 13.5352C63.8837 13.5352 64.3103 13.5141 64.9715 13.4826C65.7286 13.451 67.7761 13.3669 67.7761 13.3669C68.5119 13.3459 69.3117 13.3248 70.0795 13.3038Z" fill="white"/>
<path d="M68.0749 11.7054C68.0749 11.7054 68.3628 10.1384 68.5121 9.49695C68.5868 9.18147 68.4162 8.8765 68.0109 8.77134C67.6163 8.67669 66.6992 8.66617 66.39 8.70824C66.134 8.73979 65.8888 8.88701 65.8248 9.14992C65.6755 9.80192 65.5262 10.5906 65.3449 11.6107C65.2489 12.0734 65.0676 12.9147 64.9823 13.4931C64.8544 14.0715 64.6197 15.6069 64.5238 16.5638C64.3958 17.7101 64.3318 18.3832 64.4065 19.3717C64.6411 21.1489 65.5795 21.843 67.1045 21.843C68.5121 21.843 69.8558 20.9701 70.8156 19.3822C71.0075 19.0667 71.1462 18.7933 71.0288 18.6566C70.7516 18.3411 70.2184 18.1833 70.0798 18.4357C69.4506 19.5715 68.7681 20.0342 68.0322 20.0342C67.4457 20.0342 66.9765 19.6872 66.9765 18.6986C66.9765 17.2579 67.7976 13.3774 67.7976 13.3774C67.8936 12.9358 68.0109 12.3258 68.0749 11.7054Z" fill="white"/>
<path d="M64.9822 13.4828C64.8543 14.0612 64.609 15.5965 64.5237 16.5535C63.9265 18.5516 62.6788 20.0133 61.6017 20.0133C60.9405 20.0133 60.546 19.6242 60.546 18.4569C60.546 16.8375 60.9192 14.7868 61.4738 12.7361C61.847 10.8537 62.2416 9.01339 62.3375 8.01435C62.3695 7.66731 62.5935 7.18357 62.1669 7.09944C61.3991 6.95221 60.6739 6.97324 60.1621 7.13099C59.7035 7.2677 59.6182 7.74093 59.5542 7.99331C59.2876 9.20268 58.8611 11.348 58.5625 13.2304C58.4665 13.8719 58.3065 14.6606 58.1679 15.4388C58.1679 15.4388 57.7413 17.5841 57.7413 18.846C57.7413 20.76 58.5731 21.8221 60.5247 21.8221C62.1349 21.8221 63.5319 20.7074 64.4064 19.3508C65.2275 17.9942 66.4859 13.4302 66.4859 13.4302C67.211 13.4197 64.3211 13.5143 64.9822 13.4828Z" fill="white"/>
<path d="M66.8592 11.6951C66.8592 11.6951 66.9232 10.1281 67.0725 9.49717C67.1471 9.18169 66.6885 8.67691 66.3793 8.70846C66.1233 8.74001 65.8781 8.88723 65.8141 9.15014C65.6648 9.80214 65.3342 11.6109 65.3342 11.6109L64.9716 13.4933C64.9716 13.4933 64.5984 15.6071 64.5131 16.5641C63.9159 18.5621 62.6682 20.0239 61.5911 20.0239C60.9299 20.0239 60.5354 19.6348 60.5354 18.4675C60.5354 16.848 57.7307 17.6052 57.7307 18.8566C57.7307 20.7706 58.5625 21.8327 60.514 21.8327C62.1243 21.8327 63.5213 20.718 64.3958 19.3614C65.7394 16.869 66.5073 13.5775 66.5073 13.5775L66.8592 11.6951Z" fill="white"/>
<path d="M60.5993 12.042C61.3778 10.2017 60.6633 6.99424 60.1621 7.15198C59.7035 7.28869 60.0661 10.3068 60.0128 10.5592C59.7462 11.7686 59.5755 11.8632 58.5625 13.2514C57.8906 14.0506 57.1228 14.608 56.291 14.7552C53.9556 14.9971 53.6037 13.9349 54.4781 12.4522C55.8431 10.1281 54.0409 10.9378 53.1451 12.4627C52.8785 12.9254 52.8039 13.4617 52.7825 13.9875C52.7612 14.65 52.8678 15.4808 53.7423 16.1013C54.6914 16.7638 55.4485 16.6376 56.1524 16.5009C56.9202 16.3432 57.5814 15.9856 58.1572 15.4703C58.1679 15.4598 60.0554 14.0927 60.5993 12.042Z" fill="white"/>
<path d="M61.4738 12.7573C62.2523 10.917 62.7002 8.86632 62.7002 7.9409C62.7002 7.59386 62.5936 7.20476 62.167 7.12063C61.3992 6.9734 60.674 6.99444 60.1621 7.15218C59.7036 7.28889 60.2688 8.06709 60.2155 8.31948C59.9489 9.52884 60.9193 14.808 61.4738 12.7573Z" fill="white"/>
<path d="M51.1082 20.2974C50.287 20.2974 49.7432 19.6033 49.7432 18.2257C49.7432 15.5756 50.7029 12.7362 52.4092 12.7362C52.6011 12.7362 52.7718 12.7572 52.9211 12.8203C53.4649 13.0096 53.8275 14.85 53.6462 16.0383C53.2836 18.3624 52.2386 20.2974 51.1082 20.2974ZM56.2909 14.7553C56.1629 12.263 54.6913 11.1903 52.6651 11.1903C49.114 11.1903 46.8425 14.3136 46.8425 17.8155C46.8425 20.6549 48.4102 21.8433 50.7029 21.8433C53.4009 21.8433 55.4165 19.9503 56.1629 16.4905C56.2696 15.87 56.2909 15.4389 56.2909 14.7553Z" fill="white"/>
<path d="M45.5283 7.0195C45.0591 7.0195 44.6325 7.04053 44.4299 7.06156C44.014 7.10363 43.8754 7.49273 43.9073 7.87131C44.3446 13.3923 43.1075 19.8177 41.7105 19.8177C40.6655 19.8177 40.3775 16.8206 40.3775 14.1495C40.3775 12.5721 40.4735 11.0472 40.5055 9.71165C40.5162 9.21739 40.3349 9.12274 39.9723 9.08068C39.4178 9.01758 39.0232 9.01758 38.4687 9.13326C38.0528 9.2279 37.9461 9.56442 37.5089 10.595C35.3121 15.748 33.19 19.8913 33.19 19.8913C32.6248 15.7374 33.3499 11.7097 33.9578 8.7757C34.0431 8.37609 33.8511 8.13422 33.5099 8.13422C32.87 8.14473 31.8996 8.16577 31.4624 8.4497C31.0465 8.71261 30.8972 8.99655 30.7799 9.58545C30.0974 12.9506 29.6601 17.1676 30.3426 20.4382C30.4919 21.1428 30.6519 21.311 30.9612 21.4898C31.2598 21.6791 32.5608 21.8368 33.062 21.8368C33.6378 21.8368 34.1604 21.6896 34.5869 20.9535C35.5041 19.3971 36.2505 17.8407 37.6369 14.8436C37.7755 18.7451 38.3407 21.8053 41.124 21.8053C44.8138 21.8053 47.1919 12.7298 47.1919 8.35506C47.1919 7.20879 46.6054 7.0195 45.5283 7.0195Z" fill="white"/>
</svg>
