<svg width="25" height="24" viewBox="0 0 25 24" fill="none" xmlns="http://www.w3.org/2000/svg">
<path d="M17.2001 14C17.0001 13.9 15.7001 13.3 15.5001 13.2C15.3001 13.1 15.1001 13.1 14.9001 13.3C14.7001 13.5 14.3001 14.1 14.1001 14.3C14.0001 14.5 13.8001 14.5 13.6001 14.4C12.9001 14.1 12.2001 13.7 11.6001 13.2C11.1001 12.7 10.6001 12.1 10.2001 11.5C10.1001 11.3 10.2001 11.1 10.3001 11C10.4001 10.9 10.5001 10.7 10.7001 10.6C10.8001 10.5 10.9001 10.3 10.9001 10.2C11.0001 10.1 11.0001 9.89998 10.9001 9.79998C10.8001 9.69998 10.3001 8.49998 10.1001 7.99998C10.0001 7.29998 9.8001 7.29998 9.6001 7.29998C9.5001 7.29998 9.3001 7.29998 9.1001 7.29998C8.9001 7.29998 8.6001 7.49998 8.5001 7.59998C7.9001 8.19998 7.6001 8.89998 7.6001 9.69998C7.7001 10.6 8.0001 11.5 8.6001 12.3C9.7001 13.9 11.1001 15.2 12.8001 16C13.3001 16.2 13.7001 16.4 14.2001 16.5C14.7001 16.7 15.2001 16.7 15.8001 16.6C16.5001 16.5 17.1001 16 17.5001 15.4C17.7001 15 17.7001 14.6 17.6001 14.2C17.6001 14.2 17.4001 14.1 17.2001 14ZM19.7001 4.89998C15.8001 0.999976 9.5001 0.999976 5.6001 4.89998C2.4001 8.09998 1.8001 13 4.0001 16.9L2.6001 22L7.9001 20.6C9.4001 21.4 11.0001 21.8 12.6001 21.8C18.1001 21.8 22.5001 17.4 22.5001 11.9C22.6001 9.29997 21.5001 6.79998 19.7001 4.89998ZM17.0001 18.9C15.7001 19.7 14.2001 20.2 12.6001 20.2C11.1001 20.2 9.7001 19.8 8.4001 19.1L8.1001 18.9L5.0001 19.7L5.8001 16.7L5.6001 16.4C3.2001 12.4 4.4001 7.39998 8.3001 4.89998C12.2001 2.39998 17.2001 3.69998 19.6001 7.49998C22.0001 11.4 20.9001 16.5 17.0001 18.9Z" fill="#2D2D2D"/>
</svg>
