<svg width="69" height="12" viewBox="0 0 69 12" fill="none" xmlns="http://www.w3.org/2000/svg">
<g id="Logos" clip-path="url(#clip0_3025_36234)">
<path id="Vector" d="M14.4483 3.83123C14.4076 3.81376 13.4161 3.38873 7.54532 0.87155C7.42854 0.821463 7.29623 0.821463 7.17946 0.87155L0.276466 3.83123C-0.0939365 3.98972 -0.0903699 4.50994 0.276466 4.66677C1.61749 5.24167 3.80979 6.18174 7.17946 7.62646C7.29554 7.67626 7.42785 7.67686 7.54532 7.62646C7.8653 7.48926 12.2253 5.61988 12.4246 5.53448V10.3833C12.4246 10.6285 12.6151 10.8395 12.8628 10.8509C13.127 10.8631 13.345 10.6549 13.345 10.396V5.36933C13.345 5.29779 13.2914 5.23737 13.2197 5.22824C12.3559 5.1181 8.28232 4.59787 7.30343 4.47297C7.02029 4.43797 6.84385 4.15429 6.91829 3.90181C6.97668 3.68858 7.1813 3.55274 7.38857 3.56685C7.40921 3.56805 13.9675 4.40541 13.9627 4.40482C14.0853 4.42041 14.1859 4.49804 14.2343 4.60331C14.2682 4.67691 14.3543 4.71063 14.4283 4.67631C14.5521 4.61888 14.6595 4.5433 14.7084 4.37223C14.7712 4.15057 14.6576 3.92076 14.4483 3.83123Z" fill="#3B82F6"/>
<path id="Vector_2" d="M6.82308 8.43879L3.03738 6.79503C2.94404 6.75451 2.83984 6.82307 2.83984 6.92499V8.55096C2.83984 10.0757 4.82652 11.2702 7.36271 11.2702C9.89891 11.2702 11.8856 10.0757 11.8856 8.55096V6.92499C11.8856 6.82307 11.7813 6.75453 11.688 6.79503L7.90207 8.43879C7.55833 8.58851 7.16715 8.58841 6.82308 8.43879Z" fill="#22C55E"/>
<path id="Vector_3" d="M23.75 8.97392V2.26227H26.3653C26.8769 2.26227 27.3414 2.34575 27.7587 2.5127C28.1828 2.67298 28.5463 2.90338 28.8493 3.2039C29.1522 3.49775 29.3878 3.85169 29.5561 4.26575C29.7244 4.67312 29.8085 5.1239 29.8085 5.61809C29.8085 6.11229 29.7244 6.56641 29.5561 6.98046C29.3878 7.39451 29.1522 7.74846 28.8493 8.0423C28.5463 8.33615 28.1828 8.56655 27.7587 8.7335C27.3414 8.89378 26.8769 8.97392 26.3653 8.97392H23.75ZM25.0728 7.70171H26.3653C26.6749 7.70171 26.9543 7.65496 27.2034 7.56147C27.4524 7.46129 27.6679 7.32105 27.8496 7.14074C28.0314 6.95375 28.1694 6.73336 28.2636 6.47959C28.3646 6.21914 28.4151 5.93197 28.4151 5.61809C28.4151 5.30422 28.3646 5.02039 28.2636 4.76662C28.1694 4.50616 28.0314 4.28578 27.8496 4.10547C27.6679 3.91848 27.4524 3.77823 27.2034 3.68474C26.9543 3.58456 26.6749 3.53448 26.3653 3.53448H25.0728V7.70171ZM30.856 3.74484H32.1282V8.97392H30.856V3.74484ZM30.7146 2.29232C30.7146 2.18547 30.7348 2.08863 30.7752 2.00182C30.8156 1.90832 30.8694 1.82818 30.9367 1.7614C31.0108 1.69462 31.0949 1.64119 31.1892 1.60112C31.2834 1.56105 31.3844 1.54102 31.4921 1.54102C31.5998 1.54102 31.7008 1.56105 31.795 1.60112C31.8893 1.64119 31.97 1.69462 32.0374 1.7614C32.1114 1.82818 32.1686 1.90832 32.209 2.00182C32.2494 2.08863 32.2696 2.18547 32.2696 2.29232C32.2696 2.49935 32.1956 2.67632 32.0475 2.82324C31.8994 2.97016 31.7142 3.04362 31.4921 3.04362C31.27 3.04362 31.0848 2.97016 30.9367 2.82324C30.7886 2.67632 30.7146 2.49935 30.7146 2.29232ZM33.4198 10.9874V3.74484H34.6921V4.42602C34.8604 4.17893 35.0758 3.9886 35.3383 3.85503C35.6076 3.71479 35.9442 3.64467 36.3481 3.64467C36.7183 3.64467 37.0583 3.71479 37.3679 3.85503C37.6843 3.9886 37.9536 4.17893 38.1757 4.42602C38.4046 4.66644 38.583 4.95361 38.7109 5.28752C38.8388 5.61475 38.9028 5.97204 38.9028 6.35938C38.9028 6.74672 38.8388 7.10401 38.7109 7.43124C38.583 7.75848 38.408 8.04564 38.1858 8.29274C37.9637 8.53315 37.6944 8.72349 37.378 8.86373C37.0616 8.99729 36.7183 9.06408 36.3481 9.06408C35.9442 9.06408 35.6076 8.99729 35.3383 8.86373C35.0758 8.72349 34.8604 8.52982 34.6921 8.28272V10.9874H33.4198ZM34.6921 6.11896V6.5998C34.7123 6.77343 34.7594 6.93371 34.8334 7.08063C34.9142 7.22756 35.0186 7.35778 35.1465 7.47131C35.2744 7.57816 35.4191 7.66498 35.5807 7.73176C35.749 7.79187 35.9307 7.82192 36.1259 7.82192C36.3548 7.82192 36.5568 7.78185 36.7318 7.70171C36.9135 7.62157 37.065 7.51806 37.1862 7.39117C37.3141 7.25761 37.4117 7.10401 37.479 6.93037C37.5463 6.75006 37.58 6.56307 37.58 6.3694C37.58 6.16905 37.5463 5.97872 37.479 5.79841C37.4117 5.61809 37.3141 5.46115 37.1862 5.32759C37.065 5.19402 36.9135 5.08717 36.7318 5.00703C36.5568 4.92689 36.3548 4.88682 36.1259 4.88682C35.9307 4.88682 35.749 4.92022 35.5807 4.987C35.4124 5.0471 35.2643 5.13392 35.1364 5.24745C35.0152 5.36098 34.9176 5.49121 34.8435 5.63813C34.7695 5.78505 34.719 5.94533 34.6921 6.11896ZM39.8688 1.7614H41.1411V8.97392H39.8688V1.7614ZM42.1095 6.35938C42.1095 5.96536 42.1802 5.60474 42.3215 5.2775C42.4629 4.94359 42.6547 4.65642 42.8971 4.41601C43.1462 4.17559 43.439 3.9886 43.7756 3.85503C44.1122 3.71479 44.4757 3.64467 44.8661 3.64467C45.2565 3.64467 45.6201 3.71479 45.9566 3.85503C46.2932 3.9886 46.5861 4.17559 46.8351 4.41601C47.0842 4.65642 47.2794 4.94359 47.4208 5.2775C47.5622 5.60474 47.6328 5.96536 47.6328 6.35938C47.6328 6.74004 47.5622 7.09733 47.4208 7.43124C47.2794 7.75848 47.0842 8.0423 46.8351 8.28272C46.5861 8.52314 46.2932 8.71347 45.9566 8.85371C45.6201 8.99395 45.2565 9.06408 44.8661 9.06408C44.4757 9.06408 44.1122 8.99729 43.7756 8.86373C43.439 8.72349 43.1462 8.53315 42.8971 8.29274C42.6547 8.04564 42.4629 7.75848 42.3215 7.43124C42.1802 7.10401 42.1095 6.74672 42.1095 6.35938ZM43.4424 6.35938C43.4424 6.55305 43.476 6.74004 43.5433 6.92035C43.6106 7.09399 43.7049 7.24759 43.8261 7.38116C43.954 7.51472 44.1054 7.62157 44.2805 7.70171C44.4622 7.78185 44.6608 7.82192 44.8762 7.82192C45.0916 7.82192 45.2868 7.78185 45.4619 7.70171C45.6369 7.62157 45.785 7.51472 45.9062 7.38116C46.0273 7.24759 46.1216 7.09399 46.1889 6.92035C46.2629 6.74004 46.3 6.55305 46.3 6.35938C46.3 6.16571 46.2663 5.97872 46.199 5.79841C46.1317 5.61809 46.0341 5.46115 45.9062 5.32759C45.785 5.19402 45.6369 5.08717 45.4619 5.00703C45.2868 4.92689 45.0916 4.88682 44.8762 4.88682C44.6608 4.88682 44.4622 4.92689 44.2805 5.00703C44.1054 5.08717 43.954 5.19402 43.8261 5.32759C43.7049 5.46115 43.6106 5.61809 43.5433 5.79841C43.476 5.97872 43.4424 6.16571 43.4424 6.35938ZM48.6056 3.74484H49.8779V4.5262C50.0596 4.25239 50.2851 4.03869 50.5544 3.88509C50.8304 3.72481 51.1434 3.64467 51.4935 3.64467C51.682 3.64467 51.857 3.67138 52.0186 3.72481C52.1801 3.77155 52.3248 3.84168 52.4527 3.93517C52.5806 4.02867 52.6951 4.13886 52.7961 4.26575C52.897 4.39263 52.9778 4.53622 53.0384 4.69649C53.2269 4.36926 53.4692 4.11215 53.7654 3.92515C54.0684 3.73816 54.415 3.64467 54.8055 3.64467C55.068 3.64467 55.3036 3.69142 55.5123 3.78491C55.7277 3.87841 55.9095 4.01197 56.0576 4.18561C56.2057 4.35256 56.3167 4.55625 56.3908 4.79667C56.4716 5.03041 56.512 5.28418 56.512 5.55799V8.97392H55.2397V5.9687C55.2397 5.79507 55.2161 5.64147 55.169 5.5079C55.1286 5.37434 55.068 5.26081 54.9872 5.16731C54.9064 5.07382 54.8088 5.00369 54.6944 4.95695C54.5867 4.9102 54.4689 4.88682 54.341 4.88682C54.1727 4.88682 54.0212 4.93023 53.8866 5.01705C53.752 5.09719 53.6342 5.20404 53.5332 5.33761C53.4322 5.47117 53.3514 5.62477 53.2908 5.79841C53.2303 5.97204 53.2 6.15235 53.2 6.33935V8.97392H51.9277V5.9687C51.9277 5.79507 51.9041 5.64147 51.857 5.5079C51.8099 5.37434 51.7459 5.26081 51.6651 5.16731C51.5844 5.07382 51.4867 5.00369 51.3723 4.95695C51.2646 4.9102 51.1468 4.88682 51.0189 4.88682C50.8573 4.88682 50.7059 4.93023 50.5645 5.01705C50.4299 5.09719 50.3121 5.20404 50.2111 5.33761C50.1101 5.47117 50.0293 5.62477 49.9687 5.79841C49.9149 5.97204 49.8846 6.15235 49.8779 6.33935V8.97392H48.6056V3.74484ZM62.9657 8.97392H61.6934V8.28272C61.5251 8.52982 61.3063 8.72349 61.037 8.86373C60.7745 8.99729 60.4413 9.06408 60.0374 9.06408C59.6671 9.06408 59.3238 8.99729 59.0074 8.86373C58.6978 8.72349 58.4285 8.53315 58.1996 8.29274C57.9775 8.04564 57.8024 7.75848 57.6745 7.43124C57.5466 7.10401 57.4827 6.74672 57.4827 6.35938C57.4827 5.97204 57.5466 5.61475 57.6745 5.28752C57.8024 4.95361 57.9775 4.66644 58.1996 4.42602C58.4285 4.17893 58.6978 3.9886 59.0074 3.85503C59.3238 3.71479 59.6705 3.64467 60.0475 3.64467C60.4446 3.64467 60.7745 3.71479 61.037 3.85503C61.3063 3.9886 61.5251 4.17893 61.6934 4.42602V3.74484H62.9657V8.97392ZM61.6934 6.11896C61.6732 5.94533 61.6227 5.78505 61.5419 5.63813C61.4679 5.49121 61.3669 5.36098 61.239 5.24745C61.1178 5.13392 60.9731 5.0471 60.8048 4.987C60.6365 4.92022 60.4547 4.88682 60.2595 4.88682C60.0374 4.88682 59.8354 4.92689 59.6537 5.00703C59.4719 5.08717 59.3171 5.19402 59.1892 5.32759C59.068 5.46115 58.9738 5.61809 58.9065 5.79841C58.8391 5.97872 58.8055 6.16905 58.8055 6.3694C58.8055 6.56307 58.8391 6.75006 58.9065 6.93037C58.9738 7.10401 59.068 7.25761 59.1892 7.39117C59.3171 7.51806 59.4719 7.62157 59.6537 7.70171C59.8354 7.78185 60.0374 7.82192 60.2595 7.82192C60.4547 7.82192 60.6365 7.79187 60.8048 7.73176C60.9731 7.66498 61.1178 7.57816 61.239 7.47131C61.3669 7.35778 61.4679 7.22756 61.5419 7.08063C61.6227 6.93371 61.6732 6.77343 61.6934 6.5998V6.11896ZM64.1235 5.24745C64.1235 4.7399 64.312 4.34589 64.689 4.0654C65.066 3.78491 65.591 3.64467 66.2642 3.64467C66.9441 3.64467 67.4692 3.79159 67.8394 4.08543C68.2164 4.3726 68.4083 4.77329 68.415 5.28752H67.1225C67.1158 5.08717 67.035 4.93023 66.8802 4.8167C66.7321 4.70317 66.5301 4.64641 66.2743 4.64641C65.9983 4.64641 65.7829 4.69649 65.6281 4.79667C65.48 4.89016 65.4059 5.02707 65.4059 5.20738C65.4059 5.39437 65.4833 5.53462 65.6382 5.62811C65.7997 5.71493 65.9949 5.78505 66.2238 5.83848C66.4527 5.8919 66.7018 5.94533 66.971 5.99875C67.247 6.0455 67.4995 6.1223 67.7284 6.22916C67.9572 6.32933 68.1491 6.47625 68.3039 6.66992C68.4587 6.85691 68.5362 7.11736 68.5362 7.45128C68.5362 7.93879 68.3477 8.32947 67.9707 8.62331C67.6005 8.91048 67.0485 9.05406 66.3147 9.05406C65.9445 9.05406 65.6146 9.01399 65.3251 8.93385C65.0357 8.85371 64.7933 8.74352 64.5981 8.60328C64.4096 8.45635 64.2649 8.28272 64.1639 8.08237C64.0629 7.87535 64.0125 7.64495 64.0125 7.39117H65.3049C65.3386 7.61156 65.4396 7.77851 65.6079 7.89204C65.7762 7.99889 66.0185 8.05232 66.3349 8.05232C66.6378 8.05232 66.8633 8.00557 67.0114 7.91208C67.1595 7.81858 67.2336 7.68502 67.2336 7.51138C67.2336 7.32439 67.1562 7.19082 67.0013 7.11068C66.8532 7.02387 66.6614 6.95709 66.4258 6.91034C66.1969 6.85691 65.9478 6.80682 65.6785 6.76008C65.4093 6.71333 65.1602 6.63653 64.9313 6.52968C64.7024 6.42282 64.5106 6.27256 64.3558 6.07889C64.2009 5.87855 64.1235 5.6014 64.1235 5.24745Z" fill="#3B82F6"/>
<path id="Vector_4" fill-rule="evenodd" clip-rule="evenodd" d="M22.605 6.64975H18.4751C18.5021 6.83006 18.5525 7.00036 18.6266 7.16064C18.7074 7.31424 18.8083 7.4478 18.9295 7.56133C19.0507 7.66818 19.1954 7.755 19.3637 7.82178C19.532 7.88189 19.7171 7.91194 19.9191 7.91194C20.1816 7.91194 20.4139 7.85517 20.6158 7.74164C20.8245 7.62144 20.976 7.47451 21.0702 7.30088H22.494C22.4132 7.56801 22.2954 7.81177 22.1405 8.03215C21.9924 8.24585 21.8073 8.4295 21.5852 8.5831C21.363 8.7367 21.1106 8.85691 20.8279 8.94373C20.5451 9.02387 20.2388 9.06394 19.909 9.06394C19.5185 9.06394 19.155 8.99716 18.8184 8.86359C18.4819 8.72335 18.189 8.53302 17.94 8.2926C17.6976 8.04551 17.5058 7.75834 17.3644 7.43111C17.223 7.10387 17.1523 6.74658 17.1523 6.35924C17.1523 5.96523 17.2197 5.6046 17.3543 5.27737C17.4889 4.94345 17.6774 4.65629 17.9198 4.41587C18.1621 4.17545 18.4482 3.98846 18.7781 3.8549C19.1146 3.71465 19.4781 3.64453 19.8686 3.64453C20.2388 3.64453 20.5821 3.69796 20.8985 3.80481C21.2217 3.91166 21.501 4.06526 21.7366 4.26561C21.979 4.46596 22.1742 4.70637 22.3223 4.98686C22.4704 5.26067 22.5613 5.57121 22.5949 5.91848C22.6151 6.05872 22.6219 6.18561 22.6151 6.29914C22.6151 6.40599 22.6118 6.52286 22.605 6.64975ZM21.2217 5.87841H18.5054C18.5458 5.71813 18.603 5.57455 18.6771 5.44766C18.7579 5.3141 18.8555 5.20057 18.9699 5.10707C19.0911 5.0069 19.2257 4.9301 19.3738 4.87667C19.5286 4.82324 19.6969 4.79653 19.8787 4.79653C20.0604 4.79653 20.2287 4.82324 20.3836 4.87667C20.5384 4.92342 20.673 4.99688 20.7875 5.09705C20.9086 5.19055 21.0062 5.30408 21.0803 5.43764C21.1543 5.57121 21.2015 5.71813 21.2217 5.87841Z" fill="#22C55E"/>
</g>
<defs>
<clipPath id="clip0_3025_36234">
<rect width="69" height="12" fill="white"/>
</clipPath>
</defs>
</svg>
