<svg width="216" height="144" viewBox="0 0 216 144" fill="none" xmlns="http://www.w3.org/2000/svg">
<rect width="216" height="144" rx="20" fill="#3B82F6"/>
<path d="M24.47 74.16C23.6167 74.16 22.822 74.0213 22.086 73.744C21.3607 73.456 20.726 73.056 20.182 72.544C19.6487 72.0213 19.2327 71.408 18.934 70.704C18.6353 70 18.486 69.232 18.486 68.4C18.486 67.568 18.6353 66.8 18.934 66.096C19.2327 65.392 19.654 64.784 20.198 64.272C20.742 63.7493 21.3767 63.3493 22.102 63.072C22.8273 62.784 23.622 62.64 24.486 62.64C25.4033 62.64 26.2407 62.8 26.998 63.12C27.7553 63.4293 28.3953 63.8933 28.918 64.512L27.574 65.776C27.1687 65.3387 26.7153 65.0133 26.214 64.8C25.7127 64.576 25.1687 64.464 24.582 64.464C23.9953 64.464 23.4567 64.56 22.966 64.752C22.486 64.944 22.0647 65.216 21.702 65.568C21.35 65.92 21.0727 66.336 20.87 66.816C20.678 67.296 20.582 67.824 20.582 68.4C20.582 68.976 20.678 69.504 20.87 69.984C21.0727 70.464 21.35 70.88 21.702 71.232C22.0647 71.584 22.486 71.856 22.966 72.048C23.4567 72.24 23.9953 72.336 24.582 72.336C25.1687 72.336 25.7127 72.2293 26.214 72.016C26.7153 71.792 27.1687 71.456 27.574 71.008L28.918 72.288C28.3953 72.896 27.7553 73.36 26.998 73.68C26.2407 74 25.398 74.16 24.47 74.16ZM36.7533 74L33.6653 69.904L35.2973 68.896L39.1053 74H36.7533ZM30.6253 74V65.456H32.6253V74H30.6253ZM32.0333 70.576V68.912H34.9293V70.576H32.0333ZM35.4893 69.968L33.6173 69.744L36.7533 65.456H38.8973L35.4893 69.968ZM45.5436 74V72.272L45.4316 71.904V68.88C45.4316 68.2933 45.2556 67.84 44.9036 67.52C44.5516 67.1893 44.0183 67.024 43.3036 67.024C42.8236 67.024 42.349 67.0987 41.8796 67.248C41.421 67.3973 41.0316 67.6053 40.7116 67.872L39.9276 66.416C40.3863 66.064 40.9303 65.8027 41.5596 65.632C42.1996 65.4507 42.861 65.36 43.5436 65.36C44.781 65.36 45.7356 65.6587 46.4076 66.256C47.0903 66.8427 47.4316 67.7547 47.4316 68.992V74H45.5436ZM42.8556 74.112C42.2156 74.112 41.6556 74.0053 41.1756 73.792C40.6956 73.568 40.3223 73.264 40.0556 72.88C39.7996 72.4853 39.6716 72.0427 39.6716 71.552C39.6716 71.072 39.7836 70.64 40.0076 70.256C40.2423 69.872 40.621 69.568 41.1436 69.344C41.6663 69.12 42.3596 69.008 43.2236 69.008H45.7036V70.336H43.3676C42.685 70.336 42.2263 70.448 41.9916 70.672C41.757 70.8853 41.6396 71.152 41.6396 71.472C41.6396 71.8347 41.7836 72.1227 42.0716 72.336C42.3596 72.5493 42.7596 72.656 43.2716 72.656C43.7623 72.656 44.1996 72.544 44.5836 72.32C44.9783 72.096 45.261 71.7653 45.4316 71.328L45.7676 72.528C45.5756 73.0293 45.229 73.4187 44.7276 73.696C44.237 73.9733 43.613 74.112 42.8556 74.112ZM55.2985 70.624C54.8932 70.816 54.4612 70.976 54.0025 71.104C53.5545 71.2213 53.0798 71.28 52.5785 71.28C51.5012 71.28 50.6638 71.0293 50.0665 70.528C49.4692 70.0267 49.1705 69.248 49.1705 68.192V65.456H51.1705V68.064C51.1705 68.6293 51.3305 69.04 51.6505 69.296C51.9812 69.552 52.4345 69.68 53.0105 69.68C53.3945 69.68 53.7785 69.632 54.1625 69.536C54.5465 69.44 54.9252 69.3067 55.2985 69.136V70.624ZM55.1545 74V65.456H57.1545V74H55.1545ZM65.028 74V72.272L64.916 71.904V68.88C64.916 68.2933 64.74 67.84 64.388 67.52C64.036 67.1893 63.5027 67.024 62.788 67.024C62.308 67.024 61.8333 67.0987 61.364 67.248C60.9053 67.3973 60.516 67.6053 60.196 67.872L59.412 66.416C59.8707 66.064 60.4147 65.8027 61.044 65.632C61.684 65.4507 62.3453 65.36 63.028 65.36C64.2653 65.36 65.22 65.6587 65.892 66.256C66.5747 66.8427 66.916 67.7547 66.916 68.992V74H65.028ZM62.34 74.112C61.7 74.112 61.14 74.0053 60.66 73.792C60.18 73.568 59.8067 73.264 59.54 72.88C59.284 72.4853 59.156 72.0427 59.156 71.552C59.156 71.072 59.268 70.64 59.492 70.256C59.7267 69.872 60.1053 69.568 60.628 69.344C61.1507 69.12 61.844 69.008 62.708 69.008H65.188V70.336H62.852C62.1693 70.336 61.7107 70.448 61.476 70.672C61.2413 70.8853 61.124 71.152 61.124 71.472C61.124 71.8347 61.268 72.1227 61.556 72.336C61.844 72.5493 62.244 72.656 62.756 72.656C63.2467 72.656 63.684 72.544 64.068 72.32C64.4627 72.096 64.7453 71.7653 64.916 71.328L65.252 72.528C65.06 73.0293 64.7133 73.4187 64.212 73.696C63.7213 73.9733 63.0973 74.112 62.34 74.112ZM69.3909 74V65.456H71.3909V71.088L76.1109 65.456H77.9349V74H75.9349V68.368L71.2309 74H69.3909ZM73.5349 64.448C72.6815 64.448 72.0255 64.2507 71.5669 63.856C71.1082 63.4507 70.8735 62.864 70.8629 62.096H72.1909C72.2015 62.48 72.3189 62.784 72.5429 63.008C72.7775 63.232 73.1029 63.344 73.5189 63.344C73.9242 63.344 74.2442 63.232 74.4789 63.008C74.7242 62.784 74.8522 62.48 74.8629 62.096H76.2229C76.2122 62.864 75.9722 63.4507 75.5029 63.856C75.0442 64.2507 74.3882 64.448 73.5349 64.448ZM82.4013 74V66.672L82.8653 67.152H79.3933V65.456H87.3933V67.152H83.9373L84.4013 66.672V74H82.4013ZM92.453 74.112C91.5037 74.112 90.6717 73.9253 89.957 73.552C89.253 73.168 88.7037 72.6453 88.309 71.984C87.925 71.3227 87.733 70.5707 87.733 69.728C87.733 68.8747 87.9197 68.1227 88.293 67.472C88.677 66.8107 89.1997 66.2933 89.861 65.92C90.533 65.5467 91.2957 65.36 92.149 65.36C92.981 65.36 93.7223 65.5413 94.373 65.904C95.0237 66.2667 95.5357 66.7787 95.909 67.44C96.2823 68.1013 96.469 68.88 96.469 69.776C96.469 69.8613 96.4637 69.9573 96.453 70.064C96.453 70.1707 96.4477 70.272 96.437 70.368H89.317V69.04H95.381L94.597 69.456C94.6077 68.9653 94.5063 68.5333 94.293 68.16C94.0797 67.7867 93.7863 67.4933 93.413 67.28C93.0503 67.0667 92.629 66.96 92.149 66.96C91.6583 66.96 91.2263 67.0667 90.853 67.28C90.4903 67.4933 90.2023 67.792 89.989 68.176C89.7863 68.5493 89.685 68.992 89.685 69.504V69.824C89.685 70.336 89.8023 70.7893 90.037 71.184C90.2717 71.5787 90.6023 71.8827 91.029 72.096C91.4557 72.3093 91.9463 72.416 92.501 72.416C92.981 72.416 93.413 72.3413 93.797 72.192C94.181 72.0427 94.5223 71.808 94.821 71.488L95.893 72.72C95.509 73.168 95.0237 73.5147 94.437 73.76C93.861 73.9947 93.1997 74.112 92.453 74.112ZM103.078 74V65.456H105.174L108.614 71.52H107.782L111.398 65.456H113.27L113.286 74H111.478V67.6L111.798 67.808L108.598 73.104H107.734L104.518 67.664L104.902 67.568V74H103.078ZM119.777 74.112C118.902 74.112 118.124 73.9253 117.441 73.552C116.758 73.168 116.22 72.6453 115.825 71.984C115.43 71.3227 115.233 70.5707 115.233 69.728C115.233 68.8747 115.43 68.1227 115.825 67.472C116.22 66.8107 116.758 66.2933 117.441 65.92C118.124 65.5467 118.902 65.36 119.777 65.36C120.662 65.36 121.446 65.5467 122.129 65.92C122.822 66.2933 123.361 66.8053 123.745 67.456C124.14 68.1067 124.337 68.864 124.337 69.728C124.337 70.5707 124.14 71.3227 123.745 71.984C123.361 72.6453 122.822 73.168 122.129 73.552C121.446 73.9253 120.662 74.112 119.777 74.112ZM119.777 72.4C120.268 72.4 120.705 72.2933 121.089 72.08C121.473 71.8667 121.772 71.5573 121.985 71.152C122.209 70.7467 122.321 70.272 122.321 69.728C122.321 69.1733 122.209 68.6987 121.985 68.304C121.772 67.8987 121.473 67.5893 121.089 67.376C120.705 67.1627 120.273 67.056 119.793 67.056C119.302 67.056 118.865 67.1627 118.481 67.376C118.108 67.5893 117.809 67.8987 117.585 68.304C117.361 68.6987 117.249 69.1733 117.249 69.728C117.249 70.272 117.361 70.7467 117.585 71.152C117.809 71.5573 118.108 71.8667 118.481 72.08C118.865 72.2933 119.297 72.4 119.777 72.4ZM130.393 74.16C129.689 74.16 129.059 74.0533 128.505 73.84C127.95 73.6267 127.47 73.3013 127.065 72.864C126.67 72.416 126.366 71.8507 126.153 71.168C125.939 70.4853 125.833 69.6747 125.833 68.736C125.833 68.0533 125.891 67.4293 126.009 66.864C126.126 66.2987 126.302 65.792 126.537 65.344C126.771 64.8853 127.065 64.48 127.417 64.128C127.779 63.776 128.201 63.4827 128.681 63.248C129.161 63.0133 129.705 62.832 130.313 62.704L134.281 61.856L134.569 63.648L130.969 64.384C130.766 64.4267 130.521 64.4907 130.233 64.576C129.955 64.6507 129.667 64.768 129.369 64.928C129.081 65.0773 128.809 65.296 128.553 65.584C128.307 65.8613 128.105 66.224 127.945 66.672C127.795 67.1093 127.721 67.6587 127.721 68.32C127.721 68.5227 127.726 68.6773 127.737 68.784C127.758 68.88 127.774 68.9867 127.785 69.104C127.806 69.2107 127.817 69.3707 127.817 69.584L127.065 68.8C127.278 68.256 127.571 67.792 127.945 67.408C128.329 67.0133 128.771 66.7147 129.273 66.512C129.785 66.2987 130.339 66.192 130.937 66.192C131.737 66.192 132.446 66.3573 133.065 66.688C133.683 67.0187 134.169 67.4827 134.521 68.08C134.873 68.6773 135.049 69.3547 135.049 70.112C135.049 70.9013 134.857 71.6 134.473 72.208C134.089 72.816 133.545 73.296 132.841 73.648C132.147 73.9893 131.331 74.16 130.393 74.16ZM130.553 72.544C131.033 72.544 131.454 72.4427 131.817 72.24C132.19 72.0267 132.478 71.7387 132.681 71.376C132.894 71.0133 133.001 70.608 133.001 70.16C133.001 69.712 132.894 69.3227 132.681 68.992C132.478 68.6507 132.19 68.3787 131.817 68.176C131.454 67.9733 131.022 67.872 130.521 67.872C130.041 67.872 129.609 67.968 129.225 68.16C128.851 68.352 128.558 68.6187 128.345 68.96C128.142 69.2907 128.041 69.6747 128.041 70.112C128.041 70.56 128.147 70.9707 128.361 71.344C128.574 71.7173 128.867 72.0107 129.241 72.224C129.625 72.4373 130.062 72.544 130.553 72.544ZM136.985 74V65.456H138.985V71.088L143.705 65.456H145.529V74H143.529V68.368L138.825 74H136.985ZM146.971 73.984L147.067 72.304C147.142 72.3147 147.211 72.3253 147.275 72.336C147.339 72.3467 147.398 72.352 147.451 72.352C147.782 72.352 148.038 72.2507 148.219 72.048C148.4 71.8453 148.534 71.5733 148.619 71.232C148.715 70.88 148.779 70.4907 148.811 70.064C148.854 69.6267 148.886 69.1893 148.907 68.752L149.051 65.456H155.963V74H153.963V66.608L154.427 67.152H150.363L150.795 66.592L150.683 68.848C150.651 69.6053 150.587 70.3093 150.491 70.96C150.406 71.6 150.267 72.16 150.075 72.64C149.894 73.12 149.638 73.4933 149.307 73.76C148.987 74.0267 148.576 74.16 148.075 74.16C147.915 74.16 147.739 74.144 147.547 74.112C147.366 74.08 147.174 74.0373 146.971 73.984ZM162.945 68.272C164.043 68.272 164.881 68.5173 165.457 69.008C166.033 69.4987 166.321 70.192 166.321 71.088C166.321 72.016 166.001 72.7413 165.361 73.264C164.721 73.776 163.819 74.0267 162.657 74.016L158.657 74V65.456H160.657V68.256L162.945 68.272ZM162.481 72.544C163.067 72.5547 163.515 72.432 163.825 72.176C164.134 71.92 164.289 71.5467 164.289 71.056C164.289 70.5653 164.134 70.2133 163.825 70C163.526 69.776 163.078 69.6587 162.481 69.648L160.657 69.632V72.528L162.481 72.544ZM168.078 74V65.456H170.078V68.928H174.382V65.456H176.382V74H174.382V70.624H170.078V74H168.078ZM182.871 74.112C181.996 74.112 181.217 73.9253 180.535 73.552C179.852 73.168 179.313 72.6453 178.919 71.984C178.524 71.3227 178.327 70.5707 178.327 69.728C178.327 68.8747 178.524 68.1227 178.919 67.472C179.313 66.8107 179.852 66.2933 180.535 65.92C181.217 65.5467 181.996 65.36 182.871 65.36C183.756 65.36 184.54 65.5467 185.223 65.92C185.916 66.2933 186.455 66.8053 186.839 67.456C187.233 68.1067 187.431 68.864 187.431 69.728C187.431 70.5707 187.233 71.3227 186.839 71.984C186.455 72.6453 185.916 73.168 185.223 73.552C184.54 73.9253 183.756 74.112 182.871 74.112ZM182.871 72.4C183.361 72.4 183.799 72.2933 184.183 72.08C184.567 71.8667 184.865 71.5573 185.079 71.152C185.303 70.7467 185.415 70.272 185.415 69.728C185.415 69.1733 185.303 68.6987 185.079 68.304C184.865 67.8987 184.567 67.5893 184.183 67.376C183.799 67.1627 183.367 67.056 182.887 67.056C182.396 67.056 181.959 67.1627 181.575 67.376C181.201 67.5893 180.903 67.8987 180.679 68.304C180.455 68.6987 180.343 69.1733 180.343 69.728C180.343 70.272 180.455 70.7467 180.679 71.152C180.903 71.5573 181.201 71.8667 181.575 72.08C181.959 72.2933 182.391 72.4 182.871 72.4ZM193.391 74.112C192.441 74.112 191.609 73.9253 190.895 73.552C190.191 73.168 189.641 72.6453 189.247 71.984C188.863 71.3227 188.671 70.5707 188.671 69.728C188.671 68.8747 188.857 68.1227 189.231 67.472C189.615 66.8107 190.137 66.2933 190.799 65.92C191.471 65.5467 192.233 65.36 193.087 65.36C193.919 65.36 194.66 65.5413 195.311 65.904C195.961 66.2667 196.473 66.7787 196.847 67.44C197.22 68.1013 197.407 68.88 197.407 69.776C197.407 69.8613 197.401 69.9573 197.391 70.064C197.391 70.1707 197.385 70.272 197.375 70.368H190.255V69.04H196.319L195.535 69.456C195.545 68.9653 195.444 68.5333 195.231 68.16C195.017 67.7867 194.724 67.4933 194.351 67.28C193.988 67.0667 193.567 66.96 193.087 66.96C192.596 66.96 192.164 67.0667 191.791 67.28C191.428 67.4933 191.14 67.792 190.927 68.176C190.724 68.5493 190.623 68.992 190.623 69.504V69.824C190.623 70.336 190.74 70.7893 190.975 71.184C191.209 71.5787 191.54 71.8827 191.967 72.096C192.393 72.3093 192.884 72.416 193.439 72.416C193.919 72.416 194.351 72.3413 194.735 72.192C195.119 72.0427 195.46 71.808 195.759 71.488L196.831 72.72C196.447 73.168 195.961 73.5147 195.375 73.76C194.799 73.9947 194.137 74.112 193.391 74.112ZM54.3128 94V85.456H62.5048V94H60.5208V86.688L60.9848 87.152H55.8488L56.3128 86.688V94H54.3128ZM69.9394 94.112C69.246 94.112 68.6114 93.952 68.0354 93.632C67.47 93.312 67.0167 92.832 66.6754 92.192C66.3447 91.5413 66.1794 90.72 66.1794 89.728C66.1794 88.7253 66.3394 87.904 66.6594 87.264C66.99 86.624 67.438 86.1493 68.0034 85.84C68.5687 85.52 69.214 85.36 69.9394 85.36C70.782 85.36 71.5234 85.5413 72.1634 85.904C72.814 86.2667 73.326 86.7733 73.6994 87.424C74.0834 88.0747 74.2754 88.8427 74.2754 89.728C74.2754 90.6133 74.0834 91.3867 73.6994 92.048C73.326 92.6987 72.814 93.2053 72.1634 93.568C71.5234 93.9307 70.782 94.112 69.9394 94.112ZM65.2034 97.104V85.456H67.1074V87.472L67.0434 89.744L67.2034 92.016V97.104H65.2034ZM69.7154 92.4C70.1954 92.4 70.622 92.2933 70.9954 92.08C71.3794 91.8667 71.6834 91.5573 71.9074 91.152C72.1314 90.7467 72.2434 90.272 72.2434 89.728C72.2434 89.1733 72.1314 88.6987 71.9074 88.304C71.6834 87.8987 71.3794 87.5893 70.9954 87.376C70.622 87.1627 70.1954 87.056 69.7154 87.056C69.2354 87.056 68.8034 87.1627 68.4194 87.376C68.0354 87.5893 67.7314 87.8987 67.5074 88.304C67.2834 88.6987 67.1714 89.1733 67.1714 89.728C67.1714 90.272 67.2834 90.7467 67.5074 91.152C67.7314 91.5573 68.0354 91.8667 68.4194 92.08C68.8034 92.2933 69.2354 92.4 69.7154 92.4ZM76.2659 94V85.456H78.2659V91.088L82.9859 85.456H84.8099V94H82.8099V88.368L78.1059 94H76.2659ZM86.2523 93.984L86.3483 92.304C86.4229 92.3147 86.4923 92.3253 86.5563 92.336C86.6203 92.3467 86.6789 92.352 86.7323 92.352C87.0629 92.352 87.3189 92.2507 87.5003 92.048C87.6816 91.8453 87.8149 91.5733 87.9003 91.232C87.9963 90.88 88.0603 90.4907 88.0923 90.064C88.1349 89.6267 88.1669 89.1893 88.1883 88.752L88.3323 85.456H95.2443V94H93.2443V86.608L93.7083 87.152H89.6443L90.0763 86.592L89.9643 88.848C89.9323 89.6053 89.8683 90.3093 89.7723 90.96C89.6869 91.6 89.5483 92.16 89.3563 92.64C89.1749 93.12 88.9189 93.4933 88.5883 93.76C88.2683 94.0267 87.8576 94.16 87.3563 94.16C87.1963 94.16 87.0203 94.144 86.8283 94.112C86.6469 94.08 86.4549 94.0373 86.2523 93.984ZM101.746 94.112C100.871 94.112 100.092 93.9253 99.4098 93.552C98.7271 93.168 98.1884 92.6453 97.7938 91.984C97.3991 91.3227 97.2018 90.5707 97.2018 89.728C97.2018 88.8747 97.3991 88.1227 97.7938 87.472C98.1884 86.8107 98.7271 86.2933 99.4098 85.92C100.092 85.5467 100.871 85.36 101.746 85.36C102.631 85.36 103.415 85.5467 104.098 85.92C104.791 86.2933 105.33 86.8053 105.714 87.456C106.108 88.1067 106.306 88.864 106.306 89.728C106.306 90.5707 106.108 91.3227 105.714 91.984C105.33 92.6453 104.791 93.168 104.098 93.552C103.415 93.9253 102.631 94.112 101.746 94.112ZM101.746 92.4C102.236 92.4 102.674 92.2933 103.058 92.08C103.442 91.8667 103.74 91.5573 103.954 91.152C104.178 90.7467 104.29 90.272 104.29 89.728C104.29 89.1733 104.178 88.6987 103.954 88.304C103.74 87.8987 103.442 87.5893 103.058 87.376C102.674 87.1627 102.242 87.056 101.762 87.056C101.271 87.056 100.834 87.1627 100.45 87.376C100.076 87.5893 99.7778 87.8987 99.5538 88.304C99.3298 88.6987 99.2178 89.1733 99.2178 89.728C99.2178 90.272 99.3298 90.7467 99.5538 91.152C99.7778 91.5573 100.076 91.8667 100.45 92.08C100.834 92.2933 101.266 92.4 101.746 92.4ZM118.192 94L115.696 89.904L117.328 88.896L120.576 94H118.192ZM114.08 90.576V88.912H116.944V90.576H114.08ZM117.52 89.968L115.632 89.744L118.224 85.456H120.352L117.52 89.968ZM109.168 94H106.8L110.032 88.896L111.664 89.904L109.168 94ZM114.672 94H112.688V85.456H114.672V94ZM113.28 90.576H110.432V88.912H113.28V90.576ZM109.84 89.968L107.008 85.456H109.136L111.712 89.744L109.84 89.968ZM125.766 94.112C124.816 94.112 123.984 93.9253 123.27 93.552C122.566 93.168 122.016 92.6453 121.622 91.984C121.238 91.3227 121.046 90.5707 121.046 89.728C121.046 88.8747 121.232 88.1227 121.606 87.472C121.99 86.8107 122.512 86.2933 123.174 85.92C123.846 85.5467 124.608 85.36 125.462 85.36C126.294 85.36 127.035 85.5413 127.686 85.904C128.336 86.2667 128.848 86.7787 129.222 87.44C129.595 88.1013 129.782 88.88 129.782 89.776C129.782 89.8613 129.776 89.9573 129.766 90.064C129.766 90.1707 129.76 90.272 129.75 90.368H122.63V89.04H128.694L127.91 89.456C127.92 88.9653 127.819 88.5333 127.606 88.16C127.392 87.7867 127.099 87.4933 126.726 87.28C126.363 87.0667 125.942 86.96 125.462 86.96C124.971 86.96 124.539 87.0667 124.166 87.28C123.803 87.4933 123.515 87.792 123.302 88.176C123.099 88.5493 122.998 88.992 122.998 89.504V89.824C122.998 90.336 123.115 90.7893 123.35 91.184C123.584 91.5787 123.915 91.8827 124.342 92.096C124.768 92.3093 125.259 92.416 125.814 92.416C126.294 92.416 126.726 92.3413 127.11 92.192C127.494 92.0427 127.835 91.808 128.134 91.488L129.206 92.72C128.822 93.168 128.336 93.5147 127.75 93.76C127.174 93.9947 126.512 94.112 125.766 94.112ZM131.969 94V85.456H133.969V88.928H138.273V85.456H140.273V94H138.273V90.624H133.969V94H131.969ZM142.953 94V85.456H144.953V91.088L149.673 85.456H151.497V94H149.497V88.368L144.793 94H142.953ZM158.172 94.112C157.222 94.112 156.39 93.9253 155.676 93.552C154.972 93.168 154.422 92.6453 154.028 91.984C153.644 91.3227 153.452 90.5707 153.452 89.728C153.452 88.8747 153.638 88.1227 154.012 87.472C154.396 86.8107 154.918 86.2933 155.58 85.92C156.252 85.5467 157.014 85.36 157.868 85.36C158.7 85.36 159.441 85.5413 160.092 85.904C160.742 86.2667 161.254 86.7787 161.628 87.44C162.001 88.1013 162.188 88.88 162.188 89.776C162.188 89.8613 162.182 89.9573 162.172 90.064C162.172 90.1707 162.166 90.272 162.156 90.368H155.036V89.04H161.1L160.316 89.456C160.326 88.9653 160.225 88.5333 160.012 88.16C159.798 87.7867 159.505 87.4933 159.132 87.28C158.769 87.0667 158.348 86.96 157.868 86.96C157.377 86.96 156.945 87.0667 156.572 87.28C156.209 87.4933 155.921 87.792 155.708 88.176C155.505 88.5493 155.404 88.992 155.404 89.504V89.824C155.404 90.336 155.521 90.7893 155.756 91.184C155.99 91.5787 156.321 91.8827 156.748 92.096C157.174 92.3093 157.665 92.416 158.22 92.416C158.7 92.416 159.132 92.3413 159.516 92.192C159.9 92.0427 160.241 91.808 160.54 91.488L161.612 92.72C161.228 93.168 160.742 93.5147 160.156 93.76C159.58 93.9947 158.918 94.112 158.172 94.112Z" fill="white"/>
<path d="M70.596 120V110.2H74.586C75.6313 110.2 76.546 110.41 77.33 110.83C78.1233 111.241 78.7393 111.815 79.178 112.552C79.6167 113.289 79.836 114.139 79.836 115.1C79.836 116.061 79.6167 116.911 79.178 117.648C78.7393 118.385 78.1233 118.964 77.33 119.384C76.546 119.795 75.6313 120 74.586 120H70.596ZM71.632 119.104H74.53C75.398 119.104 76.1493 118.936 76.784 118.6C77.428 118.255 77.9273 117.783 78.282 117.186C78.6367 116.579 78.814 115.884 78.814 115.1C78.814 114.307 78.6367 113.611 78.282 113.014C77.9273 112.417 77.428 111.95 76.784 111.614C76.1493 111.269 75.398 111.096 74.53 111.096H71.632V119.104ZM86.5584 120V118.376L86.5164 118.11V115.394C86.5164 114.769 86.3391 114.288 85.9844 113.952C85.6391 113.616 85.1211 113.448 84.4304 113.448C83.9544 113.448 83.5017 113.527 83.0724 113.686C82.6431 113.845 82.2791 114.055 81.9804 114.316L81.5324 113.574C81.9057 113.257 82.3537 113.014 82.8764 112.846C83.3991 112.669 83.9497 112.58 84.5284 112.58C85.4804 112.58 86.2131 112.818 86.7264 113.294C87.2491 113.761 87.5104 114.475 87.5104 115.436V120H86.5584ZM84.0244 120.07C83.4737 120.07 82.9931 119.981 82.5824 119.804C82.1811 119.617 81.8731 119.365 81.6584 119.048C81.4437 118.721 81.3364 118.348 81.3364 117.928C81.3364 117.545 81.4251 117.2 81.6024 116.892C81.7891 116.575 82.0877 116.323 82.4984 116.136C82.9184 115.94 83.4784 115.842 84.1784 115.842H86.7124V116.584H84.2064C83.4971 116.584 83.0024 116.71 82.7224 116.962C82.4517 117.214 82.3164 117.527 82.3164 117.9C82.3164 118.32 82.4797 118.656 82.8064 118.908C83.1331 119.16 83.5904 119.286 84.1784 119.286C84.7384 119.286 85.2191 119.16 85.6204 118.908C86.0311 118.647 86.3297 118.273 86.5164 117.788L86.7404 118.474C86.5537 118.959 86.2271 119.347 85.7604 119.636C85.3031 119.925 84.7244 120.07 84.0244 120.07ZM92.1842 120.07C91.5776 120.07 91.0036 119.986 90.4622 119.818C89.9209 119.641 89.4962 119.421 89.1882 119.16L89.6362 118.376C89.9349 118.6 90.3176 118.796 90.7842 118.964C91.2509 119.123 91.7409 119.202 92.2542 119.202C92.9542 119.202 93.4582 119.095 93.7662 118.88C94.0742 118.656 94.2282 118.362 94.2282 117.998C94.2282 117.727 94.1396 117.517 93.9622 117.368C93.7942 117.209 93.5702 117.093 93.2902 117.018C93.0102 116.934 92.6976 116.864 92.3522 116.808C92.0069 116.752 91.6616 116.687 91.3162 116.612C90.9802 116.537 90.6722 116.43 90.3922 116.29C90.1122 116.141 89.8836 115.94 89.7062 115.688C89.5382 115.436 89.4542 115.1 89.4542 114.68C89.4542 114.279 89.5662 113.919 89.7902 113.602C90.0142 113.285 90.3409 113.037 90.7702 112.86C91.2089 112.673 91.7409 112.58 92.3662 112.58C92.8422 112.58 93.3182 112.645 93.7942 112.776C94.2702 112.897 94.6622 113.061 94.9702 113.266L94.5362 114.064C94.2096 113.84 93.8596 113.681 93.4862 113.588C93.1129 113.485 92.7396 113.434 92.3662 113.434C91.7036 113.434 91.2136 113.551 90.8962 113.784C90.5882 114.008 90.4342 114.297 90.4342 114.652C90.4342 114.932 90.5182 115.151 90.6862 115.31C90.8636 115.469 91.0922 115.595 91.3722 115.688C91.6616 115.772 91.9742 115.842 92.3102 115.898C92.6556 115.954 92.9962 116.024 93.3322 116.108C93.6776 116.183 93.9902 116.29 94.2702 116.43C94.5596 116.561 94.7882 116.752 94.9562 117.004C95.1336 117.247 95.2222 117.569 95.2222 117.97C95.2222 118.399 95.1009 118.773 94.8582 119.09C94.6249 119.398 94.2796 119.641 93.8222 119.818C93.3742 119.986 92.8282 120.07 92.1842 120.07ZM100.798 112.58C101.395 112.58 101.918 112.697 102.366 112.93C102.823 113.154 103.178 113.499 103.43 113.966C103.691 114.433 103.822 115.021 103.822 115.73V120H102.828V115.828C102.828 115.053 102.632 114.47 102.24 114.078C101.857 113.677 101.316 113.476 100.616 113.476C100.093 113.476 99.6362 113.583 99.2442 113.798C98.8615 114.003 98.5628 114.307 98.3482 114.708C98.1428 115.1 98.0402 115.576 98.0402 116.136V120H97.0462V109.612H98.0402V114.666L97.8442 114.288C98.0775 113.756 98.4508 113.341 98.9642 113.042C99.4775 112.734 100.089 112.58 100.798 112.58ZM110.301 120.07C109.657 120.07 109.078 119.925 108.565 119.636C108.052 119.337 107.646 118.908 107.347 118.348C107.048 117.788 106.899 117.111 106.899 116.318C106.899 115.515 107.048 114.839 107.347 114.288C107.655 113.728 108.066 113.303 108.579 113.014C109.092 112.725 109.666 112.58 110.301 112.58C111.001 112.58 111.626 112.739 112.177 113.056C112.737 113.364 113.176 113.798 113.493 114.358C113.81 114.918 113.969 115.571 113.969 116.318C113.969 117.055 113.81 117.709 113.493 118.278C113.176 118.838 112.737 119.277 112.177 119.594C111.626 119.911 111.001 120.07 110.301 120.07ZM106.507 120V109.612H107.501V114.82L107.361 116.304L107.459 117.788V120H106.507ZM110.231 119.188C110.754 119.188 111.22 119.071 111.631 118.838C112.042 118.595 112.368 118.259 112.611 117.83C112.854 117.391 112.975 116.887 112.975 116.318C112.975 115.739 112.854 115.235 112.611 114.806C112.368 114.377 112.042 114.045 111.631 113.812C111.22 113.569 110.754 113.448 110.231 113.448C109.708 113.448 109.237 113.569 108.817 113.812C108.406 114.045 108.08 114.377 107.837 114.806C107.604 115.235 107.487 115.739 107.487 116.318C107.487 116.887 107.604 117.391 107.837 117.83C108.08 118.259 108.406 118.595 108.817 118.838C109.237 119.071 109.708 119.188 110.231 119.188ZM118.991 120.07C118.282 120.07 117.643 119.911 117.073 119.594C116.513 119.267 116.07 118.824 115.743 118.264C115.417 117.695 115.253 117.046 115.253 116.318C115.253 115.581 115.417 114.932 115.743 114.372C116.07 113.812 116.513 113.373 117.073 113.056C117.633 112.739 118.273 112.58 118.991 112.58C119.719 112.58 120.363 112.739 120.923 113.056C121.493 113.373 121.936 113.812 122.253 114.372C122.58 114.932 122.743 115.581 122.743 116.318C122.743 117.046 122.58 117.695 122.253 118.264C121.936 118.824 121.493 119.267 120.923 119.594C120.354 119.911 119.71 120.07 118.991 120.07ZM118.991 119.188C119.523 119.188 119.995 119.071 120.405 118.838C120.816 118.595 121.138 118.259 121.371 117.83C121.614 117.391 121.735 116.887 121.735 116.318C121.735 115.739 121.614 115.235 121.371 114.806C121.138 114.377 120.816 114.045 120.405 113.812C119.995 113.569 119.528 113.448 119.005 113.448C118.483 113.448 118.016 113.569 117.605 113.812C117.195 114.045 116.868 114.377 116.625 114.806C116.383 115.235 116.261 115.739 116.261 116.318C116.261 116.887 116.383 117.391 116.625 117.83C116.868 118.259 117.195 118.595 117.605 118.838C118.016 119.071 118.478 119.188 118.991 119.188ZM129.338 120V118.376L129.296 118.11V115.394C129.296 114.769 129.118 114.288 128.764 113.952C128.418 113.616 127.9 113.448 127.21 113.448C126.734 113.448 126.281 113.527 125.852 113.686C125.422 113.845 125.058 114.055 124.76 114.316L124.312 113.574C124.685 113.257 125.133 113.014 125.656 112.846C126.178 112.669 126.729 112.58 127.308 112.58C128.26 112.58 128.992 112.818 129.506 113.294C130.028 113.761 130.29 114.475 130.29 115.436V120H129.338ZM126.804 120.07C126.253 120.07 125.772 119.981 125.362 119.804C124.96 119.617 124.652 119.365 124.438 119.048C124.223 118.721 124.116 118.348 124.116 117.928C124.116 117.545 124.204 117.2 124.382 116.892C124.568 116.575 124.867 116.323 125.278 116.136C125.698 115.94 126.258 115.842 126.958 115.842H129.492V116.584H126.986C126.276 116.584 125.782 116.71 125.502 116.962C125.231 117.214 125.096 117.527 125.096 117.9C125.096 118.32 125.259 118.656 125.586 118.908C125.912 119.16 126.37 119.286 126.958 119.286C127.518 119.286 127.998 119.16 128.4 118.908C128.81 118.647 129.109 118.273 129.296 117.788L129.52 118.474C129.333 118.959 129.006 119.347 128.54 119.636C128.082 119.925 127.504 120.07 126.804 120.07ZM132.99 120V112.65H133.942V114.652L133.844 114.302C134.049 113.742 134.394 113.317 134.88 113.028C135.365 112.729 135.967 112.58 136.686 112.58V113.546C136.648 113.546 136.611 113.546 136.574 113.546C136.536 113.537 136.499 113.532 136.462 113.532C135.687 113.532 135.08 113.77 134.642 114.246C134.203 114.713 133.984 115.38 133.984 116.248V120H132.99ZM141.357 120.07C140.657 120.07 140.027 119.911 139.467 119.594C138.916 119.277 138.482 118.838 138.165 118.278C137.848 117.709 137.689 117.055 137.689 116.318C137.689 115.571 137.848 114.918 138.165 114.358C138.482 113.798 138.916 113.364 139.467 113.056C140.027 112.739 140.657 112.58 141.357 112.58C142.001 112.58 142.575 112.725 143.079 113.014C143.592 113.303 143.998 113.728 144.297 114.288C144.605 114.839 144.759 115.515 144.759 116.318C144.759 117.111 144.61 117.788 144.311 118.348C144.012 118.908 143.606 119.337 143.093 119.636C142.589 119.925 142.01 120.07 141.357 120.07ZM141.427 119.188C141.95 119.188 142.416 119.071 142.827 118.838C143.247 118.595 143.574 118.259 143.807 117.83C144.05 117.391 144.171 116.887 144.171 116.318C144.171 115.739 144.05 115.235 143.807 114.806C143.574 114.377 143.247 114.045 142.827 113.812C142.416 113.569 141.95 113.448 141.427 113.448C140.914 113.448 140.452 113.569 140.041 113.812C139.63 114.045 139.304 114.377 139.061 114.806C138.818 115.235 138.697 115.739 138.697 116.318C138.697 116.887 138.818 117.391 139.061 117.83C139.304 118.259 139.63 118.595 140.041 118.838C140.452 119.071 140.914 119.188 141.427 119.188ZM144.199 120V117.788L144.297 116.304L144.157 114.82V109.612H145.151V120H144.199Z" fill="white"/>
</svg>
