<svg width="420" height="320" viewBox="0 0 420 320" fill="none" xmlns="http://www.w3.org/2000/svg">
<rect x="63" y="43" width="257.407" height="188.992" stroke="#C6C6C6" stroke-width="2" stroke-linejoin="round" stroke-dasharray="3 3"/>
<rect x="89" y="68" width="268.26" height="202.564" fill="#F1F1F1"/>
<rect x="95.5703" y="97.5625" width="255.121" height="168.621" fill="white"/>
<rect x="333.172" y="81.1387" width="16.4241" height="4.37976" rx="2.18988" fill="#C4C4C4"/>
<circle cx="98.3077" cy="82.7823" r="2.73735" fill="#C4C4C4"/>
<circle cx="105.972" cy="82.7823" r="2.73735" fill="#C4C4C4"/>
<circle cx="113.636" cy="82.7823" r="2.73735" fill="#C4C4C4"/>
<path d="M142 144L302 221.5" stroke="#FFB422" stroke-width="4"/>
<path d="M213.5 238.5L226 115.5" stroke="#FFB422" stroke-width="4"/>
<path d="M139.5 230.5L301.5 143.5" stroke="#FFB422" stroke-width="4"/>
<g filter="url(#filter0_d_1043_25642)">
<rect x="187" y="142" width="70" height="70" rx="35" fill="#5236FF"/>
</g>
<rect x="283" y="203" width="40" height="40" rx="20" fill="#F1F1F1"/>
<rect x="121" y="119" width="42" height="42" rx="21" fill="#F1F1F1"/>
<rect x="123" y="215" width="36" height="36" rx="18" fill="#F1F1F1"/>
<rect x="279" y="124" width="36" height="36" rx="18" fill="#F1F1F1"/>
<rect x="201" y="229" width="24" height="24" rx="12" fill="#F1F1F1"/>
<rect x="214" y="103" width="24" height="24" rx="12" fill="#F1F1F1"/>
<g filter="url(#filter1_d_1043_25642)">
<rect x="201" y="163" width="28" height="22" rx="3" fill="white"/>
</g>
<g filter="url(#filter2_d_1043_25642)">
<rect x="215" y="170" width="28" height="22" rx="3" fill="#F0F0F0"/>
</g>
<defs>
<filter id="filter0_d_1043_25642" x="171" y="131" width="112" height="112" filterUnits="userSpaceOnUse" color-interpolation-filters="sRGB">
<feFlood flood-opacity="0" result="BackgroundImageFix"/>
<feColorMatrix in="SourceAlpha" type="matrix" values="0 0 0 0 0 0 0 0 0 0 0 0 0 0 0 0 0 0 127 0" result="hardAlpha"/>
<feOffset dx="5" dy="10"/>
<feGaussianBlur stdDeviation="10.5"/>
<feComposite in2="hardAlpha" operator="out"/>
<feColorMatrix type="matrix" values="0 0 0 0 0.700272 0 0 0 0 0.700272 0 0 0 0 0.700272 0 0 0 0.25 0"/>
<feBlend mode="normal" in2="BackgroundImageFix" result="effect1_dropShadow_1043_25642"/>
<feBlend mode="normal" in="SourceGraphic" in2="effect1_dropShadow_1043_25642" result="shape"/>
</filter>
<filter id="filter1_d_1043_25642" x="197" y="163" width="36" height="30" filterUnits="userSpaceOnUse" color-interpolation-filters="sRGB">
<feFlood flood-opacity="0" result="BackgroundImageFix"/>
<feColorMatrix in="SourceAlpha" type="matrix" values="0 0 0 0 0 0 0 0 0 0 0 0 0 0 0 0 0 0 127 0" result="hardAlpha"/>
<feOffset dy="4"/>
<feGaussianBlur stdDeviation="2"/>
<feComposite in2="hardAlpha" operator="out"/>
<feColorMatrix type="matrix" values="0 0 0 0 0 0 0 0 0 0 0 0 0 0 0 0 0 0 0.25 0"/>
<feBlend mode="normal" in2="BackgroundImageFix" result="effect1_dropShadow_1043_25642"/>
<feBlend mode="normal" in="SourceGraphic" in2="effect1_dropShadow_1043_25642" result="shape"/>
</filter>
<filter id="filter2_d_1043_25642" x="211" y="170" width="36" height="30" filterUnits="userSpaceOnUse" color-interpolation-filters="sRGB">
<feFlood flood-opacity="0" result="BackgroundImageFix"/>
<feColorMatrix in="SourceAlpha" type="matrix" values="0 0 0 0 0 0 0 0 0 0 0 0 0 0 0 0 0 0 127 0" result="hardAlpha"/>
<feOffset dy="4"/>
<feGaussianBlur stdDeviation="2"/>
<feComposite in2="hardAlpha" operator="out"/>
<feColorMatrix type="matrix" values="0 0 0 0 0 0 0 0 0 0 0 0 0 0 0 0 0 0 0.25 0"/>
<feBlend mode="normal" in2="BackgroundImageFix" result="effect1_dropShadow_1043_25642"/>
<feBlend mode="normal" in="SourceGraphic" in2="effect1_dropShadow_1043_25642" result="shape"/>
</filter>
</defs>
</svg>
