<svg width="420" height="320" viewBox="0 0 420 320" fill="none" xmlns="http://www.w3.org/2000/svg">
<rect x="74.0566" y="42" width="257.407" height="188.992" stroke="#C6C6C6" stroke-width="2" stroke-linejoin="round" stroke-dasharray="3 3"/>
<rect x="97.7617" y="74.9512" width="259.182" height="195.709" fill="#F1F1F1"/>
<rect x="104.109" y="103.514" width="246.487" height="162.914" fill="white"/>
<rect x="124.209" y="124.672" width="204.172" height="118.483" rx="8" fill="#5236FF"/>
<rect x="333.67" y="87.6465" width="15.8683" height="4.23154" rx="2.11577" fill="#C4C4C4"/>
<circle cx="106.754" cy="89.2326" r="2.64471" fill="#C4C4C4"/>
<circle cx="114.158" cy="89.2326" r="2.64471" fill="#C4C4C4"/>
<circle cx="121.565" cy="89.2326" r="2.64471" fill="#C4C4C4"/>
<path d="M158.876 188.721C154.819 186.242 149.016 212.949 146.621 226.612L316.635 226.893C316.541 226.565 316.297 225.823 316.072 225.485C315.931 224.358 315.227 223.231 312.832 219.851C308.663 216.357 304.897 216.986 303.535 217.738C303.066 218.019 301.676 218.836 299.873 219.851C297.394 220.527 295.741 218.442 295.225 217.315C294.802 216.564 293.535 213.85 291.844 209.005C290.492 204.159 288.276 205.389 287.337 206.61C286.961 206.939 285.872 207.878 284.52 209.005C282.153 209.568 280.623 205.859 280.153 203.934C279.167 200.694 276.885 193.51 275.646 190.693C273.956 187.876 271.655 189.238 270.716 190.271C269.354 192.383 266.377 196.975 265.363 198.44C264.349 199.905 263.157 199.896 262.687 199.708C262.264 199.52 261.138 198.891 260.011 197.877C258.884 197.201 257.663 197.595 257.194 197.877C256.818 198.206 255.87 199.032 255.081 199.708C254.095 199.567 254.095 199.708 253.531 199.145C252.743 198.694 251.231 194.168 250.573 191.961C250.339 191.21 249.587 189.2 248.46 187.172C245.418 184.58 243.53 192.853 242.967 197.313C242.404 201.351 241.249 209.822 241.136 211.399C240.995 213.371 240.291 215.343 239.727 217.315C239.023 218.724 238.46 218.16 237.755 217.738C236.516 215.146 234.328 213.371 233.389 212.808C231.745 212.15 228.093 210.554 226.628 209.427C225.163 208.3 223.576 208.676 222.965 209.005C222.543 209.333 221.331 209.991 219.867 209.991C217.838 209.991 216.298 207.079 215.782 205.624C214.984 204.028 213.246 200.497 212.683 199.145C211.979 197.454 211.133 196.046 209.443 194.215C206.767 192.383 205.077 194.637 203.809 196.046C201.978 197.173 200.851 195.905 199.865 194.215C198.738 192.862 196.766 186.327 195.921 183.228C195.545 182.195 194.372 179.171 192.681 175.34C190.315 171.621 187.657 175.481 186.624 177.875C184.371 183.181 179.666 194.13 178.877 195.482C177.891 197.173 177.328 197.313 175.638 197.313C173.835 197.426 170.755 194.074 169.44 192.383C168.97 192.055 167.862 191.51 167.186 191.961C165.609 193.764 164.369 193.182 163.946 192.665C162.726 191.491 160.002 189.059 158.876 188.721Z" fill="url(#paint0_linear_1043_25675)" style="mix-blend-mode:multiply"/>
<path d="M316.374 226.893C316.084 226.893 315.82 226.713 315.73 226.43C313.39 218.979 308.818 217.864 306.305 217.864C304.591 217.864 303.167 218.68 301.906 219.395C300.699 220.086 299.566 220.73 298.359 220.557C294.994 220.07 293.497 215.705 292.164 211.849C291.184 208.999 290.177 206.055 288.78 206.102C288.309 206.118 287.728 206.832 287.175 207.515C286.349 208.528 285.415 209.682 284.018 209.682C281.025 209.682 279.592 204.689 278.077 199.405C276.798 194.937 275.337 189.865 273.224 189.731C271.582 189.606 270.013 192.425 268.58 194.89C266.757 198.015 264.87 201.242 262.276 200.363C261.514 200.103 260.96 199.609 260.47 199.177C259.835 198.612 259.309 198.164 258.493 198.203C257.622 198.25 257.069 198.776 256.488 199.334C255.917 199.884 255.264 200.512 254.329 200.386C252.624 200.158 251.726 197.379 250.583 193.861C249.712 191.16 248.515 187.462 247.291 187.462C244.932 187.462 243.608 197.866 242.737 204.744C241.54 214.15 240.85 219.049 238.519 218.798C237.712 218.704 237.276 217.997 236.777 217.165C236.215 216.239 235.444 214.967 233.839 213.859C233.24 213.451 232.959 213.349 232.451 213.176C231.952 213.004 231.281 212.776 230.056 212.156C228.577 211.41 227.652 210.789 226.972 210.342C226.11 209.769 225.684 209.478 224.886 209.376C223.843 209.243 223.28 209.572 222.618 209.957C222.092 210.263 221.493 210.617 220.659 210.695C217.185 211.017 215.171 206.44 213.23 202.011C211.552 198.203 209.819 194.254 207.524 194.254C206.454 194.254 205.873 194.851 205.211 195.542C204.504 196.272 203.714 197.104 202.308 197.104C199.397 197.104 197.71 191.663 195.75 185.366C194.235 180.482 192.349 174.405 190.362 174.405C188.666 174.405 187.133 178.26 185.183 183.144C183.822 186.551 182.135 190.799 179.84 195.094C178.942 196.782 177.908 197.701 176.674 197.897C175.214 198.141 173.545 197.34 171.44 195.377C171.105 195.063 170.769 194.678 170.434 194.277C169.617 193.32 168.828 192.409 167.921 192.487C167.486 192.519 167.223 192.746 166.878 193.029C166.479 193.359 165.98 193.767 165.209 193.806C163.83 193.838 162.705 192.637 161.617 191.443C160.61 190.344 159.567 189.205 158.505 189.205C155.857 189.205 152.537 200.308 147.403 226.336C147.321 226.713 146.967 226.948 146.605 226.877C146.242 226.807 145.997 226.461 146.069 226.1C152.437 193.806 155.258 187.894 158.496 187.894C160.156 187.894 161.463 189.315 162.605 190.572C163.485 191.537 164.438 192.527 165.136 192.495C165.445 192.479 165.644 192.33 165.998 192.032C166.415 191.686 166.941 191.247 167.803 191.184C169.427 191.066 170.506 192.322 171.459 193.445C171.758 193.799 172.057 194.152 172.357 194.435C174.107 196.06 175.441 196.774 176.438 196.609C177.228 196.476 177.944 195.785 178.634 194.497C180.892 190.265 182.57 186.057 183.913 182.673C186.226 176.902 187.75 173.086 190.362 173.086C193.337 173.086 195.052 178.598 197.038 184.981C198.535 189.794 200.394 195.785 202.308 195.785C203.088 195.785 203.551 195.353 204.231 194.639C204.966 193.877 205.873 192.935 207.524 192.935C210.699 192.935 212.522 197.088 214.463 201.485C216.223 205.474 218.028 209.596 220.532 209.376C221.058 209.329 221.466 209.094 221.929 208.819C222.654 208.395 223.552 207.869 225.058 208.065C226.174 208.206 226.827 208.646 227.725 209.251C228.405 209.706 229.258 210.279 230.664 210.986C231.807 211.559 232.414 211.771 232.895 211.936C233.43 212.124 233.866 212.266 234.61 212.784C236.451 214.048 237.349 215.524 237.939 216.498C238.174 216.882 238.528 217.471 238.673 217.487C239.798 217.181 240.769 209.604 241.404 204.587C242.819 193.445 243.998 186.143 247.3 186.143C249.513 186.143 250.656 189.7 251.88 193.469C252.588 195.659 253.658 198.965 254.52 199.083C254.792 199.114 255.091 198.847 255.554 198.392C256.189 197.787 257.051 196.955 258.429 196.884C259.826 196.814 260.652 197.544 261.387 198.195C261.822 198.58 262.23 198.941 262.729 199.114C264.28 199.64 265.877 196.884 267.428 194.23C269.142 191.294 270.947 188.263 273.324 188.412C276.39 188.601 277.841 193.673 279.383 199.043C280.635 203.409 282.05 208.355 284.027 208.355C284.771 208.355 285.46 207.508 286.132 206.683C286.876 205.764 287.647 204.814 288.735 204.775C291.084 204.689 292.2 207.806 293.452 211.425C294.658 214.919 296.019 218.877 298.568 219.246C299.312 219.356 300.201 218.845 301.244 218.249C302.577 217.487 304.237 216.537 306.314 216.537C308.636 216.537 314.333 217.463 317.027 226.037C317.136 226.391 316.936 226.76 316.582 226.87C316.51 226.885 316.437 226.893 316.374 226.893Z" fill="#49BAFD"/>
<path d="M153.101 216.751C150.396 216.976 147.56 223.512 146.48 226.751C201.462 226.798 312.438 226.892 316.494 226.892C316.494 225.202 316.213 222.432 316.072 221.258C315.931 220.742 315.537 219.342 315.086 217.877C313.959 215.173 312.175 214.403 311.424 214.356C310.86 214.262 309.48 213.99 308.466 213.652C306.775 212.976 305.038 210.083 304.381 208.722L302.972 205.2C302.033 203.087 300.014 198.58 299.451 197.453C298.606 196.045 298.324 195.904 297.338 195.481C295.422 195.03 293.159 200.083 292.267 202.665L289.732 209.567L287.901 214.919C287.149 216.657 285.534 220.272 285.083 220.835C284.52 221.54 284.238 221.399 283.534 220.695C281.956 219.23 280.623 219.427 280.153 219.709C279.966 219.802 279.365 220.075 278.463 220.413C277.336 221.089 276.116 219.474 275.646 218.582C275.036 217.549 273.477 215.088 272.125 213.511C270.434 211.539 269.307 211.821 268.603 211.821C267.364 211.821 265.457 213.511 264.659 214.356C264.471 214.591 263.617 215.37 261.701 216.61C259.786 217.849 257.429 216.093 256.49 215.06L253.532 210.975C253.203 210.6 252.292 209.68 251.278 209.003C249.024 207.595 246.911 210.13 245.784 211.539C245.221 212.666 244.141 212.572 243.672 212.384C243.39 212.29 242.517 211.595 241.277 209.567C239.812 206.862 238.319 201.491 237.756 199.144L234.516 184.776L231.558 171.395C231.323 170.221 230.6 167.085 229.586 163.929C228.318 159.985 227.614 160.267 226.769 159.985C225.078 159.985 223.623 164.493 223.106 166.746C221.98 171.536 219.585 181.734 219.022 184.213C218.571 186.579 216.956 191.115 216.205 193.087C216.158 193.228 215.726 194.044 214.373 196.186C212.401 198.721 211.556 197.453 210.007 196.186C207.302 193.594 204.748 196.045 203.809 197.594L201.274 202.383C201.039 202.712 200.344 203.651 199.443 204.778C197.076 206.468 195.17 204.919 194.513 203.933L190.005 197.172C189.63 196.702 188.597 195.481 187.47 194.354C185.779 193.368 184.653 193.932 183.807 194.354C181.272 195.2 178.173 203.651 177.046 206.186C176.145 208.215 174.699 210.694 174.088 211.68C173.994 211.774 173.525 212.271 172.398 213.511C171.271 214.75 169.769 214.497 169.158 214.215C168.83 214.027 167.665 213.37 165.637 212.243C162.82 211.539 161.13 217.032 160.144 218.3C159.017 219.568 158.594 219.004 157.608 218.441C154.509 216.328 154.368 216.751 153.101 216.751Z" fill="url(#paint1_linear_1043_25675)" style="mix-blend-mode:multiply"/>
<path d="M146.727 226.884C146.645 226.884 146.554 226.866 146.473 226.831C146.128 226.672 145.965 226.239 146.11 225.859C148.623 219.104 151.063 215.82 153.576 215.82C155.281 215.82 156.415 216.676 157.331 217.365C158.093 217.939 158.538 218.257 159.019 218.133C159.844 217.93 160.325 216.862 160.887 215.634C161.495 214.292 162.185 212.773 163.564 211.952C165.224 210.972 166.548 211.802 167.709 212.535C168.453 213.003 169.161 213.453 169.986 213.506C172.889 213.718 175.139 208.65 177.307 203.74C179.657 198.425 181.879 193.409 185.381 193.127C188.347 192.879 190.334 196.199 192.276 199.396C194.072 202.363 195.768 205.171 197.855 204.65C199.433 204.252 200.531 202.221 201.692 200.067C203.134 197.383 204.631 194.61 207.398 194.442C208.976 194.336 209.902 195.193 210.655 195.873C211.244 196.411 211.634 196.738 212.152 196.738H212.161C215.336 196.738 218.003 185.286 220.144 176.085C222.62 165.383 224.153 159.325 226.703 159.281C226.712 159.281 226.721 159.281 226.73 159.281C229.733 159.281 231.683 167.952 234.867 183.255C237.344 195.193 240.746 211.537 244.193 211.537C244.202 211.537 244.211 211.537 244.211 211.537C244.81 211.528 245.345 210.919 245.971 210.221C246.914 209.162 248.066 207.829 250.08 207.926C252.557 208.023 253.936 210.133 255.26 212.173C256.449 213.992 257.564 215.705 259.397 216.155C261.411 216.65 262.853 215.21 264.386 213.683C265.974 212.102 267.779 210.301 270.247 211.246C272.342 212.049 273.785 214.398 275.064 216.473C276.461 218.742 277.386 220.093 278.375 219.784C278.584 219.714 278.801 219.581 279.055 219.431C279.672 219.051 280.443 218.592 281.577 218.778C282.648 218.954 283.265 219.599 283.718 220.067C283.872 220.226 284.063 220.42 284.145 220.455C285.061 220.747 287.601 213.427 288.826 209.895C291.982 200.782 294.278 194.787 297.117 194.787C297.144 194.787 297.181 194.787 297.208 194.787C299.403 194.884 300.963 198.672 302.769 203.06C304.628 207.581 306.742 212.694 309.409 213.197C309.482 213.206 309.591 213.215 309.736 213.232C310.561 213.303 312.276 213.444 313.473 214.504C315.106 215.952 317.057 219.14 317.057 226.151C317.057 226.566 316.757 226.892 316.385 226.892C316.013 226.892 315.714 226.557 315.714 226.151C315.714 219.74 314.045 216.915 312.639 215.67C311.759 214.892 310.325 214.778 309.636 214.725C309.436 214.707 309.282 214.698 309.182 214.672C305.808 214.045 303.64 208.773 301.544 203.687C300.129 200.244 298.514 196.341 297.153 196.279C297.144 196.279 297.126 196.279 297.117 196.279C294.985 196.279 292.155 204.455 290.087 210.433C287.311 218.442 285.768 222.592 283.736 221.886C283.364 221.753 283.074 221.453 282.793 221.171C282.412 220.782 282.031 220.376 281.369 220.27C280.688 220.155 280.226 220.438 279.699 220.756C279.4 220.932 279.092 221.126 278.747 221.232C276.742 221.868 275.39 219.67 273.957 217.33C272.805 215.449 271.499 213.312 269.82 212.676C268.097 212.023 266.799 213.312 265.303 214.813C263.67 216.438 261.81 218.283 259.125 217.63C256.793 217.056 255.405 214.937 254.181 213.065C252.938 211.149 251.858 209.506 250.044 209.436C248.665 209.391 247.812 210.31 246.932 211.29C246.17 212.146 245.39 213.029 244.238 213.047C240.047 213.091 237.262 201.444 233.561 183.608C231.556 173.974 228.825 160.791 226.739 160.791H226.73C225.079 160.818 222.974 169.877 221.432 176.482C218.828 187.678 216.361 198.257 212.143 198.257C212.133 198.257 212.133 198.257 212.124 198.257C211.108 198.248 210.401 197.612 209.784 197.056C209.094 196.429 208.496 195.899 207.452 195.961C205.411 196.085 204.159 198.407 202.835 200.862C201.583 203.193 200.286 205.595 198.145 206.133C195.16 206.875 193.128 203.511 191.151 200.261C189.427 197.418 187.658 194.504 185.472 194.645C182.741 194.866 180.591 199.723 178.514 204.429C176.146 209.771 173.706 215.316 169.896 215.025C168.771 214.945 167.855 214.363 167.047 213.859C165.877 213.118 165.169 212.729 164.199 213.294C163.201 213.886 162.638 215.122 162.094 216.323C161.441 217.762 160.77 219.246 159.318 219.608C158.257 219.873 157.404 219.237 156.578 218.619C155.735 217.983 154.864 217.33 153.576 217.33C152.514 217.33 150.301 218.513 147.352 226.451C147.244 226.707 146.99 226.884 146.727 226.884Z" fill="#FFD546"/>
<rect x="281.561" y="159" width="16.9028" height="67.8929" fill="url(#paint2_linear_1043_25675)"/>
<path d="M289.871 199.285L291.7 202.454H288.041L289.871 199.285Z" fill="white"/>
<path d="M289.871 190.271L291.7 193.44H288.041L289.871 190.271Z" fill="white"/>
<path d="M289.871 181.256L291.7 184.425H288.041L289.871 181.256Z" fill="white"/>
<path d="M289.871 172.24L291.7 175.41H288.041L289.871 172.24Z" fill="white"/>
<path d="M289.871 163.508L291.7 166.677H288.041L289.871 163.508Z" fill="white"/>
<circle cx="290.012" cy="206.327" r="2.5" fill="white" stroke="#FF358A" stroke-width="0.0708399"/>
<g filter="url(#filter0_d_1043_25675)">
<rect x="63.0566" y="187" width="118.429" height="90.887" rx="9" fill="white"/>
</g>
<rect x="73.1562" y="200.771" width="42.2303" height="3.6722" rx="1.8361" fill="#F1F1F1"/>
<rect x="73.1562" y="207.197" width="18.361" height="3.6722" rx="1.8361" fill="#F1F1F1"/>
<rect x="152.107" y="264.116" width="18.361" height="3.6722" rx="1.8361" fill="#F1F1F1"/>
<path d="M100.457 236C99.1312 236 98.0442 234.923 98.1765 233.604C98.5868 229.514 100.042 225.584 102.421 222.2C105.261 218.159 109.279 215.092 113.927 213.419C118.574 211.746 123.625 211.547 128.39 212.851C133.154 214.154 137.4 216.896 140.549 220.702C143.698 224.508 145.595 229.193 145.983 234.117C146.37 239.041 145.229 243.965 142.714 248.217C140.2 252.469 136.435 255.841 131.933 257.874C128.163 259.576 124.029 260.269 119.936 259.906C118.615 259.789 117.761 258.519 118.009 257.217C118.258 255.915 119.516 255.077 120.838 255.161C123.956 255.36 127.088 254.794 129.958 253.499C133.559 251.873 136.571 249.175 138.583 245.774C140.594 242.372 141.507 238.433 141.197 234.494C140.887 230.554 139.369 226.806 136.85 223.761C134.332 220.717 130.935 218.523 127.123 217.48C123.311 216.438 119.271 216.597 115.553 217.935C111.835 219.274 108.62 221.727 106.348 224.96C104.538 227.536 103.396 230.506 103.006 233.606C102.841 234.921 101.782 236 100.457 236Z" fill="#FF358A"/>
<path d="M115.225 231.54C115.433 231.54 115.593 231.6 115.705 231.72C115.817 231.832 115.873 231.98 115.873 232.164C115.873 232.348 115.817 232.54 115.705 232.74L111.877 239.688C111.717 239.96 111.497 240.096 111.217 240.096C111.025 240.096 110.853 240.032 110.701 239.904C110.557 239.768 110.485 239.604 110.485 239.412C110.485 239.276 110.525 239.14 110.605 239.004L114.049 232.788H110.425C109.945 232.788 109.705 232.584 109.705 232.176C109.705 231.752 109.945 231.54 110.425 231.54H115.225ZM121.605 235.656C122.101 235.792 122.481 236.04 122.745 236.4C123.017 236.76 123.153 237.2 123.153 237.72C123.153 238.464 122.873 239.048 122.313 239.472C121.753 239.888 120.977 240.096 119.985 240.096C118.993 240.096 118.217 239.888 117.657 239.472C117.097 239.048 116.817 238.464 116.817 237.72C116.817 237.2 116.953 236.76 117.225 236.4C117.497 236.032 117.881 235.784 118.377 235.656C117.953 235.496 117.621 235.248 117.381 234.912C117.141 234.568 117.021 234.168 117.021 233.712C117.021 233.008 117.285 232.452 117.813 232.044C118.341 231.636 119.065 231.432 119.985 231.432C120.905 231.432 121.629 231.636 122.157 232.044C122.685 232.452 122.949 233.008 122.949 233.712C122.949 234.176 122.829 234.58 122.589 234.924C122.349 235.268 122.021 235.512 121.605 235.656ZM119.985 232.644C118.985 232.644 118.485 233.052 118.485 233.868C118.485 234.276 118.609 234.588 118.857 234.804C119.113 235.012 119.489 235.116 119.985 235.116C120.481 235.116 120.853 235.012 121.101 234.804C121.357 234.588 121.485 234.276 121.485 233.868C121.485 233.052 120.985 232.644 119.985 232.644ZM119.985 238.884C121.129 238.884 121.701 238.456 121.701 237.6C121.701 236.744 121.129 236.316 119.985 236.316C118.841 236.316 118.269 236.744 118.269 237.6C118.269 238.456 118.841 238.884 119.985 238.884ZM127.564 239.832C127.492 239.96 127.404 240.056 127.3 240.12C127.196 240.184 127.092 240.216 126.988 240.216C126.844 240.216 126.716 240.164 126.604 240.06C126.5 239.956 126.448 239.824 126.448 239.664C126.448 239.528 126.488 239.392 126.568 239.256L130.936 231.708C131.008 231.58 131.096 231.484 131.2 231.42C131.304 231.356 131.408 231.324 131.512 231.324C131.656 231.324 131.78 231.376 131.884 231.48C131.996 231.584 132.052 231.716 132.052 231.876C132.052 232.012 132.012 232.148 131.932 232.284L127.564 239.832ZM126.232 236.592C125.56 236.592 125.036 236.372 124.66 235.932C124.284 235.492 124.096 234.848 124.096 234C124.096 233.16 124.284 232.52 124.66 232.08C125.036 231.64 125.56 231.42 126.232 231.42C126.904 231.42 127.428 231.64 127.804 232.08C128.188 232.52 128.38 233.16 128.38 234C128.38 234.848 128.188 235.492 127.804 235.932C127.428 236.372 126.904 236.592 126.232 236.592ZM126.232 235.62C126.536 235.62 126.756 235.496 126.892 235.248C127.036 234.992 127.108 234.576 127.108 234C127.108 233.44 127.036 233.032 126.892 232.776C126.748 232.52 126.528 232.392 126.232 232.392C125.936 232.392 125.716 232.52 125.572 232.776C125.436 233.024 125.368 233.432 125.368 234C125.368 234.576 125.436 234.992 125.572 235.248C125.716 235.496 125.936 235.62 126.232 235.62ZM132.268 240.084C131.596 240.084 131.072 239.864 130.696 239.424C130.32 238.984 130.132 238.336 130.132 237.48C130.132 236.64 130.32 236.004 130.696 235.572C131.08 235.132 131.604 234.912 132.268 234.912C132.94 234.912 133.464 235.132 133.84 235.572C134.216 236.012 134.404 236.652 134.404 237.492C134.404 238.34 134.216 238.984 133.84 239.424C133.464 239.864 132.94 240.084 132.268 240.084ZM132.268 239.112C132.564 239.112 132.784 238.988 132.928 238.74C133.072 238.484 133.144 238.068 133.144 237.492C133.144 236.932 133.072 236.524 132.928 236.268C132.784 236.012 132.564 235.884 132.268 235.884C131.972 235.884 131.752 236.012 131.608 236.268C131.464 236.524 131.392 236.932 131.392 237.492C131.392 238.068 131.464 238.484 131.608 238.74C131.752 238.988 131.972 239.112 132.268 239.112Z" fill="#141414"/>
<defs>
<filter id="filter0_d_1043_25675" x="47.0566" y="176" width="160.429" height="132.887" filterUnits="userSpaceOnUse" color-interpolation-filters="sRGB">
<feFlood flood-opacity="0" result="BackgroundImageFix"/>
<feColorMatrix in="SourceAlpha" type="matrix" values="0 0 0 0 0 0 0 0 0 0 0 0 0 0 0 0 0 0 127 0" result="hardAlpha"/>
<feOffset dx="5" dy="10"/>
<feGaussianBlur stdDeviation="10.5"/>
<feComposite in2="hardAlpha" operator="out"/>
<feColorMatrix type="matrix" values="0 0 0 0 0.700272 0 0 0 0 0.700272 0 0 0 0 0.700272 0 0 0 0.25 0"/>
<feBlend mode="normal" in2="BackgroundImageFix" result="effect1_dropShadow_1043_25675"/>
<feBlend mode="normal" in="SourceGraphic" in2="effect1_dropShadow_1043_25675" result="shape"/>
</filter>
<linearGradient id="paint0_linear_1043_25675" x1="231.628" y1="173.795" x2="231.628" y2="226.893" gradientUnits="userSpaceOnUse">
<stop stop-color="#D1EEFF"/>
<stop offset="1" stop-color="#D3EFFF" stop-opacity="0"/>
</linearGradient>
<linearGradient id="paint1_linear_1043_25675" x1="231.487" y1="159.985" x2="231.487" y2="226.892" gradientUnits="userSpaceOnUse">
<stop stop-color="#FFF0BE"/>
<stop offset="1" stop-color="#FFF8DE" stop-opacity="0"/>
</linearGradient>
<linearGradient id="paint2_linear_1043_25675" x1="290.012" y1="159" x2="290.012" y2="226.893" gradientUnits="userSpaceOnUse">
<stop stop-color="#FF358A"/>
<stop offset="1" stop-color="#C4C4C4" stop-opacity="0"/>
</linearGradient>
</defs>
</svg>
